%TF.GenerationSoftware,KiCad,Pcbnew,(6.0.6)*%
%TF.CreationDate,2022-07-04T15:46:39+03:00*%
%TF.ProjectId,gimble,67696d62-6c65-42e6-9b69-6361645f7063,0.2*%
%TF.SameCoordinates,Original*%
%TF.FileFunction,Soldermask,Bot*%
%TF.FilePolarity,Negative*%
%FSLAX46Y46*%
G04 Gerber Fmt 4.6, Leading zero omitted, Abs format (unit mm)*
G04 Created by KiCad (PCBNEW (6.0.6)) date 2022-07-04 15:46:39*
%MOMM*%
%LPD*%
G01*
G04 APERTURE LIST*
G04 Aperture macros list*
%AMRoundRect*
0 Rectangle with rounded corners*
0 $1 Rounding radius*
0 $2 $3 $4 $5 $6 $7 $8 $9 X,Y pos of 4 corners*
0 Add a 4 corners polygon primitive as box body*
4,1,4,$2,$3,$4,$5,$6,$7,$8,$9,$2,$3,0*
0 Add four circle primitives for the rounded corners*
1,1,$1+$1,$2,$3*
1,1,$1+$1,$4,$5*
1,1,$1+$1,$6,$7*
1,1,$1+$1,$8,$9*
0 Add four rect primitives between the rounded corners*
20,1,$1+$1,$2,$3,$4,$5,0*
20,1,$1+$1,$4,$5,$6,$7,0*
20,1,$1+$1,$6,$7,$8,$9,0*
20,1,$1+$1,$8,$9,$2,$3,0*%
G04 Aperture macros list end*
%ADD10C,2.500000*%
%ADD11R,0.850000X0.850000*%
%ADD12O,0.850000X0.850000*%
%ADD13R,1.700000X1.700000*%
%ADD14O,1.700000X1.700000*%
%ADD15RoundRect,0.250000X-0.620000X-0.845000X0.620000X-0.845000X0.620000X0.845000X-0.620000X0.845000X0*%
%ADD16O,1.740000X2.190000*%
%ADD17RoundRect,0.140000X-0.170000X0.140000X-0.170000X-0.140000X0.170000X-0.140000X0.170000X0.140000X0*%
%ADD18RoundRect,0.225000X0.250000X-0.225000X0.250000X0.225000X-0.250000X0.225000X-0.250000X-0.225000X0*%
%ADD19RoundRect,0.140000X-0.140000X-0.170000X0.140000X-0.170000X0.140000X0.170000X-0.140000X0.170000X0*%
%ADD20RoundRect,0.140000X0.170000X-0.140000X0.170000X0.140000X-0.170000X0.140000X-0.170000X-0.140000X0*%
%ADD21RoundRect,0.140000X0.140000X0.170000X-0.140000X0.170000X-0.140000X-0.170000X0.140000X-0.170000X0*%
G04 APERTURE END LIST*
D10*
%TO.C,REF\u002A\u002A*%
X157000000Y-72025000D03*
%TD*%
D11*
%TO.C,M500*%
X115190000Y-53680000D03*
D12*
X114190000Y-53680000D03*
X113190000Y-53680000D03*
X112190000Y-53680000D03*
X111190000Y-53680000D03*
%TD*%
D11*
%TO.C,M501*%
X106770000Y-58290000D03*
D12*
X105770000Y-58290000D03*
X104770000Y-58290000D03*
X103770000Y-58290000D03*
X102770000Y-58290000D03*
%TD*%
D13*
%TO.C,J300*%
X139475000Y-73000000D03*
D14*
X142015000Y-73000000D03*
X144555000Y-73000000D03*
%TD*%
D15*
%TO.C,J201*%
X155000000Y-54000000D03*
D16*
X157540000Y-54000000D03*
%TD*%
D11*
%TO.C,M502*%
X114170000Y-69640000D03*
D12*
X114170000Y-70640000D03*
X114170000Y-71640000D03*
X114170000Y-72640000D03*
X114170000Y-73640000D03*
%TD*%
D10*
%TO.C,REF\u002A\u002A*%
X102925000Y-52975000D03*
%TD*%
D17*
%TO.C,C309*%
X132200000Y-68920000D03*
X132200000Y-69880000D03*
%TD*%
D18*
%TO.C,C308*%
X132850000Y-59025000D03*
X132850000Y-57475000D03*
%TD*%
D19*
%TO.C,C304*%
X135695000Y-65000000D03*
X136655000Y-65000000D03*
%TD*%
D20*
%TO.C,C310*%
X130600000Y-58455000D03*
X130600000Y-57495000D03*
%TD*%
D21*
%TO.C,C305*%
X126255000Y-64975000D03*
X125295000Y-64975000D03*
%TD*%
D20*
%TO.C,C307*%
X131600000Y-58455000D03*
X131600000Y-57495000D03*
%TD*%
D19*
%TO.C,C306*%
X135745000Y-60325000D03*
X136705000Y-60325000D03*
%TD*%
%TO.C,C301*%
X135745000Y-61375000D03*
X136705000Y-61375000D03*
%TD*%
D18*
%TO.C,C300*%
X134375000Y-59025000D03*
X134375000Y-57475000D03*
%TD*%
D21*
%TO.C,C302*%
X126355000Y-61325000D03*
X125395000Y-61325000D03*
%TD*%
D17*
%TO.C,C303*%
X131200000Y-68920000D03*
X131200000Y-69880000D03*
%TD*%
M02*
