%FSLAX45Y45*%
G04 Gerber Fmt 4.5, Leading zero omitted, Abs format (unit mm)*
G04 Created by KiCad (PCBNEW (6.0.6)) date 2022-07-04 15:46:49*
%MOMM*%
%LPD*%
G01*
G04 APERTURE LIST*
%TA.AperFunction,Profile*%
%ADD10C,0.100000*%
%TD*%
%ADD11C,0.200000*%
%ADD12C,0.250000*%
G04 APERTURE END LIST*
D10*
X10000000Y-5000000D02*
X16000000Y-5000000D01*
X16000000Y-5000000D02*
X16000000Y-7500000D01*
X16000000Y-7500000D02*
X10000000Y-7500000D01*
X10000000Y-7500000D02*
X10000000Y-5000000D01*
D11*
D12*
X10167500Y-5172500D02*
X10417500Y-5422500D01*
X10417500Y-5172500D02*
X10167500Y-5422500D01*
X15575000Y-7077500D02*
X15825000Y-7327500D01*
X15825000Y-7077500D02*
X15575000Y-7327500D01*
D11*
X10252619Y-7815476D02*
X10252619Y-7615476D01*
X10300238Y-7615476D01*
X10328810Y-7625000D01*
X10347857Y-7644048D01*
X10357381Y-7663095D01*
X10366905Y-7701190D01*
X10366905Y-7729762D01*
X10357381Y-7767857D01*
X10347857Y-7786905D01*
X10328810Y-7805952D01*
X10300238Y-7815476D01*
X10252619Y-7815476D01*
X10452619Y-7815476D02*
X10452619Y-7682143D01*
X10452619Y-7720238D02*
X10462143Y-7701190D01*
X10471667Y-7691667D01*
X10490714Y-7682143D01*
X10509762Y-7682143D01*
X10576429Y-7815476D02*
X10576429Y-7682143D01*
X10576429Y-7615476D02*
X10566905Y-7625000D01*
X10576429Y-7634524D01*
X10585952Y-7625000D01*
X10576429Y-7615476D01*
X10576429Y-7634524D01*
X10700238Y-7815476D02*
X10681190Y-7805952D01*
X10671667Y-7786905D01*
X10671667Y-7615476D01*
X10805000Y-7815476D02*
X10785952Y-7805952D01*
X10776429Y-7786905D01*
X10776429Y-7615476D01*
X11033571Y-7815476D02*
X11033571Y-7615476D01*
X11100238Y-7758333D01*
X11166905Y-7615476D01*
X11166905Y-7815476D01*
X11347857Y-7815476D02*
X11347857Y-7710714D01*
X11338333Y-7691667D01*
X11319286Y-7682143D01*
X11281190Y-7682143D01*
X11262143Y-7691667D01*
X11347857Y-7805952D02*
X11328809Y-7815476D01*
X11281190Y-7815476D01*
X11262143Y-7805952D01*
X11252619Y-7786905D01*
X11252619Y-7767857D01*
X11262143Y-7748809D01*
X11281190Y-7739286D01*
X11328809Y-7739286D01*
X11347857Y-7729762D01*
X11443095Y-7682143D02*
X11443095Y-7882143D01*
X11443095Y-7691667D02*
X11462143Y-7682143D01*
X11500238Y-7682143D01*
X11519286Y-7691667D01*
X11528809Y-7701190D01*
X11538333Y-7720238D01*
X11538333Y-7777381D01*
X11528809Y-7796428D01*
X11519286Y-7805952D01*
X11500238Y-7815476D01*
X11462143Y-7815476D01*
X11443095Y-7805952D01*
X11624048Y-7796428D02*
X11633571Y-7805952D01*
X11624048Y-7815476D01*
X11614524Y-7805952D01*
X11624048Y-7796428D01*
X11624048Y-7815476D01*
X11624048Y-7691667D02*
X11633571Y-7701190D01*
X11624048Y-7710714D01*
X11614524Y-7701190D01*
X11624048Y-7691667D01*
X11624048Y-7710714D01*
X9795000Y-8045000D02*
X9995000Y-8245000D01*
X9995000Y-8045000D02*
X9795000Y-8245000D01*
X10243095Y-8054524D02*
X10252619Y-8045000D01*
X10271667Y-8035476D01*
X10319286Y-8035476D01*
X10338333Y-8045000D01*
X10347857Y-8054524D01*
X10357381Y-8073571D01*
X10357381Y-8092619D01*
X10347857Y-8121190D01*
X10233571Y-8235476D01*
X10357381Y-8235476D01*
X10443095Y-8216428D02*
X10452619Y-8225952D01*
X10443095Y-8235476D01*
X10433571Y-8225952D01*
X10443095Y-8216428D01*
X10443095Y-8235476D01*
X10633571Y-8035476D02*
X10538333Y-8035476D01*
X10528810Y-8130714D01*
X10538333Y-8121190D01*
X10557381Y-8111667D01*
X10605000Y-8111667D01*
X10624048Y-8121190D01*
X10633571Y-8130714D01*
X10643095Y-8149762D01*
X10643095Y-8197381D01*
X10633571Y-8216428D01*
X10624048Y-8225952D01*
X10605000Y-8235476D01*
X10557381Y-8235476D01*
X10538333Y-8225952D01*
X10528810Y-8216428D01*
X10766905Y-8035476D02*
X10785952Y-8035476D01*
X10805000Y-8045000D01*
X10814524Y-8054524D01*
X10824048Y-8073571D01*
X10833571Y-8111667D01*
X10833571Y-8159286D01*
X10824048Y-8197381D01*
X10814524Y-8216428D01*
X10805000Y-8225952D01*
X10785952Y-8235476D01*
X10766905Y-8235476D01*
X10747857Y-8225952D01*
X10738333Y-8216428D01*
X10728810Y-8197381D01*
X10719286Y-8159286D01*
X10719286Y-8111667D01*
X10728810Y-8073571D01*
X10738333Y-8054524D01*
X10747857Y-8045000D01*
X10766905Y-8035476D01*
X10957381Y-8035476D02*
X10976429Y-8035476D01*
X10995476Y-8045000D01*
X11005000Y-8054524D01*
X11014524Y-8073571D01*
X11024048Y-8111667D01*
X11024048Y-8159286D01*
X11014524Y-8197381D01*
X11005000Y-8216428D01*
X10995476Y-8225952D01*
X10976429Y-8235476D01*
X10957381Y-8235476D01*
X10938333Y-8225952D01*
X10928810Y-8216428D01*
X10919286Y-8197381D01*
X10909762Y-8159286D01*
X10909762Y-8111667D01*
X10919286Y-8073571D01*
X10928810Y-8054524D01*
X10938333Y-8045000D01*
X10957381Y-8035476D01*
X11109762Y-8235476D02*
X11109762Y-8102143D01*
X11109762Y-8121190D02*
X11119286Y-8111667D01*
X11138333Y-8102143D01*
X11166905Y-8102143D01*
X11185952Y-8111667D01*
X11195476Y-8130714D01*
X11195476Y-8235476D01*
X11195476Y-8130714D02*
X11205000Y-8111667D01*
X11224048Y-8102143D01*
X11252619Y-8102143D01*
X11271667Y-8111667D01*
X11281190Y-8130714D01*
X11281190Y-8235476D01*
X11376428Y-8235476D02*
X11376428Y-8102143D01*
X11376428Y-8121190D02*
X11385952Y-8111667D01*
X11405000Y-8102143D01*
X11433571Y-8102143D01*
X11452619Y-8111667D01*
X11462143Y-8130714D01*
X11462143Y-8235476D01*
X11462143Y-8130714D02*
X11471667Y-8111667D01*
X11490714Y-8102143D01*
X11519286Y-8102143D01*
X11538333Y-8111667D01*
X11547857Y-8130714D01*
X11547857Y-8235476D01*
X11938333Y-8025952D02*
X11766905Y-8283095D01*
X12195476Y-8035476D02*
X12214524Y-8035476D01*
X12233571Y-8045000D01*
X12243095Y-8054524D01*
X12252619Y-8073571D01*
X12262143Y-8111667D01*
X12262143Y-8159286D01*
X12252619Y-8197381D01*
X12243095Y-8216428D01*
X12233571Y-8225952D01*
X12214524Y-8235476D01*
X12195476Y-8235476D01*
X12176428Y-8225952D01*
X12166905Y-8216428D01*
X12157381Y-8197381D01*
X12147857Y-8159286D01*
X12147857Y-8111667D01*
X12157381Y-8073571D01*
X12166905Y-8054524D01*
X12176428Y-8045000D01*
X12195476Y-8035476D01*
X12347857Y-8216428D02*
X12357381Y-8225952D01*
X12347857Y-8235476D01*
X12338333Y-8225952D01*
X12347857Y-8216428D01*
X12347857Y-8235476D01*
X12481190Y-8035476D02*
X12500238Y-8035476D01*
X12519286Y-8045000D01*
X12528809Y-8054524D01*
X12538333Y-8073571D01*
X12547857Y-8111667D01*
X12547857Y-8159286D01*
X12538333Y-8197381D01*
X12528809Y-8216428D01*
X12519286Y-8225952D01*
X12500238Y-8235476D01*
X12481190Y-8235476D01*
X12462143Y-8225952D01*
X12452619Y-8216428D01*
X12443095Y-8197381D01*
X12433571Y-8159286D01*
X12433571Y-8111667D01*
X12443095Y-8073571D01*
X12452619Y-8054524D01*
X12462143Y-8045000D01*
X12481190Y-8035476D01*
X12643095Y-8235476D02*
X12681190Y-8235476D01*
X12700238Y-8225952D01*
X12709762Y-8216428D01*
X12728809Y-8187857D01*
X12738333Y-8149762D01*
X12738333Y-8073571D01*
X12728809Y-8054524D01*
X12719286Y-8045000D01*
X12700238Y-8035476D01*
X12662143Y-8035476D01*
X12643095Y-8045000D01*
X12633571Y-8054524D01*
X12624048Y-8073571D01*
X12624048Y-8121190D01*
X12633571Y-8140238D01*
X12643095Y-8149762D01*
X12662143Y-8159286D01*
X12700238Y-8159286D01*
X12719286Y-8149762D01*
X12728809Y-8140238D01*
X12738333Y-8121190D01*
X12852619Y-8121190D02*
X12833571Y-8111667D01*
X12824048Y-8102143D01*
X12814524Y-8083095D01*
X12814524Y-8073571D01*
X12824048Y-8054524D01*
X12833571Y-8045000D01*
X12852619Y-8035476D01*
X12890714Y-8035476D01*
X12909762Y-8045000D01*
X12919286Y-8054524D01*
X12928809Y-8073571D01*
X12928809Y-8083095D01*
X12919286Y-8102143D01*
X12909762Y-8111667D01*
X12890714Y-8121190D01*
X12852619Y-8121190D01*
X12833571Y-8130714D01*
X12824048Y-8140238D01*
X12814524Y-8159286D01*
X12814524Y-8197381D01*
X12824048Y-8216428D01*
X12833571Y-8225952D01*
X12852619Y-8235476D01*
X12890714Y-8235476D01*
X12909762Y-8225952D01*
X12919286Y-8216428D01*
X12928809Y-8197381D01*
X12928809Y-8159286D01*
X12919286Y-8140238D01*
X12909762Y-8130714D01*
X12890714Y-8121190D01*
X13100238Y-8102143D02*
X13100238Y-8235476D01*
X13052619Y-8025952D02*
X13005000Y-8168809D01*
X13128809Y-8168809D01*
X13195476Y-8035476D02*
X13195476Y-8073571D01*
X13271667Y-8035476D02*
X13271667Y-8073571D01*
X13566905Y-8311667D02*
X13557381Y-8302143D01*
X13538333Y-8273571D01*
X13528809Y-8254524D01*
X13519286Y-8225952D01*
X13509762Y-8178333D01*
X13509762Y-8140238D01*
X13519286Y-8092619D01*
X13528809Y-8064048D01*
X13538333Y-8045000D01*
X13557381Y-8016428D01*
X13566905Y-8006905D01*
X13633571Y-8054524D02*
X13643095Y-8045000D01*
X13662143Y-8035476D01*
X13709762Y-8035476D01*
X13728809Y-8045000D01*
X13738333Y-8054524D01*
X13747857Y-8073571D01*
X13747857Y-8092619D01*
X13738333Y-8121190D01*
X13624048Y-8235476D01*
X13747857Y-8235476D01*
X13985952Y-8235476D02*
X13985952Y-8035476D01*
X14071667Y-8235476D02*
X14071667Y-8130714D01*
X14062143Y-8111667D01*
X14043095Y-8102143D01*
X14014524Y-8102143D01*
X13995476Y-8111667D01*
X13985952Y-8121190D01*
X14195476Y-8235476D02*
X14176428Y-8225952D01*
X14166905Y-8216428D01*
X14157381Y-8197381D01*
X14157381Y-8140238D01*
X14166905Y-8121190D01*
X14176428Y-8111667D01*
X14195476Y-8102143D01*
X14224048Y-8102143D01*
X14243095Y-8111667D01*
X14252619Y-8121190D01*
X14262143Y-8140238D01*
X14262143Y-8197381D01*
X14252619Y-8216428D01*
X14243095Y-8225952D01*
X14224048Y-8235476D01*
X14195476Y-8235476D01*
X14376428Y-8235476D02*
X14357381Y-8225952D01*
X14347857Y-8206905D01*
X14347857Y-8035476D01*
X14528809Y-8225952D02*
X14509762Y-8235476D01*
X14471667Y-8235476D01*
X14452619Y-8225952D01*
X14443095Y-8206905D01*
X14443095Y-8130714D01*
X14452619Y-8111667D01*
X14471667Y-8102143D01*
X14509762Y-8102143D01*
X14528809Y-8111667D01*
X14538333Y-8130714D01*
X14538333Y-8149762D01*
X14443095Y-8168809D01*
X14614524Y-8225952D02*
X14633571Y-8235476D01*
X14671667Y-8235476D01*
X14690714Y-8225952D01*
X14700238Y-8206905D01*
X14700238Y-8197381D01*
X14690714Y-8178333D01*
X14671667Y-8168809D01*
X14643095Y-8168809D01*
X14624048Y-8159286D01*
X14614524Y-8140238D01*
X14614524Y-8130714D01*
X14624048Y-8111667D01*
X14643095Y-8102143D01*
X14671667Y-8102143D01*
X14690714Y-8111667D01*
X14766905Y-8311667D02*
X14776428Y-8302143D01*
X14795476Y-8273571D01*
X14805000Y-8254524D01*
X14814524Y-8225952D01*
X14824048Y-8178333D01*
X14824048Y-8140238D01*
X14814524Y-8092619D01*
X14805000Y-8064048D01*
X14795476Y-8045000D01*
X14776428Y-8016428D01*
X14766905Y-8006905D01*
X15128809Y-8311667D02*
X15119286Y-8302143D01*
X15100238Y-8273571D01*
X15090714Y-8254524D01*
X15081190Y-8225952D01*
X15071667Y-8178333D01*
X15071667Y-8140238D01*
X15081190Y-8092619D01*
X15090714Y-8064048D01*
X15100238Y-8045000D01*
X15119286Y-8016428D01*
X15128809Y-8006905D01*
X15205000Y-8102143D02*
X15205000Y-8235476D01*
X15205000Y-8121190D02*
X15214524Y-8111667D01*
X15233571Y-8102143D01*
X15262143Y-8102143D01*
X15281190Y-8111667D01*
X15290714Y-8130714D01*
X15290714Y-8235476D01*
X15414524Y-8235476D02*
X15395476Y-8225952D01*
X15385952Y-8216428D01*
X15376428Y-8197381D01*
X15376428Y-8140238D01*
X15385952Y-8121190D01*
X15395476Y-8111667D01*
X15414524Y-8102143D01*
X15443095Y-8102143D01*
X15462143Y-8111667D01*
X15471667Y-8121190D01*
X15481190Y-8140238D01*
X15481190Y-8197381D01*
X15471667Y-8216428D01*
X15462143Y-8225952D01*
X15443095Y-8235476D01*
X15414524Y-8235476D01*
X15538333Y-8102143D02*
X15614524Y-8102143D01*
X15566905Y-8035476D02*
X15566905Y-8206905D01*
X15576428Y-8225952D01*
X15595476Y-8235476D01*
X15614524Y-8235476D01*
X15833571Y-8102143D02*
X15833571Y-8302143D01*
X15833571Y-8111667D02*
X15852619Y-8102143D01*
X15890714Y-8102143D01*
X15909762Y-8111667D01*
X15919286Y-8121190D01*
X15928809Y-8140238D01*
X15928809Y-8197381D01*
X15919286Y-8216428D01*
X15909762Y-8225952D01*
X15890714Y-8235476D01*
X15852619Y-8235476D01*
X15833571Y-8225952D01*
X16043095Y-8235476D02*
X16024048Y-8225952D01*
X16014524Y-8206905D01*
X16014524Y-8035476D01*
X16205000Y-8235476D02*
X16205000Y-8130714D01*
X16195476Y-8111667D01*
X16176428Y-8102143D01*
X16138333Y-8102143D01*
X16119286Y-8111667D01*
X16205000Y-8225952D02*
X16185952Y-8235476D01*
X16138333Y-8235476D01*
X16119286Y-8225952D01*
X16109762Y-8206905D01*
X16109762Y-8187857D01*
X16119286Y-8168809D01*
X16138333Y-8159286D01*
X16185952Y-8159286D01*
X16205000Y-8149762D01*
X16271667Y-8102143D02*
X16347857Y-8102143D01*
X16300238Y-8035476D02*
X16300238Y-8206905D01*
X16309762Y-8225952D01*
X16328809Y-8235476D01*
X16347857Y-8235476D01*
X16490714Y-8225952D02*
X16471667Y-8235476D01*
X16433571Y-8235476D01*
X16414524Y-8225952D01*
X16405000Y-8206905D01*
X16405000Y-8130714D01*
X16414524Y-8111667D01*
X16433571Y-8102143D01*
X16471667Y-8102143D01*
X16490714Y-8111667D01*
X16500238Y-8130714D01*
X16500238Y-8149762D01*
X16405000Y-8168809D01*
X16671667Y-8235476D02*
X16671667Y-8035476D01*
X16671667Y-8225952D02*
X16652619Y-8235476D01*
X16614524Y-8235476D01*
X16595476Y-8225952D01*
X16585952Y-8216428D01*
X16576428Y-8197381D01*
X16576428Y-8140238D01*
X16585952Y-8121190D01*
X16595476Y-8111667D01*
X16614524Y-8102143D01*
X16652619Y-8102143D01*
X16671667Y-8111667D01*
X16747857Y-8311667D02*
X16757381Y-8302143D01*
X16776428Y-8273571D01*
X16785952Y-8254524D01*
X16795476Y-8225952D01*
X16805000Y-8178333D01*
X16805000Y-8140238D01*
X16795476Y-8092619D01*
X16785952Y-8064048D01*
X16776428Y-8045000D01*
X16757381Y-8016428D01*
X16747857Y-8006905D01*
M02*
