%FSLAX45Y45*%
G04 Gerber Fmt 4.5, Leading zero omitted, Abs format (unit mm)*
G04 Created by KiCad (PCBNEW (6.0.6)) date 2022-07-04 15:46:49*
%MOMM*%
%LPD*%
G01*
G04 APERTURE LIST*
%TA.AperFunction,Profile*%
%ADD10C,0.100000*%
%TD*%
%ADD11C,0.200000*%
%ADD12C,0.033000*%
%ADD13C,0.050000*%
%ADD14C,0.100000*%
%ADD15C,0.119000*%
G04 APERTURE END LIST*
D10*
X10000000Y-5000000D02*
X16000000Y-5000000D01*
X16000000Y-5000000D02*
X16000000Y-7500000D01*
X16000000Y-7500000D02*
X10000000Y-7500000D01*
X10000000Y-7500000D02*
X10000000Y-5000000D01*
D11*
D12*
X10283500Y-6074500D02*
X10316500Y-6107500D01*
X10316500Y-6074500D02*
X10283500Y-6107500D01*
X10645500Y-6021500D02*
X10678500Y-6054500D01*
X10678500Y-6021500D02*
X10645500Y-6054500D01*
X10778500Y-5961000D02*
X10811500Y-5994000D01*
X10811500Y-5961000D02*
X10778500Y-5994000D01*
X11031000Y-6908500D02*
X11064000Y-6941500D01*
X11064000Y-6908500D02*
X11031000Y-6941500D01*
X11133500Y-5615500D02*
X11166500Y-5648500D01*
X11166500Y-5615500D02*
X11133500Y-5648500D01*
X11438500Y-6818500D02*
X11471500Y-6851500D01*
X11471500Y-6818500D02*
X11438500Y-6851500D01*
X11528500Y-6818500D02*
X11561500Y-6851500D01*
X11561500Y-6818500D02*
X11528500Y-6851500D01*
X11618500Y-5496000D02*
X11651500Y-5529000D01*
X11651500Y-5496000D02*
X11618500Y-5529000D01*
X11655500Y-7189500D02*
X11688500Y-7222500D01*
X11688500Y-7189500D02*
X11655500Y-7222500D01*
X11752500Y-5562500D02*
X11785500Y-5595500D01*
X11785500Y-5562500D02*
X11752500Y-5595500D01*
X11778500Y-5886000D02*
X11811500Y-5919000D01*
X11811500Y-5886000D02*
X11778500Y-5919000D01*
X11801000Y-5651000D02*
X11834000Y-5684000D01*
X11834000Y-5651000D02*
X11801000Y-5684000D01*
X11813500Y-5428500D02*
X11846500Y-5461500D01*
X11846500Y-5428500D02*
X11813500Y-5461500D01*
X11838500Y-5601000D02*
X11871500Y-5634000D01*
X11871500Y-5601000D02*
X11838500Y-5634000D01*
X11846000Y-5533500D02*
X11879000Y-5566500D01*
X11879000Y-5533500D02*
X11846000Y-5566500D01*
X11848500Y-5718500D02*
X11881500Y-5751500D01*
X11881500Y-5718500D02*
X11848500Y-5751500D01*
X11861000Y-5786000D02*
X11894000Y-5819000D01*
X11894000Y-5786000D02*
X11861000Y-5819000D01*
X11866000Y-5273500D02*
X11899000Y-5306500D01*
X11899000Y-5273500D02*
X11866000Y-5306500D01*
X11991000Y-5313500D02*
X12024000Y-5346500D01*
X12024000Y-5313500D02*
X11991000Y-5346500D01*
X12013500Y-7040500D02*
X12046500Y-7073500D01*
X12046500Y-7040500D02*
X12013500Y-7073500D01*
X12016000Y-5598500D02*
X12049000Y-5631500D01*
X12049000Y-5598500D02*
X12016000Y-5631500D01*
X12026000Y-5718500D02*
X12059000Y-5751500D01*
X12059000Y-5718500D02*
X12026000Y-5751500D01*
X12026000Y-5951000D02*
X12059000Y-5984000D01*
X12059000Y-5951000D02*
X12026000Y-5984000D01*
X12040500Y-6968500D02*
X12073500Y-7001500D01*
X12073500Y-6968500D02*
X12040500Y-7001500D01*
X12081000Y-5666000D02*
X12114000Y-5699000D01*
X12114000Y-5666000D02*
X12081000Y-5699000D01*
X12107500Y-7196500D02*
X12140500Y-7229500D01*
X12140500Y-7196500D02*
X12107500Y-7229500D01*
X12123500Y-5953500D02*
X12156500Y-5986500D01*
X12156500Y-5953500D02*
X12123500Y-5986500D01*
X12153500Y-5493500D02*
X12186500Y-5526500D01*
X12186500Y-5493500D02*
X12153500Y-5526500D01*
X12216000Y-5953500D02*
X12249000Y-5986500D01*
X12249000Y-5953500D02*
X12216000Y-5986500D01*
X12223500Y-5393500D02*
X12256500Y-5426500D01*
X12256500Y-5393500D02*
X12223500Y-5426500D01*
X12223500Y-5756000D02*
X12256500Y-5789000D01*
X12256500Y-5756000D02*
X12223500Y-5789000D01*
X12233500Y-5483500D02*
X12266500Y-5516500D01*
X12266500Y-5483500D02*
X12233500Y-5516500D01*
X12346000Y-5313500D02*
X12379000Y-5346500D01*
X12379000Y-5313500D02*
X12346000Y-5346500D01*
X12418500Y-7224500D02*
X12451500Y-7257500D01*
X12451500Y-7224500D02*
X12418500Y-7257500D01*
X12458500Y-6108500D02*
X12491500Y-6141500D01*
X12491500Y-6108500D02*
X12458500Y-6141500D01*
X12510500Y-6428500D02*
X12543500Y-6461500D01*
X12543500Y-6428500D02*
X12510500Y-6461500D01*
X12570500Y-7329500D02*
X12603500Y-7362500D01*
X12603500Y-7329500D02*
X12570500Y-7362500D01*
X12631000Y-6748500D02*
X12664000Y-6781500D01*
X12664000Y-6748500D02*
X12631000Y-6781500D01*
X12653500Y-6453500D02*
X12686500Y-6486500D01*
X12686500Y-6453500D02*
X12653500Y-6486500D01*
X12673989Y-6116483D02*
X12706989Y-6149483D01*
X12706989Y-6116483D02*
X12673989Y-6149483D01*
X12743500Y-7316000D02*
X12776500Y-7349000D01*
X12776500Y-7316000D02*
X12743500Y-7349000D01*
X12783500Y-5108500D02*
X12816500Y-5141500D01*
X12816500Y-5108500D02*
X12783500Y-5141500D01*
X12783500Y-5208500D02*
X12816500Y-5241500D01*
X12816500Y-5208500D02*
X12783500Y-5241500D01*
X12783500Y-5308500D02*
X12816500Y-5341500D01*
X12816500Y-5308500D02*
X12783500Y-5341500D01*
X12783500Y-5433500D02*
X12816500Y-5466500D01*
X12816500Y-5433500D02*
X12783500Y-5466500D01*
X12783500Y-5683500D02*
X12816500Y-5716500D01*
X12816500Y-5683500D02*
X12783500Y-5716500D01*
X12838500Y-5731000D02*
X12871500Y-5764000D01*
X12871500Y-5731000D02*
X12838500Y-5764000D01*
X12873500Y-7198500D02*
X12906500Y-7231500D01*
X12906500Y-7198500D02*
X12873500Y-7231500D01*
X12968500Y-7116000D02*
X13001500Y-7149000D01*
X13001500Y-7116000D02*
X12968500Y-7149000D01*
X12981000Y-6288500D02*
X13014000Y-6321500D01*
X13014000Y-6288500D02*
X12981000Y-6321500D01*
X12983500Y-6646000D02*
X13016500Y-6679000D01*
X13016500Y-6646000D02*
X12983500Y-6679000D01*
X12988500Y-6471000D02*
X13021500Y-6504000D01*
X13021500Y-6471000D02*
X12988500Y-6504000D01*
X13033500Y-5108500D02*
X13066500Y-5141500D01*
X13066500Y-5108500D02*
X13033500Y-5141500D01*
X13033500Y-5208500D02*
X13066500Y-5241500D01*
X13066500Y-5208500D02*
X13033500Y-5241500D01*
X13033500Y-5308500D02*
X13066500Y-5341500D01*
X13066500Y-5308500D02*
X13033500Y-5341500D01*
X13033500Y-5433500D02*
X13066500Y-5466500D01*
X13066500Y-5433500D02*
X13033500Y-5466500D01*
X13053500Y-5908500D02*
X13086500Y-5941500D01*
X13086500Y-5908500D02*
X13053500Y-5941500D01*
X13083500Y-6383500D02*
X13116500Y-6416500D01*
X13116500Y-6383500D02*
X13083500Y-6416500D01*
X13103500Y-6818500D02*
X13136500Y-6851500D01*
X13136500Y-6818500D02*
X13103500Y-6851500D01*
X13108500Y-6121000D02*
X13141500Y-6154000D01*
X13141500Y-6121000D02*
X13108500Y-6154000D01*
X13128500Y-5916000D02*
X13161500Y-5949000D01*
X13161500Y-5916000D02*
X13128500Y-5949000D01*
X13144500Y-6647500D02*
X13177500Y-6680500D01*
X13177500Y-6647500D02*
X13144500Y-6680500D01*
X13176000Y-6288500D02*
X13209000Y-6321500D01*
X13209000Y-6288500D02*
X13176000Y-6321500D01*
X13181000Y-6473500D02*
X13214000Y-6506500D01*
X13214000Y-6473500D02*
X13181000Y-6506500D01*
X13276000Y-6971000D02*
X13309000Y-7004000D01*
X13309000Y-6971000D02*
X13276000Y-7004000D01*
X13291000Y-7336000D02*
X13324000Y-7369000D01*
X13324000Y-7336000D02*
X13291000Y-7369000D01*
X13291000Y-7398500D02*
X13324000Y-7431500D01*
X13324000Y-7398500D02*
X13291000Y-7431500D01*
X13301000Y-5951050D02*
X13334000Y-5984050D01*
X13334000Y-5951050D02*
X13301000Y-5984050D01*
X13308500Y-5658500D02*
X13341500Y-5691500D01*
X13341500Y-5658500D02*
X13308500Y-5691500D01*
X13311000Y-6118500D02*
X13344000Y-6151500D01*
X13344000Y-6118500D02*
X13311000Y-6151500D01*
X13386000Y-6021000D02*
X13419000Y-6054000D01*
X13419000Y-6021000D02*
X13386000Y-6054000D01*
X13405480Y-7066669D02*
X13438480Y-7099669D01*
X13438480Y-7066669D02*
X13405480Y-7099669D01*
X13408500Y-5298500D02*
X13441500Y-5331500D01*
X13441500Y-5298500D02*
X13408500Y-5331500D01*
X13408500Y-7256000D02*
X13441500Y-7289000D01*
X13441500Y-7256000D02*
X13408500Y-7289000D01*
X13411000Y-5053500D02*
X13444000Y-5086500D01*
X13444000Y-5053500D02*
X13411000Y-5086500D01*
X13433500Y-5658500D02*
X13466500Y-5691500D01*
X13466500Y-5658500D02*
X13433500Y-5691500D01*
X13483500Y-6023500D02*
X13516500Y-6056500D01*
X13516500Y-6023500D02*
X13483500Y-6056500D01*
X13498507Y-6120575D02*
X13531507Y-6153575D01*
X13531507Y-6120575D02*
X13498507Y-6153575D01*
X13501641Y-6483504D02*
X13534641Y-6516504D01*
X13534641Y-6483504D02*
X13501641Y-6516504D01*
X13693500Y-6483500D02*
X13726500Y-6516500D01*
X13726500Y-6483500D02*
X13693500Y-6516500D01*
X13708500Y-6123500D02*
X13741500Y-6156500D01*
X13741500Y-6123500D02*
X13708500Y-6156500D01*
X13711000Y-6018500D02*
X13744000Y-6051500D01*
X13744000Y-6018500D02*
X13711000Y-6051500D01*
X13753500Y-5531000D02*
X13786500Y-5564000D01*
X13786500Y-5531000D02*
X13753500Y-5564000D01*
X13783942Y-5303199D02*
X13816942Y-5336199D01*
X13816942Y-5303199D02*
X13783942Y-5336199D01*
X13993500Y-6323500D02*
X14026500Y-6356500D01*
X14026500Y-6323500D02*
X13993500Y-6356500D01*
X14186000Y-6283500D02*
X14219000Y-6316500D01*
X14219000Y-6283500D02*
X14186000Y-6316500D01*
X14408500Y-6483500D02*
X14441500Y-6516500D01*
X14441500Y-6483500D02*
X14408500Y-6516500D01*
X14483500Y-5188500D02*
X14516500Y-5221500D01*
X14516500Y-5188500D02*
X14483500Y-5221500D01*
X14498500Y-5453500D02*
X14531500Y-5486500D01*
X14531500Y-5453500D02*
X14498500Y-5486500D01*
X14528500Y-6483500D02*
X14561500Y-6516500D01*
X14561500Y-6483500D02*
X14528500Y-6516500D01*
X14532500Y-6373500D02*
X14565500Y-6406500D01*
X14565500Y-6373500D02*
X14532500Y-6406500D01*
X14583500Y-5533500D02*
X14616500Y-5566500D01*
X14616500Y-5533500D02*
X14583500Y-5566500D01*
X14608500Y-6283500D02*
X14641500Y-6316500D01*
X14641500Y-6283500D02*
X14608500Y-6316500D01*
X14613500Y-6003500D02*
X14646500Y-6036500D01*
X14646500Y-6003500D02*
X14613500Y-6036500D01*
X14633500Y-6483500D02*
X14666500Y-6516500D01*
X14666500Y-6483500D02*
X14633500Y-6516500D01*
X14791000Y-5498500D02*
X14824000Y-5531500D01*
X14824000Y-5498500D02*
X14791000Y-5531500D01*
X14791000Y-5763500D02*
X14824000Y-5796500D01*
X14824000Y-5763500D02*
X14791000Y-5796500D01*
X14792500Y-7282500D02*
X14825500Y-7315500D01*
X14825500Y-7282500D02*
X14792500Y-7315500D01*
X14826000Y-6786000D02*
X14859000Y-6819000D01*
X14859000Y-6786000D02*
X14826000Y-6819000D01*
X14920000Y-6219500D02*
X14953000Y-6252500D01*
X14953000Y-6219500D02*
X14920000Y-6252500D01*
X14920000Y-6374500D02*
X14953000Y-6407500D01*
X14953000Y-6374500D02*
X14920000Y-6407500D01*
X15047000Y-6217500D02*
X15080000Y-6250500D01*
X15080000Y-6217500D02*
X15047000Y-6250500D01*
X15047000Y-6380000D02*
X15080000Y-6413000D01*
X15080000Y-6380000D02*
X15047000Y-6413000D01*
X15166500Y-6780500D02*
X15199500Y-6813500D01*
X15199500Y-6780500D02*
X15166500Y-6813500D01*
X15168500Y-5903500D02*
X15201500Y-5936500D01*
X15201500Y-5903500D02*
X15168500Y-5936500D01*
X15173500Y-6171000D02*
X15206500Y-6204000D01*
X15206500Y-6171000D02*
X15173500Y-6204000D01*
X15378500Y-6043500D02*
X15411500Y-6076500D01*
X15411500Y-6043500D02*
X15378500Y-6076500D01*
X15523500Y-6601000D02*
X15556500Y-6634000D01*
X15556500Y-6601000D02*
X15523500Y-6634000D01*
D13*
X10302000Y-5829000D02*
G75*
G03*
X10302000Y-5829000I-25000J0D01*
G01*
X10402000Y-5829000D02*
G75*
G03*
X10402000Y-5829000I-25000J0D01*
G01*
X10502000Y-5829000D02*
G75*
G03*
X10502000Y-5829000I-25000J0D01*
G01*
X10602000Y-5829000D02*
G75*
G03*
X10602000Y-5829000I-25000J0D01*
G01*
X10702000Y-5829000D02*
G75*
G03*
X10702000Y-5829000I-25000J0D01*
G01*
X11144000Y-5368000D02*
G75*
G03*
X11144000Y-5368000I-25000J0D01*
G01*
X11244000Y-5368000D02*
G75*
G03*
X11244000Y-5368000I-25000J0D01*
G01*
X11344000Y-5368000D02*
G75*
G03*
X11344000Y-5368000I-25000J0D01*
G01*
X11442000Y-6964000D02*
G75*
G03*
X11442000Y-6964000I-25000J0D01*
G01*
X11442000Y-7064000D02*
G75*
G03*
X11442000Y-7064000I-25000J0D01*
G01*
X11442000Y-7164000D02*
G75*
G03*
X11442000Y-7164000I-25000J0D01*
G01*
X11442000Y-7264000D02*
G75*
G03*
X11442000Y-7264000I-25000J0D01*
G01*
X11442000Y-7364000D02*
G75*
G03*
X11442000Y-7364000I-25000J0D01*
G01*
X11444000Y-5368000D02*
G75*
G03*
X11444000Y-5368000I-25000J0D01*
G01*
X11544000Y-5368000D02*
G75*
G03*
X11544000Y-5368000I-25000J0D01*
G01*
D14*
X13947500Y-7250000D02*
X13947500Y-7350000D01*
X13897500Y-7300000D02*
X13997500Y-7300000D01*
X14201500Y-7250000D02*
X14201500Y-7350000D01*
X14151500Y-7300000D02*
X14251500Y-7300000D01*
X14455500Y-7250000D02*
X14455500Y-7350000D01*
X14405500Y-7300000D02*
X14505500Y-7300000D01*
D15*
X15542073Y-5442073D02*
X15542073Y-5357927D01*
X15457927Y-5357927D01*
X15457927Y-5442073D01*
X15542073Y-5442073D01*
X15796073Y-5442073D02*
X15796073Y-5357927D01*
X15711927Y-5357927D01*
X15711927Y-5442073D01*
X15796073Y-5442073D01*
D11*
X10252619Y-7815476D02*
X10252619Y-7615476D01*
X10300238Y-7615476D01*
X10328810Y-7625000D01*
X10347857Y-7644048D01*
X10357381Y-7663095D01*
X10366905Y-7701190D01*
X10366905Y-7729762D01*
X10357381Y-7767857D01*
X10347857Y-7786905D01*
X10328810Y-7805952D01*
X10300238Y-7815476D01*
X10252619Y-7815476D01*
X10452619Y-7815476D02*
X10452619Y-7682143D01*
X10452619Y-7720238D02*
X10462143Y-7701190D01*
X10471667Y-7691667D01*
X10490714Y-7682143D01*
X10509762Y-7682143D01*
X10576429Y-7815476D02*
X10576429Y-7682143D01*
X10576429Y-7615476D02*
X10566905Y-7625000D01*
X10576429Y-7634524D01*
X10585952Y-7625000D01*
X10576429Y-7615476D01*
X10576429Y-7634524D01*
X10700238Y-7815476D02*
X10681190Y-7805952D01*
X10671667Y-7786905D01*
X10671667Y-7615476D01*
X10805000Y-7815476D02*
X10785952Y-7805952D01*
X10776429Y-7786905D01*
X10776429Y-7615476D01*
X11033571Y-7815476D02*
X11033571Y-7615476D01*
X11100238Y-7758333D01*
X11166905Y-7615476D01*
X11166905Y-7815476D01*
X11347857Y-7815476D02*
X11347857Y-7710714D01*
X11338333Y-7691667D01*
X11319286Y-7682143D01*
X11281190Y-7682143D01*
X11262143Y-7691667D01*
X11347857Y-7805952D02*
X11328809Y-7815476D01*
X11281190Y-7815476D01*
X11262143Y-7805952D01*
X11252619Y-7786905D01*
X11252619Y-7767857D01*
X11262143Y-7748809D01*
X11281190Y-7739286D01*
X11328809Y-7739286D01*
X11347857Y-7729762D01*
X11443095Y-7682143D02*
X11443095Y-7882143D01*
X11443095Y-7691667D02*
X11462143Y-7682143D01*
X11500238Y-7682143D01*
X11519286Y-7691667D01*
X11528809Y-7701190D01*
X11538333Y-7720238D01*
X11538333Y-7777381D01*
X11528809Y-7796428D01*
X11519286Y-7805952D01*
X11500238Y-7815476D01*
X11462143Y-7815476D01*
X11443095Y-7805952D01*
X11624048Y-7796428D02*
X11633571Y-7805952D01*
X11624048Y-7815476D01*
X11614524Y-7805952D01*
X11624048Y-7796428D01*
X11624048Y-7815476D01*
X11624048Y-7691667D02*
X11633571Y-7701190D01*
X11624048Y-7710714D01*
X11614524Y-7701190D01*
X11624048Y-7691667D01*
X11624048Y-7710714D01*
D12*
X9962000Y-8128500D02*
X9995000Y-8161500D01*
X9995000Y-8128500D02*
X9962000Y-8161500D01*
D11*
X10290714Y-8035476D02*
X10309762Y-8035476D01*
X10328810Y-8045000D01*
X10338333Y-8054524D01*
X10347857Y-8073571D01*
X10357381Y-8111667D01*
X10357381Y-8159286D01*
X10347857Y-8197381D01*
X10338333Y-8216428D01*
X10328810Y-8225952D01*
X10309762Y-8235476D01*
X10290714Y-8235476D01*
X10271667Y-8225952D01*
X10262143Y-8216428D01*
X10252619Y-8197381D01*
X10243095Y-8159286D01*
X10243095Y-8111667D01*
X10252619Y-8073571D01*
X10262143Y-8054524D01*
X10271667Y-8045000D01*
X10290714Y-8035476D01*
X10443095Y-8216428D02*
X10452619Y-8225952D01*
X10443095Y-8235476D01*
X10433571Y-8225952D01*
X10443095Y-8216428D01*
X10443095Y-8235476D01*
X10519286Y-8035476D02*
X10643095Y-8035476D01*
X10576429Y-8111667D01*
X10605000Y-8111667D01*
X10624048Y-8121190D01*
X10633571Y-8130714D01*
X10643095Y-8149762D01*
X10643095Y-8197381D01*
X10633571Y-8216428D01*
X10624048Y-8225952D01*
X10605000Y-8235476D01*
X10547857Y-8235476D01*
X10528810Y-8225952D01*
X10519286Y-8216428D01*
X10709762Y-8035476D02*
X10833571Y-8035476D01*
X10766905Y-8111667D01*
X10795476Y-8111667D01*
X10814524Y-8121190D01*
X10824048Y-8130714D01*
X10833571Y-8149762D01*
X10833571Y-8197381D01*
X10824048Y-8216428D01*
X10814524Y-8225952D01*
X10795476Y-8235476D01*
X10738333Y-8235476D01*
X10719286Y-8225952D01*
X10709762Y-8216428D01*
X10957381Y-8035476D02*
X10976429Y-8035476D01*
X10995476Y-8045000D01*
X11005000Y-8054524D01*
X11014524Y-8073571D01*
X11024048Y-8111667D01*
X11024048Y-8159286D01*
X11014524Y-8197381D01*
X11005000Y-8216428D01*
X10995476Y-8225952D01*
X10976429Y-8235476D01*
X10957381Y-8235476D01*
X10938333Y-8225952D01*
X10928810Y-8216428D01*
X10919286Y-8197381D01*
X10909762Y-8159286D01*
X10909762Y-8111667D01*
X10919286Y-8073571D01*
X10928810Y-8054524D01*
X10938333Y-8045000D01*
X10957381Y-8035476D01*
X11109762Y-8235476D02*
X11109762Y-8102143D01*
X11109762Y-8121190D02*
X11119286Y-8111667D01*
X11138333Y-8102143D01*
X11166905Y-8102143D01*
X11185952Y-8111667D01*
X11195476Y-8130714D01*
X11195476Y-8235476D01*
X11195476Y-8130714D02*
X11205000Y-8111667D01*
X11224048Y-8102143D01*
X11252619Y-8102143D01*
X11271667Y-8111667D01*
X11281190Y-8130714D01*
X11281190Y-8235476D01*
X11376428Y-8235476D02*
X11376428Y-8102143D01*
X11376428Y-8121190D02*
X11385952Y-8111667D01*
X11405000Y-8102143D01*
X11433571Y-8102143D01*
X11452619Y-8111667D01*
X11462143Y-8130714D01*
X11462143Y-8235476D01*
X11462143Y-8130714D02*
X11471667Y-8111667D01*
X11490714Y-8102143D01*
X11519286Y-8102143D01*
X11538333Y-8111667D01*
X11547857Y-8130714D01*
X11547857Y-8235476D01*
X11938333Y-8025952D02*
X11766905Y-8283095D01*
X12195476Y-8035476D02*
X12214524Y-8035476D01*
X12233571Y-8045000D01*
X12243095Y-8054524D01*
X12252619Y-8073571D01*
X12262143Y-8111667D01*
X12262143Y-8159286D01*
X12252619Y-8197381D01*
X12243095Y-8216428D01*
X12233571Y-8225952D01*
X12214524Y-8235476D01*
X12195476Y-8235476D01*
X12176428Y-8225952D01*
X12166905Y-8216428D01*
X12157381Y-8197381D01*
X12147857Y-8159286D01*
X12147857Y-8111667D01*
X12157381Y-8073571D01*
X12166905Y-8054524D01*
X12176428Y-8045000D01*
X12195476Y-8035476D01*
X12347857Y-8216428D02*
X12357381Y-8225952D01*
X12347857Y-8235476D01*
X12338333Y-8225952D01*
X12347857Y-8216428D01*
X12347857Y-8235476D01*
X12481190Y-8035476D02*
X12500238Y-8035476D01*
X12519286Y-8045000D01*
X12528809Y-8054524D01*
X12538333Y-8073571D01*
X12547857Y-8111667D01*
X12547857Y-8159286D01*
X12538333Y-8197381D01*
X12528809Y-8216428D01*
X12519286Y-8225952D01*
X12500238Y-8235476D01*
X12481190Y-8235476D01*
X12462143Y-8225952D01*
X12452619Y-8216428D01*
X12443095Y-8197381D01*
X12433571Y-8159286D01*
X12433571Y-8111667D01*
X12443095Y-8073571D01*
X12452619Y-8054524D01*
X12462143Y-8045000D01*
X12481190Y-8035476D01*
X12738333Y-8235476D02*
X12624048Y-8235476D01*
X12681190Y-8235476D02*
X12681190Y-8035476D01*
X12662143Y-8064048D01*
X12643095Y-8083095D01*
X12624048Y-8092619D01*
X12805000Y-8035476D02*
X12928809Y-8035476D01*
X12862143Y-8111667D01*
X12890714Y-8111667D01*
X12909762Y-8121190D01*
X12919286Y-8130714D01*
X12928809Y-8149762D01*
X12928809Y-8197381D01*
X12919286Y-8216428D01*
X12909762Y-8225952D01*
X12890714Y-8235476D01*
X12833571Y-8235476D01*
X12814524Y-8225952D01*
X12805000Y-8216428D01*
X13052619Y-8035476D02*
X13071667Y-8035476D01*
X13090714Y-8045000D01*
X13100238Y-8054524D01*
X13109762Y-8073571D01*
X13119286Y-8111667D01*
X13119286Y-8159286D01*
X13109762Y-8197381D01*
X13100238Y-8216428D01*
X13090714Y-8225952D01*
X13071667Y-8235476D01*
X13052619Y-8235476D01*
X13033571Y-8225952D01*
X13024048Y-8216428D01*
X13014524Y-8197381D01*
X13005000Y-8159286D01*
X13005000Y-8111667D01*
X13014524Y-8073571D01*
X13024048Y-8054524D01*
X13033571Y-8045000D01*
X13052619Y-8035476D01*
X13195476Y-8035476D02*
X13195476Y-8073571D01*
X13271667Y-8035476D02*
X13271667Y-8073571D01*
X13566905Y-8311667D02*
X13557381Y-8302143D01*
X13538333Y-8273571D01*
X13528809Y-8254524D01*
X13519286Y-8225952D01*
X13509762Y-8178333D01*
X13509762Y-8140238D01*
X13519286Y-8092619D01*
X13528809Y-8064048D01*
X13538333Y-8045000D01*
X13557381Y-8016428D01*
X13566905Y-8006905D01*
X13747857Y-8235476D02*
X13633571Y-8235476D01*
X13690714Y-8235476D02*
X13690714Y-8035476D01*
X13671667Y-8064048D01*
X13652619Y-8083095D01*
X13633571Y-8092619D01*
X13871667Y-8035476D02*
X13890714Y-8035476D01*
X13909762Y-8045000D01*
X13919286Y-8054524D01*
X13928809Y-8073571D01*
X13938333Y-8111667D01*
X13938333Y-8159286D01*
X13928809Y-8197381D01*
X13919286Y-8216428D01*
X13909762Y-8225952D01*
X13890714Y-8235476D01*
X13871667Y-8235476D01*
X13852619Y-8225952D01*
X13843095Y-8216428D01*
X13833571Y-8197381D01*
X13824048Y-8159286D01*
X13824048Y-8111667D01*
X13833571Y-8073571D01*
X13843095Y-8054524D01*
X13852619Y-8045000D01*
X13871667Y-8035476D01*
X14052619Y-8121190D02*
X14033571Y-8111667D01*
X14024048Y-8102143D01*
X14014524Y-8083095D01*
X14014524Y-8073571D01*
X14024048Y-8054524D01*
X14033571Y-8045000D01*
X14052619Y-8035476D01*
X14090714Y-8035476D01*
X14109762Y-8045000D01*
X14119286Y-8054524D01*
X14128809Y-8073571D01*
X14128809Y-8083095D01*
X14119286Y-8102143D01*
X14109762Y-8111667D01*
X14090714Y-8121190D01*
X14052619Y-8121190D01*
X14033571Y-8130714D01*
X14024048Y-8140238D01*
X14014524Y-8159286D01*
X14014524Y-8197381D01*
X14024048Y-8216428D01*
X14033571Y-8225952D01*
X14052619Y-8235476D01*
X14090714Y-8235476D01*
X14109762Y-8225952D01*
X14119286Y-8216428D01*
X14128809Y-8197381D01*
X14128809Y-8159286D01*
X14119286Y-8140238D01*
X14109762Y-8130714D01*
X14090714Y-8121190D01*
X14366905Y-8235476D02*
X14366905Y-8035476D01*
X14452619Y-8235476D02*
X14452619Y-8130714D01*
X14443095Y-8111667D01*
X14424048Y-8102143D01*
X14395476Y-8102143D01*
X14376428Y-8111667D01*
X14366905Y-8121190D01*
X14576428Y-8235476D02*
X14557381Y-8225952D01*
X14547857Y-8216428D01*
X14538333Y-8197381D01*
X14538333Y-8140238D01*
X14547857Y-8121190D01*
X14557381Y-8111667D01*
X14576428Y-8102143D01*
X14605000Y-8102143D01*
X14624048Y-8111667D01*
X14633571Y-8121190D01*
X14643095Y-8140238D01*
X14643095Y-8197381D01*
X14633571Y-8216428D01*
X14624048Y-8225952D01*
X14605000Y-8235476D01*
X14576428Y-8235476D01*
X14757381Y-8235476D02*
X14738333Y-8225952D01*
X14728809Y-8206905D01*
X14728809Y-8035476D01*
X14909762Y-8225952D02*
X14890714Y-8235476D01*
X14852619Y-8235476D01*
X14833571Y-8225952D01*
X14824048Y-8206905D01*
X14824048Y-8130714D01*
X14833571Y-8111667D01*
X14852619Y-8102143D01*
X14890714Y-8102143D01*
X14909762Y-8111667D01*
X14919286Y-8130714D01*
X14919286Y-8149762D01*
X14824048Y-8168809D01*
X14995476Y-8225952D02*
X15014524Y-8235476D01*
X15052619Y-8235476D01*
X15071667Y-8225952D01*
X15081190Y-8206905D01*
X15081190Y-8197381D01*
X15071667Y-8178333D01*
X15052619Y-8168809D01*
X15024048Y-8168809D01*
X15005000Y-8159286D01*
X14995476Y-8140238D01*
X14995476Y-8130714D01*
X15005000Y-8111667D01*
X15024048Y-8102143D01*
X15052619Y-8102143D01*
X15071667Y-8111667D01*
X15147857Y-8311667D02*
X15157381Y-8302143D01*
X15176428Y-8273571D01*
X15185952Y-8254524D01*
X15195476Y-8225952D01*
X15205000Y-8178333D01*
X15205000Y-8140238D01*
X15195476Y-8092619D01*
X15185952Y-8064048D01*
X15176428Y-8045000D01*
X15157381Y-8016428D01*
X15147857Y-8006905D01*
D13*
X9995000Y-8409000D02*
G75*
G03*
X9995000Y-8409000I-25000J0D01*
G01*
D11*
X10290714Y-8299476D02*
X10309762Y-8299476D01*
X10328810Y-8309000D01*
X10338333Y-8318524D01*
X10347857Y-8337571D01*
X10357381Y-8375667D01*
X10357381Y-8423286D01*
X10347857Y-8461381D01*
X10338333Y-8480429D01*
X10328810Y-8489952D01*
X10309762Y-8499476D01*
X10290714Y-8499476D01*
X10271667Y-8489952D01*
X10262143Y-8480429D01*
X10252619Y-8461381D01*
X10243095Y-8423286D01*
X10243095Y-8375667D01*
X10252619Y-8337571D01*
X10262143Y-8318524D01*
X10271667Y-8309000D01*
X10290714Y-8299476D01*
X10443095Y-8480429D02*
X10452619Y-8489952D01*
X10443095Y-8499476D01*
X10433571Y-8489952D01*
X10443095Y-8480429D01*
X10443095Y-8499476D01*
X10633571Y-8299476D02*
X10538333Y-8299476D01*
X10528810Y-8394714D01*
X10538333Y-8385190D01*
X10557381Y-8375667D01*
X10605000Y-8375667D01*
X10624048Y-8385190D01*
X10633571Y-8394714D01*
X10643095Y-8413762D01*
X10643095Y-8461381D01*
X10633571Y-8480429D01*
X10624048Y-8489952D01*
X10605000Y-8499476D01*
X10557381Y-8499476D01*
X10538333Y-8489952D01*
X10528810Y-8480429D01*
X10766905Y-8299476D02*
X10785952Y-8299476D01*
X10805000Y-8309000D01*
X10814524Y-8318524D01*
X10824048Y-8337571D01*
X10833571Y-8375667D01*
X10833571Y-8423286D01*
X10824048Y-8461381D01*
X10814524Y-8480429D01*
X10805000Y-8489952D01*
X10785952Y-8499476D01*
X10766905Y-8499476D01*
X10747857Y-8489952D01*
X10738333Y-8480429D01*
X10728810Y-8461381D01*
X10719286Y-8423286D01*
X10719286Y-8375667D01*
X10728810Y-8337571D01*
X10738333Y-8318524D01*
X10747857Y-8309000D01*
X10766905Y-8299476D01*
X10957381Y-8299476D02*
X10976429Y-8299476D01*
X10995476Y-8309000D01*
X11005000Y-8318524D01*
X11014524Y-8337571D01*
X11024048Y-8375667D01*
X11024048Y-8423286D01*
X11014524Y-8461381D01*
X11005000Y-8480429D01*
X10995476Y-8489952D01*
X10976429Y-8499476D01*
X10957381Y-8499476D01*
X10938333Y-8489952D01*
X10928810Y-8480429D01*
X10919286Y-8461381D01*
X10909762Y-8423286D01*
X10909762Y-8375667D01*
X10919286Y-8337571D01*
X10928810Y-8318524D01*
X10938333Y-8309000D01*
X10957381Y-8299476D01*
X11109762Y-8499476D02*
X11109762Y-8366143D01*
X11109762Y-8385190D02*
X11119286Y-8375667D01*
X11138333Y-8366143D01*
X11166905Y-8366143D01*
X11185952Y-8375667D01*
X11195476Y-8394714D01*
X11195476Y-8499476D01*
X11195476Y-8394714D02*
X11205000Y-8375667D01*
X11224048Y-8366143D01*
X11252619Y-8366143D01*
X11271667Y-8375667D01*
X11281190Y-8394714D01*
X11281190Y-8499476D01*
X11376428Y-8499476D02*
X11376428Y-8366143D01*
X11376428Y-8385190D02*
X11385952Y-8375667D01*
X11405000Y-8366143D01*
X11433571Y-8366143D01*
X11452619Y-8375667D01*
X11462143Y-8394714D01*
X11462143Y-8499476D01*
X11462143Y-8394714D02*
X11471667Y-8375667D01*
X11490714Y-8366143D01*
X11519286Y-8366143D01*
X11538333Y-8375667D01*
X11547857Y-8394714D01*
X11547857Y-8499476D01*
X11938333Y-8289952D02*
X11766905Y-8547095D01*
X12195476Y-8299476D02*
X12214524Y-8299476D01*
X12233571Y-8309000D01*
X12243095Y-8318524D01*
X12252619Y-8337571D01*
X12262143Y-8375667D01*
X12262143Y-8423286D01*
X12252619Y-8461381D01*
X12243095Y-8480429D01*
X12233571Y-8489952D01*
X12214524Y-8499476D01*
X12195476Y-8499476D01*
X12176428Y-8489952D01*
X12166905Y-8480429D01*
X12157381Y-8461381D01*
X12147857Y-8423286D01*
X12147857Y-8375667D01*
X12157381Y-8337571D01*
X12166905Y-8318524D01*
X12176428Y-8309000D01*
X12195476Y-8299476D01*
X12347857Y-8480429D02*
X12357381Y-8489952D01*
X12347857Y-8499476D01*
X12338333Y-8489952D01*
X12347857Y-8480429D01*
X12347857Y-8499476D01*
X12481190Y-8299476D02*
X12500238Y-8299476D01*
X12519286Y-8309000D01*
X12528809Y-8318524D01*
X12538333Y-8337571D01*
X12547857Y-8375667D01*
X12547857Y-8423286D01*
X12538333Y-8461381D01*
X12528809Y-8480429D01*
X12519286Y-8489952D01*
X12500238Y-8499476D01*
X12481190Y-8499476D01*
X12462143Y-8489952D01*
X12452619Y-8480429D01*
X12443095Y-8461381D01*
X12433571Y-8423286D01*
X12433571Y-8375667D01*
X12443095Y-8337571D01*
X12452619Y-8318524D01*
X12462143Y-8309000D01*
X12481190Y-8299476D01*
X12738333Y-8499476D02*
X12624048Y-8499476D01*
X12681190Y-8499476D02*
X12681190Y-8299476D01*
X12662143Y-8328048D01*
X12643095Y-8347095D01*
X12624048Y-8356619D01*
X12833571Y-8499476D02*
X12871667Y-8499476D01*
X12890714Y-8489952D01*
X12900238Y-8480429D01*
X12919286Y-8451857D01*
X12928809Y-8413762D01*
X12928809Y-8337571D01*
X12919286Y-8318524D01*
X12909762Y-8309000D01*
X12890714Y-8299476D01*
X12852619Y-8299476D01*
X12833571Y-8309000D01*
X12824048Y-8318524D01*
X12814524Y-8337571D01*
X12814524Y-8385190D01*
X12824048Y-8404238D01*
X12833571Y-8413762D01*
X12852619Y-8423286D01*
X12890714Y-8423286D01*
X12909762Y-8413762D01*
X12919286Y-8404238D01*
X12928809Y-8385190D01*
X12995476Y-8299476D02*
X13128809Y-8299476D01*
X13043095Y-8499476D01*
X13195476Y-8299476D02*
X13195476Y-8337571D01*
X13271667Y-8299476D02*
X13271667Y-8337571D01*
X13566905Y-8575667D02*
X13557381Y-8566143D01*
X13538333Y-8537571D01*
X13528809Y-8518524D01*
X13519286Y-8489952D01*
X13509762Y-8442333D01*
X13509762Y-8404238D01*
X13519286Y-8356619D01*
X13528809Y-8328048D01*
X13538333Y-8309000D01*
X13557381Y-8280428D01*
X13566905Y-8270905D01*
X13747857Y-8499476D02*
X13633571Y-8499476D01*
X13690714Y-8499476D02*
X13690714Y-8299476D01*
X13671667Y-8328048D01*
X13652619Y-8347095D01*
X13633571Y-8356619D01*
X13928809Y-8299476D02*
X13833571Y-8299476D01*
X13824048Y-8394714D01*
X13833571Y-8385190D01*
X13852619Y-8375667D01*
X13900238Y-8375667D01*
X13919286Y-8385190D01*
X13928809Y-8394714D01*
X13938333Y-8413762D01*
X13938333Y-8461381D01*
X13928809Y-8480429D01*
X13919286Y-8489952D01*
X13900238Y-8499476D01*
X13852619Y-8499476D01*
X13833571Y-8489952D01*
X13824048Y-8480429D01*
X14176428Y-8499476D02*
X14176428Y-8299476D01*
X14262143Y-8499476D02*
X14262143Y-8394714D01*
X14252619Y-8375667D01*
X14233571Y-8366143D01*
X14205000Y-8366143D01*
X14185952Y-8375667D01*
X14176428Y-8385190D01*
X14385952Y-8499476D02*
X14366905Y-8489952D01*
X14357381Y-8480429D01*
X14347857Y-8461381D01*
X14347857Y-8404238D01*
X14357381Y-8385190D01*
X14366905Y-8375667D01*
X14385952Y-8366143D01*
X14414524Y-8366143D01*
X14433571Y-8375667D01*
X14443095Y-8385190D01*
X14452619Y-8404238D01*
X14452619Y-8461381D01*
X14443095Y-8480429D01*
X14433571Y-8489952D01*
X14414524Y-8499476D01*
X14385952Y-8499476D01*
X14566905Y-8499476D02*
X14547857Y-8489952D01*
X14538333Y-8470905D01*
X14538333Y-8299476D01*
X14719286Y-8489952D02*
X14700238Y-8499476D01*
X14662143Y-8499476D01*
X14643095Y-8489952D01*
X14633571Y-8470905D01*
X14633571Y-8394714D01*
X14643095Y-8375667D01*
X14662143Y-8366143D01*
X14700238Y-8366143D01*
X14719286Y-8375667D01*
X14728809Y-8394714D01*
X14728809Y-8413762D01*
X14633571Y-8432810D01*
X14805000Y-8489952D02*
X14824048Y-8499476D01*
X14862143Y-8499476D01*
X14881190Y-8489952D01*
X14890714Y-8470905D01*
X14890714Y-8461381D01*
X14881190Y-8442333D01*
X14862143Y-8432810D01*
X14833571Y-8432810D01*
X14814524Y-8423286D01*
X14805000Y-8404238D01*
X14805000Y-8394714D01*
X14814524Y-8375667D01*
X14833571Y-8366143D01*
X14862143Y-8366143D01*
X14881190Y-8375667D01*
X14957381Y-8575667D02*
X14966905Y-8566143D01*
X14985952Y-8537571D01*
X14995476Y-8518524D01*
X15005000Y-8489952D01*
X15014524Y-8442333D01*
X15014524Y-8404238D01*
X15005000Y-8356619D01*
X14995476Y-8328048D01*
X14985952Y-8309000D01*
X14966905Y-8280428D01*
X14957381Y-8270905D01*
D14*
X9945000Y-8623000D02*
X9945000Y-8723000D01*
X9895000Y-8673000D02*
X9995000Y-8673000D01*
D11*
X10357381Y-8763476D02*
X10243095Y-8763476D01*
X10300238Y-8763476D02*
X10300238Y-8563476D01*
X10281190Y-8592048D01*
X10262143Y-8611095D01*
X10243095Y-8620619D01*
X10443095Y-8744429D02*
X10452619Y-8753952D01*
X10443095Y-8763476D01*
X10433571Y-8753952D01*
X10443095Y-8744429D01*
X10443095Y-8763476D01*
X10576429Y-8563476D02*
X10595476Y-8563476D01*
X10614524Y-8573000D01*
X10624048Y-8582524D01*
X10633571Y-8601571D01*
X10643095Y-8639667D01*
X10643095Y-8687286D01*
X10633571Y-8725381D01*
X10624048Y-8744429D01*
X10614524Y-8753952D01*
X10595476Y-8763476D01*
X10576429Y-8763476D01*
X10557381Y-8753952D01*
X10547857Y-8744429D01*
X10538333Y-8725381D01*
X10528810Y-8687286D01*
X10528810Y-8639667D01*
X10538333Y-8601571D01*
X10547857Y-8582524D01*
X10557381Y-8573000D01*
X10576429Y-8563476D01*
X10766905Y-8563476D02*
X10785952Y-8563476D01*
X10805000Y-8573000D01*
X10814524Y-8582524D01*
X10824048Y-8601571D01*
X10833571Y-8639667D01*
X10833571Y-8687286D01*
X10824048Y-8725381D01*
X10814524Y-8744429D01*
X10805000Y-8753952D01*
X10785952Y-8763476D01*
X10766905Y-8763476D01*
X10747857Y-8753952D01*
X10738333Y-8744429D01*
X10728810Y-8725381D01*
X10719286Y-8687286D01*
X10719286Y-8639667D01*
X10728810Y-8601571D01*
X10738333Y-8582524D01*
X10747857Y-8573000D01*
X10766905Y-8563476D01*
X10957381Y-8563476D02*
X10976429Y-8563476D01*
X10995476Y-8573000D01*
X11005000Y-8582524D01*
X11014524Y-8601571D01*
X11024048Y-8639667D01*
X11024048Y-8687286D01*
X11014524Y-8725381D01*
X11005000Y-8744429D01*
X10995476Y-8753952D01*
X10976429Y-8763476D01*
X10957381Y-8763476D01*
X10938333Y-8753952D01*
X10928810Y-8744429D01*
X10919286Y-8725381D01*
X10909762Y-8687286D01*
X10909762Y-8639667D01*
X10919286Y-8601571D01*
X10928810Y-8582524D01*
X10938333Y-8573000D01*
X10957381Y-8563476D01*
X11109762Y-8763476D02*
X11109762Y-8630143D01*
X11109762Y-8649190D02*
X11119286Y-8639667D01*
X11138333Y-8630143D01*
X11166905Y-8630143D01*
X11185952Y-8639667D01*
X11195476Y-8658714D01*
X11195476Y-8763476D01*
X11195476Y-8658714D02*
X11205000Y-8639667D01*
X11224048Y-8630143D01*
X11252619Y-8630143D01*
X11271667Y-8639667D01*
X11281190Y-8658714D01*
X11281190Y-8763476D01*
X11376428Y-8763476D02*
X11376428Y-8630143D01*
X11376428Y-8649190D02*
X11385952Y-8639667D01*
X11405000Y-8630143D01*
X11433571Y-8630143D01*
X11452619Y-8639667D01*
X11462143Y-8658714D01*
X11462143Y-8763476D01*
X11462143Y-8658714D02*
X11471667Y-8639667D01*
X11490714Y-8630143D01*
X11519286Y-8630143D01*
X11538333Y-8639667D01*
X11547857Y-8658714D01*
X11547857Y-8763476D01*
X11938333Y-8553952D02*
X11766905Y-8811095D01*
X12195476Y-8563476D02*
X12214524Y-8563476D01*
X12233571Y-8573000D01*
X12243095Y-8582524D01*
X12252619Y-8601571D01*
X12262143Y-8639667D01*
X12262143Y-8687286D01*
X12252619Y-8725381D01*
X12243095Y-8744429D01*
X12233571Y-8753952D01*
X12214524Y-8763476D01*
X12195476Y-8763476D01*
X12176428Y-8753952D01*
X12166905Y-8744429D01*
X12157381Y-8725381D01*
X12147857Y-8687286D01*
X12147857Y-8639667D01*
X12157381Y-8601571D01*
X12166905Y-8582524D01*
X12176428Y-8573000D01*
X12195476Y-8563476D01*
X12347857Y-8744429D02*
X12357381Y-8753952D01*
X12347857Y-8763476D01*
X12338333Y-8753952D01*
X12347857Y-8744429D01*
X12347857Y-8763476D01*
X12481190Y-8563476D02*
X12500238Y-8563476D01*
X12519286Y-8573000D01*
X12528809Y-8582524D01*
X12538333Y-8601571D01*
X12547857Y-8639667D01*
X12547857Y-8687286D01*
X12538333Y-8725381D01*
X12528809Y-8744429D01*
X12519286Y-8753952D01*
X12500238Y-8763476D01*
X12481190Y-8763476D01*
X12462143Y-8753952D01*
X12452619Y-8744429D01*
X12443095Y-8725381D01*
X12433571Y-8687286D01*
X12433571Y-8639667D01*
X12443095Y-8601571D01*
X12452619Y-8582524D01*
X12462143Y-8573000D01*
X12481190Y-8563476D01*
X12614524Y-8563476D02*
X12738333Y-8563476D01*
X12671667Y-8639667D01*
X12700238Y-8639667D01*
X12719286Y-8649190D01*
X12728809Y-8658714D01*
X12738333Y-8677762D01*
X12738333Y-8725381D01*
X12728809Y-8744429D01*
X12719286Y-8753952D01*
X12700238Y-8763476D01*
X12643095Y-8763476D01*
X12624048Y-8753952D01*
X12614524Y-8744429D01*
X12833571Y-8763476D02*
X12871667Y-8763476D01*
X12890714Y-8753952D01*
X12900238Y-8744429D01*
X12919286Y-8715857D01*
X12928809Y-8677762D01*
X12928809Y-8601571D01*
X12919286Y-8582524D01*
X12909762Y-8573000D01*
X12890714Y-8563476D01*
X12852619Y-8563476D01*
X12833571Y-8573000D01*
X12824048Y-8582524D01*
X12814524Y-8601571D01*
X12814524Y-8649190D01*
X12824048Y-8668238D01*
X12833571Y-8677762D01*
X12852619Y-8687286D01*
X12890714Y-8687286D01*
X12909762Y-8677762D01*
X12919286Y-8668238D01*
X12928809Y-8649190D01*
X13100238Y-8630143D02*
X13100238Y-8763476D01*
X13052619Y-8553952D02*
X13005000Y-8696810D01*
X13128809Y-8696810D01*
X13195476Y-8563476D02*
X13195476Y-8601571D01*
X13271667Y-8563476D02*
X13271667Y-8601571D01*
X13566905Y-8839667D02*
X13557381Y-8830143D01*
X13538333Y-8801571D01*
X13528809Y-8782524D01*
X13519286Y-8753952D01*
X13509762Y-8706333D01*
X13509762Y-8668238D01*
X13519286Y-8620619D01*
X13528809Y-8592048D01*
X13538333Y-8573000D01*
X13557381Y-8544429D01*
X13566905Y-8534905D01*
X13624048Y-8563476D02*
X13747857Y-8563476D01*
X13681190Y-8639667D01*
X13709762Y-8639667D01*
X13728809Y-8649190D01*
X13738333Y-8658714D01*
X13747857Y-8677762D01*
X13747857Y-8725381D01*
X13738333Y-8744429D01*
X13728809Y-8753952D01*
X13709762Y-8763476D01*
X13652619Y-8763476D01*
X13633571Y-8753952D01*
X13624048Y-8744429D01*
X13985952Y-8763476D02*
X13985952Y-8563476D01*
X14071667Y-8763476D02*
X14071667Y-8658714D01*
X14062143Y-8639667D01*
X14043095Y-8630143D01*
X14014524Y-8630143D01*
X13995476Y-8639667D01*
X13985952Y-8649190D01*
X14195476Y-8763476D02*
X14176428Y-8753952D01*
X14166905Y-8744429D01*
X14157381Y-8725381D01*
X14157381Y-8668238D01*
X14166905Y-8649190D01*
X14176428Y-8639667D01*
X14195476Y-8630143D01*
X14224048Y-8630143D01*
X14243095Y-8639667D01*
X14252619Y-8649190D01*
X14262143Y-8668238D01*
X14262143Y-8725381D01*
X14252619Y-8744429D01*
X14243095Y-8753952D01*
X14224048Y-8763476D01*
X14195476Y-8763476D01*
X14376428Y-8763476D02*
X14357381Y-8753952D01*
X14347857Y-8734905D01*
X14347857Y-8563476D01*
X14528809Y-8753952D02*
X14509762Y-8763476D01*
X14471667Y-8763476D01*
X14452619Y-8753952D01*
X14443095Y-8734905D01*
X14443095Y-8658714D01*
X14452619Y-8639667D01*
X14471667Y-8630143D01*
X14509762Y-8630143D01*
X14528809Y-8639667D01*
X14538333Y-8658714D01*
X14538333Y-8677762D01*
X14443095Y-8696810D01*
X14614524Y-8753952D02*
X14633571Y-8763476D01*
X14671667Y-8763476D01*
X14690714Y-8753952D01*
X14700238Y-8734905D01*
X14700238Y-8725381D01*
X14690714Y-8706333D01*
X14671667Y-8696810D01*
X14643095Y-8696810D01*
X14624048Y-8687286D01*
X14614524Y-8668238D01*
X14614524Y-8658714D01*
X14624048Y-8639667D01*
X14643095Y-8630143D01*
X14671667Y-8630143D01*
X14690714Y-8639667D01*
X14766905Y-8839667D02*
X14776428Y-8830143D01*
X14795476Y-8801571D01*
X14805000Y-8782524D01*
X14814524Y-8753952D01*
X14824048Y-8706333D01*
X14824048Y-8668238D01*
X14814524Y-8620619D01*
X14805000Y-8592048D01*
X14795476Y-8573000D01*
X14776428Y-8544429D01*
X14766905Y-8534905D01*
D15*
X9977573Y-8979073D02*
X9977573Y-8894927D01*
X9893427Y-8894927D01*
X9893427Y-8979073D01*
X9977573Y-8979073D01*
D11*
X10357381Y-9027476D02*
X10243095Y-9027476D01*
X10300238Y-9027476D02*
X10300238Y-8827476D01*
X10281190Y-8856048D01*
X10262143Y-8875095D01*
X10243095Y-8884619D01*
X10443095Y-9008429D02*
X10452619Y-9017952D01*
X10443095Y-9027476D01*
X10433571Y-9017952D01*
X10443095Y-9008429D01*
X10443095Y-9027476D01*
X10643095Y-9027476D02*
X10528810Y-9027476D01*
X10585952Y-9027476D02*
X10585952Y-8827476D01*
X10566905Y-8856048D01*
X10547857Y-8875095D01*
X10528810Y-8884619D01*
X10738333Y-9027476D02*
X10776429Y-9027476D01*
X10795476Y-9017952D01*
X10805000Y-9008429D01*
X10824048Y-8979857D01*
X10833571Y-8941762D01*
X10833571Y-8865571D01*
X10824048Y-8846524D01*
X10814524Y-8837000D01*
X10795476Y-8827476D01*
X10757381Y-8827476D01*
X10738333Y-8837000D01*
X10728810Y-8846524D01*
X10719286Y-8865571D01*
X10719286Y-8913190D01*
X10728810Y-8932238D01*
X10738333Y-8941762D01*
X10757381Y-8951286D01*
X10795476Y-8951286D01*
X10814524Y-8941762D01*
X10824048Y-8932238D01*
X10833571Y-8913190D01*
X10957381Y-8827476D02*
X10976429Y-8827476D01*
X10995476Y-8837000D01*
X11005000Y-8846524D01*
X11014524Y-8865571D01*
X11024048Y-8903667D01*
X11024048Y-8951286D01*
X11014524Y-8989381D01*
X11005000Y-9008429D01*
X10995476Y-9017952D01*
X10976429Y-9027476D01*
X10957381Y-9027476D01*
X10938333Y-9017952D01*
X10928810Y-9008429D01*
X10919286Y-8989381D01*
X10909762Y-8951286D01*
X10909762Y-8903667D01*
X10919286Y-8865571D01*
X10928810Y-8846524D01*
X10938333Y-8837000D01*
X10957381Y-8827476D01*
X11109762Y-9027476D02*
X11109762Y-8894143D01*
X11109762Y-8913190D02*
X11119286Y-8903667D01*
X11138333Y-8894143D01*
X11166905Y-8894143D01*
X11185952Y-8903667D01*
X11195476Y-8922714D01*
X11195476Y-9027476D01*
X11195476Y-8922714D02*
X11205000Y-8903667D01*
X11224048Y-8894143D01*
X11252619Y-8894143D01*
X11271667Y-8903667D01*
X11281190Y-8922714D01*
X11281190Y-9027476D01*
X11376428Y-9027476D02*
X11376428Y-8894143D01*
X11376428Y-8913190D02*
X11385952Y-8903667D01*
X11405000Y-8894143D01*
X11433571Y-8894143D01*
X11452619Y-8903667D01*
X11462143Y-8922714D01*
X11462143Y-9027476D01*
X11462143Y-8922714D02*
X11471667Y-8903667D01*
X11490714Y-8894143D01*
X11519286Y-8894143D01*
X11538333Y-8903667D01*
X11547857Y-8922714D01*
X11547857Y-9027476D01*
X11938333Y-8817952D02*
X11766905Y-9075095D01*
X12195476Y-8827476D02*
X12214524Y-8827476D01*
X12233571Y-8837000D01*
X12243095Y-8846524D01*
X12252619Y-8865571D01*
X12262143Y-8903667D01*
X12262143Y-8951286D01*
X12252619Y-8989381D01*
X12243095Y-9008429D01*
X12233571Y-9017952D01*
X12214524Y-9027476D01*
X12195476Y-9027476D01*
X12176428Y-9017952D01*
X12166905Y-9008429D01*
X12157381Y-8989381D01*
X12147857Y-8951286D01*
X12147857Y-8903667D01*
X12157381Y-8865571D01*
X12166905Y-8846524D01*
X12176428Y-8837000D01*
X12195476Y-8827476D01*
X12347857Y-9008429D02*
X12357381Y-9017952D01*
X12347857Y-9027476D01*
X12338333Y-9017952D01*
X12347857Y-9008429D01*
X12347857Y-9027476D01*
X12481190Y-8827476D02*
X12500238Y-8827476D01*
X12519286Y-8837000D01*
X12528809Y-8846524D01*
X12538333Y-8865571D01*
X12547857Y-8903667D01*
X12547857Y-8951286D01*
X12538333Y-8989381D01*
X12528809Y-9008429D01*
X12519286Y-9017952D01*
X12500238Y-9027476D01*
X12481190Y-9027476D01*
X12462143Y-9017952D01*
X12452619Y-9008429D01*
X12443095Y-8989381D01*
X12433571Y-8951286D01*
X12433571Y-8903667D01*
X12443095Y-8865571D01*
X12452619Y-8846524D01*
X12462143Y-8837000D01*
X12481190Y-8827476D01*
X12719286Y-8894143D02*
X12719286Y-9027476D01*
X12671667Y-8817952D02*
X12624048Y-8960810D01*
X12747857Y-8960810D01*
X12909762Y-8827476D02*
X12871667Y-8827476D01*
X12852619Y-8837000D01*
X12843095Y-8846524D01*
X12824048Y-8875095D01*
X12814524Y-8913190D01*
X12814524Y-8989381D01*
X12824048Y-9008429D01*
X12833571Y-9017952D01*
X12852619Y-9027476D01*
X12890714Y-9027476D01*
X12909762Y-9017952D01*
X12919286Y-9008429D01*
X12928809Y-8989381D01*
X12928809Y-8941762D01*
X12919286Y-8922714D01*
X12909762Y-8913190D01*
X12890714Y-8903667D01*
X12852619Y-8903667D01*
X12833571Y-8913190D01*
X12824048Y-8922714D01*
X12814524Y-8941762D01*
X13024048Y-9027476D02*
X13062143Y-9027476D01*
X13081190Y-9017952D01*
X13090714Y-9008429D01*
X13109762Y-8979857D01*
X13119286Y-8941762D01*
X13119286Y-8865571D01*
X13109762Y-8846524D01*
X13100238Y-8837000D01*
X13081190Y-8827476D01*
X13043095Y-8827476D01*
X13024048Y-8837000D01*
X13014524Y-8846524D01*
X13005000Y-8865571D01*
X13005000Y-8913190D01*
X13014524Y-8932238D01*
X13024048Y-8941762D01*
X13043095Y-8951286D01*
X13081190Y-8951286D01*
X13100238Y-8941762D01*
X13109762Y-8932238D01*
X13119286Y-8913190D01*
X13195476Y-8827476D02*
X13195476Y-8865571D01*
X13271667Y-8827476D02*
X13271667Y-8865571D01*
X13566905Y-9103667D02*
X13557381Y-9094143D01*
X13538333Y-9065571D01*
X13528809Y-9046524D01*
X13519286Y-9017952D01*
X13509762Y-8970333D01*
X13509762Y-8932238D01*
X13519286Y-8884619D01*
X13528809Y-8856048D01*
X13538333Y-8837000D01*
X13557381Y-8808429D01*
X13566905Y-8798905D01*
X13633571Y-8846524D02*
X13643095Y-8837000D01*
X13662143Y-8827476D01*
X13709762Y-8827476D01*
X13728809Y-8837000D01*
X13738333Y-8846524D01*
X13747857Y-8865571D01*
X13747857Y-8884619D01*
X13738333Y-8913190D01*
X13624048Y-9027476D01*
X13747857Y-9027476D01*
X13985952Y-9027476D02*
X13985952Y-8827476D01*
X14071667Y-9027476D02*
X14071667Y-8922714D01*
X14062143Y-8903667D01*
X14043095Y-8894143D01*
X14014524Y-8894143D01*
X13995476Y-8903667D01*
X13985952Y-8913190D01*
X14195476Y-9027476D02*
X14176428Y-9017952D01*
X14166905Y-9008429D01*
X14157381Y-8989381D01*
X14157381Y-8932238D01*
X14166905Y-8913190D01*
X14176428Y-8903667D01*
X14195476Y-8894143D01*
X14224048Y-8894143D01*
X14243095Y-8903667D01*
X14252619Y-8913190D01*
X14262143Y-8932238D01*
X14262143Y-8989381D01*
X14252619Y-9008429D01*
X14243095Y-9017952D01*
X14224048Y-9027476D01*
X14195476Y-9027476D01*
X14376428Y-9027476D02*
X14357381Y-9017952D01*
X14347857Y-8998905D01*
X14347857Y-8827476D01*
X14528809Y-9017952D02*
X14509762Y-9027476D01*
X14471667Y-9027476D01*
X14452619Y-9017952D01*
X14443095Y-8998905D01*
X14443095Y-8922714D01*
X14452619Y-8903667D01*
X14471667Y-8894143D01*
X14509762Y-8894143D01*
X14528809Y-8903667D01*
X14538333Y-8922714D01*
X14538333Y-8941762D01*
X14443095Y-8960810D01*
X14614524Y-9017952D02*
X14633571Y-9027476D01*
X14671667Y-9027476D01*
X14690714Y-9017952D01*
X14700238Y-8998905D01*
X14700238Y-8989381D01*
X14690714Y-8970333D01*
X14671667Y-8960810D01*
X14643095Y-8960810D01*
X14624048Y-8951286D01*
X14614524Y-8932238D01*
X14614524Y-8922714D01*
X14624048Y-8903667D01*
X14643095Y-8894143D01*
X14671667Y-8894143D01*
X14690714Y-8903667D01*
X14766905Y-9103667D02*
X14776428Y-9094143D01*
X14795476Y-9065571D01*
X14805000Y-9046524D01*
X14814524Y-9017952D01*
X14824048Y-8970333D01*
X14824048Y-8932238D01*
X14814524Y-8884619D01*
X14805000Y-8856048D01*
X14795476Y-8837000D01*
X14776428Y-8808429D01*
X14766905Y-8798905D01*
M02*
