M48
; DRILL file {KiCad (6.0.6)} date Pzt 04 Tem 2022 15:46:47
; FORMAT={-:-/ absolute / metric / decimal}
; #@! TF.CreationDate,2022-07-04T15:46:47+03:00
; #@! TF.GenerationSoftware,Kicad,Pcbnew,(6.0.6)
; #@! TF.FileFunction,Plated,1,4,PTH
FMAT,2
METRIC
; #@! TA.AperFunction,Plated,PTH,ViaDrill
T1C0.330
; #@! TA.AperFunction,Plated,PTH,ComponentDrill
T2C0.500
; #@! TA.AperFunction,Plated,PTH,ComponentDrill
T3C1.000
; #@! TA.AperFunction,Plated,PTH,ComponentDrill
T4C1.190
%
G90
G05
T1
X103.0Y-60.91
X106.62Y-60.38
X107.95Y-59.775
X110.475Y-69.25
X111.5Y-56.32
X114.55Y-68.35
X115.45Y-68.35
X116.35Y-55.125
X116.72Y-72.06
X117.69Y-55.79
X117.95Y-59.025
X118.175Y-56.675
X118.3Y-54.45
X118.55Y-56.175
X118.625Y-55.5
X118.65Y-57.35
X118.775Y-58.025
X118.825Y-52.9
X120.075Y-53.3
X120.3Y-70.57
X120.325Y-56.15
X120.425Y-57.35
X120.425Y-59.675
X120.57Y-69.85
X120.975Y-56.825
X121.24Y-72.13
X121.4Y-59.7
X121.7Y-55.1
X122.325Y-59.7
X122.4Y-54.1
X122.4Y-57.725
X122.5Y-55.0
X123.625Y-53.3
X124.35Y-72.41
X124.75Y-61.25
X125.27Y-64.45
X125.87Y-73.46
X126.475Y-67.65
X126.7Y-64.7
X126.905Y-61.33
X127.6Y-73.325
X128.0Y-51.25
X128.0Y-52.25
X128.0Y-53.25
X128.0Y-54.5
X128.0Y-57.0
X128.55Y-57.475
X128.9Y-72.15
X129.85Y-71.325
X129.975Y-63.05
X130.0Y-66.625
X130.05Y-64.875
X130.5Y-51.25
X130.5Y-52.25
X130.5Y-53.25
X130.5Y-54.5
X130.7Y-59.25
X131.0Y-64.0
X131.2Y-68.35
X131.25Y-61.375
X131.45Y-59.325
X131.61Y-66.64
X131.925Y-63.05
X131.975Y-64.9
X132.925Y-69.875
X133.075Y-73.525
X133.075Y-74.15
X133.175Y-59.675
X133.25Y-56.75
X133.275Y-61.35
X134.025Y-60.375
X134.22Y-70.832
X134.25Y-53.15
X134.25Y-72.725
X134.275Y-50.7
X134.5Y-56.75
X135.0Y-60.4
X135.15Y-61.371
X135.181Y-65.0
X137.1Y-65.0
X137.25Y-61.4
X137.275Y-60.35
X137.7Y-55.475
X138.004Y-53.197
X140.1Y-63.4
X142.025Y-63.0
X144.25Y-65.0
X145.0Y-52.05
X145.15Y-54.7
X145.45Y-65.0
X145.49Y-63.9
X146.0Y-55.5
X146.25Y-63.0
X146.3Y-60.2
X146.5Y-65.0
X148.075Y-55.15
X148.075Y-57.8
X148.09Y-72.99
X148.425Y-68.025
X149.365Y-62.36
X149.365Y-63.91
X150.635Y-62.34
X150.635Y-63.965
X151.83Y-67.97
X151.85Y-59.2
X151.9Y-61.875
X153.95Y-60.6
X155.4Y-66.175
T2
X102.77Y-58.29
X103.77Y-58.29
X104.77Y-58.29
X105.77Y-58.29
X106.77Y-58.29
X111.19Y-53.68
X112.19Y-53.68
X113.19Y-53.68
X114.17Y-69.64
X114.17Y-70.64
X114.17Y-71.64
X114.17Y-72.64
X114.17Y-73.64
X114.19Y-53.68
X115.19Y-53.68
T3
X139.475Y-73.0
X142.015Y-73.0
X144.555Y-73.0
T4
X155.0Y-54.0
X157.54Y-54.0
T0
M30
