%TF.GenerationSoftware,KiCad,Pcbnew,(6.0.6)*%
%TF.CreationDate,2022-07-04T15:46:39+03:00*%
%TF.ProjectId,gimble,67696d62-6c65-42e6-9b69-6361645f7063,0.2*%
%TF.SameCoordinates,Original*%
%TF.FileFunction,Legend,Bot*%
%TF.FilePolarity,Positive*%
%FSLAX46Y46*%
G04 Gerber Fmt 4.6, Leading zero omitted, Abs format (unit mm)*
G04 Created by KiCad (PCBNEW (6.0.6)) date 2022-07-04 15:46:39*
%MOMM*%
%LPD*%
G01*
G04 APERTURE LIST*
%ADD10C,0.120000*%
G04 APERTURE END LIST*
D10*
%TO.C,C309*%
X131840000Y-69292164D02*
X131840000Y-69507836D01*
X132560000Y-69292164D02*
X132560000Y-69507836D01*
%TO.C,C308*%
X133360000Y-58390580D02*
X133360000Y-58109420D01*
X132340000Y-58390580D02*
X132340000Y-58109420D01*
%TO.C,C304*%
X136067164Y-64640000D02*
X136282836Y-64640000D01*
X136067164Y-65360000D02*
X136282836Y-65360000D01*
%TO.C,C310*%
X130960000Y-58082836D02*
X130960000Y-57867164D01*
X130240000Y-58082836D02*
X130240000Y-57867164D01*
%TO.C,C305*%
X125882836Y-65335000D02*
X125667164Y-65335000D01*
X125882836Y-64615000D02*
X125667164Y-64615000D01*
%TO.C,C307*%
X131240000Y-58082836D02*
X131240000Y-57867164D01*
X131960000Y-58082836D02*
X131960000Y-57867164D01*
%TO.C,C306*%
X136117164Y-59965000D02*
X136332836Y-59965000D01*
X136117164Y-60685000D02*
X136332836Y-60685000D01*
%TO.C,C301*%
X136117164Y-61015000D02*
X136332836Y-61015000D01*
X136117164Y-61735000D02*
X136332836Y-61735000D01*
%TO.C,C300*%
X134885000Y-58390580D02*
X134885000Y-58109420D01*
X133865000Y-58390580D02*
X133865000Y-58109420D01*
%TO.C,C302*%
X125982836Y-60965000D02*
X125767164Y-60965000D01*
X125982836Y-61685000D02*
X125767164Y-61685000D01*
%TO.C,C303*%
X131560000Y-69292164D02*
X131560000Y-69507836D01*
X130840000Y-69292164D02*
X130840000Y-69507836D01*
%TD*%
M02*
