%TF.GenerationSoftware,KiCad,Pcbnew,(6.0.6)*%
%TF.CreationDate,2022-07-04T15:46:39+03:00*%
%TF.ProjectId,gimble,67696d62-6c65-42e6-9b69-6361645f7063,0.2*%
%TF.SameCoordinates,Original*%
%TF.FileFunction,Copper,L1,Top*%
%TF.FilePolarity,Positive*%
%FSLAX46Y46*%
G04 Gerber Fmt 4.6, Leading zero omitted, Abs format (unit mm)*
G04 Created by KiCad (PCBNEW (6.0.6)) date 2022-07-04 15:46:39*
%MOMM*%
%LPD*%
G01*
G04 APERTURE LIST*
G04 Aperture macros list*
%AMRoundRect*
0 Rectangle with rounded corners*
0 $1 Rounding radius*
0 $2 $3 $4 $5 $6 $7 $8 $9 X,Y pos of 4 corners*
0 Add a 4 corners polygon primitive as box body*
4,1,4,$2,$3,$4,$5,$6,$7,$8,$9,$2,$3,0*
0 Add four circle primitives for the rounded corners*
1,1,$1+$1,$2,$3*
1,1,$1+$1,$4,$5*
1,1,$1+$1,$6,$7*
1,1,$1+$1,$8,$9*
0 Add four rect primitives between the rounded corners*
20,1,$1+$1,$2,$3,$4,$5,0*
20,1,$1+$1,$4,$5,$6,$7,0*
20,1,$1+$1,$6,$7,$8,$9,0*
20,1,$1+$1,$8,$9,$2,$3,0*%
G04 Aperture macros list end*
%TA.AperFunction,SMDPad,CuDef*%
%ADD10RoundRect,0.140000X0.170000X-0.140000X0.170000X0.140000X-0.170000X0.140000X-0.170000X-0.140000X0*%
%TD*%
%TA.AperFunction,SMDPad,CuDef*%
%ADD11RoundRect,0.147500X0.172500X-0.147500X0.172500X0.147500X-0.172500X0.147500X-0.172500X-0.147500X0*%
%TD*%
%TA.AperFunction,ComponentPad*%
%ADD12R,0.850000X0.850000*%
%TD*%
%TA.AperFunction,ComponentPad*%
%ADD13O,0.850000X0.850000*%
%TD*%
%TA.AperFunction,SMDPad,CuDef*%
%ADD14RoundRect,0.218750X-0.218750X-0.256250X0.218750X-0.256250X0.218750X0.256250X-0.218750X0.256250X0*%
%TD*%
%TA.AperFunction,SMDPad,CuDef*%
%ADD15RoundRect,0.125000X-0.250000X-0.125000X0.250000X-0.125000X0.250000X0.125000X-0.250000X0.125000X0*%
%TD*%
%TA.AperFunction,SMDPad,CuDef*%
%ADD16R,3.400000X4.300000*%
%TD*%
%TA.AperFunction,SMDPad,CuDef*%
%ADD17RoundRect,0.250000X-0.287500X-0.275000X0.287500X-0.275000X0.287500X0.275000X-0.287500X0.275000X0*%
%TD*%
%TA.AperFunction,SMDPad,CuDef*%
%ADD18R,0.900000X1.700000*%
%TD*%
%TA.AperFunction,SMDPad,CuDef*%
%ADD19RoundRect,0.087500X0.187500X0.087500X-0.187500X0.087500X-0.187500X-0.087500X0.187500X-0.087500X0*%
%TD*%
%TA.AperFunction,SMDPad,CuDef*%
%ADD20RoundRect,0.087500X0.087500X0.187500X-0.087500X0.187500X-0.087500X-0.187500X0.087500X-0.187500X0*%
%TD*%
%TA.AperFunction,SMDPad,CuDef*%
%ADD21RoundRect,0.135000X-0.135000X-0.185000X0.135000X-0.185000X0.135000X0.185000X-0.135000X0.185000X0*%
%TD*%
%TA.AperFunction,SMDPad,CuDef*%
%ADD22RoundRect,0.150000X-0.150000X0.825000X-0.150000X-0.825000X0.150000X-0.825000X0.150000X0.825000X0*%
%TD*%
%TA.AperFunction,SMDPad,CuDef*%
%ADD23R,1.700000X0.900000*%
%TD*%
%TA.AperFunction,ComponentPad*%
%ADD24R,1.700000X1.700000*%
%TD*%
%TA.AperFunction,ComponentPad*%
%ADD25O,1.700000X1.700000*%
%TD*%
%TA.AperFunction,SMDPad,CuDef*%
%ADD26RoundRect,0.150000X0.150000X-0.825000X0.150000X0.825000X-0.150000X0.825000X-0.150000X-0.825000X0*%
%TD*%
%TA.AperFunction,SMDPad,CuDef*%
%ADD27RoundRect,0.225000X-0.250000X0.225000X-0.250000X-0.225000X0.250000X-0.225000X0.250000X0.225000X0*%
%TD*%
%TA.AperFunction,SMDPad,CuDef*%
%ADD28RoundRect,0.140000X0.140000X0.170000X-0.140000X0.170000X-0.140000X-0.170000X0.140000X-0.170000X0*%
%TD*%
%TA.AperFunction,SMDPad,CuDef*%
%ADD29RoundRect,0.135000X0.135000X0.185000X-0.135000X0.185000X-0.135000X-0.185000X0.135000X-0.185000X0*%
%TD*%
%TA.AperFunction,SMDPad,CuDef*%
%ADD30R,1.400000X1.200000*%
%TD*%
%TA.AperFunction,SMDPad,CuDef*%
%ADD31RoundRect,0.147500X0.147500X0.172500X-0.147500X0.172500X-0.147500X-0.172500X0.147500X-0.172500X0*%
%TD*%
%TA.AperFunction,ComponentPad*%
%ADD32RoundRect,0.250000X-0.620000X-0.845000X0.620000X-0.845000X0.620000X0.845000X-0.620000X0.845000X0*%
%TD*%
%TA.AperFunction,ComponentPad*%
%ADD33O,1.740000X2.190000*%
%TD*%
%TA.AperFunction,SMDPad,CuDef*%
%ADD34RoundRect,0.250000X-0.275000X0.287500X-0.275000X-0.287500X0.275000X-0.287500X0.275000X0.287500X0*%
%TD*%
%TA.AperFunction,SMDPad,CuDef*%
%ADD35RoundRect,0.150000X0.825000X0.150000X-0.825000X0.150000X-0.825000X-0.150000X0.825000X-0.150000X0*%
%TD*%
%TA.AperFunction,SMDPad,CuDef*%
%ADD36RoundRect,0.140000X-0.170000X0.140000X-0.170000X-0.140000X0.170000X-0.140000X0.170000X0.140000X0*%
%TD*%
%TA.AperFunction,SMDPad,CuDef*%
%ADD37RoundRect,0.050000X-0.387500X-0.050000X0.387500X-0.050000X0.387500X0.050000X-0.387500X0.050000X0*%
%TD*%
%TA.AperFunction,SMDPad,CuDef*%
%ADD38RoundRect,0.050000X-0.050000X-0.387500X0.050000X-0.387500X0.050000X0.387500X-0.050000X0.387500X0*%
%TD*%
%TA.AperFunction,SMDPad,CuDef*%
%ADD39R,3.200000X3.200000*%
%TD*%
%TA.AperFunction,SMDPad,CuDef*%
%ADD40RoundRect,0.150000X0.150000X-0.587500X0.150000X0.587500X-0.150000X0.587500X-0.150000X-0.587500X0*%
%TD*%
%TA.AperFunction,SMDPad,CuDef*%
%ADD41RoundRect,0.135000X0.185000X-0.135000X0.185000X0.135000X-0.185000X0.135000X-0.185000X-0.135000X0*%
%TD*%
%TA.AperFunction,SMDPad,CuDef*%
%ADD42R,0.450000X1.380000*%
%TD*%
%TA.AperFunction,SMDPad,CuDef*%
%ADD43R,1.650000X1.300000*%
%TD*%
%TA.AperFunction,SMDPad,CuDef*%
%ADD44R,1.425000X1.550000*%
%TD*%
%TA.AperFunction,SMDPad,CuDef*%
%ADD45R,1.800000X1.900000*%
%TD*%
%TA.AperFunction,SMDPad,CuDef*%
%ADD46R,1.000000X1.900000*%
%TD*%
%TA.AperFunction,SMDPad,CuDef*%
%ADD47RoundRect,0.135000X-0.185000X0.135000X-0.185000X-0.135000X0.185000X-0.135000X0.185000X0.135000X0*%
%TD*%
%TA.AperFunction,SMDPad,CuDef*%
%ADD48RoundRect,0.225000X-0.225000X-0.250000X0.225000X-0.250000X0.225000X0.250000X-0.225000X0.250000X0*%
%TD*%
%TA.AperFunction,ViaPad*%
%ADD49C,0.500000*%
%TD*%
%TA.AperFunction,Conductor*%
%ADD50C,0.200000*%
%TD*%
%TA.AperFunction,Conductor*%
%ADD51C,0.330000*%
%TD*%
%TA.AperFunction,Conductor*%
%ADD52C,0.500000*%
%TD*%
%TA.AperFunction,Conductor*%
%ADD53C,0.750000*%
%TD*%
%TA.AperFunction,Conductor*%
%ADD54C,1.000000*%
%TD*%
G04 APERTURE END LIST*
D10*
%TO.P,C402,1*%
%TO.N,+3V3*%
X118850000Y-54430000D03*
%TO.P,C402,2*%
%TO.N,GND*%
X118850000Y-53470000D03*
%TD*%
D11*
%TO.P,D202,1,K*%
%TO.N,GND*%
X145000000Y-51485000D03*
%TO.P,D202,2,A*%
%TO.N,Net-(R202-Pad2)*%
X145000000Y-50515000D03*
%TD*%
D12*
%TO.P,M500,1*%
%TO.N,+5V*%
X115190000Y-53680000D03*
D13*
%TO.P,M500,2*%
%TO.N,Net-(M500-Pad2)*%
X114190000Y-53680000D03*
%TO.P,M500,3,-*%
%TO.N,Net-(M500-Pad3)*%
X113190000Y-53680000D03*
%TO.P,M500,4*%
%TO.N,Net-(M500-Pad4)*%
X112190000Y-53680000D03*
%TO.P,M500,5*%
%TO.N,Net-(M500-Pad5)*%
X111190000Y-53680000D03*
%TD*%
D14*
%TO.P,D200,1,K*%
%TO.N,Net-(D200-Pad1)*%
X154212500Y-59000000D03*
%TO.P,D200,2,A*%
%TO.N,+12V*%
X155787500Y-59000000D03*
%TD*%
D15*
%TO.P,U301,1,~{CS}*%
%TO.N,SS*%
X126610000Y-50970000D03*
%TO.P,U301,2,DO(IO1)*%
%TO.N,SD1*%
X126610000Y-52240000D03*
%TO.P,U301,3,IO2*%
%TO.N,SD2*%
X126610000Y-53510000D03*
%TO.P,U301,4,GND*%
%TO.N,GND*%
X126610000Y-54780000D03*
%TO.P,U301,5,DI(IO0)*%
%TO.N,SD0*%
X132010000Y-54780000D03*
%TO.P,U301,6,CLK*%
%TO.N,SCLK*%
X132010000Y-53510000D03*
%TO.P,U301,7,IO3*%
%TO.N,SD3*%
X132010000Y-52240000D03*
%TO.P,U301,8,VCC*%
%TO.N,+3V3*%
X132010000Y-50970000D03*
D16*
%TO.P,U301,9,EP*%
%TO.N,GND*%
X129310000Y-52875000D03*
%TD*%
D17*
%TO.P,C200,1*%
%TO.N,+3V3*%
X149287500Y-68000000D03*
%TO.P,C200,2*%
%TO.N,GND*%
X150712500Y-68000000D03*
%TD*%
D18*
%TO.P,SW300,1,1*%
%TO.N,GND*%
X147300000Y-73000000D03*
%TO.P,SW300,2,2*%
%TO.N,Net-(U300-Pad26)*%
X150700000Y-73000000D03*
%TD*%
D19*
%TO.P,U400,1,VDDIO*%
%TO.N,+3V3*%
X121700000Y-57675000D03*
%TO.P,U400,2,SCL/SPC*%
%TO.N,SCL*%
X121700000Y-57175000D03*
%TO.P,U400,3,SDA/SDI*%
%TO.N,SDA*%
X121700000Y-56675000D03*
%TO.P,U400,4,SAO/SD0*%
%TO.N,GND*%
X121700000Y-56175000D03*
%TO.P,U400,5,~{CS}*%
%TO.N,+3V3*%
X121700000Y-55675000D03*
D20*
%TO.P,U400,6,INT*%
X120975000Y-55450000D03*
%TO.P,U400,7,RESV*%
%TO.N,unconnected-(U400-Pad7)*%
X120475000Y-55450000D03*
%TO.P,U400,8,FSYNC*%
%TO.N,+3V3*%
X119975000Y-55450000D03*
D19*
%TO.P,U400,9,GND*%
%TO.N,GND*%
X119250000Y-55675000D03*
%TO.P,U400,10,GND*%
X119250000Y-56175000D03*
%TO.P,U400,11,GND*%
X119250000Y-56675000D03*
%TO.P,U400,12,GND*%
X119250000Y-57175000D03*
%TO.P,U400,13,GND*%
X119250000Y-57675000D03*
D20*
%TO.P,U400,14,REGOUT*%
%TO.N,Net-(C403-Pad1)*%
X119975000Y-57900000D03*
%TO.P,U400,15,GND*%
%TO.N,GND*%
X120475000Y-57900000D03*
%TO.P,U400,16,VDD*%
%TO.N,+3V3*%
X120975000Y-57900000D03*
%TD*%
D10*
%TO.P,C311,1*%
%TO.N,/RP2040/XIN*%
X128325000Y-74280000D03*
%TO.P,C311,2*%
%TO.N,GND*%
X128325000Y-73320000D03*
%TD*%
D21*
%TO.P,R303,1*%
%TO.N,Net-(U300-Pad37)*%
X136415000Y-63400000D03*
%TO.P,R303,2*%
%TO.N,Net-(R303-Pad2)*%
X137435000Y-63400000D03*
%TD*%
D22*
%TO.P,U200,1,GND*%
%TO.N,GND*%
X151905000Y-60525000D03*
%TO.P,U200,2,VO*%
%TO.N,+3V3*%
X150635000Y-60525000D03*
%TO.P,U200,3,VO*%
X149365000Y-60525000D03*
%TO.P,U200,4,VI*%
%TO.N,+5V*%
X148095000Y-60525000D03*
%TO.P,U200,5,NC*%
%TO.N,unconnected-(U200-Pad5)*%
X148095000Y-65475000D03*
%TO.P,U200,6,VO*%
%TO.N,+3V3*%
X149365000Y-65475000D03*
%TO.P,U200,7,VO*%
X150635000Y-65475000D03*
%TO.P,U200,8,NC*%
%TO.N,unconnected-(U200-Pad8)*%
X151905000Y-65475000D03*
%TD*%
D12*
%TO.P,M501,1*%
%TO.N,+5V*%
X106770000Y-58290000D03*
D13*
%TO.P,M501,2*%
%TO.N,Net-(U501-Pad15)*%
X105770000Y-58290000D03*
%TO.P,M501,3,-*%
%TO.N,Net-(U501-Pad13)*%
X104770000Y-58290000D03*
%TO.P,M501,4*%
%TO.N,Net-(U501-Pad14)*%
X103770000Y-58290000D03*
%TO.P,M501,5*%
%TO.N,Net-(U501-Pad16)*%
X102770000Y-58290000D03*
%TD*%
D23*
%TO.P,SW301,1,1*%
%TO.N,GND*%
X155400000Y-65425000D03*
%TO.P,SW301,2,2*%
%TO.N,Net-(SW301-Pad2)*%
X155400000Y-62025000D03*
%TD*%
D21*
%TO.P,R302,1*%
%TO.N,/RP2040/XOUT*%
X131615000Y-70725000D03*
%TO.P,R302,2*%
%TO.N,Net-(C312-Pad1)*%
X132635000Y-70725000D03*
%TD*%
D24*
%TO.P,J300,1,Pin_1*%
%TO.N,/RP2040/SWCLK*%
X139475000Y-73000000D03*
D25*
%TO.P,J300,2,Pin_2*%
%TO.N,GND*%
X142015000Y-73000000D03*
%TO.P,J300,3,Pin_3*%
%TO.N,/RP2040/SWD*%
X144555000Y-73000000D03*
%TD*%
D21*
%TO.P,R401,1*%
%TO.N,+3V3*%
X122340000Y-59000000D03*
%TO.P,R401,2*%
%TO.N,SCL*%
X123360000Y-59000000D03*
%TD*%
D26*
%TO.P,U201,1,GND*%
%TO.N,GND*%
X148095000Y-56475000D03*
%TO.P,U201,2,VO*%
%TO.N,+5V*%
X149365000Y-56475000D03*
%TO.P,U201,3,VO*%
X150635000Y-56475000D03*
%TO.P,U201,4,VI*%
%TO.N,Net-(D200-Pad1)*%
X151905000Y-56475000D03*
%TO.P,U201,5,NC*%
%TO.N,unconnected-(U201-Pad5)*%
X151905000Y-51525000D03*
%TO.P,U201,6,VO*%
%TO.N,+5V*%
X150635000Y-51525000D03*
%TO.P,U201,7,VO*%
X149365000Y-51525000D03*
%TO.P,U201,8,NC*%
%TO.N,unconnected-(U201-Pad8)*%
X148095000Y-51525000D03*
%TD*%
D22*
%TO.P,U502,1,I1*%
%TO.N,P31*%
X125065000Y-68435000D03*
%TO.P,U502,2,I2*%
%TO.N,P32*%
X123795000Y-68435000D03*
%TO.P,U502,3,I3*%
%TO.N,P33*%
X122525000Y-68435000D03*
%TO.P,U502,4,I4*%
%TO.N,P34*%
X121255000Y-68435000D03*
%TO.P,U502,5,I5*%
%TO.N,unconnected-(U502-Pad5)*%
X119985000Y-68435000D03*
%TO.P,U502,6,I6*%
%TO.N,unconnected-(U502-Pad6)*%
X118715000Y-68435000D03*
%TO.P,U502,7,I7*%
%TO.N,unconnected-(U502-Pad7)*%
X117445000Y-68435000D03*
%TO.P,U502,8,GND*%
%TO.N,GND*%
X116175000Y-68435000D03*
%TO.P,U502,9,COM*%
%TO.N,+5V*%
X116175000Y-73385000D03*
%TO.P,U502,10,O7*%
%TO.N,unconnected-(U502-Pad10)*%
X117445000Y-73385000D03*
%TO.P,U502,11,O6*%
%TO.N,unconnected-(U502-Pad11)*%
X118715000Y-73385000D03*
%TO.P,U502,12,O5*%
%TO.N,unconnected-(U502-Pad12)*%
X119985000Y-73385000D03*
%TO.P,U502,13,O4*%
%TO.N,Net-(U502-Pad13)*%
X121255000Y-73385000D03*
%TO.P,U502,14,O3*%
%TO.N,Net-(U502-Pad14)*%
X122525000Y-73385000D03*
%TO.P,U502,15,O2*%
%TO.N,Net-(U502-Pad15)*%
X123795000Y-73385000D03*
%TO.P,U502,16,O1*%
%TO.N,Net-(U502-Pad16)*%
X125065000Y-73385000D03*
%TD*%
D27*
%TO.P,C313,1*%
%TO.N,+3V3*%
X133460000Y-50825000D03*
%TO.P,C313,2*%
%TO.N,GND*%
X133460000Y-52375000D03*
%TD*%
D28*
%TO.P,C403,1*%
%TO.N,Net-(C403-Pad1)*%
X119455000Y-59000000D03*
%TO.P,C403,2*%
%TO.N,GND*%
X118495000Y-59000000D03*
%TD*%
D29*
%TO.P,R301,1*%
%TO.N,D-*%
X136600000Y-58075000D03*
%TO.P,R301,2*%
%TO.N,/RP2040/UD-*%
X135580000Y-58075000D03*
%TD*%
D30*
%TO.P,Y300,1,1*%
%TO.N,/RP2040/XIN*%
X129900000Y-73850000D03*
%TO.P,Y300,2,2*%
%TO.N,GND*%
X132100000Y-73850000D03*
%TO.P,Y300,3,3*%
%TO.N,Net-(C312-Pad1)*%
X132100000Y-72150000D03*
%TO.P,Y300,4,4*%
%TO.N,GND*%
X129900000Y-72150000D03*
%TD*%
D11*
%TO.P,D201,1,K*%
%TO.N,GND*%
X146300000Y-59535000D03*
%TO.P,D201,2,A*%
%TO.N,Net-(R201-Pad2)*%
X146300000Y-58565000D03*
%TD*%
D28*
%TO.P,C400,1*%
%TO.N,+3V3*%
X121380000Y-59000000D03*
%TO.P,C400,2*%
%TO.N,GND*%
X120420000Y-59000000D03*
%TD*%
D31*
%TO.P,D300,1,K*%
%TO.N,GND*%
X139460000Y-63400000D03*
%TO.P,D300,2,A*%
%TO.N,Net-(R303-Pad2)*%
X138490000Y-63400000D03*
%TD*%
D32*
%TO.P,J201,1,Pin_1*%
%TO.N,+12V*%
X155000000Y-54000000D03*
D33*
%TO.P,J201,2,Pin_2*%
%TO.N,GND*%
X157540000Y-54000000D03*
%TD*%
D34*
%TO.P,C201,1*%
%TO.N,+5V*%
X146000000Y-53287500D03*
%TO.P,C201,2*%
%TO.N,GND*%
X146000000Y-54712500D03*
%TD*%
D35*
%TO.P,U501,1,I1*%
%TO.N,P21*%
X107955000Y-69255000D03*
%TO.P,U501,2,I2*%
%TO.N,P22*%
X107955000Y-67985000D03*
%TO.P,U501,3,I3*%
%TO.N,P23*%
X107955000Y-66715000D03*
%TO.P,U501,4,I4*%
%TO.N,P24*%
X107955000Y-65445000D03*
%TO.P,U501,5,I5*%
%TO.N,unconnected-(U501-Pad5)*%
X107955000Y-64175000D03*
%TO.P,U501,6,I6*%
%TO.N,unconnected-(U501-Pad6)*%
X107955000Y-62905000D03*
%TO.P,U501,7,I7*%
%TO.N,unconnected-(U501-Pad7)*%
X107955000Y-61635000D03*
%TO.P,U501,8,GND*%
%TO.N,GND*%
X107955000Y-60365000D03*
%TO.P,U501,9,COM*%
%TO.N,+5V*%
X103005000Y-60365000D03*
%TO.P,U501,10,O7*%
%TO.N,unconnected-(U501-Pad10)*%
X103005000Y-61635000D03*
%TO.P,U501,11,O6*%
%TO.N,unconnected-(U501-Pad11)*%
X103005000Y-62905000D03*
%TO.P,U501,12,O5*%
%TO.N,unconnected-(U501-Pad12)*%
X103005000Y-64175000D03*
%TO.P,U501,13,O4*%
%TO.N,Net-(U501-Pad13)*%
X103005000Y-65445000D03*
%TO.P,U501,14,O3*%
%TO.N,Net-(U501-Pad14)*%
X103005000Y-66715000D03*
%TO.P,U501,15,O2*%
%TO.N,Net-(U501-Pad15)*%
X103005000Y-67985000D03*
%TO.P,U501,16,O1*%
%TO.N,Net-(U501-Pad16)*%
X103005000Y-69255000D03*
%TD*%
D29*
%TO.P,R304,1*%
%TO.N,Net-(SW301-Pad2)*%
X155520000Y-60595000D03*
%TO.P,R304,2*%
%TO.N,SS*%
X154500000Y-60595000D03*
%TD*%
D14*
%TO.P,FB200,1*%
%TO.N,Net-(FB200-Pad1)*%
X143212500Y-57000000D03*
%TO.P,FB200,2*%
%TO.N,/POWER/USBV*%
X144787500Y-57000000D03*
%TD*%
D36*
%TO.P,C312,1*%
%TO.N,Net-(C312-Pad1)*%
X133700000Y-71770000D03*
%TO.P,C312,2*%
%TO.N,GND*%
X133700000Y-72730000D03*
%TD*%
D37*
%TO.P,U300,1,IOVDD*%
%TO.N,+3V3*%
X127562500Y-61400000D03*
%TO.P,U300,2,00*%
%TO.N,SDA*%
X127562500Y-61800000D03*
%TO.P,U300,3,01*%
%TO.N,SCL*%
X127562500Y-62200000D03*
%TO.P,U300,4,02*%
%TO.N,P14*%
X127562500Y-62600000D03*
%TO.P,U300,5,03*%
%TO.N,P13*%
X127562500Y-63000000D03*
%TO.P,U300,6,04*%
%TO.N,P12*%
X127562500Y-63400000D03*
%TO.P,U300,7,05*%
%TO.N,P11*%
X127562500Y-63800000D03*
%TO.P,U300,8,06*%
%TO.N,unconnected-(U300-Pad8)*%
X127562500Y-64200000D03*
%TO.P,U300,9,07*%
%TO.N,unconnected-(U300-Pad9)*%
X127562500Y-64600000D03*
%TO.P,U300,10,IOVDD*%
%TO.N,+3V3*%
X127562500Y-65000000D03*
%TO.P,U300,11,08*%
%TO.N,P24*%
X127562500Y-65400000D03*
%TO.P,U300,12,09*%
%TO.N,P23*%
X127562500Y-65800000D03*
%TO.P,U300,13,10*%
%TO.N,P22*%
X127562500Y-66200000D03*
%TO.P,U300,14,11*%
%TO.N,P21*%
X127562500Y-66600000D03*
D38*
%TO.P,U300,15,12*%
%TO.N,P31*%
X128400000Y-67437500D03*
%TO.P,U300,16,13*%
%TO.N,P32*%
X128800000Y-67437500D03*
%TO.P,U300,17,14*%
%TO.N,P33*%
X129200000Y-67437500D03*
%TO.P,U300,18,15*%
%TO.N,P34*%
X129600000Y-67437500D03*
%TO.P,U300,19,TESTEN*%
%TO.N,GND*%
X130000000Y-67437500D03*
%TO.P,U300,20,XIN*%
%TO.N,/RP2040/XIN*%
X130400000Y-67437500D03*
%TO.P,U300,21,XOUT*%
%TO.N,/RP2040/XOUT*%
X130800000Y-67437500D03*
%TO.P,U300,22,IOVDD*%
%TO.N,+3V3*%
X131200000Y-67437500D03*
%TO.P,U300,23,DVDD*%
%TO.N,+1V1*%
X131600000Y-67437500D03*
%TO.P,U300,24,SWCLK*%
%TO.N,/RP2040/SWCLK*%
X132000000Y-67437500D03*
%TO.P,U300,25,SWD*%
%TO.N,/RP2040/SWD*%
X132400000Y-67437500D03*
%TO.P,U300,26,RUN*%
%TO.N,Net-(U300-Pad26)*%
X132800000Y-67437500D03*
%TO.P,U300,27,16*%
%TO.N,unconnected-(U300-Pad27)*%
X133200000Y-67437500D03*
%TO.P,U300,28,17*%
%TO.N,unconnected-(U300-Pad28)*%
X133600000Y-67437500D03*
D37*
%TO.P,U300,29,18*%
%TO.N,unconnected-(U300-Pad29)*%
X134437500Y-66600000D03*
%TO.P,U300,30,19*%
%TO.N,unconnected-(U300-Pad30)*%
X134437500Y-66200000D03*
%TO.P,U300,31,20*%
%TO.N,unconnected-(U300-Pad31)*%
X134437500Y-65800000D03*
%TO.P,U300,32,21*%
%TO.N,unconnected-(U300-Pad32)*%
X134437500Y-65400000D03*
%TO.P,U300,33,IOVDD*%
%TO.N,+3V3*%
X134437500Y-65000000D03*
%TO.P,U300,34,22*%
%TO.N,unconnected-(U300-Pad34)*%
X134437500Y-64600000D03*
%TO.P,U300,35,23*%
%TO.N,unconnected-(U300-Pad35)*%
X134437500Y-64200000D03*
%TO.P,U300,36,24*%
%TO.N,unconnected-(U300-Pad36)*%
X134437500Y-63800000D03*
%TO.P,U300,37,25*%
%TO.N,Net-(U300-Pad37)*%
X134437500Y-63400000D03*
%TO.P,U300,38,26_ADC0*%
%TO.N,unconnected-(U300-Pad38)*%
X134437500Y-63000000D03*
%TO.P,U300,39,27_ADC1*%
%TO.N,unconnected-(U300-Pad39)*%
X134437500Y-62600000D03*
%TO.P,U300,40,28_ADC2*%
%TO.N,unconnected-(U300-Pad40)*%
X134437500Y-62200000D03*
%TO.P,U300,41,29_ADC3*%
%TO.N,unconnected-(U300-Pad41)*%
X134437500Y-61800000D03*
%TO.P,U300,42,IOVDD*%
%TO.N,+3V3*%
X134437500Y-61400000D03*
D38*
%TO.P,U300,43,ADC_IOVDD*%
X133600000Y-60562500D03*
%TO.P,U300,44,VREG_IOVDD*%
X133200000Y-60562500D03*
%TO.P,U300,45,VREG_VOUT*%
%TO.N,+1V1*%
X132800000Y-60562500D03*
%TO.P,U300,46,UD-*%
%TO.N,/RP2040/UD-*%
X132400000Y-60562500D03*
%TO.P,U300,47,UD+*%
%TO.N,/RP2040/UD+*%
X132000000Y-60562500D03*
%TO.P,U300,48,USB_IOVDD*%
%TO.N,+3V3*%
X131600000Y-60562500D03*
%TO.P,U300,49,IOVDD*%
X131200000Y-60562500D03*
%TO.P,U300,50,DVDD*%
%TO.N,+1V1*%
X130800000Y-60562500D03*
%TO.P,U300,51,SD3*%
%TO.N,SD3*%
X130400000Y-60562500D03*
%TO.P,U300,52,SCLK*%
%TO.N,SCLK*%
X130000000Y-60562500D03*
%TO.P,U300,53,SD0*%
%TO.N,SD0*%
X129600000Y-60562500D03*
%TO.P,U300,54,SD2*%
%TO.N,SD2*%
X129200000Y-60562500D03*
%TO.P,U300,55,SD1*%
%TO.N,SD1*%
X128800000Y-60562500D03*
%TO.P,U300,56,SS*%
%TO.N,SS*%
X128400000Y-60562500D03*
D39*
%TO.P,U300,57*%
%TO.N,GND*%
X131000000Y-64000000D03*
%TD*%
D21*
%TO.P,R203,1*%
%TO.N,/POWER/DISABLE*%
X144490000Y-63000000D03*
%TO.P,R203,2*%
%TO.N,+5V*%
X145510000Y-63000000D03*
%TD*%
D40*
%TO.P,Q200,1,G*%
%TO.N,/POWER/DISABLE*%
X143050000Y-60937500D03*
%TO.P,Q200,2,S*%
%TO.N,+5V*%
X144950000Y-60937500D03*
%TO.P,Q200,3,D*%
%TO.N,/POWER/USBV*%
X144000000Y-59062500D03*
%TD*%
D12*
%TO.P,M502,1*%
%TO.N,+5V*%
X114170000Y-69640000D03*
D13*
%TO.P,M502,2*%
%TO.N,Net-(U502-Pad15)*%
X114170000Y-70640000D03*
%TO.P,M502,3,-*%
%TO.N,Net-(U502-Pad13)*%
X114170000Y-71640000D03*
%TO.P,M502,4*%
%TO.N,Net-(U502-Pad14)*%
X114170000Y-72640000D03*
%TO.P,M502,5*%
%TO.N,Net-(U502-Pad16)*%
X114170000Y-73640000D03*
%TD*%
D41*
%TO.P,R202,1*%
%TO.N,+5V*%
X146000000Y-51510000D03*
%TO.P,R202,2*%
%TO.N,Net-(R202-Pad2)*%
X146000000Y-50490000D03*
%TD*%
D35*
%TO.P,U500,1,I1*%
%TO.N,P11*%
X116375000Y-64670000D03*
%TO.P,U500,2,I2*%
%TO.N,P12*%
X116375000Y-63400000D03*
%TO.P,U500,3,I3*%
%TO.N,P13*%
X116375000Y-62130000D03*
%TO.P,U500,4,I4*%
%TO.N,P14*%
X116375000Y-60860000D03*
%TO.P,U500,5,I5*%
%TO.N,unconnected-(U500-Pad5)*%
X116375000Y-59590000D03*
%TO.P,U500,6,I6*%
%TO.N,unconnected-(U500-Pad6)*%
X116375000Y-58320000D03*
%TO.P,U500,7,I7*%
%TO.N,unconnected-(U500-Pad7)*%
X116375000Y-57050000D03*
%TO.P,U500,8,GND*%
%TO.N,GND*%
X116375000Y-55780000D03*
%TO.P,U500,9,COM*%
%TO.N,+5V*%
X111425000Y-55780000D03*
%TO.P,U500,10,O7*%
%TO.N,unconnected-(U500-Pad10)*%
X111425000Y-57050000D03*
%TO.P,U500,11,O6*%
%TO.N,unconnected-(U500-Pad11)*%
X111425000Y-58320000D03*
%TO.P,U500,12,O5*%
%TO.N,unconnected-(U500-Pad12)*%
X111425000Y-59590000D03*
%TO.P,U500,13,O4*%
%TO.N,Net-(M500-Pad3)*%
X111425000Y-60860000D03*
%TO.P,U500,14,O3*%
%TO.N,Net-(M500-Pad4)*%
X111425000Y-62130000D03*
%TO.P,U500,15,O2*%
%TO.N,Net-(M500-Pad2)*%
X111425000Y-63400000D03*
%TO.P,U500,16,O1*%
%TO.N,Net-(M500-Pad5)*%
X111425000Y-64670000D03*
%TD*%
D42*
%TO.P,J200,1,VBUS*%
%TO.N,Net-(FB200-Pad1)*%
X140300000Y-54460000D03*
%TO.P,J200,2,D-*%
%TO.N,D-*%
X139650000Y-54460000D03*
%TO.P,J200,3,D+*%
%TO.N,D+*%
X139000000Y-54460000D03*
%TO.P,J200,4,ID*%
%TO.N,unconnected-(J200-Pad4)*%
X138350000Y-54460000D03*
%TO.P,J200,5,GND*%
%TO.N,GND*%
X137700000Y-54460000D03*
D43*
%TO.P,J200,6,Shield*%
%TO.N,unconnected-(J200-Pad6)*%
X142375000Y-51800000D03*
D44*
X141487500Y-54375000D03*
D45*
X140150000Y-51800000D03*
D46*
X137450000Y-51800000D03*
D43*
X135625000Y-51800000D03*
D44*
X136512500Y-54375000D03*
%TD*%
D47*
%TO.P,R400,1*%
%TO.N,+3V3*%
X122800000Y-55565000D03*
%TO.P,R400,2*%
%TO.N,SDA*%
X122800000Y-56585000D03*
%TD*%
%TO.P,R201,1*%
%TO.N,/POWER/USBV*%
X146300000Y-56540000D03*
%TO.P,R201,2*%
%TO.N,Net-(R201-Pad2)*%
X146300000Y-57560000D03*
%TD*%
D29*
%TO.P,R300,1*%
%TO.N,D+*%
X136600000Y-57059000D03*
%TO.P,R300,2*%
%TO.N,/RP2040/UD+*%
X135580000Y-57059000D03*
%TD*%
D48*
%TO.P,C401,1*%
%TO.N,+3V3*%
X120100000Y-54075000D03*
%TO.P,C401,2*%
%TO.N,GND*%
X121650000Y-54075000D03*
%TD*%
D29*
%TO.P,R200,1*%
%TO.N,/POWER/DISABLE*%
X143510000Y-63000000D03*
%TO.P,R200,2*%
%TO.N,GND*%
X142490000Y-63000000D03*
%TD*%
D49*
%TO.N,+3V3*%
X126700000Y-64700000D03*
X134275000Y-50700000D03*
X150635000Y-63965000D03*
X121700000Y-55100000D03*
X122325000Y-59700000D03*
X118300000Y-54450000D03*
X131450000Y-59325000D03*
X122500000Y-55000000D03*
X135000000Y-60400000D03*
X149365000Y-63910000D03*
X121400000Y-59700000D03*
X131200000Y-68350000D03*
X149365000Y-62360000D03*
X150635000Y-62340000D03*
X134025000Y-60375000D03*
X133275000Y-61350000D03*
X120325000Y-56150000D03*
X148425000Y-68025000D03*
X131250000Y-61375000D03*
X122400000Y-57725000D03*
X135150070Y-61370751D03*
X126904891Y-61329831D03*
X120075000Y-53300000D03*
X135181407Y-65000036D03*
%TO.N,GND*%
X118175000Y-56675000D03*
X107950000Y-59775000D03*
X128000000Y-53250000D03*
X129975000Y-63050000D03*
X134500000Y-56750000D03*
X138004418Y-53196992D03*
X131000000Y-64000000D03*
X140100000Y-63400000D03*
X128000000Y-57000000D03*
X118825000Y-52900000D03*
X132925000Y-69875000D03*
X130050000Y-64875000D03*
X142025000Y-63000000D03*
X117950000Y-59025000D03*
X151850000Y-59200000D03*
X148075000Y-55150000D03*
X134219803Y-70831690D03*
X124750000Y-61250000D03*
X145000000Y-52050000D03*
X116350000Y-55125000D03*
X134250000Y-72725000D03*
X137100000Y-65000000D03*
X148075000Y-57800000D03*
X151900000Y-61875000D03*
X134250000Y-53150000D03*
X118650000Y-57350000D03*
X146000000Y-55500000D03*
X145150000Y-54700000D03*
X128000000Y-54500000D03*
X129850000Y-71325000D03*
X131975000Y-64900000D03*
X148090000Y-72990000D03*
X133075000Y-74150000D03*
X125270000Y-64450000D03*
X117690000Y-55790000D03*
X130000000Y-66625000D03*
X120975000Y-56825000D03*
X130500000Y-54500000D03*
X106620000Y-60380000D03*
X130500000Y-53250000D03*
X115450000Y-68350000D03*
X120425000Y-57350000D03*
X114550000Y-68350000D03*
X130500000Y-51250000D03*
X120425000Y-59675000D03*
X128900000Y-72150000D03*
X133075000Y-73525000D03*
X137250000Y-61400000D03*
X130500000Y-52250000D03*
X128550000Y-57475000D03*
X146300000Y-60200000D03*
X128000000Y-51250000D03*
X128000000Y-52250000D03*
X118550000Y-56175000D03*
X118625000Y-55500000D03*
X118775000Y-58025000D03*
X127600000Y-73325000D03*
X137275000Y-60350000D03*
X151830000Y-67970000D03*
X131925000Y-63050000D03*
X122400000Y-54100000D03*
X137700000Y-55475000D03*
X155400000Y-66175000D03*
X133250000Y-56750000D03*
%TO.N,+5V*%
X146250000Y-63000000D03*
X146500000Y-65000000D03*
X144250000Y-65000000D03*
X111500000Y-56320000D03*
X103000000Y-60910000D03*
X116720000Y-72060000D03*
X145450000Y-65000000D03*
X145490000Y-63900000D03*
%TO.N,+1V1*%
X130700000Y-59250000D03*
X131610000Y-66640000D03*
X133175000Y-59675500D03*
%TO.N,Net-(U502-Pad15)*%
X120570000Y-69850000D03*
X124350000Y-72410000D03*
%TO.N,Net-(U502-Pad13)*%
X121240000Y-72130000D03*
X120300000Y-70570000D03*
%TO.N,Net-(U502-Pad16)*%
X125870000Y-73460000D03*
%TO.N,P21*%
X126475000Y-67650000D03*
X110475000Y-69250000D03*
%TO.N,SS*%
X123625000Y-53300000D03*
X153950000Y-60600000D03*
%TD*%
D50*
%TO.N,+3V3*%
X127000000Y-65000000D02*
X127562500Y-65000000D01*
D51*
X120100000Y-53325000D02*
X120075000Y-53300000D01*
X120325000Y-56150000D02*
X120586694Y-56150000D01*
D50*
X133200000Y-60562500D02*
X133200000Y-61275000D01*
D52*
X150635000Y-63965000D02*
X150635000Y-65475000D01*
X150635000Y-62340000D02*
X150635000Y-63965000D01*
D50*
X131450000Y-59325000D02*
X131600000Y-59475000D01*
D52*
X149365000Y-62360000D02*
X149365000Y-63910000D01*
D50*
X135181371Y-65000000D02*
X135181407Y-65000036D01*
D52*
X149365000Y-65475000D02*
X149365000Y-67922500D01*
D50*
X131600000Y-59475000D02*
X131600000Y-60562500D01*
X131200000Y-60562500D02*
X131200000Y-61325000D01*
D51*
X121700000Y-57675000D02*
X122350000Y-57675000D01*
X121250000Y-58870000D02*
X121380000Y-59000000D01*
X133460000Y-50825000D02*
X133335000Y-50950000D01*
D50*
X133600000Y-60562500D02*
X133837500Y-60562500D01*
D52*
X149287500Y-68000000D02*
X148450000Y-68000000D01*
D51*
X121250000Y-58175000D02*
X121250000Y-58870000D01*
X134150000Y-50825000D02*
X134275000Y-50700000D01*
X118320000Y-54430000D02*
X118300000Y-54450000D01*
D52*
X149365000Y-60525000D02*
X149365000Y-62360000D01*
D51*
X122800000Y-55565000D02*
X122800000Y-55300000D01*
X132030000Y-50950000D02*
X132010000Y-50970000D01*
X122800000Y-55300000D02*
X122500000Y-55000000D01*
X122340000Y-59685000D02*
X122325000Y-59700000D01*
X120975000Y-57900000D02*
X121250000Y-58175000D01*
X122340000Y-59000000D02*
X122340000Y-59685000D01*
X133335000Y-50950000D02*
X132030000Y-50950000D01*
X121700000Y-55675000D02*
X121700000Y-55100000D01*
X122350000Y-57675000D02*
X122400000Y-57725000D01*
D50*
X135120821Y-61400000D02*
X135150070Y-61370751D01*
D51*
X119975000Y-54200000D02*
X120100000Y-54075000D01*
D50*
X127562500Y-61400000D02*
X126975060Y-61400000D01*
X131200000Y-67437500D02*
X131200000Y-68350000D01*
X134437500Y-65000000D02*
X135181371Y-65000000D01*
D52*
X149365000Y-63910000D02*
X149365000Y-65475000D01*
X149365000Y-67922500D02*
X149287500Y-68000000D01*
D50*
X131200000Y-61325000D02*
X131250000Y-61375000D01*
X126700000Y-64700000D02*
X127000000Y-65000000D01*
X134437500Y-61400000D02*
X135120821Y-61400000D01*
D51*
X120975000Y-55761694D02*
X120975000Y-55450000D01*
D52*
X148450000Y-68000000D02*
X148425000Y-68025000D01*
D50*
X133200000Y-61275000D02*
X133275000Y-61350000D01*
X133837500Y-60562500D02*
X134025000Y-60375000D01*
D52*
X150635000Y-60525000D02*
X150635000Y-62340000D01*
D51*
X121380000Y-59000000D02*
X121380000Y-59680000D01*
X121380000Y-59680000D02*
X121400000Y-59700000D01*
D50*
X126975060Y-61400000D02*
X126904891Y-61329831D01*
D51*
X120586694Y-56150000D02*
X120975000Y-55761694D01*
X118850000Y-54430000D02*
X118320000Y-54430000D01*
X120100000Y-54075000D02*
X120100000Y-53325000D01*
X133460000Y-50825000D02*
X134150000Y-50825000D01*
X119975000Y-55450000D02*
X119975000Y-54200000D01*
D52*
%TO.N,GND*%
X116150000Y-68350000D02*
X116175000Y-68375000D01*
D51*
X120475000Y-58945000D02*
X120420000Y-59000000D01*
D52*
X116375000Y-55780000D02*
X116375000Y-55150000D01*
X150712500Y-68000000D02*
X151800000Y-68000000D01*
D51*
X120975000Y-56588306D02*
X121388306Y-56175000D01*
D52*
X106635000Y-60365000D02*
X106620000Y-60380000D01*
D51*
X119250000Y-57175000D02*
X118825000Y-57175000D01*
X119250000Y-55675000D02*
X118800000Y-55675000D01*
X121388306Y-56175000D02*
X121700000Y-56175000D01*
D52*
X129900000Y-72150000D02*
X129900000Y-71375000D01*
D51*
X120420000Y-59000000D02*
X120420000Y-59670000D01*
X120475000Y-57900000D02*
X120475000Y-58945000D01*
X137700000Y-54460000D02*
X137700000Y-53501410D01*
D52*
X147300000Y-73000000D02*
X148080000Y-73000000D01*
D51*
X120420000Y-59670000D02*
X120425000Y-59675000D01*
D52*
X132400000Y-74150000D02*
X132100000Y-73850000D01*
D51*
X145162500Y-54712500D02*
X145150000Y-54700000D01*
X155400000Y-65425000D02*
X155400000Y-66175000D01*
D50*
X130000000Y-67437500D02*
X130000000Y-66625000D01*
D52*
X107955000Y-59780000D02*
X107950000Y-59775000D01*
X132425000Y-73525000D02*
X132100000Y-73850000D01*
D51*
X118800000Y-55675000D02*
X118625000Y-55500000D01*
D52*
X128325000Y-73320000D02*
X127605000Y-73320000D01*
X151905000Y-60525000D02*
X151905000Y-61870000D01*
D51*
X148095000Y-56475000D02*
X148095000Y-57780000D01*
D52*
X151905000Y-59255000D02*
X151850000Y-59200000D01*
X121650000Y-54075000D02*
X122375000Y-54075000D01*
X114550000Y-68350000D02*
X116150000Y-68350000D01*
X133475000Y-52375000D02*
X134250000Y-53150000D01*
X134245000Y-72730000D02*
X134250000Y-72725000D01*
X148080000Y-73000000D02*
X148090000Y-72990000D01*
D51*
X137700000Y-53501410D02*
X138004418Y-53196992D01*
X146300000Y-59535000D02*
X146300000Y-60200000D01*
X139460000Y-63400000D02*
X140100000Y-63400000D01*
X118495000Y-59000000D02*
X117975000Y-59000000D01*
D52*
X118850000Y-52925000D02*
X118825000Y-52900000D01*
X133075000Y-74150000D02*
X132400000Y-74150000D01*
D51*
X126610000Y-54780000D02*
X127720000Y-54780000D01*
D52*
X133075000Y-73525000D02*
X133075000Y-74150000D01*
X116175000Y-68375000D02*
X116175000Y-68435000D01*
X116375000Y-55150000D02*
X116350000Y-55125000D01*
D51*
X127720000Y-54780000D02*
X128000000Y-54500000D01*
X118825000Y-57175000D02*
X118650000Y-57350000D01*
D52*
X122375000Y-54075000D02*
X122400000Y-54100000D01*
X107955000Y-60365000D02*
X107955000Y-59780000D01*
X107955000Y-60365000D02*
X106635000Y-60365000D01*
X133700000Y-72730000D02*
X134245000Y-72730000D01*
X151800000Y-68000000D02*
X151830000Y-67970000D01*
D51*
X148095000Y-57780000D02*
X148075000Y-57800000D01*
D52*
X129900000Y-72150000D02*
X128900000Y-72150000D01*
X118850000Y-53470000D02*
X118850000Y-52925000D01*
X116175000Y-68435000D02*
X116215000Y-68435000D01*
D51*
X119250000Y-57675000D02*
X119125000Y-57675000D01*
X119250000Y-56175000D02*
X118550000Y-56175000D01*
D52*
X129900000Y-71375000D02*
X129850000Y-71325000D01*
D51*
X117975000Y-59000000D02*
X117950000Y-59025000D01*
X118175000Y-56675000D02*
X119250000Y-56675000D01*
D52*
X127605000Y-73320000D02*
X127600000Y-73325000D01*
X116375000Y-55780000D02*
X117680000Y-55780000D01*
X151905000Y-60525000D02*
X151905000Y-59255000D01*
D51*
X120975000Y-56825000D02*
X120975000Y-56588306D01*
X120425000Y-57350000D02*
X120475000Y-57400000D01*
D50*
X134250000Y-53150000D02*
X134235000Y-53150000D01*
D51*
X119125000Y-57675000D02*
X118775000Y-58025000D01*
X146000000Y-54712500D02*
X146000000Y-55500000D01*
X137700000Y-54460000D02*
X137700000Y-55475000D01*
X148095000Y-55170000D02*
X148075000Y-55150000D01*
X142490000Y-63000000D02*
X142025000Y-63000000D01*
D52*
X133460000Y-52375000D02*
X133475000Y-52375000D01*
D51*
X146000000Y-54712500D02*
X145162500Y-54712500D01*
X120475000Y-57400000D02*
X120475000Y-57900000D01*
D52*
X133075000Y-73525000D02*
X132425000Y-73525000D01*
D51*
X148095000Y-56475000D02*
X148095000Y-55170000D01*
D52*
X117680000Y-55780000D02*
X117690000Y-55790000D01*
D51*
X145000000Y-51485000D02*
X145000000Y-52050000D01*
D52*
X151905000Y-61870000D02*
X151900000Y-61875000D01*
D50*
%TO.N,+5V*%
X116175000Y-73385000D02*
X116175000Y-72605000D01*
X111425000Y-56245000D02*
X111500000Y-56320000D01*
D53*
X145510000Y-62010000D02*
X145510000Y-63000000D01*
X150635000Y-53940000D02*
X149465000Y-53940000D01*
X147100000Y-63000000D02*
X146250000Y-63000000D01*
X150635000Y-53940000D02*
X150635000Y-56475000D01*
X148095000Y-60525000D02*
X148095000Y-62005000D01*
X149365000Y-54040000D02*
X149365000Y-56475000D01*
X145510000Y-63000000D02*
X145510000Y-63880000D01*
D50*
X116175000Y-72605000D02*
X116720000Y-72060000D01*
D53*
X146250000Y-63000000D02*
X145510000Y-63000000D01*
X149365000Y-56475000D02*
X149365000Y-57735000D01*
D50*
X103005000Y-60365000D02*
X103005000Y-60905000D01*
D53*
X145490000Y-64940000D02*
X145550000Y-65000000D01*
X145510000Y-63880000D02*
X145490000Y-63900000D01*
X149465000Y-53940000D02*
X149365000Y-54040000D01*
X146000000Y-53287500D02*
X149112500Y-53287500D01*
X145550000Y-65000000D02*
X146500000Y-65000000D01*
X148095000Y-62005000D02*
X147100000Y-63000000D01*
X149112500Y-53287500D02*
X149365000Y-53540000D01*
X146000000Y-51510000D02*
X146000000Y-53287500D01*
X149365000Y-53540000D02*
X149365000Y-54040000D01*
X149365000Y-51525000D02*
X149365000Y-53540000D01*
X150635000Y-51525000D02*
X150635000Y-53940000D01*
D50*
X111425000Y-55780000D02*
X111425000Y-56245000D01*
D53*
X148095000Y-59005000D02*
X148095000Y-60525000D01*
X144250000Y-65000000D02*
X145550000Y-65000000D01*
X144950000Y-60937500D02*
X144950000Y-61450000D01*
X145490000Y-63900000D02*
X145490000Y-64940000D01*
X144950000Y-61450000D02*
X145510000Y-62010000D01*
D50*
X103005000Y-60905000D02*
X103000000Y-60910000D01*
D53*
X149365000Y-57735000D02*
X148095000Y-59005000D01*
D50*
%TO.N,+1V1*%
X132800000Y-60030025D02*
X133005025Y-59825000D01*
X131610000Y-66640000D02*
X131600000Y-66650000D01*
X132800000Y-60562500D02*
X132800000Y-60030025D01*
X130800000Y-59350000D02*
X130800000Y-60562500D01*
X131600000Y-66650000D02*
X131600000Y-67437500D01*
X130700000Y-59250000D02*
X130800000Y-59350000D01*
X133005025Y-59825000D02*
X133025500Y-59825000D01*
X133025500Y-59825000D02*
X133175000Y-59675500D01*
%TO.N,/RP2040/XIN*%
X130175000Y-70275000D02*
X130975000Y-71075000D01*
X128325000Y-74280000D02*
X129470000Y-74280000D01*
X129470000Y-74280000D02*
X129900000Y-73850000D01*
X130400000Y-67925000D02*
X130175000Y-68150000D01*
X130400000Y-67437500D02*
X130400000Y-67925000D01*
X130175000Y-68150000D02*
X130175000Y-70275000D01*
X130975000Y-73000000D02*
X130125000Y-73850000D01*
X130975000Y-71075000D02*
X130975000Y-73000000D01*
X130125000Y-73850000D02*
X129900000Y-73850000D01*
D51*
%TO.N,Net-(C312-Pad1)*%
X132635000Y-70725000D02*
X133300000Y-70725000D01*
X133300000Y-70725000D02*
X133700000Y-71125000D01*
X132635000Y-71615000D02*
X132100000Y-72150000D01*
X132635000Y-70725000D02*
X132635000Y-71615000D01*
X133700000Y-71125000D02*
X133700000Y-71770000D01*
%TO.N,Net-(C403-Pad1)*%
X119625000Y-58250000D02*
X119625000Y-58830000D01*
X119625000Y-58830000D02*
X119455000Y-59000000D01*
X119975000Y-57900000D02*
X119625000Y-58250000D01*
D53*
%TO.N,Net-(D200-Pad1)*%
X151905000Y-56475000D02*
X151905000Y-57880000D01*
X151905000Y-57880000D02*
X153025000Y-59000000D01*
X153025000Y-59000000D02*
X154212500Y-59000000D01*
D54*
%TO.N,+12V*%
X155000000Y-54000000D02*
X155000000Y-56350000D01*
X155787500Y-57137500D02*
X155787500Y-59000000D01*
X155000000Y-56350000D02*
X155787500Y-57137500D01*
D51*
%TO.N,Net-(R201-Pad2)*%
X146300000Y-57560000D02*
X146300000Y-58565000D01*
%TO.N,Net-(R202-Pad2)*%
X145025000Y-50490000D02*
X145000000Y-50515000D01*
X146000000Y-50490000D02*
X145025000Y-50490000D01*
%TO.N,Net-(R303-Pad2)*%
X137435000Y-63400000D02*
X138490000Y-63400000D01*
%TO.N,Net-(FB200-Pad1)*%
X141350000Y-57000000D02*
X143212500Y-57000000D01*
X140300000Y-54460000D02*
X140300000Y-55950000D01*
X140300000Y-55950000D02*
X141350000Y-57000000D01*
D53*
%TO.N,/POWER/USBV*%
X144787500Y-57287500D02*
X144000000Y-58075000D01*
X145135000Y-56540000D02*
X146300000Y-56540000D01*
X144787500Y-57000000D02*
X144787500Y-56887500D01*
X144000000Y-58075000D02*
X144000000Y-59062500D01*
X144787500Y-57000000D02*
X144787500Y-57287500D01*
X144787500Y-56887500D02*
X145135000Y-56540000D01*
D50*
%TO.N,D-*%
X139550000Y-56618200D02*
X139550000Y-55595001D01*
X139650000Y-55495001D02*
X139650000Y-54460000D01*
X138376199Y-57792001D02*
X139550000Y-56618200D01*
X136882999Y-57792001D02*
X138376199Y-57792001D01*
X139550000Y-55595001D02*
X139650000Y-55495001D01*
X136600000Y-58075000D02*
X136882999Y-57792001D01*
%TO.N,D+*%
X139000000Y-55495001D02*
X139000000Y-54460000D01*
X136600000Y-57059000D02*
X136882999Y-57341999D01*
X139100000Y-56431800D02*
X139100000Y-55595001D01*
X136882999Y-57341999D02*
X138189801Y-57341999D01*
X139100000Y-55595001D02*
X139000000Y-55495001D01*
X138189801Y-57341999D02*
X139100000Y-56431800D01*
D51*
%TO.N,unconnected-(J200-Pad6)*%
X136512500Y-54375000D02*
X136100000Y-54375000D01*
X137450000Y-51800000D02*
X135625000Y-51800000D01*
X142375000Y-53850000D02*
X142375000Y-51800000D01*
X142375000Y-51800000D02*
X140150000Y-51800000D01*
X136100000Y-54375000D02*
X135625000Y-53900000D01*
X135625000Y-53900000D02*
X135625000Y-51800000D01*
X140150000Y-51800000D02*
X137450000Y-51800000D01*
X141850000Y-54375000D02*
X142375000Y-53850000D01*
X141487500Y-54375000D02*
X141850000Y-54375000D01*
D50*
%TO.N,/RP2040/SWCLK*%
X139475000Y-71225000D02*
X139475000Y-73000000D01*
X132000000Y-67437500D02*
X132000000Y-68430000D01*
X132000000Y-68430000D02*
X132785000Y-69215000D01*
X133621605Y-69740000D02*
X137990000Y-69740000D01*
X132785000Y-69215000D02*
X133096605Y-69215000D01*
X133096605Y-69215000D02*
X133621605Y-69740000D01*
X137990000Y-69740000D02*
X139475000Y-71225000D01*
%TO.N,/RP2040/SWD*%
X140415000Y-68860000D02*
X144555000Y-73000000D01*
X133172448Y-68860000D02*
X140415000Y-68860000D01*
X132400000Y-68087552D02*
X133172448Y-68860000D01*
X132400000Y-67437500D02*
X132400000Y-68087552D01*
%TO.N,Net-(M500-Pad2)*%
X114190000Y-53680000D02*
X114190000Y-61985000D01*
X114190000Y-61985000D02*
X112775000Y-63400000D01*
X112775000Y-63400000D02*
X111425000Y-63400000D01*
%TO.N,Net-(M500-Pad3)*%
X113190000Y-60160000D02*
X112490000Y-60860000D01*
X112490000Y-60860000D02*
X111425000Y-60860000D01*
X113190000Y-53680000D02*
X113190000Y-60160000D01*
%TO.N,Net-(M500-Pad4)*%
X110700000Y-54840000D02*
X109940000Y-55600000D01*
X112190000Y-53680000D02*
X112190000Y-54440000D01*
X112190000Y-54440000D02*
X111790000Y-54840000D01*
X111790000Y-54840000D02*
X110700000Y-54840000D01*
X109940000Y-55600000D02*
X109940000Y-61510000D01*
X110560000Y-62130000D02*
X111425000Y-62130000D01*
X109940000Y-61510000D02*
X110560000Y-62130000D01*
%TO.N,Net-(M500-Pad5)*%
X110460000Y-64670000D02*
X111425000Y-64670000D01*
X109300000Y-54930000D02*
X109300000Y-63510000D01*
X111190000Y-53680000D02*
X110550000Y-53680000D01*
X109300000Y-63510000D02*
X110460000Y-64670000D01*
X110550000Y-53680000D02*
X109300000Y-54930000D01*
%TO.N,Net-(U501-Pad15)*%
X104580000Y-68020000D02*
X103040000Y-68020000D01*
X105770000Y-58290000D02*
X105770000Y-66830000D01*
X103040000Y-68020000D02*
X103005000Y-67985000D01*
X105770000Y-66830000D02*
X104580000Y-68020000D01*
%TO.N,Net-(U501-Pad13)*%
X104770000Y-58290000D02*
X104770000Y-64880000D01*
X104770000Y-64880000D02*
X104205000Y-65445000D01*
X104205000Y-65445000D02*
X103005000Y-65445000D01*
%TO.N,Net-(U501-Pad14)*%
X101940000Y-59390000D02*
X101520000Y-59810000D01*
X103770000Y-59100000D02*
X103480000Y-59390000D01*
X101755000Y-66715000D02*
X103005000Y-66715000D01*
X103480000Y-59390000D02*
X101940000Y-59390000D01*
X103770000Y-58290000D02*
X103770000Y-59100000D01*
X101520000Y-66480000D02*
X101755000Y-66715000D01*
X101520000Y-59810000D02*
X101520000Y-66480000D01*
%TO.N,Net-(U501-Pad16)*%
X101460000Y-58290000D02*
X100670000Y-59080000D01*
X101680000Y-69255000D02*
X103005000Y-69255000D01*
X102770000Y-58290000D02*
X101460000Y-58290000D01*
X100670000Y-68245000D02*
X101680000Y-69255000D01*
X100670000Y-59080000D02*
X100670000Y-68245000D01*
%TO.N,Net-(U502-Pad15)*%
X114474000Y-70640000D02*
X114170000Y-70640000D01*
X115294000Y-69820000D02*
X114474000Y-70640000D01*
X120540000Y-69820000D02*
X115294000Y-69820000D01*
X123795000Y-73385000D02*
X123795000Y-72965000D01*
X120570000Y-69850000D02*
X120540000Y-69820000D01*
X123795000Y-72965000D02*
X124350000Y-72410000D01*
%TO.N,Net-(U502-Pad13)*%
X121240000Y-72130000D02*
X121240000Y-73370000D01*
X120290000Y-70560000D02*
X115980000Y-70560000D01*
X121240000Y-73370000D02*
X121255000Y-73385000D01*
X115980000Y-70560000D02*
X114900000Y-71640000D01*
X114900000Y-71640000D02*
X114170000Y-71640000D01*
X120300000Y-70570000D02*
X120290000Y-70560000D01*
%TO.N,Net-(U502-Pad14)*%
X116590000Y-71170000D02*
X115120000Y-72640000D01*
X122525000Y-72225000D02*
X121470000Y-71170000D01*
X122525000Y-73385000D02*
X122525000Y-72225000D01*
X115120000Y-72640000D02*
X114170000Y-72640000D01*
X121470000Y-71170000D02*
X116590000Y-71170000D01*
%TO.N,Net-(U502-Pad16)*%
X125795000Y-73385000D02*
X125870000Y-73460000D01*
X125065000Y-73385000D02*
X125795000Y-73385000D01*
%TO.N,/RP2040/XOUT*%
X130665000Y-68128395D02*
X130665000Y-69775000D01*
X130800000Y-67993395D02*
X130665000Y-68128395D01*
X130800000Y-67437500D02*
X130800000Y-67993395D01*
X130665000Y-69775000D02*
X131615000Y-70725000D01*
%TO.N,Net-(U300-Pad37)*%
X134437500Y-63400000D02*
X136415000Y-63400000D01*
%TO.N,SDA*%
X127489500Y-61873000D02*
X126373000Y-61873000D01*
X126075000Y-59700000D02*
X123050000Y-56675000D01*
X123050000Y-56675000D02*
X121700000Y-56675000D01*
X127562500Y-61800000D02*
X127489500Y-61873000D01*
X126075000Y-61575000D02*
X126075000Y-59700000D01*
X126373000Y-61873000D02*
X126075000Y-61575000D01*
%TO.N,SCL*%
X123350000Y-58950000D02*
X123350000Y-57918395D01*
X127562500Y-62200000D02*
X126025000Y-62200000D01*
X125285000Y-60885000D02*
X123350000Y-58950000D01*
X122606605Y-57175000D02*
X121700000Y-57175000D01*
X125285000Y-61460000D02*
X125285000Y-60885000D01*
X126025000Y-62200000D02*
X125285000Y-61460000D01*
X123350000Y-57918395D02*
X122606605Y-57175000D01*
%TO.N,Net-(U300-Pad26)*%
X133023000Y-68173000D02*
X132800000Y-67950000D01*
X150700000Y-73000000D02*
X150700000Y-71460000D01*
X150700000Y-71460000D02*
X147413000Y-68173000D01*
X147413000Y-68173000D02*
X133023000Y-68173000D01*
X132800000Y-67950000D02*
X132800000Y-67437500D01*
%TO.N,P11*%
X124460000Y-63800000D02*
X123590000Y-64670000D01*
X127562500Y-63800000D02*
X124460000Y-63800000D01*
X123590000Y-64670000D02*
X116375000Y-64670000D01*
%TO.N,P12*%
X127562500Y-63400000D02*
X116375000Y-63400000D01*
%TO.N,P13*%
X127562500Y-63000000D02*
X124050000Y-63000000D01*
X123180000Y-62130000D02*
X116375000Y-62130000D01*
X124050000Y-63000000D02*
X123180000Y-62130000D01*
%TO.N,P14*%
X125825000Y-62600000D02*
X125300000Y-62075000D01*
X127562500Y-62600000D02*
X125825000Y-62600000D01*
X125300000Y-62075000D02*
X124400000Y-62075000D01*
X123185000Y-60860000D02*
X116375000Y-60860000D01*
X124400000Y-62075000D02*
X123185000Y-60860000D01*
%TO.N,P21*%
X127562500Y-66600000D02*
X127525000Y-66600000D01*
X127525000Y-66600000D02*
X126475000Y-67650000D01*
X110475000Y-69250000D02*
X110470000Y-69255000D01*
X110470000Y-69255000D02*
X107955000Y-69255000D01*
%TO.N,P22*%
X112345000Y-67985000D02*
X107955000Y-67985000D01*
X126925000Y-66200000D02*
X126100000Y-67025000D01*
X113305000Y-67025000D02*
X112345000Y-67985000D01*
X126100000Y-67025000D02*
X113305000Y-67025000D01*
X127562500Y-66200000D02*
X126925000Y-66200000D01*
%TO.N,P23*%
X107970000Y-66700000D02*
X107955000Y-66715000D01*
X125827552Y-66200000D02*
X112725000Y-66200000D01*
X127562500Y-65800000D02*
X126227552Y-65800000D01*
X112225000Y-66700000D02*
X107970000Y-66700000D01*
X126227552Y-65800000D02*
X125827552Y-66200000D01*
X112725000Y-66200000D02*
X112225000Y-66700000D01*
%TO.N,P24*%
X108000000Y-65400000D02*
X107955000Y-65445000D01*
X127562500Y-65400000D02*
X108000000Y-65400000D01*
%TO.N,P31*%
X128400000Y-67437500D02*
X128400000Y-68340000D01*
X125570000Y-69750000D02*
X125065000Y-69245000D01*
X128400000Y-68340000D02*
X126990000Y-69750000D01*
X125065000Y-69245000D02*
X125065000Y-68435000D01*
X126990000Y-69750000D02*
X125570000Y-69750000D01*
%TO.N,P32*%
X127030000Y-70480000D02*
X124520000Y-70480000D01*
X124520000Y-70480000D02*
X123795000Y-69755000D01*
X128800000Y-68710000D02*
X127030000Y-70480000D01*
X123795000Y-69755000D02*
X123795000Y-68435000D01*
X128800000Y-67437500D02*
X128800000Y-68710000D01*
%TO.N,P33*%
X126940000Y-71280000D02*
X124060000Y-71280000D01*
X122525000Y-69745000D02*
X122525000Y-68435000D01*
X129200000Y-67437500D02*
X129200000Y-69020000D01*
X124060000Y-71280000D02*
X122525000Y-69745000D01*
X129200000Y-69020000D02*
X126940000Y-71280000D01*
%TO.N,P34*%
X121255000Y-70105000D02*
X121255000Y-68435000D01*
X129600000Y-69590000D02*
X127350000Y-71840000D01*
X127350000Y-71840000D02*
X122990000Y-71840000D01*
X122990000Y-71840000D02*
X121255000Y-70105000D01*
X129600000Y-67437500D02*
X129600000Y-69590000D01*
%TO.N,SD3*%
X133525000Y-53850000D02*
X133525000Y-55550000D01*
X132010000Y-52240000D02*
X132010000Y-52335000D01*
X130400000Y-59825104D02*
X130400000Y-60562500D01*
X130165000Y-59590104D02*
X130400000Y-59825104D01*
X132010000Y-52335000D02*
X133525000Y-53850000D01*
X133525000Y-55550000D02*
X130165000Y-58910000D01*
X130165000Y-58910000D02*
X130165000Y-59590104D01*
%TO.N,SCLK*%
X129675000Y-58325000D02*
X132750000Y-55250000D01*
X130000000Y-60562500D02*
X130000000Y-59887552D01*
X130000000Y-59887552D02*
X129675000Y-59562552D01*
X132750000Y-54250000D02*
X132010000Y-53510000D01*
X129675000Y-59562552D02*
X129675000Y-58325000D01*
X132750000Y-55250000D02*
X132750000Y-54250000D01*
%TO.N,SD0*%
X129275000Y-59625000D02*
X129275000Y-57515000D01*
X129600000Y-60562500D02*
X129600000Y-59950000D01*
X129275000Y-57515000D02*
X132010000Y-54780000D01*
X129600000Y-59950000D02*
X129275000Y-59625000D01*
%TO.N,SD2*%
X125750000Y-56050000D02*
X125750000Y-53800000D01*
X125750000Y-53800000D02*
X126040000Y-53510000D01*
X128825000Y-59125000D02*
X125750000Y-56050000D01*
X129200000Y-60050000D02*
X128825000Y-59675000D01*
X128825000Y-59675000D02*
X128825000Y-59125000D01*
X129200000Y-60562500D02*
X129200000Y-60050000D01*
X126040000Y-53510000D02*
X126610000Y-53510000D01*
%TO.N,SD1*%
X128800000Y-60125000D02*
X124775000Y-56100000D01*
X128800000Y-60562500D02*
X128800000Y-60125000D01*
X124775000Y-52975000D02*
X125510000Y-52240000D01*
X125510000Y-52240000D02*
X126610000Y-52240000D01*
X124775000Y-56100000D02*
X124775000Y-52975000D01*
%TO.N,SS*%
X123625000Y-52500000D02*
X125150000Y-50975000D01*
D51*
X154500000Y-60595000D02*
X153955000Y-60595000D01*
D50*
X128400000Y-60200000D02*
X127950000Y-59750000D01*
X123625000Y-53300000D02*
X123625000Y-52500000D01*
X125150000Y-50975000D02*
X126605000Y-50975000D01*
X126605000Y-50975000D02*
X126610000Y-50970000D01*
X127950000Y-59750000D02*
X127300000Y-59750000D01*
X127300000Y-59750000D02*
X123625000Y-56075000D01*
X123625000Y-56075000D02*
X123625000Y-53300000D01*
D51*
X153955000Y-60595000D02*
X153950000Y-60600000D01*
D50*
X128400000Y-60562500D02*
X128400000Y-60200000D01*
D52*
%TO.N,/POWER/DISABLE*%
X143510000Y-61397500D02*
X143050000Y-60937500D01*
X143510000Y-63000000D02*
X143510000Y-61397500D01*
X143510000Y-63000000D02*
X144490000Y-63000000D01*
D50*
%TO.N,/RP2040/UD+*%
X131974999Y-60537499D02*
X132000000Y-60562500D01*
X131974999Y-58356801D02*
X131974999Y-60537499D01*
X135580000Y-57059000D02*
X135297001Y-57341999D01*
X132989801Y-57341999D02*
X131974999Y-58356801D01*
X135297001Y-57341999D02*
X132989801Y-57341999D01*
%TO.N,/RP2040/UD-*%
X135297001Y-57792001D02*
X133176199Y-57792001D01*
X133176199Y-57792001D02*
X132425001Y-58543199D01*
X132425001Y-58543199D02*
X132425001Y-60537499D01*
X132425001Y-60537499D02*
X132400000Y-60562500D01*
X135580000Y-58075000D02*
X135297001Y-57792001D01*
D51*
%TO.N,Net-(SW301-Pad2)*%
X155525000Y-61900000D02*
X155525000Y-60600000D01*
X155400000Y-62025000D02*
X155525000Y-61900000D01*
X155525000Y-60600000D02*
X155520000Y-60595000D01*
%TD*%
%TA.AperFunction,Conductor*%
%TO.N,GND*%
G36*
X128610032Y-71544683D02*
G01*
X128666868Y-71587230D01*
X128691679Y-71653750D01*
X128692000Y-71662739D01*
X128692000Y-71877885D01*
X128696475Y-71893124D01*
X128697865Y-71894329D01*
X128705548Y-71896000D01*
X130028000Y-71896000D01*
X130096121Y-71916002D01*
X130142614Y-71969658D01*
X130154000Y-72022000D01*
X130154000Y-72278000D01*
X130133998Y-72346121D01*
X130080342Y-72392614D01*
X130028000Y-72404000D01*
X128710116Y-72404000D01*
X128694877Y-72408475D01*
X128693672Y-72409865D01*
X128689122Y-72430783D01*
X128686825Y-72430283D01*
X128671999Y-72480777D01*
X128618343Y-72527270D01*
X128591907Y-72535964D01*
X128581969Y-72538052D01*
X128579000Y-72549513D01*
X128579000Y-73365500D01*
X128558998Y-73433621D01*
X128505342Y-73480114D01*
X128453000Y-73491500D01*
X128089516Y-73491500D01*
X128087068Y-73491693D01*
X128087060Y-73491693D01*
X128059156Y-73493889D01*
X128059151Y-73493890D01*
X128052746Y-73494394D01*
X127976856Y-73516442D01*
X127903016Y-73537894D01*
X127903014Y-73537895D01*
X127895403Y-73540106D01*
X127888581Y-73544141D01*
X127888580Y-73544141D01*
X127867760Y-73556454D01*
X127803621Y-73574000D01*
X127531442Y-73574000D01*
X127517911Y-73577973D01*
X127516776Y-73585871D01*
X127553357Y-73711784D01*
X127559605Y-73726222D01*
X127565016Y-73735372D01*
X127582474Y-73804188D01*
X127565015Y-73863647D01*
X127555106Y-73880403D01*
X127552895Y-73888014D01*
X127552894Y-73888016D01*
X127549955Y-73898134D01*
X127509394Y-74037746D01*
X127508890Y-74044151D01*
X127508889Y-74044156D01*
X127506730Y-74071594D01*
X127506500Y-74074516D01*
X127506500Y-74365500D01*
X127486498Y-74433621D01*
X127432842Y-74480114D01*
X127380500Y-74491500D01*
X125986761Y-74491500D01*
X125918640Y-74471498D01*
X125872147Y-74417842D01*
X125862043Y-74347568D01*
X125865763Y-74330349D01*
X125868768Y-74320006D01*
X125868768Y-74320005D01*
X125870562Y-74313831D01*
X125870658Y-74312611D01*
X125901727Y-74250876D01*
X125962864Y-74214781D01*
X125982324Y-74211455D01*
X126023483Y-74207709D01*
X126030185Y-74205531D01*
X126030187Y-74205531D01*
X126178623Y-74157301D01*
X126178626Y-74157300D01*
X126185322Y-74155124D01*
X126331490Y-74067990D01*
X126336584Y-74063139D01*
X126336588Y-74063136D01*
X126403833Y-73999099D01*
X126454721Y-73950639D01*
X126480000Y-73912592D01*
X126527277Y-73841434D01*
X126548891Y-73808902D01*
X126609319Y-73649825D01*
X126633001Y-73481313D01*
X126633299Y-73460000D01*
X126614331Y-73290892D01*
X126611562Y-73282939D01*
X126582893Y-73200615D01*
X126558368Y-73130189D01*
X126507388Y-73048605D01*
X127518381Y-73048605D01*
X127518421Y-73062705D01*
X127525691Y-73066000D01*
X128052885Y-73066000D01*
X128068124Y-73061525D01*
X128069329Y-73060135D01*
X128071000Y-73052452D01*
X128071000Y-72551576D01*
X128066656Y-72536781D01*
X128056225Y-72534937D01*
X128046641Y-72536688D01*
X127903216Y-72578357D01*
X127888780Y-72584604D01*
X127761501Y-72659876D01*
X127749074Y-72669516D01*
X127644516Y-72774074D01*
X127634876Y-72786501D01*
X127559604Y-72913780D01*
X127553357Y-72928216D01*
X127518381Y-73048605D01*
X126507388Y-73048605D01*
X126468192Y-72985879D01*
X126348286Y-72865132D01*
X126340698Y-72860316D01*
X126242714Y-72798134D01*
X126204608Y-72773951D01*
X126044300Y-72716868D01*
X125997539Y-72711292D01*
X125984581Y-72709747D01*
X125919308Y-72681819D01*
X125879495Y-72623036D01*
X125873500Y-72584633D01*
X125873500Y-72574500D01*
X125893502Y-72506379D01*
X125947158Y-72459886D01*
X125999500Y-72448500D01*
X127301864Y-72448500D01*
X127318307Y-72449578D01*
X127350000Y-72453750D01*
X127358189Y-72452672D01*
X127389874Y-72448501D01*
X127389884Y-72448500D01*
X127389885Y-72448500D01*
X127417648Y-72444845D01*
X127489457Y-72435391D01*
X127500664Y-72433916D01*
X127500666Y-72433915D01*
X127508851Y-72432838D01*
X127656876Y-72371524D01*
X127671126Y-72360590D01*
X127752072Y-72298477D01*
X127752075Y-72298474D01*
X127777434Y-72279015D01*
X127783987Y-72273987D01*
X127796086Y-72258220D01*
X127803452Y-72248621D01*
X127814319Y-72236230D01*
X128476905Y-71573644D01*
X128539217Y-71539618D01*
X128610032Y-71544683D01*
G37*
%TD.AperFunction*%
%TA.AperFunction,Conductor*%
G36*
X147176882Y-68801502D02*
G01*
X147197856Y-68818405D01*
X149943711Y-71564260D01*
X149977737Y-71626572D01*
X149972672Y-71697387D01*
X149930181Y-71754181D01*
X149886739Y-71786739D01*
X149799385Y-71903295D01*
X149748255Y-72039684D01*
X149741500Y-72101866D01*
X149741500Y-73898134D01*
X149748255Y-73960316D01*
X149799385Y-74096705D01*
X149886739Y-74213261D01*
X149893919Y-74218642D01*
X149893920Y-74218643D01*
X149955339Y-74264674D01*
X149997854Y-74321533D01*
X150002880Y-74392352D01*
X149968820Y-74454645D01*
X149906489Y-74488635D01*
X149879774Y-74491500D01*
X148119392Y-74491500D01*
X148051271Y-74471498D01*
X148004778Y-74417842D01*
X147994674Y-74347568D01*
X148024168Y-74282988D01*
X148043827Y-74264674D01*
X148105724Y-74218285D01*
X148118285Y-74205724D01*
X148194786Y-74103649D01*
X148203324Y-74088054D01*
X148248478Y-73967606D01*
X148252105Y-73952351D01*
X148257631Y-73901486D01*
X148258000Y-73894672D01*
X148258000Y-73272115D01*
X148253525Y-73256876D01*
X148252135Y-73255671D01*
X148244452Y-73254000D01*
X146360116Y-73254000D01*
X146344877Y-73258475D01*
X146343672Y-73259865D01*
X146342001Y-73267548D01*
X146342001Y-73894669D01*
X146342371Y-73901490D01*
X146347895Y-73952352D01*
X146351521Y-73967604D01*
X146396676Y-74088054D01*
X146405214Y-74103649D01*
X146481715Y-74205724D01*
X146494276Y-74218285D01*
X146556173Y-74264674D01*
X146598688Y-74321533D01*
X146603714Y-74392351D01*
X146569654Y-74454645D01*
X146507323Y-74488635D01*
X146480608Y-74491500D01*
X145142160Y-74491500D01*
X145074039Y-74471498D01*
X145027546Y-74417842D01*
X145017442Y-74347568D01*
X145046936Y-74282988D01*
X145086728Y-74252349D01*
X145182295Y-74205531D01*
X145252994Y-74170896D01*
X145434860Y-74041173D01*
X145593096Y-73883489D01*
X145600219Y-73873577D01*
X145720435Y-73706277D01*
X145723453Y-73702077D01*
X145725813Y-73697303D01*
X145820136Y-73506453D01*
X145820137Y-73506451D01*
X145822430Y-73501811D01*
X145887370Y-73288069D01*
X145916529Y-73066590D01*
X145916687Y-73060135D01*
X145918074Y-73003365D01*
X145918074Y-73003361D01*
X145918156Y-73000000D01*
X145899852Y-72777361D01*
X145887424Y-72727885D01*
X146342000Y-72727885D01*
X146346475Y-72743124D01*
X146347865Y-72744329D01*
X146355548Y-72746000D01*
X147027885Y-72746000D01*
X147043124Y-72741525D01*
X147044329Y-72740135D01*
X147046000Y-72732452D01*
X147046000Y-72727885D01*
X147554000Y-72727885D01*
X147558475Y-72743124D01*
X147559865Y-72744329D01*
X147567548Y-72746000D01*
X148239884Y-72746000D01*
X148255123Y-72741525D01*
X148256328Y-72740135D01*
X148257999Y-72732452D01*
X148257999Y-72105331D01*
X148257629Y-72098510D01*
X148252105Y-72047648D01*
X148248479Y-72032396D01*
X148203324Y-71911946D01*
X148194786Y-71896351D01*
X148118285Y-71794276D01*
X148105724Y-71781715D01*
X148003649Y-71705214D01*
X147988054Y-71696676D01*
X147867606Y-71651522D01*
X147852351Y-71647895D01*
X147801486Y-71642369D01*
X147794672Y-71642000D01*
X147572115Y-71642000D01*
X147556876Y-71646475D01*
X147555671Y-71647865D01*
X147554000Y-71655548D01*
X147554000Y-72727885D01*
X147046000Y-72727885D01*
X147046000Y-71660116D01*
X147041525Y-71644877D01*
X147040135Y-71643672D01*
X147032452Y-71642001D01*
X146805331Y-71642001D01*
X146798510Y-71642371D01*
X146747648Y-71647895D01*
X146732396Y-71651521D01*
X146611946Y-71696676D01*
X146596351Y-71705214D01*
X146494276Y-71781715D01*
X146481715Y-71794276D01*
X146405214Y-71896351D01*
X146396676Y-71911946D01*
X146351522Y-72032394D01*
X146347895Y-72047649D01*
X146342369Y-72098514D01*
X146342000Y-72105328D01*
X146342000Y-72727885D01*
X145887424Y-72727885D01*
X145845431Y-72560702D01*
X145756354Y-72355840D01*
X145685174Y-72245812D01*
X145637822Y-72172617D01*
X145637820Y-72172614D01*
X145635014Y-72168277D01*
X145484670Y-72003051D01*
X145480619Y-71999852D01*
X145480615Y-71999848D01*
X145313414Y-71867800D01*
X145313410Y-71867798D01*
X145309359Y-71864598D01*
X145273028Y-71844542D01*
X145181970Y-71794276D01*
X145113789Y-71756638D01*
X145108920Y-71754914D01*
X145108916Y-71754912D01*
X144908087Y-71683795D01*
X144908083Y-71683794D01*
X144903212Y-71682069D01*
X144898119Y-71681162D01*
X144898116Y-71681161D01*
X144688373Y-71643800D01*
X144688367Y-71643799D01*
X144683284Y-71642894D01*
X144609452Y-71641992D01*
X144465081Y-71640228D01*
X144465079Y-71640228D01*
X144459911Y-71640165D01*
X144329530Y-71660116D01*
X144244200Y-71673173D01*
X144244197Y-71673174D01*
X144239091Y-71673955D01*
X144234176Y-71675562D01*
X144234174Y-71675562D01*
X144199890Y-71686768D01*
X144128927Y-71688921D01*
X144071648Y-71656099D01*
X141412144Y-68996595D01*
X141378118Y-68934283D01*
X141383183Y-68863468D01*
X141425730Y-68806632D01*
X141492250Y-68781821D01*
X141501239Y-68781500D01*
X147108761Y-68781500D01*
X147176882Y-68801502D01*
G37*
%TD.AperFunction*%
%TA.AperFunction,Conductor*%
G36*
X159433621Y-50528502D02*
G01*
X159480114Y-50582158D01*
X159491500Y-50634500D01*
X159491500Y-74365500D01*
X159471498Y-74433621D01*
X159417842Y-74480114D01*
X159365500Y-74491500D01*
X151520226Y-74491500D01*
X151452105Y-74471498D01*
X151405612Y-74417842D01*
X151395508Y-74347568D01*
X151425002Y-74282988D01*
X151444661Y-74264674D01*
X151506080Y-74218643D01*
X151506081Y-74218642D01*
X151513261Y-74213261D01*
X151600615Y-74096705D01*
X151651745Y-73960316D01*
X151658500Y-73898134D01*
X151658500Y-72132655D01*
X155239858Y-72132655D01*
X155275104Y-72391638D01*
X155276412Y-72396124D01*
X155276412Y-72396126D01*
X155290612Y-72444845D01*
X155348243Y-72642567D01*
X155350203Y-72646820D01*
X155350204Y-72646821D01*
X155360667Y-72669516D01*
X155457668Y-72879928D01*
X155479862Y-72913780D01*
X155598410Y-73094596D01*
X155598414Y-73094601D01*
X155600976Y-73098509D01*
X155775018Y-73293506D01*
X155975970Y-73460637D01*
X155979973Y-73463066D01*
X156195422Y-73593804D01*
X156195426Y-73593806D01*
X156199419Y-73596229D01*
X156440455Y-73697303D01*
X156693783Y-73761641D01*
X156698434Y-73762109D01*
X156698438Y-73762110D01*
X156891308Y-73781531D01*
X156910867Y-73783500D01*
X157066354Y-73783500D01*
X157068679Y-73783327D01*
X157068685Y-73783327D01*
X157256000Y-73769407D01*
X157256004Y-73769406D01*
X157260652Y-73769061D01*
X157265200Y-73768032D01*
X157265206Y-73768031D01*
X157468630Y-73722000D01*
X157515577Y-73711377D01*
X157528692Y-73706277D01*
X157754824Y-73618340D01*
X157754827Y-73618339D01*
X157759177Y-73616647D01*
X157775381Y-73607386D01*
X157864493Y-73556454D01*
X157986098Y-73486951D01*
X158191357Y-73325138D01*
X158370443Y-73134763D01*
X158519424Y-72920009D01*
X158544022Y-72870129D01*
X158632960Y-72689781D01*
X158632961Y-72689778D01*
X158635025Y-72685593D01*
X158657181Y-72616379D01*
X158713280Y-72441123D01*
X158714707Y-72436665D01*
X158756721Y-72178693D01*
X158758636Y-72032394D01*
X158760081Y-71922022D01*
X158760081Y-71922019D01*
X158760142Y-71917345D01*
X158724896Y-71658362D01*
X158721837Y-71647865D01*
X158703902Y-71586336D01*
X158651757Y-71407433D01*
X158631541Y-71363580D01*
X158563879Y-71216811D01*
X158542332Y-71170072D01*
X158481311Y-71077000D01*
X158401590Y-70955404D01*
X158401586Y-70955399D01*
X158399024Y-70951491D01*
X158224982Y-70756494D01*
X158024030Y-70589363D01*
X157960043Y-70550535D01*
X157804578Y-70456196D01*
X157804574Y-70456194D01*
X157800581Y-70453771D01*
X157559545Y-70352697D01*
X157306217Y-70288359D01*
X157301566Y-70287891D01*
X157301562Y-70287890D01*
X157092271Y-70266816D01*
X157089133Y-70266500D01*
X156933646Y-70266500D01*
X156931321Y-70266673D01*
X156931315Y-70266673D01*
X156744000Y-70280593D01*
X156743996Y-70280594D01*
X156739348Y-70280939D01*
X156734800Y-70281968D01*
X156734794Y-70281969D01*
X156600320Y-70312398D01*
X156484423Y-70338623D01*
X156480071Y-70340315D01*
X156480069Y-70340316D01*
X156245176Y-70431660D01*
X156245173Y-70431661D01*
X156240823Y-70433353D01*
X156236769Y-70435670D01*
X156236767Y-70435671D01*
X156208264Y-70451962D01*
X156013902Y-70563049D01*
X155808643Y-70724862D01*
X155629557Y-70915237D01*
X155480576Y-71129991D01*
X155478510Y-71134181D01*
X155478508Y-71134184D01*
X155388419Y-71316868D01*
X155364975Y-71364407D01*
X155363553Y-71368850D01*
X155363552Y-71368852D01*
X155306549Y-71546930D01*
X155285293Y-71613335D01*
X155243279Y-71871307D01*
X155242978Y-71894329D01*
X155240106Y-72113740D01*
X155239858Y-72132655D01*
X151658500Y-72132655D01*
X151658500Y-72101866D01*
X151651745Y-72039684D01*
X151600615Y-71903295D01*
X151513261Y-71786739D01*
X151396705Y-71699385D01*
X151388296Y-71696233D01*
X151380425Y-71691923D01*
X151381336Y-71690259D01*
X151333510Y-71654337D01*
X151308807Y-71587776D01*
X151308500Y-71578991D01*
X151308500Y-71508136D01*
X151309578Y-71491690D01*
X151309970Y-71488717D01*
X151313750Y-71460000D01*
X151308500Y-71420120D01*
X151308500Y-71420115D01*
X151294907Y-71316868D01*
X151292838Y-71301149D01*
X151231524Y-71153124D01*
X151226055Y-71145996D01*
X151158483Y-71057936D01*
X151158477Y-71057928D01*
X151158474Y-71057925D01*
X151133987Y-71026013D01*
X151127432Y-71020983D01*
X151108621Y-71006548D01*
X151096230Y-70995681D01*
X149349144Y-69248595D01*
X149315118Y-69186283D01*
X149320183Y-69115468D01*
X149362730Y-69058632D01*
X149429250Y-69033821D01*
X149438239Y-69033500D01*
X149625400Y-69033500D01*
X149628646Y-69033163D01*
X149628650Y-69033163D01*
X149724308Y-69023238D01*
X149724312Y-69023237D01*
X149731166Y-69022526D01*
X149737702Y-69020345D01*
X149737704Y-69020345D01*
X149891998Y-68968868D01*
X149898946Y-68966550D01*
X149905913Y-68962239D01*
X149934250Y-68944703D01*
X150002701Y-68925865D01*
X150066669Y-68944587D01*
X150096243Y-68962816D01*
X150109424Y-68968963D01*
X150263710Y-69020138D01*
X150277086Y-69023005D01*
X150371438Y-69032672D01*
X150377854Y-69033000D01*
X150440385Y-69033000D01*
X150455624Y-69028525D01*
X150456829Y-69027135D01*
X150458500Y-69019452D01*
X150458500Y-69014884D01*
X150966500Y-69014884D01*
X150970975Y-69030123D01*
X150972365Y-69031328D01*
X150980048Y-69032999D01*
X151047095Y-69032999D01*
X151053614Y-69032662D01*
X151149206Y-69022743D01*
X151162600Y-69019851D01*
X151316784Y-68968412D01*
X151329962Y-68962239D01*
X151467807Y-68876937D01*
X151479208Y-68867901D01*
X151593739Y-68753171D01*
X151602751Y-68741760D01*
X151687816Y-68603757D01*
X151693963Y-68590576D01*
X151745138Y-68436290D01*
X151748005Y-68422914D01*
X151757672Y-68328562D01*
X151758000Y-68322146D01*
X151758000Y-68272115D01*
X151753525Y-68256876D01*
X151752135Y-68255671D01*
X151744452Y-68254000D01*
X150984615Y-68254000D01*
X150969376Y-68258475D01*
X150968171Y-68259865D01*
X150966500Y-68267548D01*
X150966500Y-69014884D01*
X150458500Y-69014884D01*
X150458500Y-67872000D01*
X150478502Y-67803879D01*
X150532158Y-67757386D01*
X150584500Y-67746000D01*
X151739884Y-67746000D01*
X151755123Y-67741525D01*
X151756328Y-67740135D01*
X151757999Y-67732452D01*
X151757999Y-67677905D01*
X151757662Y-67671386D01*
X151747743Y-67575794D01*
X151744851Y-67562400D01*
X151693412Y-67408216D01*
X151687239Y-67395038D01*
X151601937Y-67257193D01*
X151592901Y-67245792D01*
X151506833Y-67159874D01*
X151472754Y-67097592D01*
X151477757Y-67026771D01*
X151520254Y-66969899D01*
X151586753Y-66945030D01*
X151631001Y-66949703D01*
X151636553Y-66951316D01*
X151651169Y-66955562D01*
X151657574Y-66956066D01*
X151657579Y-66956067D01*
X151686042Y-66958307D01*
X151686050Y-66958307D01*
X151688498Y-66958500D01*
X152121502Y-66958500D01*
X152123950Y-66958307D01*
X152123958Y-66958307D01*
X152152421Y-66956067D01*
X152152426Y-66956066D01*
X152158831Y-66955562D01*
X152258769Y-66926528D01*
X152310988Y-66911357D01*
X152310990Y-66911356D01*
X152318601Y-66909145D01*
X152384986Y-66869885D01*
X152454980Y-66828491D01*
X152454983Y-66828489D01*
X152461807Y-66824453D01*
X152579453Y-66706807D01*
X152583489Y-66699983D01*
X152583491Y-66699980D01*
X152660108Y-66570427D01*
X152664145Y-66563601D01*
X152710562Y-66403831D01*
X152712059Y-66384819D01*
X152713307Y-66368958D01*
X152713307Y-66368950D01*
X152713500Y-66366502D01*
X152713500Y-65919669D01*
X154042001Y-65919669D01*
X154042371Y-65926490D01*
X154047895Y-65977352D01*
X154051521Y-65992604D01*
X154096676Y-66113054D01*
X154105214Y-66128649D01*
X154181715Y-66230724D01*
X154194276Y-66243285D01*
X154296351Y-66319786D01*
X154311946Y-66328324D01*
X154432394Y-66373478D01*
X154447649Y-66377105D01*
X154498514Y-66382631D01*
X154505328Y-66383000D01*
X155127885Y-66383000D01*
X155143124Y-66378525D01*
X155144329Y-66377135D01*
X155146000Y-66369452D01*
X155146000Y-66364884D01*
X155654000Y-66364884D01*
X155658475Y-66380123D01*
X155659865Y-66381328D01*
X155667548Y-66382999D01*
X156294669Y-66382999D01*
X156301490Y-66382629D01*
X156352352Y-66377105D01*
X156367604Y-66373479D01*
X156488054Y-66328324D01*
X156503649Y-66319786D01*
X156605724Y-66243285D01*
X156618285Y-66230724D01*
X156694786Y-66128649D01*
X156703324Y-66113054D01*
X156748478Y-65992606D01*
X156752105Y-65977351D01*
X156757631Y-65926486D01*
X156758000Y-65919672D01*
X156758000Y-65697115D01*
X156753525Y-65681876D01*
X156752135Y-65680671D01*
X156744452Y-65679000D01*
X155672115Y-65679000D01*
X155656876Y-65683475D01*
X155655671Y-65684865D01*
X155654000Y-65692548D01*
X155654000Y-66364884D01*
X155146000Y-66364884D01*
X155146000Y-65697115D01*
X155141525Y-65681876D01*
X155140135Y-65680671D01*
X155132452Y-65679000D01*
X154060116Y-65679000D01*
X154044877Y-65683475D01*
X154043672Y-65684865D01*
X154042001Y-65692548D01*
X154042001Y-65919669D01*
X152713500Y-65919669D01*
X152713500Y-65152885D01*
X154042000Y-65152885D01*
X154046475Y-65168124D01*
X154047865Y-65169329D01*
X154055548Y-65171000D01*
X155127885Y-65171000D01*
X155143124Y-65166525D01*
X155144329Y-65165135D01*
X155146000Y-65157452D01*
X155146000Y-65152885D01*
X155654000Y-65152885D01*
X155658475Y-65168124D01*
X155659865Y-65169329D01*
X155667548Y-65171000D01*
X156739884Y-65171000D01*
X156755123Y-65166525D01*
X156756328Y-65165135D01*
X156757999Y-65157452D01*
X156757999Y-64930331D01*
X156757629Y-64923510D01*
X156752105Y-64872648D01*
X156748479Y-64857396D01*
X156703324Y-64736946D01*
X156694786Y-64721351D01*
X156618285Y-64619276D01*
X156605724Y-64606715D01*
X156503649Y-64530214D01*
X156488054Y-64521676D01*
X156367606Y-64476522D01*
X156352351Y-64472895D01*
X156301486Y-64467369D01*
X156294672Y-64467000D01*
X155672115Y-64467000D01*
X155656876Y-64471475D01*
X155655671Y-64472865D01*
X155654000Y-64480548D01*
X155654000Y-65152885D01*
X155146000Y-65152885D01*
X155146000Y-64485116D01*
X155141525Y-64469877D01*
X155140135Y-64468672D01*
X155132452Y-64467001D01*
X154505331Y-64467001D01*
X154498510Y-64467371D01*
X154447648Y-64472895D01*
X154432396Y-64476521D01*
X154311946Y-64521676D01*
X154296351Y-64530214D01*
X154194276Y-64606715D01*
X154181715Y-64619276D01*
X154105214Y-64721351D01*
X154096676Y-64736946D01*
X154051522Y-64857394D01*
X154047895Y-64872649D01*
X154042369Y-64923514D01*
X154042000Y-64930328D01*
X154042000Y-65152885D01*
X152713500Y-65152885D01*
X152713500Y-64583498D01*
X152711796Y-64561846D01*
X152711067Y-64552579D01*
X152711066Y-64552574D01*
X152710562Y-64546169D01*
X152672794Y-64416169D01*
X152666357Y-64394012D01*
X152666356Y-64394010D01*
X152664145Y-64386399D01*
X152647107Y-64357589D01*
X152583491Y-64250020D01*
X152583489Y-64250017D01*
X152579453Y-64243193D01*
X152461807Y-64125547D01*
X152454983Y-64121511D01*
X152454980Y-64121509D01*
X152347411Y-64057893D01*
X152318601Y-64040855D01*
X152310990Y-64038644D01*
X152310988Y-64038643D01*
X152255346Y-64022478D01*
X152158831Y-63994438D01*
X152152426Y-63993934D01*
X152152421Y-63993933D01*
X152123958Y-63991693D01*
X152123950Y-63991693D01*
X152121502Y-63991500D01*
X151688498Y-63991500D01*
X151686050Y-63991693D01*
X151686042Y-63991693D01*
X151657579Y-63993933D01*
X151657574Y-63993934D01*
X151651169Y-63994438D01*
X151644993Y-63996232D01*
X151644989Y-63996233D01*
X151554652Y-64022478D01*
X151483656Y-64022275D01*
X151424040Y-63983721D01*
X151394732Y-63919056D01*
X151393500Y-63901481D01*
X151393500Y-62402151D01*
X151394726Y-62384615D01*
X151397452Y-62365221D01*
X151397452Y-62365218D01*
X151398001Y-62361313D01*
X151398180Y-62348510D01*
X151398244Y-62343961D01*
X151398244Y-62343955D01*
X151398299Y-62340000D01*
X151394285Y-62304213D01*
X151393500Y-62290169D01*
X151393500Y-62097998D01*
X151413502Y-62029877D01*
X151467158Y-61983384D01*
X151537432Y-61973280D01*
X151554654Y-61977001D01*
X151633605Y-61999939D01*
X151647706Y-61999899D01*
X151651000Y-61992630D01*
X151651000Y-61986878D01*
X152159000Y-61986878D01*
X152162973Y-62000409D01*
X152170871Y-62001544D01*
X152310790Y-61960893D01*
X152325221Y-61954648D01*
X152454678Y-61878089D01*
X152467104Y-61868449D01*
X152573449Y-61762104D01*
X152583089Y-61749678D01*
X152659648Y-61620221D01*
X152665893Y-61605790D01*
X152708269Y-61459935D01*
X152710570Y-61447333D01*
X152712807Y-61418916D01*
X152713000Y-61413986D01*
X152713000Y-60797115D01*
X152708525Y-60781876D01*
X152707135Y-60780671D01*
X152699452Y-60779000D01*
X152177115Y-60779000D01*
X152161876Y-60783475D01*
X152160671Y-60784865D01*
X152159000Y-60792548D01*
X152159000Y-61986878D01*
X151651000Y-61986878D01*
X151651000Y-60397000D01*
X151671002Y-60328879D01*
X151724658Y-60282386D01*
X151777000Y-60271000D01*
X152694884Y-60271000D01*
X152710123Y-60266525D01*
X152711328Y-60265135D01*
X152712999Y-60257452D01*
X152712999Y-59995512D01*
X152733001Y-59927391D01*
X152786657Y-59880898D01*
X152852105Y-59870195D01*
X152852272Y-59870212D01*
X152853576Y-59870350D01*
X152873071Y-59873958D01*
X152886029Y-59877430D01*
X152892620Y-59877775D01*
X152892624Y-59877776D01*
X152952354Y-59880906D01*
X152958929Y-59881423D01*
X152974126Y-59883020D01*
X152978694Y-59883500D01*
X152998568Y-59883500D01*
X153005162Y-59883673D01*
X153064901Y-59886804D01*
X153064905Y-59886804D01*
X153071493Y-59887149D01*
X153078008Y-59886117D01*
X153078011Y-59886117D01*
X153084740Y-59885051D01*
X153104450Y-59883500D01*
X153288760Y-59883500D01*
X153356881Y-59903502D01*
X153403374Y-59957158D01*
X153413478Y-60027432D01*
X153383984Y-60092012D01*
X153376919Y-60099522D01*
X153358486Y-60117573D01*
X153354675Y-60123487D01*
X153354673Y-60123489D01*
X153278640Y-60241468D01*
X153266304Y-60260610D01*
X153235983Y-60343916D01*
X153214129Y-60403961D01*
X153208103Y-60420516D01*
X153186775Y-60589343D01*
X153203381Y-60758699D01*
X153257094Y-60920167D01*
X153260741Y-60926189D01*
X153260742Y-60926191D01*
X153340953Y-61058634D01*
X153345246Y-61065723D01*
X153463455Y-61188132D01*
X153605846Y-61281310D01*
X153612450Y-61283766D01*
X153612452Y-61283767D01*
X153685594Y-61310968D01*
X153765341Y-61340626D01*
X153772326Y-61341558D01*
X153934015Y-61363132D01*
X153933646Y-61365896D01*
X153989300Y-61383511D01*
X154034659Y-61438129D01*
X154044237Y-61501665D01*
X154041869Y-61523464D01*
X154041869Y-61523469D01*
X154041500Y-61526866D01*
X154041500Y-62523134D01*
X154048255Y-62585316D01*
X154099385Y-62721705D01*
X154186739Y-62838261D01*
X154303295Y-62925615D01*
X154439684Y-62976745D01*
X154501866Y-62983500D01*
X156298134Y-62983500D01*
X156360316Y-62976745D01*
X156496705Y-62925615D01*
X156613261Y-62838261D01*
X156700615Y-62721705D01*
X156751745Y-62585316D01*
X156758500Y-62523134D01*
X156758500Y-61526866D01*
X156751745Y-61464684D01*
X156700615Y-61328295D01*
X156613261Y-61211739D01*
X156496705Y-61124385D01*
X156468552Y-61113831D01*
X156361082Y-61073542D01*
X156304318Y-61030900D01*
X156279618Y-60964339D01*
X156284314Y-60920411D01*
X156295629Y-60881466D01*
X156298500Y-60844989D01*
X156298499Y-60345012D01*
X156295629Y-60308534D01*
X156263946Y-60199480D01*
X156252481Y-60160017D01*
X156252480Y-60160015D01*
X156250269Y-60152404D01*
X156236345Y-60128859D01*
X156225523Y-60110559D01*
X156208064Y-60041743D01*
X156230581Y-59974412D01*
X156285926Y-59929943D01*
X156294099Y-59926898D01*
X156297154Y-59925879D01*
X156297450Y-59925780D01*
X156309908Y-59921624D01*
X156309910Y-59921623D01*
X156316849Y-59919308D01*
X156461055Y-59830071D01*
X156478540Y-59812556D01*
X156575693Y-59715233D01*
X156580864Y-59710053D01*
X156590801Y-59693933D01*
X156613275Y-59657472D01*
X156669849Y-59565692D01*
X156672178Y-59558672D01*
X156721074Y-59411255D01*
X156723238Y-59404731D01*
X156723939Y-59397892D01*
X156723940Y-59397886D01*
X156724807Y-59389429D01*
X156730048Y-59364177D01*
X156776872Y-59216567D01*
X156778735Y-59210694D01*
X156796000Y-59056773D01*
X156796000Y-57199342D01*
X156796737Y-57185735D01*
X156800159Y-57154237D01*
X156800159Y-57154232D01*
X156800824Y-57148111D01*
X156798079Y-57116730D01*
X156796450Y-57098109D01*
X156796121Y-57093284D01*
X156796000Y-57090813D01*
X156796000Y-57087731D01*
X156792940Y-57056526D01*
X156791809Y-57044989D01*
X156791687Y-57043674D01*
X156787866Y-57000000D01*
X156783587Y-56951087D01*
X156782100Y-56945968D01*
X156781580Y-56940667D01*
X156754709Y-56851666D01*
X156754374Y-56850533D01*
X156730130Y-56767086D01*
X156730128Y-56767082D01*
X156728409Y-56761164D01*
X156725956Y-56756432D01*
X156724416Y-56751331D01*
X156716789Y-56736987D01*
X156680769Y-56669240D01*
X156680157Y-56668074D01*
X156640229Y-56591047D01*
X156637392Y-56585574D01*
X156634069Y-56581411D01*
X156631566Y-56576704D01*
X156572745Y-56504582D01*
X156572054Y-56503726D01*
X156540762Y-56464527D01*
X156538258Y-56462023D01*
X156537616Y-56461305D01*
X156533915Y-56456972D01*
X156506565Y-56423438D01*
X156471233Y-56394209D01*
X156462463Y-56386228D01*
X156255986Y-56179751D01*
X156045405Y-55969171D01*
X156011380Y-55906858D01*
X156008500Y-55880075D01*
X156008500Y-55566806D01*
X156028502Y-55498685D01*
X156068195Y-55459663D01*
X156088123Y-55447331D01*
X156088128Y-55447327D01*
X156094348Y-55443478D01*
X156219305Y-55318303D01*
X156261396Y-55250020D01*
X156312115Y-55167738D01*
X156314132Y-55168982D01*
X156353537Y-55124225D01*
X156421813Y-55104761D01*
X156489774Y-55125300D01*
X156511989Y-55143785D01*
X156619924Y-55256930D01*
X156627892Y-55263979D01*
X156806952Y-55397203D01*
X156815982Y-55402802D01*
X157014931Y-55503953D01*
X157024792Y-55507956D01*
X157237929Y-55574138D01*
X157248309Y-55576420D01*
X157268043Y-55579036D01*
X157282207Y-55576840D01*
X157286000Y-55563655D01*
X157286000Y-55561627D01*
X157794000Y-55561627D01*
X157797973Y-55575158D01*
X157808580Y-55576683D01*
X157932188Y-55550748D01*
X157942384Y-55547688D01*
X158149952Y-55465716D01*
X158159489Y-55460982D01*
X158350285Y-55345204D01*
X158358878Y-55338938D01*
X158527441Y-55192667D01*
X158534861Y-55185036D01*
X158676368Y-55012458D01*
X158682393Y-55003691D01*
X158792797Y-54809738D01*
X158797262Y-54800074D01*
X158873410Y-54590289D01*
X158876181Y-54580021D01*
X158916106Y-54359234D01*
X158917039Y-54351005D01*
X158917930Y-54332126D01*
X158918000Y-54329151D01*
X158918000Y-54272115D01*
X158913525Y-54256876D01*
X158912135Y-54255671D01*
X158904452Y-54254000D01*
X157812115Y-54254000D01*
X157796876Y-54258475D01*
X157795671Y-54259865D01*
X157794000Y-54267548D01*
X157794000Y-55561627D01*
X157286000Y-55561627D01*
X157286000Y-53727885D01*
X157794000Y-53727885D01*
X157798475Y-53743124D01*
X157799865Y-53744329D01*
X157807548Y-53746000D01*
X158899885Y-53746000D01*
X158915124Y-53741525D01*
X158916329Y-53740135D01*
X158918000Y-53732452D01*
X158918000Y-53718946D01*
X158917775Y-53713637D01*
X158903661Y-53547293D01*
X158901871Y-53536821D01*
X158845802Y-53320798D01*
X158842266Y-53310758D01*
X158750601Y-53107268D01*
X158745432Y-53097982D01*
X158620790Y-52912845D01*
X158614129Y-52904559D01*
X158460076Y-52743070D01*
X158452108Y-52736021D01*
X158273048Y-52602797D01*
X158264018Y-52597198D01*
X158065069Y-52496047D01*
X158055208Y-52492044D01*
X157842071Y-52425862D01*
X157831691Y-52423580D01*
X157811957Y-52420964D01*
X157797793Y-52423160D01*
X157794000Y-52436345D01*
X157794000Y-53727885D01*
X157286000Y-53727885D01*
X157286000Y-52438373D01*
X157282027Y-52424842D01*
X157271420Y-52423317D01*
X157147812Y-52449252D01*
X157137616Y-52452312D01*
X156930048Y-52534284D01*
X156920511Y-52539018D01*
X156729715Y-52654796D01*
X156721122Y-52661062D01*
X156552559Y-52807333D01*
X156545138Y-52814965D01*
X156517827Y-52848272D01*
X156459167Y-52888266D01*
X156388197Y-52890197D01*
X156327449Y-52853452D01*
X156312196Y-52830654D01*
X156311550Y-52831054D01*
X156259536Y-52747000D01*
X156218478Y-52680652D01*
X156093303Y-52555695D01*
X156081040Y-52548136D01*
X155948968Y-52466725D01*
X155948966Y-52466724D01*
X155942738Y-52462885D01*
X155840511Y-52428978D01*
X155781389Y-52409368D01*
X155781387Y-52409368D01*
X155774861Y-52407203D01*
X155768025Y-52406503D01*
X155768022Y-52406502D01*
X155724969Y-52402091D01*
X155670400Y-52396500D01*
X154329600Y-52396500D01*
X154326354Y-52396837D01*
X154326350Y-52396837D01*
X154230692Y-52406762D01*
X154230688Y-52406763D01*
X154223834Y-52407474D01*
X154217298Y-52409655D01*
X154217296Y-52409655D01*
X154104099Y-52447421D01*
X154056054Y-52463450D01*
X153905652Y-52556522D01*
X153780695Y-52681697D01*
X153776855Y-52687927D01*
X153776854Y-52687928D01*
X153691820Y-52825879D01*
X153687885Y-52832262D01*
X153667836Y-52892709D01*
X153636442Y-52987360D01*
X153632203Y-53000139D01*
X153631503Y-53006975D01*
X153631502Y-53006978D01*
X153628987Y-53031524D01*
X153621500Y-53104600D01*
X153621500Y-54895400D01*
X153621837Y-54898646D01*
X153621837Y-54898650D01*
X153631750Y-54994184D01*
X153632474Y-55001166D01*
X153634655Y-55007702D01*
X153634655Y-55007704D01*
X153666085Y-55101911D01*
X153688450Y-55168946D01*
X153781522Y-55319348D01*
X153786704Y-55324521D01*
X153798934Y-55336730D01*
X153906697Y-55444305D01*
X153931617Y-55459666D01*
X153979109Y-55512438D01*
X153991500Y-55566925D01*
X153991500Y-56288157D01*
X153990763Y-56301764D01*
X153987947Y-56327691D01*
X153986676Y-56339388D01*
X153987751Y-56351671D01*
X153991050Y-56389388D01*
X153991379Y-56394214D01*
X153991500Y-56396686D01*
X153991500Y-56399769D01*
X153991801Y-56402837D01*
X153995690Y-56442506D01*
X153995812Y-56443819D01*
X154003913Y-56536413D01*
X154005400Y-56541532D01*
X154005920Y-56546833D01*
X154007700Y-56552728D01*
X154007700Y-56552729D01*
X154032771Y-56635769D01*
X154033146Y-56637034D01*
X154057371Y-56720418D01*
X154057373Y-56720424D01*
X154059091Y-56726336D01*
X154061544Y-56731068D01*
X154063084Y-56736169D01*
X154065978Y-56741612D01*
X154106731Y-56818260D01*
X154107343Y-56819426D01*
X154147271Y-56896453D01*
X154150108Y-56901926D01*
X154153431Y-56906089D01*
X154155934Y-56910796D01*
X154214755Y-56982918D01*
X154215446Y-56983774D01*
X154246738Y-57022973D01*
X154249242Y-57025477D01*
X154249884Y-57026195D01*
X154253585Y-57030528D01*
X154280935Y-57064062D01*
X154316267Y-57093291D01*
X154325037Y-57101272D01*
X154547300Y-57323534D01*
X154742095Y-57518329D01*
X154776120Y-57580642D01*
X154779000Y-57607425D01*
X154779000Y-57918314D01*
X154758998Y-57986435D01*
X154705342Y-58032928D01*
X154635068Y-58043032D01*
X154613333Y-58037907D01*
X154586265Y-58028929D01*
X154586263Y-58028929D01*
X154579731Y-58026762D01*
X154479572Y-58016500D01*
X153945428Y-58016500D01*
X153942182Y-58016837D01*
X153942178Y-58016837D01*
X153908397Y-58020342D01*
X153844018Y-58027022D01*
X153837477Y-58029204D01*
X153837478Y-58029204D01*
X153690095Y-58078375D01*
X153690093Y-58078376D01*
X153683151Y-58080692D01*
X153676927Y-58084544D01*
X153676926Y-58084544D01*
X153655757Y-58097644D01*
X153589454Y-58116500D01*
X153443148Y-58116500D01*
X153375027Y-58096498D01*
X153354053Y-58079595D01*
X152825405Y-57550947D01*
X152791379Y-57488635D01*
X152788500Y-57461852D01*
X152788500Y-56428694D01*
X152773954Y-56290298D01*
X152754000Y-56228884D01*
X152719667Y-56123219D01*
X152713500Y-56084283D01*
X152713500Y-55583498D01*
X152712844Y-55575158D01*
X152711067Y-55552579D01*
X152711066Y-55552574D01*
X152710562Y-55546169D01*
X152679785Y-55440232D01*
X152666357Y-55394012D01*
X152666356Y-55394010D01*
X152664145Y-55386399D01*
X152630056Y-55328757D01*
X152583491Y-55250020D01*
X152583489Y-55250017D01*
X152579453Y-55243193D01*
X152461807Y-55125547D01*
X152454983Y-55121511D01*
X152454980Y-55121509D01*
X152325427Y-55044892D01*
X152325428Y-55044892D01*
X152318601Y-55040855D01*
X152310990Y-55038644D01*
X152310988Y-55038643D01*
X152223142Y-55013122D01*
X152158831Y-54994438D01*
X152152426Y-54993934D01*
X152152421Y-54993933D01*
X152123958Y-54991693D01*
X152123950Y-54991693D01*
X152121502Y-54991500D01*
X151688498Y-54991500D01*
X151686047Y-54991693D01*
X151686019Y-54991694D01*
X151654387Y-54994184D01*
X151584907Y-54979589D01*
X151534347Y-54929747D01*
X151518500Y-54868573D01*
X151518500Y-53131427D01*
X151538502Y-53063306D01*
X151592158Y-53016813D01*
X151654387Y-53005816D01*
X151686019Y-53008306D01*
X151686047Y-53008307D01*
X151688498Y-53008500D01*
X152121502Y-53008500D01*
X152123950Y-53008307D01*
X152123958Y-53008307D01*
X152152421Y-53006067D01*
X152152426Y-53006066D01*
X152158831Y-53005562D01*
X152281630Y-52969886D01*
X152310988Y-52961357D01*
X152310990Y-52961356D01*
X152318601Y-52959145D01*
X152356890Y-52936501D01*
X152454980Y-52878491D01*
X152454983Y-52878489D01*
X152461807Y-52874453D01*
X152579453Y-52756807D01*
X152583489Y-52749983D01*
X152583491Y-52749980D01*
X152660108Y-52620427D01*
X152664145Y-52613601D01*
X152668911Y-52597198D01*
X152694770Y-52508188D01*
X152710562Y-52453831D01*
X152711939Y-52436345D01*
X152713307Y-52418958D01*
X152713307Y-52418950D01*
X152713500Y-52416502D01*
X152713500Y-50634500D01*
X152733502Y-50566379D01*
X152787158Y-50519886D01*
X152839500Y-50508500D01*
X159365500Y-50508500D01*
X159433621Y-50528502D01*
G37*
%TD.AperFunction*%
%TA.AperFunction,Conductor*%
G36*
X106490856Y-67094653D02*
G01*
X106521419Y-67129555D01*
X106605547Y-67271807D01*
X106608229Y-67274489D01*
X106633502Y-67338861D01*
X106619600Y-67408484D01*
X106609428Y-67424312D01*
X106605547Y-67428193D01*
X106520855Y-67571399D01*
X106474438Y-67731169D01*
X106473934Y-67737574D01*
X106473933Y-67737579D01*
X106472106Y-67760795D01*
X106471500Y-67768498D01*
X106471500Y-68201502D01*
X106474438Y-68238831D01*
X106482781Y-68267548D01*
X106517506Y-68387072D01*
X106520855Y-68398601D01*
X106605547Y-68541807D01*
X106608229Y-68544489D01*
X106633502Y-68608861D01*
X106619600Y-68678484D01*
X106609428Y-68694312D01*
X106605547Y-68698193D01*
X106520855Y-68841399D01*
X106518644Y-68849010D01*
X106518643Y-68849012D01*
X106511535Y-68873478D01*
X106474438Y-69001169D01*
X106473934Y-69007574D01*
X106473933Y-69007579D01*
X106471920Y-69033163D01*
X106471500Y-69038498D01*
X106471500Y-69471502D01*
X106471693Y-69473950D01*
X106471693Y-69473958D01*
X106473550Y-69497544D01*
X106474438Y-69508831D01*
X106486535Y-69550468D01*
X106515157Y-69648987D01*
X106520855Y-69668601D01*
X106532911Y-69688987D01*
X106601509Y-69804980D01*
X106601511Y-69804983D01*
X106605547Y-69811807D01*
X106723193Y-69929453D01*
X106730017Y-69933489D01*
X106730020Y-69933491D01*
X106831813Y-69993691D01*
X106866399Y-70014145D01*
X106874010Y-70016356D01*
X106874012Y-70016357D01*
X106926231Y-70031528D01*
X107026169Y-70060562D01*
X107032574Y-70061066D01*
X107032579Y-70061067D01*
X107061042Y-70063307D01*
X107061050Y-70063307D01*
X107063498Y-70063500D01*
X108846502Y-70063500D01*
X108848950Y-70063307D01*
X108848958Y-70063307D01*
X108877421Y-70061067D01*
X108877426Y-70061066D01*
X108883831Y-70060562D01*
X108983769Y-70031528D01*
X109035988Y-70016357D01*
X109035990Y-70016356D01*
X109043601Y-70014145D01*
X109078187Y-69993691D01*
X109179980Y-69933491D01*
X109179983Y-69933489D01*
X109186807Y-69929453D01*
X109215855Y-69900405D01*
X109278167Y-69866379D01*
X109304950Y-69863500D01*
X109989659Y-69863500D01*
X110058650Y-69884066D01*
X110130846Y-69931310D01*
X110137450Y-69933766D01*
X110137452Y-69933767D01*
X110210593Y-69960968D01*
X110290341Y-69990626D01*
X110459015Y-70013132D01*
X110466026Y-70012494D01*
X110466030Y-70012494D01*
X110621462Y-69998348D01*
X110628483Y-69997709D01*
X110635185Y-69995531D01*
X110635187Y-69995531D01*
X110783623Y-69947301D01*
X110783626Y-69947300D01*
X110790322Y-69945124D01*
X110936490Y-69857990D01*
X110941584Y-69853139D01*
X110941588Y-69853136D01*
X111053628Y-69746441D01*
X111059721Y-69740639D01*
X111077770Y-69713474D01*
X111119122Y-69651234D01*
X111153891Y-69598902D01*
X111214319Y-69439825D01*
X111238001Y-69271313D01*
X111238299Y-69250000D01*
X111219331Y-69080892D01*
X111214787Y-69067842D01*
X111191568Y-69001169D01*
X111163368Y-68920189D01*
X111134180Y-68873478D01*
X111079685Y-68786270D01*
X111060549Y-68717901D01*
X111081414Y-68650040D01*
X111135655Y-68604232D01*
X111186539Y-68593500D01*
X112296864Y-68593500D01*
X112313307Y-68594578D01*
X112345000Y-68598750D01*
X112353189Y-68597672D01*
X112384874Y-68593501D01*
X112384884Y-68593500D01*
X112384885Y-68593500D01*
X112484457Y-68580391D01*
X112495664Y-68578916D01*
X112495666Y-68578915D01*
X112503851Y-68577838D01*
X112651876Y-68516524D01*
X112701460Y-68478477D01*
X112747072Y-68443477D01*
X112747075Y-68443474D01*
X112772437Y-68424013D01*
X112778987Y-68418987D01*
X112798458Y-68393613D01*
X112809316Y-68381233D01*
X113520144Y-67670405D01*
X113582456Y-67636379D01*
X113609239Y-67633500D01*
X115241000Y-67633500D01*
X115309121Y-67653502D01*
X115355614Y-67707158D01*
X115367000Y-67759500D01*
X115367000Y-68162885D01*
X115371475Y-68178124D01*
X115372865Y-68179329D01*
X115380548Y-68181000D01*
X116303000Y-68181000D01*
X116371121Y-68201002D01*
X116417614Y-68254658D01*
X116429000Y-68307000D01*
X116429000Y-68563000D01*
X116408998Y-68631121D01*
X116355342Y-68677614D01*
X116303000Y-68689000D01*
X115385116Y-68689000D01*
X115369877Y-68693475D01*
X115368672Y-68694865D01*
X115367001Y-68702548D01*
X115367001Y-69086140D01*
X115346999Y-69154261D01*
X115293343Y-69200754D01*
X115257444Y-69211062D01*
X115254124Y-69211499D01*
X115254117Y-69211500D01*
X115254115Y-69211500D01*
X115237892Y-69213636D01*
X115167745Y-69202697D01*
X115114646Y-69155570D01*
X115098863Y-69117859D01*
X115097598Y-69112540D01*
X115096745Y-69104684D01*
X115093972Y-69097285D01*
X115048767Y-68976703D01*
X115045615Y-68968295D01*
X114958261Y-68851739D01*
X114841705Y-68764385D01*
X114705316Y-68713255D01*
X114643134Y-68706500D01*
X113696866Y-68706500D01*
X113634684Y-68713255D01*
X113498295Y-68764385D01*
X113381739Y-68851739D01*
X113294385Y-68968295D01*
X113243255Y-69104684D01*
X113236500Y-69166866D01*
X113236500Y-70113134D01*
X113243255Y-70175316D01*
X113246027Y-70182712D01*
X113246029Y-70182718D01*
X113279316Y-70271511D01*
X113284499Y-70342318D01*
X113281167Y-70354675D01*
X113275008Y-70373632D01*
X113251870Y-70444845D01*
X113231358Y-70640000D01*
X113232048Y-70646565D01*
X113250585Y-70822925D01*
X113251870Y-70835155D01*
X113253910Y-70841433D01*
X113253910Y-70841434D01*
X113264312Y-70873448D01*
X113312508Y-71021780D01*
X113315811Y-71027502D01*
X113315812Y-71027503D01*
X113344389Y-71077000D01*
X113361127Y-71145996D01*
X113344389Y-71203000D01*
X113312508Y-71258220D01*
X113293455Y-71316860D01*
X113257862Y-71426405D01*
X113251870Y-71444845D01*
X113251180Y-71451408D01*
X113251180Y-71451409D01*
X113248485Y-71477049D01*
X113231358Y-71640000D01*
X113232048Y-71646565D01*
X113236641Y-71690259D01*
X113251870Y-71835155D01*
X113253910Y-71841433D01*
X113253910Y-71841434D01*
X113262117Y-71866692D01*
X113312508Y-72021780D01*
X113315811Y-72027502D01*
X113315812Y-72027503D01*
X113344389Y-72077000D01*
X113361127Y-72145996D01*
X113344389Y-72203000D01*
X113312508Y-72258220D01*
X113310466Y-72264505D01*
X113257835Y-72426488D01*
X113251870Y-72444845D01*
X113231358Y-72640000D01*
X113232048Y-72646565D01*
X113245189Y-72771586D01*
X113251870Y-72835155D01*
X113253910Y-72841433D01*
X113253910Y-72841434D01*
X113267688Y-72883837D01*
X113312508Y-73021780D01*
X113315811Y-73027502D01*
X113315812Y-73027503D01*
X113344389Y-73077000D01*
X113361127Y-73145996D01*
X113344389Y-73203000D01*
X113316682Y-73250991D01*
X113312508Y-73258220D01*
X113302177Y-73290016D01*
X113263291Y-73409696D01*
X113251870Y-73444845D01*
X113251180Y-73451408D01*
X113251180Y-73451409D01*
X113245395Y-73506453D01*
X113231358Y-73640000D01*
X113232048Y-73646565D01*
X113246423Y-73783327D01*
X113251870Y-73835155D01*
X113253910Y-73841433D01*
X113253910Y-73841434D01*
X113271207Y-73894669D01*
X113312508Y-74021780D01*
X113315811Y-74027502D01*
X113315812Y-74027503D01*
X113325217Y-74043792D01*
X113410623Y-74191720D01*
X113415041Y-74196627D01*
X113415042Y-74196628D01*
X113491182Y-74281190D01*
X113521900Y-74345197D01*
X113513135Y-74415651D01*
X113467672Y-74470182D01*
X113397546Y-74491500D01*
X100634500Y-74491500D01*
X100566379Y-74471498D01*
X100519886Y-74417842D01*
X100508500Y-74365500D01*
X100508500Y-69248239D01*
X100528502Y-69180118D01*
X100582158Y-69133625D01*
X100652432Y-69123521D01*
X100717012Y-69153015D01*
X100723595Y-69159144D01*
X101215685Y-69651234D01*
X101226552Y-69663625D01*
X101246013Y-69688987D01*
X101252563Y-69694013D01*
X101277921Y-69713471D01*
X101277937Y-69713485D01*
X101319009Y-69745000D01*
X101373124Y-69786524D01*
X101521149Y-69847838D01*
X101675013Y-69868094D01*
X101739939Y-69896816D01*
X101747661Y-69903921D01*
X101773193Y-69929453D01*
X101780017Y-69933489D01*
X101780020Y-69933491D01*
X101881813Y-69993691D01*
X101916399Y-70014145D01*
X101924010Y-70016356D01*
X101924012Y-70016357D01*
X101976231Y-70031528D01*
X102076169Y-70060562D01*
X102082574Y-70061066D01*
X102082579Y-70061067D01*
X102111042Y-70063307D01*
X102111050Y-70063307D01*
X102113498Y-70063500D01*
X103896502Y-70063500D01*
X103898950Y-70063307D01*
X103898958Y-70063307D01*
X103927421Y-70061067D01*
X103927426Y-70061066D01*
X103933831Y-70060562D01*
X104033769Y-70031528D01*
X104085988Y-70016357D01*
X104085990Y-70016356D01*
X104093601Y-70014145D01*
X104128187Y-69993691D01*
X104229980Y-69933491D01*
X104229983Y-69933489D01*
X104236807Y-69929453D01*
X104354453Y-69811807D01*
X104358489Y-69804983D01*
X104358491Y-69804980D01*
X104427089Y-69688987D01*
X104439145Y-69668601D01*
X104444844Y-69648987D01*
X104473465Y-69550468D01*
X104485562Y-69508831D01*
X104486451Y-69497544D01*
X104488307Y-69473958D01*
X104488307Y-69473950D01*
X104488500Y-69471502D01*
X104488500Y-69038498D01*
X104488080Y-69033163D01*
X104486067Y-69007579D01*
X104486066Y-69007574D01*
X104485562Y-69001169D01*
X104448465Y-68873478D01*
X104441357Y-68849012D01*
X104441356Y-68849010D01*
X104439145Y-68841399D01*
X104425875Y-68818961D01*
X104408417Y-68750148D01*
X104430934Y-68682817D01*
X104486278Y-68638347D01*
X104550774Y-68629903D01*
X104571810Y-68632672D01*
X104571811Y-68632672D01*
X104580000Y-68633750D01*
X104588189Y-68632672D01*
X104619874Y-68628501D01*
X104619884Y-68628500D01*
X104619885Y-68628500D01*
X104684449Y-68620000D01*
X104719457Y-68615391D01*
X104730664Y-68613916D01*
X104730666Y-68613915D01*
X104738851Y-68612838D01*
X104886876Y-68551524D01*
X104899540Y-68541807D01*
X104982072Y-68478477D01*
X104982075Y-68478474D01*
X105007434Y-68459015D01*
X105013987Y-68453987D01*
X105032500Y-68429861D01*
X105033452Y-68428621D01*
X105044319Y-68416230D01*
X106166234Y-67294315D01*
X106178625Y-67283448D01*
X106197437Y-67269013D01*
X106203987Y-67263987D01*
X106228474Y-67232075D01*
X106228480Y-67232069D01*
X106283741Y-67160051D01*
X106301524Y-67136876D01*
X106304239Y-67130321D01*
X106355232Y-67081701D01*
X106424946Y-67068266D01*
X106490856Y-67094653D01*
G37*
%TD.AperFunction*%
%TA.AperFunction,Conductor*%
G36*
X137753882Y-70368502D02*
G01*
X137774856Y-70385405D01*
X138815856Y-71426405D01*
X138849882Y-71488717D01*
X138844817Y-71559532D01*
X138802270Y-71616368D01*
X138735750Y-71641179D01*
X138726761Y-71641500D01*
X138576866Y-71641500D01*
X138514684Y-71648255D01*
X138378295Y-71699385D01*
X138261739Y-71786739D01*
X138174385Y-71903295D01*
X138123255Y-72039684D01*
X138116500Y-72101866D01*
X138116500Y-73898134D01*
X138123255Y-73960316D01*
X138174385Y-74096705D01*
X138261739Y-74213261D01*
X138268919Y-74218642D01*
X138268920Y-74218643D01*
X138330339Y-74264674D01*
X138372854Y-74321533D01*
X138377880Y-74392352D01*
X138343820Y-74454645D01*
X138281489Y-74488635D01*
X138254774Y-74491500D01*
X133434000Y-74491500D01*
X133365879Y-74471498D01*
X133319386Y-74417842D01*
X133308000Y-74365500D01*
X133308000Y-74122115D01*
X133303525Y-74106876D01*
X133302135Y-74105671D01*
X133294452Y-74104000D01*
X131972000Y-74104000D01*
X131903879Y-74083998D01*
X131857386Y-74030342D01*
X131846000Y-73978000D01*
X131846000Y-73722000D01*
X131866002Y-73653879D01*
X131919658Y-73607386D01*
X131972000Y-73596000D01*
X133289884Y-73596000D01*
X133305123Y-73591525D01*
X133327388Y-73565830D01*
X133327518Y-73565943D01*
X133335066Y-73552119D01*
X133397377Y-73518091D01*
X133421640Y-73516442D01*
X133443031Y-73511948D01*
X133446000Y-73500487D01*
X133446000Y-73498424D01*
X133954000Y-73498424D01*
X133958344Y-73513219D01*
X133968775Y-73515063D01*
X133978359Y-73513312D01*
X134121784Y-73471643D01*
X134136220Y-73465396D01*
X134263499Y-73390124D01*
X134275926Y-73380484D01*
X134380484Y-73275926D01*
X134390124Y-73263499D01*
X134465396Y-73136220D01*
X134471643Y-73121784D01*
X134506619Y-73001395D01*
X134506579Y-72987295D01*
X134499309Y-72984000D01*
X133972115Y-72984000D01*
X133956876Y-72988475D01*
X133955671Y-72989865D01*
X133954000Y-72997548D01*
X133954000Y-73498424D01*
X133446000Y-73498424D01*
X133446000Y-72684500D01*
X133466002Y-72616379D01*
X133519658Y-72569886D01*
X133572000Y-72558500D01*
X133935484Y-72558500D01*
X133937932Y-72558307D01*
X133937940Y-72558307D01*
X133965844Y-72556111D01*
X133965849Y-72556110D01*
X133972254Y-72555606D01*
X134071005Y-72526916D01*
X134121984Y-72512106D01*
X134121986Y-72512105D01*
X134129597Y-72509894D01*
X134157240Y-72493546D01*
X134221379Y-72476000D01*
X134493558Y-72476000D01*
X134507089Y-72472027D01*
X134508224Y-72464129D01*
X134471643Y-72338216D01*
X134465395Y-72323778D01*
X134459984Y-72314628D01*
X134442526Y-72245812D01*
X134459985Y-72186353D01*
X134465857Y-72176423D01*
X134469894Y-72169597D01*
X134515606Y-72012254D01*
X134516331Y-72003051D01*
X134518307Y-71977940D01*
X134518307Y-71977932D01*
X134518500Y-71975484D01*
X134518500Y-71564516D01*
X134516939Y-71544683D01*
X134516111Y-71534156D01*
X134516110Y-71534151D01*
X134515606Y-71527746D01*
X134469894Y-71370403D01*
X134391046Y-71237078D01*
X134373500Y-71172939D01*
X134373500Y-71152700D01*
X134373792Y-71144130D01*
X134377000Y-71097069D01*
X134377517Y-71089493D01*
X134372009Y-71057928D01*
X134367102Y-71029814D01*
X134366139Y-71023290D01*
X134359776Y-70970712D01*
X134358863Y-70963168D01*
X134356179Y-70956064D01*
X134354751Y-70950250D01*
X134352523Y-70942107D01*
X134350797Y-70936391D01*
X134349491Y-70928907D01*
X134325146Y-70873448D01*
X134322653Y-70867340D01*
X134303926Y-70817781D01*
X134301242Y-70810678D01*
X134296939Y-70804416D01*
X134294162Y-70799105D01*
X134290064Y-70791741D01*
X134287017Y-70786589D01*
X134283967Y-70779642D01*
X134247080Y-70731569D01*
X134243223Y-70726259D01*
X134213216Y-70682597D01*
X134213210Y-70682590D01*
X134208911Y-70676335D01*
X134164806Y-70637039D01*
X134159530Y-70632057D01*
X134091068Y-70563595D01*
X134057042Y-70501283D01*
X134062107Y-70430468D01*
X134104654Y-70373632D01*
X134171174Y-70348821D01*
X134180163Y-70348500D01*
X137685761Y-70348500D01*
X137753882Y-70368502D01*
G37*
%TD.AperFunction*%
%TA.AperFunction,Conductor*%
G36*
X140178882Y-69488502D02*
G01*
X140199856Y-69505405D01*
X142241381Y-71546930D01*
X142275407Y-71609242D01*
X142272570Y-71673545D01*
X142269000Y-71684990D01*
X142269000Y-73128000D01*
X142248998Y-73196121D01*
X142195342Y-73242614D01*
X142143000Y-73254000D01*
X141887000Y-73254000D01*
X141818879Y-73233998D01*
X141772386Y-73180342D01*
X141761000Y-73128000D01*
X141761000Y-71683102D01*
X141757082Y-71669758D01*
X141742806Y-71667771D01*
X141704324Y-71673660D01*
X141694288Y-71676051D01*
X141491868Y-71742212D01*
X141482359Y-71746209D01*
X141293463Y-71844542D01*
X141284738Y-71850036D01*
X141114433Y-71977905D01*
X141106726Y-71984748D01*
X141029478Y-72065584D01*
X140967954Y-72101014D01*
X140897042Y-72097557D01*
X140839255Y-72056311D01*
X140820402Y-72022763D01*
X140778767Y-71911703D01*
X140775615Y-71903295D01*
X140688261Y-71786739D01*
X140571705Y-71699385D01*
X140435316Y-71648255D01*
X140373134Y-71641500D01*
X140209500Y-71641500D01*
X140141379Y-71621498D01*
X140094886Y-71567842D01*
X140083500Y-71515500D01*
X140083500Y-71273136D01*
X140084578Y-71256690D01*
X140087672Y-71233188D01*
X140088750Y-71225000D01*
X140083500Y-71185120D01*
X140083500Y-71185115D01*
X140070204Y-71084121D01*
X140067838Y-71066149D01*
X140006524Y-70918124D01*
X139933477Y-70822928D01*
X139933474Y-70822925D01*
X139908987Y-70791013D01*
X139902432Y-70785983D01*
X139883621Y-70771548D01*
X139871230Y-70760681D01*
X138794144Y-69683595D01*
X138760118Y-69621283D01*
X138765183Y-69550468D01*
X138807730Y-69493632D01*
X138874250Y-69468821D01*
X138883239Y-69468500D01*
X140110761Y-69468500D01*
X140178882Y-69488502D01*
G37*
%TD.AperFunction*%
%TA.AperFunction,Conductor*%
G36*
X140273879Y-56877612D02*
G01*
X140285087Y-56887560D01*
X140854167Y-57456640D01*
X140860020Y-57462905D01*
X140896030Y-57504184D01*
X140945605Y-57539026D01*
X140950847Y-57542919D01*
X140998546Y-57580319D01*
X141005470Y-57583445D01*
X141010583Y-57586542D01*
X141017947Y-57590743D01*
X141023188Y-57593553D01*
X141029399Y-57597918D01*
X141063232Y-57611109D01*
X141085846Y-57619926D01*
X141091926Y-57622482D01*
X141140195Y-57644276D01*
X141140197Y-57644277D01*
X141147117Y-57647401D01*
X141154584Y-57648785D01*
X141160302Y-57650577D01*
X141168419Y-57652889D01*
X141174201Y-57654373D01*
X141181277Y-57657132D01*
X141188808Y-57658123D01*
X141188810Y-57658124D01*
X141241328Y-57665038D01*
X141247843Y-57666070D01*
X141289060Y-57673709D01*
X141307399Y-57677108D01*
X141314978Y-57676671D01*
X141314979Y-57676671D01*
X141366346Y-57673709D01*
X141373599Y-57673500D01*
X142330334Y-57673500D01*
X142398455Y-57693502D01*
X142418936Y-57712050D01*
X142419929Y-57711055D01*
X142539947Y-57830864D01*
X142684308Y-57919849D01*
X142691256Y-57922154D01*
X142691257Y-57922154D01*
X142838738Y-57971072D01*
X142838740Y-57971072D01*
X142845269Y-57973238D01*
X142945428Y-57983500D01*
X142987306Y-57983500D01*
X143055427Y-58003502D01*
X143101920Y-58057158D01*
X143111663Y-58108369D01*
X143112850Y-58108307D01*
X143113195Y-58114901D01*
X143112850Y-58121493D01*
X143113882Y-58128007D01*
X143114949Y-58134744D01*
X143116500Y-58154456D01*
X143116500Y-59108806D01*
X143126566Y-59204575D01*
X143130073Y-59237940D01*
X143131046Y-59247202D01*
X143133086Y-59253480D01*
X143133086Y-59253481D01*
X143185333Y-59414281D01*
X143191500Y-59453217D01*
X143191500Y-59565500D01*
X143171498Y-59633621D01*
X143117842Y-59680114D01*
X143065500Y-59691500D01*
X142833498Y-59691500D01*
X142831050Y-59691693D01*
X142831042Y-59691693D01*
X142802579Y-59693933D01*
X142802574Y-59693934D01*
X142796169Y-59694438D01*
X142721876Y-59716022D01*
X142644012Y-59738643D01*
X142644010Y-59738644D01*
X142636399Y-59740855D01*
X142629575Y-59744891D01*
X142629573Y-59744892D01*
X142500020Y-59821509D01*
X142500017Y-59821511D01*
X142493193Y-59825547D01*
X142375547Y-59943193D01*
X142371511Y-59950017D01*
X142371509Y-59950020D01*
X142316927Y-60042314D01*
X142290855Y-60086399D01*
X142244438Y-60246169D01*
X142243934Y-60252574D01*
X142243933Y-60252579D01*
X142242434Y-60271632D01*
X142241500Y-60283498D01*
X142241500Y-61591502D01*
X142241693Y-61593950D01*
X142241693Y-61593958D01*
X142243391Y-61615527D01*
X142244438Y-61628831D01*
X142290855Y-61788601D01*
X142294892Y-61795427D01*
X142371509Y-61924980D01*
X142371511Y-61924983D01*
X142375547Y-61931807D01*
X142400645Y-61956905D01*
X142434671Y-62019217D01*
X142429606Y-62090032D01*
X142387059Y-62146868D01*
X142320539Y-62171679D01*
X142311550Y-62172000D01*
X142292527Y-62172000D01*
X142287597Y-62172193D01*
X142260032Y-62174363D01*
X142247428Y-62176665D01*
X142105217Y-62217981D01*
X142090778Y-62224230D01*
X141964595Y-62298854D01*
X141952159Y-62308501D01*
X141848501Y-62412159D01*
X141838854Y-62424595D01*
X141764230Y-62550778D01*
X141757981Y-62565217D01*
X141716662Y-62707436D01*
X141714363Y-62720023D01*
X141713740Y-62727943D01*
X141716910Y-62743030D01*
X141728374Y-62746000D01*
X142605500Y-62746000D01*
X142673621Y-62766002D01*
X142720114Y-62819658D01*
X142731500Y-62872000D01*
X142731501Y-63089603D01*
X142731501Y-63249988D01*
X142734371Y-63286466D01*
X142736167Y-63292648D01*
X142736168Y-63292653D01*
X142738997Y-63302390D01*
X142744000Y-63337542D01*
X142744000Y-63801900D01*
X142747973Y-63815431D01*
X142755871Y-63816566D01*
X142874783Y-63782019D01*
X142889220Y-63775771D01*
X142935370Y-63748478D01*
X143004187Y-63731018D01*
X143063646Y-63748477D01*
X143117404Y-63780269D01*
X143125015Y-63782480D01*
X143125017Y-63782481D01*
X143172342Y-63796230D01*
X143273534Y-63825629D01*
X143279941Y-63826133D01*
X143279945Y-63826134D01*
X143307556Y-63828307D01*
X143307562Y-63828307D01*
X143310011Y-63828500D01*
X143509878Y-63828500D01*
X143709988Y-63828499D01*
X143746466Y-63825629D01*
X143847658Y-63796230D01*
X143894983Y-63782481D01*
X143894985Y-63782480D01*
X143902596Y-63780269D01*
X143909424Y-63776231D01*
X143909736Y-63776047D01*
X143910047Y-63775962D01*
X143916695Y-63773085D01*
X143917104Y-63774031D01*
X143973875Y-63758500D01*
X144026125Y-63758500D01*
X144082896Y-63774031D01*
X144083305Y-63773085D01*
X144089953Y-63775962D01*
X144090264Y-63776047D01*
X144090576Y-63776231D01*
X144097404Y-63780269D01*
X144105015Y-63782480D01*
X144105017Y-63782481D01*
X144152342Y-63796230D01*
X144253534Y-63825629D01*
X144259941Y-63826133D01*
X144259945Y-63826134D01*
X144287556Y-63828307D01*
X144287562Y-63828307D01*
X144290011Y-63828500D01*
X144295902Y-63828500D01*
X144477788Y-63828499D01*
X144545908Y-63848501D01*
X144592401Y-63902156D01*
X144602924Y-63945085D01*
X144602850Y-63946493D01*
X144604949Y-63959744D01*
X144606500Y-63979456D01*
X144606500Y-63990500D01*
X144586498Y-64058621D01*
X144532842Y-64105114D01*
X144480500Y-64116500D01*
X144203694Y-64116500D01*
X144096058Y-64127813D01*
X144071862Y-64130356D01*
X144071861Y-64130356D01*
X144065298Y-64131046D01*
X144059020Y-64133086D01*
X144059019Y-64133086D01*
X144028116Y-64143127D01*
X143888669Y-64188436D01*
X143727831Y-64281296D01*
X143722924Y-64285714D01*
X143722923Y-64285715D01*
X143618683Y-64379573D01*
X143589815Y-64405566D01*
X143585934Y-64410908D01*
X143585932Y-64410910D01*
X143513651Y-64510397D01*
X143480652Y-64555816D01*
X143477968Y-64561844D01*
X143477967Y-64561846D01*
X143439801Y-64647568D01*
X143405113Y-64725479D01*
X143393500Y-64780114D01*
X143381212Y-64837927D01*
X143366500Y-64907140D01*
X143366500Y-65092860D01*
X143367872Y-65099313D01*
X143367872Y-65099317D01*
X143380229Y-65157452D01*
X143405113Y-65274521D01*
X143407797Y-65280550D01*
X143407798Y-65280552D01*
X143435313Y-65342350D01*
X143480652Y-65444183D01*
X143484532Y-65449524D01*
X143484533Y-65449525D01*
X143519140Y-65497157D01*
X143589815Y-65594434D01*
X143594725Y-65598855D01*
X143594726Y-65598856D01*
X143710216Y-65702843D01*
X143727831Y-65718704D01*
X143888669Y-65811564D01*
X143894955Y-65813606D01*
X143894954Y-65813606D01*
X144033435Y-65858601D01*
X144065298Y-65868954D01*
X144071861Y-65869644D01*
X144071862Y-65869644D01*
X144096058Y-65872187D01*
X144203694Y-65883500D01*
X145523555Y-65883500D01*
X145530150Y-65883673D01*
X145589902Y-65886805D01*
X145589906Y-65886805D01*
X145596493Y-65887150D01*
X145609747Y-65885051D01*
X145629456Y-65883500D01*
X146546306Y-65883500D01*
X146653942Y-65872187D01*
X146678138Y-65869644D01*
X146678139Y-65869644D01*
X146684702Y-65868954D01*
X146716566Y-65858601D01*
X146855046Y-65813606D01*
X146855045Y-65813606D01*
X146861331Y-65811564D01*
X147022169Y-65718704D01*
X147076192Y-65670062D01*
X147140197Y-65639346D01*
X147210650Y-65648109D01*
X147265182Y-65693572D01*
X147286500Y-65763699D01*
X147286500Y-66366502D01*
X147286693Y-66368950D01*
X147286693Y-66368958D01*
X147287942Y-66384819D01*
X147289438Y-66403831D01*
X147335855Y-66563601D01*
X147339892Y-66570427D01*
X147416509Y-66699980D01*
X147416511Y-66699983D01*
X147420547Y-66706807D01*
X147538193Y-66824453D01*
X147545017Y-66828489D01*
X147545020Y-66828491D01*
X147615014Y-66869885D01*
X147681399Y-66909145D01*
X147689010Y-66911356D01*
X147689012Y-66911357D01*
X147741231Y-66926528D01*
X147841169Y-66955562D01*
X147847574Y-66956066D01*
X147847579Y-66956067D01*
X147876042Y-66958307D01*
X147876050Y-66958307D01*
X147878498Y-66958500D01*
X148311502Y-66958500D01*
X148313950Y-66958307D01*
X148313958Y-66958307D01*
X148342421Y-66956067D01*
X148342426Y-66956066D01*
X148348831Y-66955562D01*
X148361870Y-66951774D01*
X148367860Y-66950034D01*
X148438857Y-66950239D01*
X148498472Y-66988794D01*
X148527779Y-67053460D01*
X148517472Y-67123705D01*
X148492184Y-67160049D01*
X148478782Y-67173474D01*
X148442917Y-67209401D01*
X148380634Y-67243479D01*
X148363960Y-67245967D01*
X148307661Y-67250546D01*
X148307658Y-67250547D01*
X148300363Y-67251140D01*
X148293399Y-67253396D01*
X148287440Y-67254587D01*
X148281585Y-67255971D01*
X148274319Y-67256818D01*
X148205673Y-67281735D01*
X148201545Y-67283152D01*
X148139064Y-67303393D01*
X148139062Y-67303394D01*
X148132101Y-67305649D01*
X148125846Y-67309445D01*
X148120372Y-67311951D01*
X148114942Y-67314670D01*
X148108063Y-67317167D01*
X148047016Y-67357191D01*
X148043327Y-67359518D01*
X148034566Y-67364835D01*
X147985693Y-67394491D01*
X147985688Y-67394495D01*
X147980892Y-67397405D01*
X147972516Y-67404803D01*
X147972493Y-67404777D01*
X147969503Y-67407426D01*
X147966264Y-67410134D01*
X147960148Y-67414144D01*
X147955121Y-67419451D01*
X147955117Y-67419454D01*
X147906872Y-67470383D01*
X147904494Y-67472825D01*
X147894803Y-67482516D01*
X147893866Y-67483444D01*
X147833486Y-67542573D01*
X147829669Y-67548496D01*
X147829663Y-67548503D01*
X147816205Y-67569384D01*
X147762489Y-67615808D01*
X147692202Y-67625820D01*
X147662078Y-67617535D01*
X147627616Y-67603261D01*
X147571851Y-67580162D01*
X147563664Y-67579084D01*
X147563663Y-67579084D01*
X147552458Y-67577609D01*
X147521262Y-67573502D01*
X147452885Y-67564500D01*
X147452882Y-67564500D01*
X147452874Y-67564499D01*
X147421189Y-67560328D01*
X147413000Y-67559250D01*
X147381307Y-67563422D01*
X147364864Y-67564500D01*
X134334500Y-67564500D01*
X134266379Y-67544498D01*
X134219886Y-67490842D01*
X134208500Y-67438500D01*
X134208500Y-67334500D01*
X134228502Y-67266379D01*
X134282158Y-67219886D01*
X134334500Y-67208500D01*
X134868392Y-67208500D01*
X134932344Y-67200761D01*
X134951434Y-67198451D01*
X134951435Y-67198451D01*
X134959473Y-67197478D01*
X135101747Y-67141148D01*
X135223632Y-67048632D01*
X135316148Y-66926747D01*
X135372478Y-66784473D01*
X135383500Y-66693392D01*
X135383500Y-66506608D01*
X135372478Y-66415527D01*
X135375339Y-66415181D01*
X135375339Y-66384819D01*
X135372478Y-66384473D01*
X135373808Y-66373479D01*
X135383500Y-66293392D01*
X135383500Y-66106608D01*
X135372478Y-66015527D01*
X135375339Y-66015181D01*
X135375339Y-65984819D01*
X135372478Y-65984473D01*
X135375957Y-65955724D01*
X135383500Y-65893392D01*
X135383500Y-65823495D01*
X135403502Y-65755374D01*
X135457158Y-65708881D01*
X135470563Y-65703662D01*
X135490033Y-65697336D01*
X135490035Y-65697335D01*
X135496729Y-65695160D01*
X135642897Y-65608026D01*
X135647991Y-65603175D01*
X135647995Y-65603172D01*
X135759321Y-65497157D01*
X135766128Y-65490675D01*
X135860298Y-65348938D01*
X135920726Y-65189861D01*
X135944408Y-65021349D01*
X135944706Y-65000036D01*
X135925738Y-64830928D01*
X135869775Y-64670225D01*
X135779599Y-64525915D01*
X135760427Y-64506608D01*
X135664655Y-64410165D01*
X135659693Y-64405168D01*
X135653353Y-64401144D01*
X135603672Y-64369616D01*
X135516015Y-64313987D01*
X135467231Y-64296616D01*
X135409770Y-64254924D01*
X135383969Y-64188781D01*
X135383500Y-64177918D01*
X135383500Y-64134500D01*
X135403502Y-64066379D01*
X135457158Y-64019886D01*
X135509500Y-64008500D01*
X135741263Y-64008500D01*
X135809384Y-64028502D01*
X135830358Y-64045405D01*
X135882459Y-64097506D01*
X135889280Y-64101540D01*
X136009567Y-64172677D01*
X136022404Y-64180269D01*
X136030015Y-64182480D01*
X136030017Y-64182481D01*
X136051702Y-64188781D01*
X136178534Y-64225629D01*
X136184941Y-64226133D01*
X136184945Y-64226134D01*
X136212556Y-64228307D01*
X136212562Y-64228307D01*
X136215011Y-64228500D01*
X136414878Y-64228500D01*
X136614988Y-64228499D01*
X136651466Y-64225629D01*
X136786514Y-64186394D01*
X136799983Y-64182481D01*
X136799985Y-64182480D01*
X136807596Y-64180269D01*
X136814421Y-64176233D01*
X136814425Y-64176231D01*
X136860861Y-64148769D01*
X136929677Y-64131309D01*
X136989139Y-64148769D01*
X137035575Y-64176231D01*
X137035579Y-64176233D01*
X137042404Y-64180269D01*
X137050015Y-64182480D01*
X137050017Y-64182481D01*
X137071702Y-64188781D01*
X137198534Y-64225629D01*
X137204941Y-64226133D01*
X137204945Y-64226134D01*
X137232556Y-64228307D01*
X137232562Y-64228307D01*
X137235011Y-64228500D01*
X137434878Y-64228500D01*
X137634988Y-64228499D01*
X137671466Y-64225629D01*
X137806514Y-64186394D01*
X137819983Y-64182481D01*
X137819985Y-64182480D01*
X137827596Y-64180269D01*
X137836009Y-64175294D01*
X137890400Y-64143127D01*
X137959217Y-64125667D01*
X138018679Y-64143127D01*
X138073071Y-64175294D01*
X138073075Y-64175296D01*
X138079900Y-64179332D01*
X138087511Y-64181543D01*
X138087513Y-64181544D01*
X138138196Y-64196268D01*
X138239063Y-64225573D01*
X138245468Y-64226077D01*
X138245473Y-64226078D01*
X138273797Y-64228307D01*
X138273805Y-64228307D01*
X138276253Y-64228500D01*
X138489870Y-64228500D01*
X138703746Y-64228499D01*
X138740937Y-64225573D01*
X138839017Y-64197078D01*
X138892487Y-64181544D01*
X138892489Y-64181543D01*
X138900100Y-64179332D01*
X138906925Y-64175296D01*
X138906929Y-64175294D01*
X138911355Y-64172677D01*
X138980171Y-64155219D01*
X139039628Y-64172677D01*
X139043276Y-64174834D01*
X139057713Y-64181082D01*
X139188605Y-64219109D01*
X139202705Y-64219069D01*
X139206000Y-64211799D01*
X139206000Y-64206048D01*
X139714000Y-64206048D01*
X139717973Y-64219579D01*
X139725871Y-64220714D01*
X139862287Y-64181082D01*
X139876724Y-64174834D01*
X140005627Y-64098601D01*
X140018065Y-64088952D01*
X140123952Y-63983065D01*
X140133601Y-63970627D01*
X140209834Y-63841724D01*
X140216082Y-63827287D01*
X140258279Y-63682043D01*
X140260229Y-63671365D01*
X140257205Y-63656969D01*
X140245742Y-63654000D01*
X139732115Y-63654000D01*
X139716876Y-63658475D01*
X139715671Y-63659865D01*
X139714000Y-63667548D01*
X139714000Y-64206048D01*
X139206000Y-64206048D01*
X139206000Y-63934386D01*
X139223547Y-63870247D01*
X139240294Y-63841929D01*
X139240296Y-63841925D01*
X139244332Y-63835100D01*
X139246871Y-63826363D01*
X139274154Y-63732452D01*
X139290573Y-63675937D01*
X139291077Y-63669532D01*
X139291078Y-63669527D01*
X139293307Y-63641203D01*
X139293307Y-63641195D01*
X139293500Y-63638747D01*
X139293499Y-63270003D01*
X141713579Y-63270003D01*
X141714363Y-63279977D01*
X141716662Y-63292564D01*
X141757981Y-63434783D01*
X141764230Y-63449222D01*
X141838854Y-63575405D01*
X141848501Y-63587841D01*
X141952159Y-63691499D01*
X141964595Y-63701146D01*
X142090778Y-63775770D01*
X142105217Y-63782019D01*
X142218605Y-63814961D01*
X142232705Y-63814921D01*
X142236000Y-63807651D01*
X142236000Y-63272115D01*
X142231525Y-63256876D01*
X142230135Y-63255671D01*
X142222452Y-63254000D01*
X141730434Y-63254000D01*
X141715639Y-63258344D01*
X141713579Y-63270003D01*
X139293499Y-63270003D01*
X139293499Y-63161254D01*
X139290874Y-63127885D01*
X139714000Y-63127885D01*
X139718475Y-63143124D01*
X139719865Y-63144329D01*
X139727548Y-63146000D01*
X140243681Y-63146000D01*
X140258476Y-63141656D01*
X140260508Y-63130160D01*
X140258279Y-63117957D01*
X140216082Y-62972713D01*
X140209834Y-62958276D01*
X140133601Y-62829373D01*
X140123952Y-62816935D01*
X140018065Y-62711048D01*
X140005627Y-62701399D01*
X139876724Y-62625166D01*
X139862287Y-62618918D01*
X139731395Y-62580891D01*
X139717295Y-62580931D01*
X139714000Y-62588201D01*
X139714000Y-63127885D01*
X139290874Y-63127885D01*
X139290573Y-63124063D01*
X139247773Y-62976745D01*
X139246544Y-62972513D01*
X139246543Y-62972511D01*
X139244332Y-62964900D01*
X139240296Y-62958075D01*
X139240294Y-62958071D01*
X139223547Y-62929753D01*
X139206000Y-62865614D01*
X139206000Y-62593952D01*
X139202027Y-62580421D01*
X139194129Y-62579286D01*
X139057713Y-62618918D01*
X139043276Y-62625166D01*
X139039628Y-62627323D01*
X139036397Y-62628143D01*
X139036001Y-62628314D01*
X139035973Y-62628250D01*
X138970811Y-62644781D01*
X138911355Y-62627323D01*
X138906929Y-62624706D01*
X138906925Y-62624704D01*
X138900100Y-62620668D01*
X138892489Y-62618457D01*
X138892487Y-62618456D01*
X138841804Y-62603732D01*
X138740937Y-62574427D01*
X138734532Y-62573923D01*
X138734527Y-62573922D01*
X138706203Y-62571693D01*
X138706195Y-62571693D01*
X138703747Y-62571500D01*
X138490130Y-62571500D01*
X138276254Y-62571501D01*
X138239063Y-62574427D01*
X138140983Y-62602922D01*
X138087513Y-62618456D01*
X138087511Y-62618457D01*
X138079900Y-62620668D01*
X138073075Y-62624704D01*
X138073071Y-62624706D01*
X138018679Y-62656873D01*
X137949863Y-62674333D01*
X137890400Y-62656873D01*
X137834421Y-62623767D01*
X137834419Y-62623766D01*
X137827596Y-62619731D01*
X137819985Y-62617520D01*
X137819983Y-62617519D01*
X137709139Y-62585316D01*
X137671466Y-62574371D01*
X137665059Y-62573867D01*
X137665055Y-62573866D01*
X137637444Y-62571693D01*
X137637438Y-62571693D01*
X137634989Y-62571500D01*
X137435122Y-62571500D01*
X137235012Y-62571501D01*
X137198534Y-62574371D01*
X137135394Y-62592715D01*
X137050017Y-62617519D01*
X137050015Y-62617520D01*
X137042404Y-62619731D01*
X137035579Y-62623767D01*
X137035575Y-62623769D01*
X136989139Y-62651231D01*
X136920323Y-62668691D01*
X136860861Y-62651231D01*
X136814425Y-62623769D01*
X136814421Y-62623767D01*
X136807596Y-62619731D01*
X136799985Y-62617520D01*
X136799983Y-62617519D01*
X136689139Y-62585316D01*
X136651466Y-62574371D01*
X136645059Y-62573867D01*
X136645055Y-62573866D01*
X136617444Y-62571693D01*
X136617438Y-62571693D01*
X136614989Y-62571500D01*
X136415122Y-62571500D01*
X136215012Y-62571501D01*
X136178534Y-62574371D01*
X136115394Y-62592715D01*
X136030017Y-62617519D01*
X136030015Y-62617520D01*
X136022404Y-62619731D01*
X136015582Y-62623766D01*
X136015581Y-62623766D01*
X135897850Y-62693392D01*
X135882459Y-62702494D01*
X135830358Y-62754595D01*
X135768046Y-62788621D01*
X135741263Y-62791500D01*
X135509500Y-62791500D01*
X135441379Y-62771498D01*
X135394886Y-62717842D01*
X135383500Y-62665500D01*
X135383500Y-62506608D01*
X135372478Y-62415527D01*
X135375339Y-62415181D01*
X135375339Y-62384819D01*
X135372478Y-62384473D01*
X135375758Y-62357366D01*
X135383500Y-62293392D01*
X135383500Y-62183362D01*
X135403502Y-62115241D01*
X135457451Y-62068615D01*
X135458693Y-62068052D01*
X135465392Y-62065875D01*
X135611560Y-61978741D01*
X135616654Y-61973890D01*
X135616658Y-61973887D01*
X135697232Y-61897157D01*
X135734791Y-61861390D01*
X135743359Y-61848495D01*
X135800741Y-61762127D01*
X135828961Y-61719653D01*
X135889389Y-61560576D01*
X135913071Y-61392064D01*
X135913369Y-61370751D01*
X135894401Y-61201643D01*
X135891040Y-61191990D01*
X135840756Y-61047597D01*
X135838438Y-61040940D01*
X135832759Y-61031851D01*
X135763118Y-60920405D01*
X135748262Y-60896630D01*
X135727632Y-60875855D01*
X135714712Y-60862844D01*
X135680905Y-60800413D01*
X135686331Y-60729318D01*
X135736815Y-60596417D01*
X135736815Y-60596416D01*
X135739319Y-60589825D01*
X135763001Y-60421313D01*
X135763299Y-60400000D01*
X135744331Y-60230892D01*
X135736569Y-60208601D01*
X135696664Y-60094012D01*
X135688368Y-60070189D01*
X135680074Y-60056915D01*
X135643579Y-59998512D01*
X135598192Y-59925879D01*
X135478286Y-59805132D01*
X135469111Y-59799309D01*
X135404817Y-59758507D01*
X135334608Y-59713951D01*
X135174300Y-59656868D01*
X135005329Y-59636720D01*
X134998326Y-59637456D01*
X134998325Y-59637456D01*
X134843101Y-59653770D01*
X134843097Y-59653771D01*
X134836093Y-59654507D01*
X134829422Y-59656778D01*
X134681673Y-59707075D01*
X134681670Y-59707076D01*
X134675003Y-59709346D01*
X134669005Y-59713036D01*
X134669003Y-59713037D01*
X134598233Y-59756575D01*
X134529732Y-59775233D01*
X134464698Y-59755643D01*
X134359608Y-59688951D01*
X134199300Y-59631868D01*
X134030329Y-59611720D01*
X134030646Y-59609061D01*
X133974380Y-59592113D01*
X133928262Y-59538134D01*
X133920369Y-59514508D01*
X133920117Y-59513398D01*
X133919331Y-59506392D01*
X133863368Y-59345689D01*
X133773192Y-59201379D01*
X133653286Y-59080632D01*
X133643684Y-59074538D01*
X133593964Y-59042985D01*
X133509608Y-58989451D01*
X133349300Y-58932368D01*
X133248092Y-58920300D01*
X133202295Y-58914839D01*
X133137022Y-58886912D01*
X133097209Y-58828129D01*
X133095497Y-58757153D01*
X133128119Y-58700630D01*
X133391343Y-58437406D01*
X133453655Y-58403380D01*
X133480438Y-58400501D01*
X134721108Y-58400501D01*
X134789229Y-58420503D01*
X134835722Y-58474159D01*
X134842105Y-58491347D01*
X134849731Y-58517596D01*
X134853766Y-58524418D01*
X134853766Y-58524419D01*
X134875299Y-58560830D01*
X134932494Y-58657541D01*
X135047459Y-58772506D01*
X135054280Y-58776540D01*
X135141513Y-58828129D01*
X135187404Y-58855269D01*
X135195015Y-58857480D01*
X135195017Y-58857481D01*
X135224440Y-58866029D01*
X135343534Y-58900629D01*
X135349941Y-58901133D01*
X135349945Y-58901134D01*
X135377556Y-58903307D01*
X135377562Y-58903307D01*
X135380011Y-58903500D01*
X135579878Y-58903500D01*
X135779988Y-58903499D01*
X135816466Y-58900629D01*
X135935560Y-58866029D01*
X135964983Y-58857481D01*
X135964985Y-58857480D01*
X135972596Y-58855269D01*
X135979421Y-58851233D01*
X135979425Y-58851231D01*
X136025861Y-58823769D01*
X136094677Y-58806309D01*
X136154139Y-58823769D01*
X136200575Y-58851231D01*
X136200579Y-58851233D01*
X136207404Y-58855269D01*
X136215015Y-58857480D01*
X136215017Y-58857481D01*
X136244440Y-58866029D01*
X136363534Y-58900629D01*
X136369941Y-58901133D01*
X136369945Y-58901134D01*
X136397556Y-58903307D01*
X136397562Y-58903307D01*
X136400011Y-58903500D01*
X136599878Y-58903500D01*
X136799988Y-58903499D01*
X136836466Y-58900629D01*
X136955560Y-58866029D01*
X136984983Y-58857481D01*
X136984985Y-58857480D01*
X136992596Y-58855269D01*
X137038488Y-58828129D01*
X137125720Y-58776540D01*
X137132541Y-58772506D01*
X137247506Y-58657541D01*
X137304701Y-58560830D01*
X137326234Y-58524419D01*
X137326234Y-58524418D01*
X137330269Y-58517596D01*
X137337895Y-58491347D01*
X137376109Y-58431512D01*
X137440605Y-58401835D01*
X137458892Y-58400501D01*
X138328063Y-58400501D01*
X138344506Y-58401579D01*
X138376199Y-58405751D01*
X138384388Y-58404673D01*
X138416073Y-58400502D01*
X138416083Y-58400501D01*
X138416084Y-58400501D01*
X138515656Y-58387392D01*
X138526863Y-58385917D01*
X138526865Y-58385916D01*
X138535050Y-58384839D01*
X138683075Y-58323525D01*
X138711495Y-58301718D01*
X138778271Y-58250478D01*
X138778274Y-58250475D01*
X138803636Y-58231014D01*
X138810186Y-58225988D01*
X138829657Y-58200614D01*
X138840515Y-58188234D01*
X139946234Y-57082515D01*
X139958625Y-57071648D01*
X139977437Y-57057213D01*
X139983987Y-57052187D01*
X140008474Y-57020275D01*
X140008477Y-57020272D01*
X140069560Y-56940667D01*
X140081524Y-56925075D01*
X140084685Y-56917445D01*
X140086872Y-56913656D01*
X140138254Y-56864662D01*
X140207968Y-56851225D01*
X140273879Y-56877612D01*
G37*
%TD.AperFunction*%
%TA.AperFunction,Conductor*%
G36*
X130306608Y-61508500D02*
G01*
X130404125Y-61508500D01*
X130472246Y-61528502D01*
X130518739Y-61582158D01*
X130523677Y-61594711D01*
X130557094Y-61695167D01*
X130560741Y-61701189D01*
X130563698Y-61707588D01*
X130562435Y-61708172D01*
X130578642Y-61769360D01*
X130556831Y-61836924D01*
X130501955Y-61881969D01*
X130452687Y-61892001D01*
X129355331Y-61892001D01*
X129348510Y-61892371D01*
X129297648Y-61897895D01*
X129282396Y-61901521D01*
X129161946Y-61946676D01*
X129146351Y-61955214D01*
X129044276Y-62031715D01*
X129031715Y-62044276D01*
X128955214Y-62146351D01*
X128946676Y-62161946D01*
X128901522Y-62282394D01*
X128897895Y-62297649D01*
X128892369Y-62348514D01*
X128892000Y-62355328D01*
X128892000Y-63727885D01*
X128896475Y-63743124D01*
X128897865Y-63744329D01*
X128905548Y-63746000D01*
X133089884Y-63746000D01*
X133105123Y-63741525D01*
X133106328Y-63740135D01*
X133107999Y-63732452D01*
X133107999Y-62355331D01*
X133107629Y-62348510D01*
X133102105Y-62297648D01*
X133098479Y-62282397D01*
X133097060Y-62278611D01*
X133096829Y-62275456D01*
X133096651Y-62274707D01*
X133096772Y-62274678D01*
X133091877Y-62207804D01*
X133125798Y-62145435D01*
X133188053Y-62111305D01*
X133231705Y-62109488D01*
X133241163Y-62110750D01*
X133252035Y-62112201D01*
X133252038Y-62112201D01*
X133259015Y-62113132D01*
X133266026Y-62112494D01*
X133266030Y-62112494D01*
X133318077Y-62107757D01*
X133354081Y-62104480D01*
X133423733Y-62118225D01*
X133474898Y-62167446D01*
X133491500Y-62229961D01*
X133491500Y-62293392D01*
X133499242Y-62357366D01*
X133502522Y-62384473D01*
X133499661Y-62384819D01*
X133499661Y-62415181D01*
X133502522Y-62415527D01*
X133491500Y-62506608D01*
X133491500Y-62693392D01*
X133500166Y-62765000D01*
X133502522Y-62784473D01*
X133499661Y-62784819D01*
X133499661Y-62815181D01*
X133502522Y-62815527D01*
X133491500Y-62906608D01*
X133491500Y-63093392D01*
X133499414Y-63158792D01*
X133502522Y-63184473D01*
X133499661Y-63184819D01*
X133499661Y-63215181D01*
X133502522Y-63215527D01*
X133491500Y-63306608D01*
X133491500Y-63493392D01*
X133491956Y-63497157D01*
X133502522Y-63584473D01*
X133499661Y-63584819D01*
X133499661Y-63615181D01*
X133502522Y-63615527D01*
X133491500Y-63706608D01*
X133491500Y-63893392D01*
X133501710Y-63977763D01*
X133502522Y-63984473D01*
X133499661Y-63984819D01*
X133499661Y-64015181D01*
X133502522Y-64015527D01*
X133491500Y-64106608D01*
X133491500Y-64293392D01*
X133494450Y-64317766D01*
X133502522Y-64384473D01*
X133499661Y-64384819D01*
X133499661Y-64415181D01*
X133502522Y-64415527D01*
X133491500Y-64506608D01*
X133491500Y-64693392D01*
X133496368Y-64733621D01*
X133502522Y-64784473D01*
X133499661Y-64784819D01*
X133499661Y-64815181D01*
X133502522Y-64815527D01*
X133491500Y-64906608D01*
X133491500Y-65093392D01*
X133499252Y-65157452D01*
X133502522Y-65184473D01*
X133499661Y-65184819D01*
X133499661Y-65215181D01*
X133502522Y-65215527D01*
X133491500Y-65306608D01*
X133491500Y-65493392D01*
X133496557Y-65535183D01*
X133502522Y-65584473D01*
X133499661Y-65584819D01*
X133499661Y-65615181D01*
X133502522Y-65615527D01*
X133491500Y-65706608D01*
X133491500Y-65893392D01*
X133499043Y-65955724D01*
X133502522Y-65984473D01*
X133499661Y-65984819D01*
X133499661Y-66015181D01*
X133502522Y-66015527D01*
X133491500Y-66106608D01*
X133491500Y-66293392D01*
X133494694Y-66319786D01*
X133499469Y-66359245D01*
X133487796Y-66429275D01*
X133440114Y-66481877D01*
X133371563Y-66500350D01*
X133359245Y-66499469D01*
X133344838Y-66497726D01*
X133293392Y-66491500D01*
X133106608Y-66491500D01*
X133015527Y-66502522D01*
X133015181Y-66499661D01*
X132984819Y-66499661D01*
X132984473Y-66502522D01*
X132893392Y-66491500D01*
X132706608Y-66491500D01*
X132615527Y-66502522D01*
X132615181Y-66499661D01*
X132584819Y-66499661D01*
X132584473Y-66502522D01*
X132493392Y-66491500D01*
X132451050Y-66491500D01*
X132382929Y-66471498D01*
X132336436Y-66417842D01*
X132332069Y-66406963D01*
X132298368Y-66310189D01*
X132294632Y-66304210D01*
X132292481Y-66300767D01*
X132291776Y-66298249D01*
X132291590Y-66297860D01*
X132291658Y-66297827D01*
X132273346Y-66232397D01*
X132294213Y-66164536D01*
X132348455Y-66118729D01*
X132399336Y-66107999D01*
X132644669Y-66107999D01*
X132651490Y-66107629D01*
X132702352Y-66102105D01*
X132717604Y-66098479D01*
X132838054Y-66053324D01*
X132853649Y-66044786D01*
X132955724Y-65968285D01*
X132968285Y-65955724D01*
X133044786Y-65853649D01*
X133053324Y-65838054D01*
X133098478Y-65717606D01*
X133102105Y-65702351D01*
X133107631Y-65651486D01*
X133108000Y-65644672D01*
X133108000Y-64272115D01*
X133103525Y-64256876D01*
X133102135Y-64255671D01*
X133094452Y-64254000D01*
X128910116Y-64254000D01*
X128894877Y-64258475D01*
X128893672Y-64259865D01*
X128892001Y-64267548D01*
X128892001Y-65644669D01*
X128892371Y-65651490D01*
X128897895Y-65702352D01*
X128901521Y-65717604D01*
X128946676Y-65838054D01*
X128955214Y-65853649D01*
X129031715Y-65955724D01*
X129044276Y-65968285D01*
X129146351Y-66044786D01*
X129161946Y-66053324D01*
X129282394Y-66098478D01*
X129297649Y-66102105D01*
X129348514Y-66107631D01*
X129355328Y-66108000D01*
X130819576Y-66107999D01*
X130887697Y-66128001D01*
X130934190Y-66181657D01*
X130944294Y-66251931D01*
X130932437Y-66290021D01*
X130930120Y-66294688D01*
X130926304Y-66300610D01*
X130923893Y-66307234D01*
X130887001Y-66408594D01*
X130844907Y-66465766D01*
X130778586Y-66491104D01*
X130768600Y-66491500D01*
X130706608Y-66491500D01*
X130615527Y-66502522D01*
X130615181Y-66499661D01*
X130584819Y-66499661D01*
X130584473Y-66502522D01*
X130493392Y-66491500D01*
X130306608Y-66491500D01*
X130215527Y-66502522D01*
X130215330Y-66500897D01*
X130183653Y-66502928D01*
X130097115Y-66492456D01*
X130089561Y-66492000D01*
X129910447Y-66492001D01*
X129902891Y-66492456D01*
X129816345Y-66502929D01*
X129784670Y-66500893D01*
X129784473Y-66502522D01*
X129693392Y-66491500D01*
X129506608Y-66491500D01*
X129415527Y-66502522D01*
X129415181Y-66499661D01*
X129384819Y-66499661D01*
X129384473Y-66502522D01*
X129293392Y-66491500D01*
X129106608Y-66491500D01*
X129015527Y-66502522D01*
X129015181Y-66499661D01*
X128984819Y-66499661D01*
X128984473Y-66502522D01*
X128893392Y-66491500D01*
X128706608Y-66491500D01*
X128655162Y-66497726D01*
X128640755Y-66499469D01*
X128570725Y-66487796D01*
X128518123Y-66440114D01*
X128499650Y-66371563D01*
X128500531Y-66359245D01*
X128505306Y-66319786D01*
X128508500Y-66293392D01*
X128508500Y-66106608D01*
X128497478Y-66015527D01*
X128500339Y-66015181D01*
X128500339Y-65984819D01*
X128497478Y-65984473D01*
X128500957Y-65955724D01*
X128508500Y-65893392D01*
X128508500Y-65706608D01*
X128497478Y-65615527D01*
X128500339Y-65615181D01*
X128500339Y-65584819D01*
X128497478Y-65584473D01*
X128503443Y-65535183D01*
X128508500Y-65493392D01*
X128508500Y-65306608D01*
X128497478Y-65215527D01*
X128500339Y-65215181D01*
X128500339Y-65184819D01*
X128497478Y-65184473D01*
X128500748Y-65157452D01*
X128508500Y-65093392D01*
X128508500Y-64906608D01*
X128497478Y-64815527D01*
X128500339Y-64815181D01*
X128500339Y-64784819D01*
X128497478Y-64784473D01*
X128503632Y-64733621D01*
X128508500Y-64693392D01*
X128508500Y-64506608D01*
X128497478Y-64415527D01*
X128500339Y-64415181D01*
X128500339Y-64384819D01*
X128497478Y-64384473D01*
X128505550Y-64317766D01*
X128508500Y-64293392D01*
X128508500Y-64106608D01*
X128497478Y-64015527D01*
X128500339Y-64015181D01*
X128500339Y-63984819D01*
X128497478Y-63984473D01*
X128498290Y-63977763D01*
X128508500Y-63893392D01*
X128508500Y-63706608D01*
X128497478Y-63615527D01*
X128500339Y-63615181D01*
X128500339Y-63584819D01*
X128497478Y-63584473D01*
X128508044Y-63497157D01*
X128508500Y-63493392D01*
X128508500Y-63306608D01*
X128497478Y-63215527D01*
X128500339Y-63215181D01*
X128500339Y-63184819D01*
X128497478Y-63184473D01*
X128500586Y-63158792D01*
X128508500Y-63093392D01*
X128508500Y-62906608D01*
X128497478Y-62815527D01*
X128500339Y-62815181D01*
X128500339Y-62784819D01*
X128497478Y-62784473D01*
X128499834Y-62765000D01*
X128508500Y-62693392D01*
X128508500Y-62506608D01*
X128497478Y-62415527D01*
X128500339Y-62415181D01*
X128500339Y-62384819D01*
X128497478Y-62384473D01*
X128500758Y-62357366D01*
X128508500Y-62293392D01*
X128508500Y-62106608D01*
X128497478Y-62015527D01*
X128500339Y-62015181D01*
X128500339Y-61984819D01*
X128497478Y-61984473D01*
X128498759Y-61973887D01*
X128508500Y-61893392D01*
X128508500Y-61706608D01*
X128500531Y-61640755D01*
X128512204Y-61570725D01*
X128559886Y-61518123D01*
X128628437Y-61499650D01*
X128640755Y-61500531D01*
X128655162Y-61502274D01*
X128706608Y-61508500D01*
X128893392Y-61508500D01*
X128984473Y-61497478D01*
X128984819Y-61500339D01*
X129015181Y-61500339D01*
X129015527Y-61497478D01*
X129106608Y-61508500D01*
X129293392Y-61508500D01*
X129384473Y-61497478D01*
X129384819Y-61500339D01*
X129415181Y-61500339D01*
X129415527Y-61497478D01*
X129506608Y-61508500D01*
X129693392Y-61508500D01*
X129784473Y-61497478D01*
X129784819Y-61500339D01*
X129815181Y-61500339D01*
X129815527Y-61497478D01*
X129906608Y-61508500D01*
X130093392Y-61508500D01*
X130184473Y-61497478D01*
X130184819Y-61500339D01*
X130215181Y-61500339D01*
X130215527Y-61497478D01*
X130306608Y-61508500D01*
G37*
%TD.AperFunction*%
%TA.AperFunction,Conductor*%
G36*
X125897456Y-64428502D02*
G01*
X125943949Y-64482158D01*
X125954341Y-64550292D01*
X125937792Y-64681292D01*
X125909410Y-64746369D01*
X125850351Y-64785770D01*
X125812786Y-64791500D01*
X124633239Y-64791500D01*
X124565118Y-64771498D01*
X124518625Y-64717842D01*
X124508521Y-64647568D01*
X124538015Y-64582988D01*
X124544144Y-64576405D01*
X124675144Y-64445405D01*
X124737456Y-64411379D01*
X124764239Y-64408500D01*
X125829335Y-64408500D01*
X125897456Y-64428502D01*
G37*
%TD.AperFunction*%
%TA.AperFunction,Conductor*%
G36*
X145456719Y-57971905D02*
G01*
X145513555Y-58014452D01*
X145538366Y-58080972D01*
X145524608Y-58139396D01*
X145527852Y-58140800D01*
X145524703Y-58148077D01*
X145520668Y-58154900D01*
X145518457Y-58162511D01*
X145518456Y-58162513D01*
X145507384Y-58200624D01*
X145474427Y-58314063D01*
X145473923Y-58320468D01*
X145473922Y-58320473D01*
X145471693Y-58348797D01*
X145471500Y-58351253D01*
X145471501Y-58778746D01*
X145474427Y-58815937D01*
X145493059Y-58880068D01*
X145515902Y-58958694D01*
X145520668Y-58975100D01*
X145524704Y-58981925D01*
X145524706Y-58981929D01*
X145527323Y-58986355D01*
X145544781Y-59055171D01*
X145527323Y-59114628D01*
X145525166Y-59118276D01*
X145518918Y-59132713D01*
X145480891Y-59263605D01*
X145480931Y-59277705D01*
X145488201Y-59281000D01*
X145765614Y-59281000D01*
X145829753Y-59298547D01*
X145858071Y-59315294D01*
X145858075Y-59315296D01*
X145864900Y-59319332D01*
X145872511Y-59321543D01*
X145872513Y-59321544D01*
X145922853Y-59336169D01*
X146024063Y-59365573D01*
X146030468Y-59366077D01*
X146030473Y-59366078D01*
X146058797Y-59368307D01*
X146058805Y-59368307D01*
X146061253Y-59368500D01*
X146071666Y-59368500D01*
X146428001Y-59368499D01*
X146496120Y-59388501D01*
X146542613Y-59442156D01*
X146554000Y-59494499D01*
X146554000Y-60318681D01*
X146558344Y-60333476D01*
X146569840Y-60335508D01*
X146582043Y-60333279D01*
X146727287Y-60291082D01*
X146741724Y-60284834D01*
X146870627Y-60208601D01*
X146883065Y-60198952D01*
X146994563Y-60087454D01*
X146996461Y-60089352D01*
X147043489Y-60055384D01*
X147114381Y-60051529D01*
X147176104Y-60086613D01*
X147209060Y-60149497D01*
X147211500Y-60174174D01*
X147211500Y-61586852D01*
X147191498Y-61654973D01*
X147174595Y-61675947D01*
X146770947Y-62079595D01*
X146708635Y-62113621D01*
X146681852Y-62116500D01*
X146519864Y-62116500D01*
X146451743Y-62096498D01*
X146405250Y-62042842D01*
X146394037Y-61997095D01*
X146393673Y-61990150D01*
X146393500Y-61983555D01*
X146393500Y-61963694D01*
X146391423Y-61943931D01*
X146390907Y-61937367D01*
X146387776Y-61877623D01*
X146387775Y-61877619D01*
X146387430Y-61871029D01*
X146383958Y-61858071D01*
X146380355Y-61838628D01*
X146379645Y-61831870D01*
X146379644Y-61831867D01*
X146378954Y-61825298D01*
X146375843Y-61815723D01*
X146358429Y-61762127D01*
X146356555Y-61755802D01*
X146341070Y-61698011D01*
X146341070Y-61698010D01*
X146339362Y-61691637D01*
X146336366Y-61685756D01*
X146336364Y-61685752D01*
X146333272Y-61679683D01*
X146325708Y-61661421D01*
X146323608Y-61654958D01*
X146323606Y-61654953D01*
X146321564Y-61648669D01*
X146288337Y-61591119D01*
X146285214Y-61585366D01*
X146255048Y-61526161D01*
X146246607Y-61515737D01*
X146235412Y-61499449D01*
X146232005Y-61493548D01*
X146232004Y-61493547D01*
X146228704Y-61487831D01*
X146224287Y-61482925D01*
X146224283Y-61482920D01*
X146184253Y-61438462D01*
X146179969Y-61433447D01*
X146169548Y-61420579D01*
X146167472Y-61418015D01*
X146153436Y-61403979D01*
X146148895Y-61399194D01*
X146108856Y-61354726D01*
X146108855Y-61354725D01*
X146104434Y-61349815D01*
X146093581Y-61341930D01*
X146078545Y-61329088D01*
X145870404Y-61120946D01*
X145836379Y-61058634D01*
X145833500Y-61031851D01*
X145833500Y-60891194D01*
X145818954Y-60752798D01*
X145783441Y-60643498D01*
X145764667Y-60585719D01*
X145758500Y-60546783D01*
X145758500Y-60425716D01*
X145778502Y-60357595D01*
X145832158Y-60311102D01*
X145902432Y-60300998D01*
X145919653Y-60304719D01*
X146017957Y-60333279D01*
X146028635Y-60335229D01*
X146043031Y-60332205D01*
X146046000Y-60320742D01*
X146046000Y-59807115D01*
X146041525Y-59791876D01*
X146040135Y-59790671D01*
X146032452Y-59789000D01*
X145479479Y-59789000D01*
X145415339Y-59771453D01*
X145405877Y-59765857D01*
X145363601Y-59740855D01*
X145355990Y-59738644D01*
X145355988Y-59738643D01*
X145278124Y-59716022D01*
X145203831Y-59694438D01*
X145197426Y-59693934D01*
X145197421Y-59693933D01*
X145168958Y-59691693D01*
X145168950Y-59691693D01*
X145166502Y-59691500D01*
X144934500Y-59691500D01*
X144866379Y-59671498D01*
X144819886Y-59617842D01*
X144808500Y-59565500D01*
X144808500Y-59453217D01*
X144814667Y-59414281D01*
X144866914Y-59253481D01*
X144866914Y-59253480D01*
X144868954Y-59247202D01*
X144869928Y-59237940D01*
X144873434Y-59204575D01*
X144883500Y-59108806D01*
X144883500Y-58493148D01*
X144903502Y-58425027D01*
X144920405Y-58404053D01*
X145323592Y-58000866D01*
X145385904Y-57966840D01*
X145456719Y-57971905D01*
G37*
%TD.AperFunction*%
%TA.AperFunction,Conductor*%
G36*
X124519882Y-50528502D02*
G01*
X124566375Y-50582158D01*
X124576479Y-50652432D01*
X124546985Y-50717012D01*
X124540856Y-50723595D01*
X123228766Y-52035685D01*
X123216375Y-52046552D01*
X123191013Y-52066013D01*
X123166526Y-52097925D01*
X123166523Y-52097928D01*
X123166517Y-52097936D01*
X123119967Y-52158601D01*
X123093476Y-52193124D01*
X123043239Y-52314407D01*
X123032162Y-52341150D01*
X123016500Y-52460115D01*
X123016500Y-52460120D01*
X123011250Y-52500000D01*
X123012328Y-52508188D01*
X123015422Y-52531690D01*
X123016500Y-52548136D01*
X123016500Y-52806846D01*
X122996411Y-52875101D01*
X122989157Y-52886358D01*
X122948400Y-52949600D01*
X122941304Y-52960610D01*
X122921006Y-53016379D01*
X122885744Y-53113261D01*
X122883103Y-53120516D01*
X122861775Y-53289343D01*
X122878381Y-53458699D01*
X122932094Y-53620167D01*
X122935741Y-53626189D01*
X122935742Y-53626191D01*
X122998276Y-53729447D01*
X123016500Y-53794718D01*
X123016500Y-54201897D01*
X122996498Y-54270018D01*
X122942842Y-54316511D01*
X122872568Y-54326615D01*
X122837641Y-54315876D01*
X122834608Y-54313951D01*
X122820699Y-54308998D01*
X122732258Y-54277506D01*
X122674300Y-54256868D01*
X122505329Y-54236720D01*
X122498326Y-54237456D01*
X122498325Y-54237456D01*
X122343101Y-54253770D01*
X122343097Y-54253771D01*
X122336093Y-54254507D01*
X122329422Y-54256778D01*
X122209058Y-54297753D01*
X122175003Y-54309346D01*
X122168999Y-54313040D01*
X122162632Y-54316036D01*
X122161524Y-54313682D01*
X122107403Y-54329000D01*
X121522000Y-54329000D01*
X121453879Y-54308998D01*
X121407386Y-54255342D01*
X121396000Y-54203000D01*
X121396000Y-53802885D01*
X121904000Y-53802885D01*
X121908475Y-53818124D01*
X121909865Y-53819329D01*
X121917548Y-53821000D01*
X122589885Y-53821000D01*
X122605124Y-53816525D01*
X122606329Y-53815135D01*
X122608000Y-53807452D01*
X122608000Y-53779562D01*
X122607663Y-53773047D01*
X122598106Y-53680943D01*
X122595212Y-53667544D01*
X122545619Y-53518893D01*
X122539445Y-53505714D01*
X122457212Y-53372827D01*
X122448176Y-53361426D01*
X122337571Y-53251014D01*
X122326160Y-53242002D01*
X122193120Y-53159996D01*
X122179939Y-53153849D01*
X122031186Y-53104509D01*
X122017810Y-53101642D01*
X121926903Y-53092328D01*
X121921874Y-53092071D01*
X121906876Y-53096475D01*
X121905671Y-53097865D01*
X121904000Y-53105548D01*
X121904000Y-53802885D01*
X121396000Y-53802885D01*
X121396000Y-53110115D01*
X121391525Y-53094876D01*
X121390135Y-53093671D01*
X121382452Y-53092000D01*
X121379562Y-53092000D01*
X121373047Y-53092337D01*
X121280943Y-53101894D01*
X121267544Y-53104788D01*
X121118893Y-53154381D01*
X121105715Y-53160555D01*
X121009906Y-53219843D01*
X120941454Y-53238681D01*
X120873685Y-53217520D01*
X120828113Y-53163079D01*
X120820734Y-53140615D01*
X120820117Y-53137899D01*
X120819331Y-53130892D01*
X120763368Y-52970189D01*
X120757383Y-52960610D01*
X120716527Y-52895229D01*
X120673192Y-52825879D01*
X120666006Y-52818642D01*
X120604160Y-52756363D01*
X120553286Y-52705132D01*
X120540008Y-52696705D01*
X120452233Y-52641002D01*
X120409608Y-52613951D01*
X120249300Y-52556868D01*
X120080329Y-52536720D01*
X120073326Y-52537456D01*
X120073325Y-52537456D01*
X119918101Y-52553770D01*
X119918097Y-52553771D01*
X119911093Y-52554507D01*
X119904422Y-52556778D01*
X119756673Y-52607075D01*
X119756670Y-52607076D01*
X119750003Y-52609346D01*
X119744005Y-52613036D01*
X119744003Y-52613037D01*
X119611065Y-52694821D01*
X119611063Y-52694823D01*
X119605066Y-52698512D01*
X119545991Y-52756363D01*
X119531112Y-52770934D01*
X119468446Y-52804304D01*
X119397688Y-52798498D01*
X119378815Y-52789364D01*
X119286220Y-52734604D01*
X119271784Y-52728357D01*
X119128359Y-52686688D01*
X119120391Y-52685232D01*
X119106969Y-52688052D01*
X119104000Y-52699513D01*
X119104000Y-53515500D01*
X119083998Y-53583621D01*
X119030342Y-53630114D01*
X118978000Y-53641500D01*
X118614516Y-53641500D01*
X118612068Y-53641693D01*
X118612060Y-53641693D01*
X118584156Y-53643889D01*
X118584151Y-53643890D01*
X118577746Y-53644394D01*
X118420403Y-53690106D01*
X118419554Y-53687185D01*
X118369883Y-53694417D01*
X118333361Y-53690062D01*
X118305329Y-53686720D01*
X118298326Y-53687456D01*
X118298325Y-53687456D01*
X118143101Y-53703770D01*
X118143097Y-53703771D01*
X118136093Y-53704507D01*
X118129422Y-53706778D01*
X118098578Y-53717278D01*
X118057973Y-53724000D01*
X118056442Y-53724000D01*
X118025881Y-53732973D01*
X117998675Y-53751288D01*
X117975003Y-53759346D01*
X117969005Y-53763036D01*
X117969003Y-53763037D01*
X117836065Y-53844821D01*
X117836063Y-53844823D01*
X117830066Y-53848512D01*
X117812396Y-53865816D01*
X117720922Y-53955395D01*
X117708486Y-53967573D01*
X117704675Y-53973487D01*
X117704673Y-53973489D01*
X117625563Y-54096243D01*
X117616304Y-54110610D01*
X117579721Y-54211122D01*
X117562486Y-54258475D01*
X117558103Y-54270516D01*
X117536775Y-54439343D01*
X117553381Y-54608699D01*
X117555605Y-54615384D01*
X117555605Y-54615385D01*
X117572609Y-54666500D01*
X117607094Y-54770167D01*
X117610741Y-54776189D01*
X117610742Y-54776191D01*
X117664403Y-54864796D01*
X117682582Y-54933426D01*
X117660771Y-55000989D01*
X117605896Y-55046035D01*
X117535377Y-55054262D01*
X117492487Y-55038520D01*
X117470223Y-55025353D01*
X117455790Y-55019107D01*
X117309935Y-54976731D01*
X117297333Y-54974430D01*
X117268916Y-54972193D01*
X117263986Y-54972000D01*
X116647115Y-54972000D01*
X116631876Y-54976475D01*
X116630671Y-54977865D01*
X116629000Y-54985548D01*
X116629000Y-55507885D01*
X116633475Y-55523124D01*
X116634865Y-55524329D01*
X116642548Y-55526000D01*
X117836878Y-55526000D01*
X117850409Y-55522027D01*
X117851544Y-55514129D01*
X117810893Y-55374210D01*
X117804648Y-55359779D01*
X117764398Y-55291719D01*
X117746939Y-55222902D01*
X117769456Y-55155571D01*
X117824801Y-55111102D01*
X117895401Y-55103614D01*
X117941845Y-55122148D01*
X117955846Y-55131310D01*
X117962450Y-55133766D01*
X117962452Y-55133767D01*
X118021081Y-55155571D01*
X118115341Y-55190626D01*
X118284015Y-55213132D01*
X118291026Y-55212494D01*
X118291030Y-55212494D01*
X118364181Y-55205836D01*
X118376720Y-55204695D01*
X118446373Y-55218440D01*
X118497538Y-55267661D01*
X118513969Y-55336730D01*
X118504549Y-55378394D01*
X118485488Y-55424412D01*
X118481249Y-55440232D01*
X118475745Y-55482040D01*
X118477956Y-55496222D01*
X118491113Y-55500000D01*
X119056885Y-55500000D01*
X119074832Y-55494730D01*
X119130001Y-55459275D01*
X119200998Y-55459275D01*
X119260724Y-55497658D01*
X119290217Y-55562239D01*
X119291500Y-55580171D01*
X119291500Y-55676566D01*
X119292038Y-55680652D01*
X119292038Y-55680653D01*
X119302849Y-55762772D01*
X119298279Y-55792075D01*
X119317409Y-55818603D01*
X119354668Y-55908553D01*
X119366895Y-55938072D01*
X119371921Y-55944622D01*
X119398962Y-55979862D01*
X119424563Y-56046083D01*
X119425000Y-56056567D01*
X119425000Y-57293433D01*
X119404998Y-57361554D01*
X119398963Y-57370137D01*
X119366895Y-57411929D01*
X119363736Y-57419555D01*
X119363735Y-57419557D01*
X119317409Y-57531397D01*
X119272860Y-57586677D01*
X119260986Y-57590629D01*
X119250964Y-57660329D01*
X119225446Y-57697081D01*
X119168361Y-57754166D01*
X119162096Y-57760020D01*
X119120816Y-57796030D01*
X119116445Y-57802249D01*
X119111367Y-57807889D01*
X119108926Y-57805691D01*
X119064965Y-57840691D01*
X119017434Y-57850000D01*
X118491496Y-57850000D01*
X118477725Y-57854044D01*
X118475696Y-57867583D01*
X118481249Y-57909770D01*
X118485487Y-57925585D01*
X118539171Y-58055192D01*
X118547357Y-58069370D01*
X118592061Y-58127628D01*
X118611041Y-58141487D01*
X118613985Y-58142000D01*
X118623000Y-58142000D01*
X118691121Y-58162002D01*
X118737614Y-58215658D01*
X118749000Y-58268000D01*
X118749000Y-58478621D01*
X118731454Y-58542760D01*
X118715106Y-58570403D01*
X118669394Y-58727746D01*
X118668890Y-58734151D01*
X118668889Y-58734156D01*
X118666693Y-58762060D01*
X118666500Y-58764516D01*
X118666500Y-59235484D01*
X118666693Y-59237932D01*
X118666693Y-59237940D01*
X118667937Y-59253740D01*
X118669394Y-59272254D01*
X118715106Y-59429597D01*
X118719141Y-59436419D01*
X118719141Y-59436420D01*
X118731454Y-59457240D01*
X118749000Y-59521379D01*
X118749000Y-59793558D01*
X118752973Y-59807089D01*
X118760871Y-59808224D01*
X118886784Y-59771643D01*
X118901222Y-59765395D01*
X118910372Y-59759984D01*
X118979188Y-59742526D01*
X119038647Y-59759985D01*
X119038666Y-59759996D01*
X119055403Y-59769894D01*
X119063014Y-59772105D01*
X119063016Y-59772106D01*
X119113995Y-59786916D01*
X119212746Y-59815606D01*
X119219151Y-59816110D01*
X119219156Y-59816111D01*
X119247060Y-59818307D01*
X119247068Y-59818307D01*
X119249516Y-59818500D01*
X119660484Y-59818500D01*
X119662932Y-59818307D01*
X119662940Y-59818307D01*
X119690844Y-59816111D01*
X119690849Y-59816110D01*
X119697254Y-59815606D01*
X119796005Y-59786916D01*
X119846984Y-59772106D01*
X119846986Y-59772105D01*
X119854597Y-59769894D01*
X119862205Y-59765395D01*
X119863975Y-59764348D01*
X119873850Y-59758508D01*
X119942665Y-59741047D01*
X120002131Y-59758507D01*
X120013778Y-59765395D01*
X120028216Y-59771643D01*
X120148605Y-59806619D01*
X120162705Y-59806579D01*
X120166000Y-59799309D01*
X120166000Y-59512923D01*
X120183545Y-59448787D01*
X120194894Y-59429597D01*
X120240606Y-59272254D01*
X120242064Y-59253740D01*
X120243307Y-59237940D01*
X120243307Y-59237932D01*
X120243500Y-59235484D01*
X120243500Y-59124019D01*
X120254663Y-59072169D01*
X120269276Y-59039805D01*
X120269277Y-59039803D01*
X120272401Y-59032883D01*
X120273785Y-59025416D01*
X120275577Y-59019698D01*
X120277889Y-59011581D01*
X120279373Y-59005799D01*
X120282132Y-58998723D01*
X120283761Y-58986355D01*
X120290038Y-58938672D01*
X120291070Y-58932157D01*
X120300724Y-58880068D01*
X120302108Y-58872601D01*
X120301162Y-58856186D01*
X120298709Y-58813654D01*
X120298500Y-58806401D01*
X120298500Y-58716887D01*
X120318502Y-58648766D01*
X120359666Y-58609516D01*
X120363072Y-58608105D01*
X120373797Y-58599875D01*
X120440015Y-58574275D01*
X120509564Y-58588539D01*
X120560360Y-58638140D01*
X120576500Y-58699838D01*
X120576500Y-58842295D01*
X120576208Y-58850865D01*
X120573751Y-58886912D01*
X120572483Y-58905507D01*
X120573788Y-58912984D01*
X120573788Y-58912987D01*
X120582898Y-58965186D01*
X120583861Y-58971710D01*
X120590587Y-59027287D01*
X120591500Y-59042425D01*
X120591500Y-59235484D01*
X120591693Y-59237932D01*
X120591693Y-59237940D01*
X120592937Y-59253740D01*
X120594394Y-59272254D01*
X120640106Y-59429597D01*
X120644141Y-59436420D01*
X120647289Y-59443694D01*
X120645538Y-59444452D01*
X120660477Y-59503337D01*
X120658106Y-59520508D01*
X120658103Y-59520516D01*
X120636775Y-59689343D01*
X120653381Y-59858699D01*
X120655605Y-59865384D01*
X120655605Y-59865385D01*
X120668285Y-59903502D01*
X120707094Y-60020167D01*
X120710741Y-60026189D01*
X120710742Y-60026191D01*
X120731356Y-60060229D01*
X120749535Y-60128859D01*
X120727724Y-60196422D01*
X120672848Y-60241468D01*
X120623580Y-60251500D01*
X117883439Y-60251500D01*
X117815318Y-60231498D01*
X117768825Y-60177842D01*
X117758721Y-60107568D01*
X117774984Y-60061364D01*
X117809145Y-60003601D01*
X117855562Y-59843831D01*
X117856067Y-59837419D01*
X117857225Y-59831078D01*
X117858709Y-59831349D01*
X117881265Y-59772166D01*
X117938403Y-59730026D01*
X118009253Y-59725465D01*
X118045731Y-59739938D01*
X118088776Y-59765394D01*
X118103216Y-59771643D01*
X118223605Y-59806619D01*
X118237705Y-59806579D01*
X118241000Y-59799309D01*
X118241000Y-58206442D01*
X118237027Y-58192911D01*
X118229129Y-58191776D01*
X118103216Y-58228357D01*
X118088776Y-58234606D01*
X118048638Y-58258343D01*
X117979822Y-58275802D01*
X117912491Y-58253285D01*
X117868022Y-58197940D01*
X117858500Y-58149889D01*
X117858500Y-58103498D01*
X117858307Y-58101042D01*
X117856067Y-58072579D01*
X117856066Y-58072574D01*
X117855562Y-58066169D01*
X117821619Y-57949335D01*
X117811357Y-57914012D01*
X117811356Y-57914010D01*
X117809145Y-57906399D01*
X117724453Y-57763193D01*
X117721771Y-57760511D01*
X117696498Y-57696139D01*
X117710400Y-57626516D01*
X117720572Y-57610688D01*
X117724453Y-57606807D01*
X117809145Y-57463601D01*
X117837041Y-57367583D01*
X118475696Y-57367583D01*
X118481089Y-57408553D01*
X118481089Y-57441444D01*
X118475744Y-57482040D01*
X118477956Y-57496222D01*
X118491113Y-57500000D01*
X119056885Y-57500000D01*
X119077542Y-57493935D01*
X119075000Y-57483178D01*
X119075000Y-57368115D01*
X119070525Y-57352876D01*
X119069135Y-57351671D01*
X119061452Y-57350000D01*
X118491496Y-57350000D01*
X118477725Y-57354044D01*
X118475696Y-57367583D01*
X117837041Y-57367583D01*
X117855562Y-57303831D01*
X117856381Y-57293433D01*
X117858307Y-57268958D01*
X117858307Y-57268950D01*
X117858500Y-57266502D01*
X117858500Y-56867583D01*
X118475696Y-56867583D01*
X118481089Y-56908553D01*
X118481089Y-56941444D01*
X118475744Y-56982040D01*
X118477956Y-56996222D01*
X118491113Y-57000000D01*
X119056885Y-57000000D01*
X119072124Y-56995525D01*
X119073329Y-56994135D01*
X119075000Y-56986452D01*
X119075000Y-56868115D01*
X119070525Y-56852876D01*
X119069135Y-56851671D01*
X119061452Y-56850000D01*
X118491496Y-56850000D01*
X118477725Y-56854044D01*
X118475696Y-56867583D01*
X117858500Y-56867583D01*
X117858500Y-56833498D01*
X117858202Y-56829712D01*
X117856067Y-56802579D01*
X117856066Y-56802574D01*
X117855562Y-56796169D01*
X117818347Y-56668074D01*
X117811357Y-56644012D01*
X117811356Y-56644010D01*
X117809145Y-56636399D01*
X117749295Y-56535199D01*
X117728493Y-56500024D01*
X117728492Y-56500023D01*
X117724453Y-56493193D01*
X117721513Y-56490253D01*
X117696180Y-56425734D01*
X117707789Y-56367583D01*
X118475696Y-56367583D01*
X118481089Y-56408553D01*
X118481089Y-56441444D01*
X118475744Y-56482040D01*
X118477956Y-56496222D01*
X118491113Y-56500000D01*
X119056885Y-56500000D01*
X119072124Y-56495525D01*
X119073329Y-56494135D01*
X119075000Y-56486452D01*
X119075000Y-56368115D01*
X119070525Y-56352876D01*
X119069135Y-56351671D01*
X119061452Y-56350000D01*
X118491496Y-56350000D01*
X118477725Y-56354044D01*
X118475696Y-56367583D01*
X117707789Y-56367583D01*
X117710079Y-56356111D01*
X117722126Y-56337364D01*
X117728090Y-56329676D01*
X117804648Y-56200221D01*
X117810893Y-56185790D01*
X117849939Y-56051395D01*
X117849899Y-56037294D01*
X117842630Y-56034000D01*
X116247000Y-56034000D01*
X116178879Y-56013998D01*
X116132386Y-55960342D01*
X116121000Y-55908000D01*
X116121000Y-55867583D01*
X118475696Y-55867583D01*
X118481089Y-55908553D01*
X118481089Y-55941444D01*
X118475744Y-55982040D01*
X118477956Y-55996222D01*
X118491113Y-56000000D01*
X119056885Y-56000000D01*
X119072124Y-55995525D01*
X119073329Y-55994135D01*
X119075000Y-55986452D01*
X119075000Y-55866821D01*
X119077357Y-55858795D01*
X119069135Y-55851671D01*
X119061452Y-55850000D01*
X118491496Y-55850000D01*
X118477725Y-55854044D01*
X118475696Y-55867583D01*
X116121000Y-55867583D01*
X116121000Y-54990116D01*
X116116525Y-54974877D01*
X116115135Y-54973672D01*
X116107452Y-54972001D01*
X115486017Y-54972001D01*
X115481080Y-54972195D01*
X115452664Y-54974430D01*
X115440069Y-54976730D01*
X115294210Y-55019107D01*
X115279779Y-55025352D01*
X115150322Y-55101911D01*
X115137896Y-55111551D01*
X115031552Y-55217895D01*
X115024058Y-55227556D01*
X114966501Y-55269122D01*
X114895609Y-55272971D01*
X114833890Y-55237882D01*
X114800938Y-55174996D01*
X114798500Y-55150328D01*
X114798500Y-54739500D01*
X114818502Y-54671379D01*
X114872158Y-54624886D01*
X114924500Y-54613500D01*
X115663134Y-54613500D01*
X115725316Y-54606745D01*
X115861705Y-54555615D01*
X115978261Y-54468261D01*
X116065615Y-54351705D01*
X116116745Y-54215316D01*
X116123500Y-54153134D01*
X116123500Y-53206866D01*
X116123094Y-53203124D01*
X116122603Y-53198605D01*
X118043381Y-53198605D01*
X118043421Y-53212705D01*
X118050691Y-53216000D01*
X118577885Y-53216000D01*
X118593124Y-53211525D01*
X118594329Y-53210135D01*
X118596000Y-53202452D01*
X118596000Y-52701576D01*
X118591656Y-52686781D01*
X118581225Y-52684937D01*
X118571641Y-52686688D01*
X118428216Y-52728357D01*
X118413780Y-52734604D01*
X118286501Y-52809876D01*
X118274074Y-52819516D01*
X118169516Y-52924074D01*
X118159876Y-52936501D01*
X118084604Y-53063780D01*
X118078357Y-53078216D01*
X118043381Y-53198605D01*
X116122603Y-53198605D01*
X116117798Y-53154381D01*
X116116745Y-53144684D01*
X116065615Y-53008295D01*
X115978261Y-52891739D01*
X115861705Y-52804385D01*
X115725316Y-52753255D01*
X115663134Y-52746500D01*
X114716866Y-52746500D01*
X114654684Y-52753255D01*
X114565179Y-52786809D01*
X114494373Y-52791992D01*
X114484807Y-52789413D01*
X114480056Y-52787298D01*
X114378446Y-52765700D01*
X114294572Y-52747872D01*
X114294568Y-52747872D01*
X114288115Y-52746500D01*
X114091885Y-52746500D01*
X114085432Y-52747872D01*
X114085428Y-52747872D01*
X113995915Y-52766899D01*
X113899944Y-52787298D01*
X113893914Y-52789983D01*
X113893913Y-52789983D01*
X113854945Y-52807333D01*
X113741248Y-52857954D01*
X113670882Y-52867388D01*
X113638753Y-52857955D01*
X113525055Y-52807333D01*
X113486087Y-52789983D01*
X113486086Y-52789983D01*
X113480056Y-52787298D01*
X113384085Y-52766899D01*
X113294572Y-52747872D01*
X113294568Y-52747872D01*
X113288115Y-52746500D01*
X113091885Y-52746500D01*
X113085432Y-52747872D01*
X113085428Y-52747872D01*
X112995915Y-52766899D01*
X112899944Y-52787298D01*
X112893914Y-52789983D01*
X112893913Y-52789983D01*
X112854945Y-52807333D01*
X112741248Y-52857954D01*
X112670882Y-52867388D01*
X112638753Y-52857955D01*
X112525055Y-52807333D01*
X112486087Y-52789983D01*
X112486086Y-52789983D01*
X112480056Y-52787298D01*
X112384085Y-52766899D01*
X112294572Y-52747872D01*
X112294568Y-52747872D01*
X112288115Y-52746500D01*
X112091885Y-52746500D01*
X112085432Y-52747872D01*
X112085428Y-52747872D01*
X111995915Y-52766899D01*
X111899944Y-52787298D01*
X111893914Y-52789983D01*
X111893913Y-52789983D01*
X111854945Y-52807333D01*
X111741248Y-52857954D01*
X111670882Y-52867388D01*
X111638753Y-52857955D01*
X111525055Y-52807333D01*
X111486087Y-52789983D01*
X111486086Y-52789983D01*
X111480056Y-52787298D01*
X111384085Y-52766899D01*
X111294572Y-52747872D01*
X111294568Y-52747872D01*
X111288115Y-52746500D01*
X111091885Y-52746500D01*
X111085432Y-52747872D01*
X111085428Y-52747872D01*
X110995915Y-52766899D01*
X110899944Y-52787298D01*
X110893914Y-52789983D01*
X110893913Y-52789983D01*
X110726709Y-52864427D01*
X110726707Y-52864428D01*
X110720679Y-52867112D01*
X110715338Y-52870992D01*
X110715337Y-52870993D01*
X110567400Y-52978476D01*
X110561926Y-52982453D01*
X110509036Y-53041194D01*
X110448591Y-53078432D01*
X110431849Y-53081804D01*
X110410543Y-53084609D01*
X110410542Y-53084609D01*
X110399337Y-53086084D01*
X110399336Y-53086084D01*
X110391149Y-53087162D01*
X110326605Y-53113897D01*
X110250752Y-53145316D01*
X110250750Y-53145317D01*
X110243124Y-53148476D01*
X110236575Y-53153502D01*
X110236574Y-53153502D01*
X110228111Y-53159996D01*
X110171907Y-53203124D01*
X110116013Y-53246013D01*
X110110987Y-53252563D01*
X110096548Y-53271380D01*
X110085681Y-53283771D01*
X108903766Y-54465685D01*
X108891375Y-54476552D01*
X108866013Y-54496013D01*
X108841526Y-54527925D01*
X108841523Y-54527928D01*
X108841517Y-54527936D01*
X108775861Y-54613500D01*
X108768476Y-54623124D01*
X108752631Y-54661377D01*
X108710311Y-54763545D01*
X108710310Y-54763549D01*
X108707688Y-54769879D01*
X108707162Y-54771150D01*
X108691500Y-54890115D01*
X108691500Y-54890120D01*
X108686250Y-54930000D01*
X108687328Y-54938188D01*
X108690422Y-54961690D01*
X108691500Y-54978136D01*
X108691500Y-59431000D01*
X108671498Y-59499121D01*
X108617842Y-59545614D01*
X108565500Y-59557000D01*
X108227115Y-59557000D01*
X108211876Y-59561475D01*
X108210671Y-59562865D01*
X108209000Y-59570548D01*
X108209000Y-60493000D01*
X108188998Y-60561121D01*
X108135342Y-60607614D01*
X108083000Y-60619000D01*
X107827000Y-60619000D01*
X107758879Y-60598998D01*
X107712386Y-60545342D01*
X107701000Y-60493000D01*
X107701000Y-59575116D01*
X107696525Y-59559877D01*
X107695135Y-59558672D01*
X107687452Y-59557001D01*
X107066017Y-59557001D01*
X107061080Y-59557195D01*
X107032664Y-59559430D01*
X107020069Y-59561730D01*
X106874210Y-59604107D01*
X106859779Y-59610352D01*
X106730322Y-59686911D01*
X106717896Y-59696551D01*
X106611552Y-59802895D01*
X106604058Y-59812556D01*
X106546501Y-59854122D01*
X106475609Y-59857971D01*
X106413890Y-59822882D01*
X106380938Y-59759996D01*
X106378500Y-59735328D01*
X106378500Y-59349500D01*
X106398502Y-59281379D01*
X106452158Y-59234886D01*
X106504500Y-59223500D01*
X107243134Y-59223500D01*
X107305316Y-59216745D01*
X107441705Y-59165615D01*
X107558261Y-59078261D01*
X107645615Y-58961705D01*
X107696745Y-58825316D01*
X107703500Y-58763134D01*
X107703500Y-57816866D01*
X107696745Y-57754684D01*
X107645615Y-57618295D01*
X107558261Y-57501739D01*
X107441705Y-57414385D01*
X107305316Y-57363255D01*
X107243134Y-57356500D01*
X106296866Y-57356500D01*
X106234684Y-57363255D01*
X106145179Y-57396809D01*
X106074373Y-57401992D01*
X106064807Y-57399413D01*
X106060056Y-57397298D01*
X105932273Y-57370137D01*
X105874572Y-57357872D01*
X105874568Y-57357872D01*
X105868115Y-57356500D01*
X105671885Y-57356500D01*
X105665432Y-57357872D01*
X105665428Y-57357872D01*
X105607727Y-57370137D01*
X105479944Y-57397298D01*
X105473914Y-57399983D01*
X105473913Y-57399983D01*
X105429469Y-57419771D01*
X105321248Y-57467954D01*
X105250882Y-57477388D01*
X105218753Y-57467955D01*
X105110531Y-57419771D01*
X105066087Y-57399983D01*
X105066086Y-57399983D01*
X105060056Y-57397298D01*
X104932273Y-57370137D01*
X104874572Y-57357872D01*
X104874568Y-57357872D01*
X104868115Y-57356500D01*
X104671885Y-57356500D01*
X104665432Y-57357872D01*
X104665428Y-57357872D01*
X104607727Y-57370137D01*
X104479944Y-57397298D01*
X104473914Y-57399983D01*
X104473913Y-57399983D01*
X104429469Y-57419771D01*
X104321248Y-57467954D01*
X104250882Y-57477388D01*
X104218753Y-57467955D01*
X104110531Y-57419771D01*
X104066087Y-57399983D01*
X104066086Y-57399983D01*
X104060056Y-57397298D01*
X103932273Y-57370137D01*
X103874572Y-57357872D01*
X103874568Y-57357872D01*
X103868115Y-57356500D01*
X103671885Y-57356500D01*
X103665432Y-57357872D01*
X103665428Y-57357872D01*
X103607727Y-57370137D01*
X103479944Y-57397298D01*
X103473914Y-57399983D01*
X103473913Y-57399983D01*
X103429469Y-57419771D01*
X103321248Y-57467954D01*
X103250882Y-57477388D01*
X103218753Y-57467955D01*
X103110531Y-57419771D01*
X103066087Y-57399983D01*
X103066086Y-57399983D01*
X103060056Y-57397298D01*
X102932273Y-57370137D01*
X102874572Y-57357872D01*
X102874568Y-57357872D01*
X102868115Y-57356500D01*
X102671885Y-57356500D01*
X102665432Y-57357872D01*
X102665428Y-57357872D01*
X102607727Y-57370137D01*
X102479944Y-57397298D01*
X102473914Y-57399983D01*
X102473913Y-57399983D01*
X102306709Y-57474427D01*
X102306707Y-57474428D01*
X102300679Y-57477112D01*
X102295338Y-57480992D01*
X102295337Y-57480993D01*
X102149876Y-57586677D01*
X102141926Y-57592453D01*
X102099284Y-57639812D01*
X102038841Y-57677050D01*
X102005650Y-57681500D01*
X101508144Y-57681500D01*
X101491698Y-57680422D01*
X101468188Y-57677327D01*
X101460000Y-57676249D01*
X101393529Y-57685000D01*
X101328950Y-57693502D01*
X101301149Y-57697162D01*
X101153124Y-57758476D01*
X101111970Y-57790055D01*
X101057937Y-57831515D01*
X101057921Y-57831529D01*
X101032566Y-57850984D01*
X101032563Y-57850987D01*
X101026013Y-57856013D01*
X101020983Y-57862568D01*
X101006548Y-57881379D01*
X100995681Y-57893770D01*
X100723595Y-58165856D01*
X100661283Y-58199882D01*
X100590468Y-58194817D01*
X100533632Y-58152270D01*
X100508821Y-58085750D01*
X100508500Y-58076761D01*
X100508500Y-53082655D01*
X101164858Y-53082655D01*
X101200104Y-53341638D01*
X101201412Y-53346124D01*
X101201412Y-53346126D01*
X101214645Y-53391525D01*
X101273243Y-53592567D01*
X101275203Y-53596820D01*
X101275204Y-53596821D01*
X101290552Y-53630114D01*
X101382668Y-53829928D01*
X101392432Y-53844821D01*
X101523410Y-54044596D01*
X101523414Y-54044601D01*
X101525976Y-54048509D01*
X101700018Y-54243506D01*
X101900970Y-54410637D01*
X101904973Y-54413066D01*
X102120422Y-54543804D01*
X102120426Y-54543806D01*
X102124419Y-54546229D01*
X102365455Y-54647303D01*
X102618783Y-54711641D01*
X102623434Y-54712109D01*
X102623438Y-54712110D01*
X102816308Y-54731531D01*
X102835867Y-54733500D01*
X102991354Y-54733500D01*
X102993679Y-54733327D01*
X102993685Y-54733327D01*
X103181000Y-54719407D01*
X103181004Y-54719406D01*
X103185652Y-54719061D01*
X103190200Y-54718032D01*
X103190206Y-54718031D01*
X103396375Y-54671379D01*
X103440577Y-54661377D01*
X103476769Y-54647303D01*
X103679824Y-54568340D01*
X103679827Y-54568339D01*
X103684177Y-54566647D01*
X103751927Y-54527925D01*
X103796304Y-54502561D01*
X103911098Y-54436951D01*
X104116357Y-54275138D01*
X104295443Y-54084763D01*
X104431532Y-53888593D01*
X104441759Y-53873851D01*
X104441761Y-53873848D01*
X104444424Y-53870009D01*
X104446492Y-53865816D01*
X104557960Y-53639781D01*
X104557961Y-53639778D01*
X104560025Y-53635593D01*
X104562248Y-53628650D01*
X104638280Y-53391123D01*
X104639707Y-53386665D01*
X104681721Y-53128693D01*
X104683800Y-52969886D01*
X104685081Y-52872022D01*
X104685081Y-52872019D01*
X104685142Y-52867345D01*
X104649896Y-52608362D01*
X104636297Y-52561704D01*
X104618311Y-52500000D01*
X104576757Y-52357433D01*
X104569251Y-52341150D01*
X104543470Y-52285229D01*
X104467332Y-52120072D01*
X104415835Y-52041526D01*
X104326590Y-51905404D01*
X104326586Y-51905399D01*
X104324024Y-51901491D01*
X104149982Y-51706494D01*
X103949030Y-51539363D01*
X103829753Y-51466984D01*
X103729578Y-51406196D01*
X103729574Y-51406194D01*
X103725581Y-51403771D01*
X103484545Y-51302697D01*
X103231217Y-51238359D01*
X103226566Y-51237891D01*
X103226562Y-51237890D01*
X103017271Y-51216816D01*
X103014133Y-51216500D01*
X102858646Y-51216500D01*
X102856321Y-51216673D01*
X102856315Y-51216673D01*
X102669000Y-51230593D01*
X102668996Y-51230594D01*
X102664348Y-51230939D01*
X102659800Y-51231968D01*
X102659794Y-51231969D01*
X102494676Y-51269332D01*
X102409423Y-51288623D01*
X102405071Y-51290315D01*
X102405069Y-51290316D01*
X102170176Y-51381660D01*
X102170173Y-51381661D01*
X102165823Y-51383353D01*
X101938902Y-51513049D01*
X101733643Y-51674862D01*
X101554557Y-51865237D01*
X101450585Y-52015111D01*
X101418760Y-52060987D01*
X101405576Y-52079991D01*
X101403510Y-52084181D01*
X101403508Y-52084184D01*
X101305326Y-52283279D01*
X101289975Y-52314407D01*
X101288553Y-52318850D01*
X101288552Y-52318852D01*
X101218077Y-52539018D01*
X101210293Y-52563335D01*
X101168279Y-52821307D01*
X101167403Y-52888266D01*
X101164949Y-53075737D01*
X101164858Y-53082655D01*
X100508500Y-53082655D01*
X100508500Y-50634500D01*
X100528502Y-50566379D01*
X100582158Y-50519886D01*
X100634500Y-50508500D01*
X124451761Y-50508500D01*
X124519882Y-50528502D01*
G37*
%TD.AperFunction*%
%TA.AperFunction,Conductor*%
G36*
X129506121Y-52641002D02*
G01*
X129552614Y-52694658D01*
X129564000Y-52747000D01*
X129564000Y-55514884D01*
X129568475Y-55530123D01*
X129569865Y-55531328D01*
X129577548Y-55532999D01*
X130092262Y-55532999D01*
X130160383Y-55553001D01*
X130206876Y-55606657D01*
X130216980Y-55676931D01*
X130187486Y-55741511D01*
X130181357Y-55748094D01*
X128878766Y-57050685D01*
X128866375Y-57061552D01*
X128841013Y-57081013D01*
X128816526Y-57112925D01*
X128816523Y-57112928D01*
X128816517Y-57112936D01*
X128750215Y-57199342D01*
X128743476Y-57208124D01*
X128682162Y-57356149D01*
X128680799Y-57366502D01*
X128666500Y-57475115D01*
X128666500Y-57475120D01*
X128661250Y-57515000D01*
X128662328Y-57523188D01*
X128665422Y-57546690D01*
X128666500Y-57563136D01*
X128666500Y-57801761D01*
X128646498Y-57869882D01*
X128592842Y-57916375D01*
X128522568Y-57926479D01*
X128457988Y-57896985D01*
X128451405Y-57890856D01*
X126395405Y-55834856D01*
X126361379Y-55772544D01*
X126358500Y-55745761D01*
X126358500Y-55544896D01*
X126360000Y-55530943D01*
X126360000Y-54656000D01*
X126380002Y-54587879D01*
X126433658Y-54541386D01*
X126486000Y-54530000D01*
X126734000Y-54530000D01*
X126802121Y-54550002D01*
X126848614Y-54603658D01*
X126860000Y-54656000D01*
X126860000Y-55519884D01*
X126864475Y-55535123D01*
X126865865Y-55536328D01*
X126873548Y-55537999D01*
X126921454Y-55537999D01*
X126926389Y-55537805D01*
X126953392Y-55535681D01*
X126965993Y-55533380D01*
X127105780Y-55492768D01*
X127120221Y-55486518D01*
X127192285Y-55443900D01*
X127261101Y-55426440D01*
X127331990Y-55451527D01*
X127356356Y-55469788D01*
X127371946Y-55478324D01*
X127492394Y-55523478D01*
X127507649Y-55527105D01*
X127558514Y-55532631D01*
X127565328Y-55533000D01*
X129037885Y-55533000D01*
X129053124Y-55528525D01*
X129054329Y-55527135D01*
X129056000Y-55519452D01*
X129056000Y-52747000D01*
X129076002Y-52678879D01*
X129129658Y-52632386D01*
X129182000Y-52621000D01*
X129438000Y-52621000D01*
X129506121Y-52641002D01*
G37*
%TD.AperFunction*%
%TA.AperFunction,Conductor*%
G36*
X134537261Y-52892709D02*
G01*
X134538240Y-52890921D01*
X134546108Y-52895229D01*
X134553295Y-52900615D01*
X134689684Y-52951745D01*
X134751866Y-52958500D01*
X134825500Y-52958500D01*
X134893621Y-52978502D01*
X134940114Y-53032158D01*
X134951500Y-53084500D01*
X134951500Y-53872295D01*
X134951208Y-53880865D01*
X134949551Y-53905176D01*
X134947483Y-53935507D01*
X134948788Y-53942984D01*
X134948788Y-53942987D01*
X134957898Y-53995186D01*
X134958861Y-54001710D01*
X134966137Y-54061832D01*
X134968821Y-54068936D01*
X134970249Y-54074750D01*
X134972480Y-54082904D01*
X134974203Y-54088612D01*
X134975509Y-54096093D01*
X134978559Y-54103041D01*
X134978560Y-54103044D01*
X134982090Y-54111084D01*
X134999869Y-54151585D01*
X135002341Y-54157641D01*
X135023758Y-54214322D01*
X135028061Y-54220584D01*
X135030837Y-54225893D01*
X135034930Y-54233247D01*
X135037979Y-54238402D01*
X135041032Y-54245357D01*
X135077920Y-54293430D01*
X135081763Y-54298720D01*
X135116089Y-54348665D01*
X135121757Y-54353715D01*
X135121758Y-54353716D01*
X135160194Y-54387961D01*
X135165470Y-54392943D01*
X135254595Y-54482068D01*
X135288621Y-54544380D01*
X135291500Y-54571163D01*
X135291500Y-55198134D01*
X135298255Y-55260316D01*
X135349385Y-55396705D01*
X135436739Y-55513261D01*
X135553295Y-55600615D01*
X135689684Y-55651745D01*
X135751866Y-55658500D01*
X137273134Y-55658500D01*
X137281134Y-55657631D01*
X137335316Y-55651745D01*
X137335548Y-55653884D01*
X137364512Y-55653834D01*
X137364793Y-55651252D01*
X137423514Y-55657631D01*
X137430328Y-55658000D01*
X137456885Y-55658000D01*
X137472124Y-55653525D01*
X137473329Y-55652135D01*
X137477054Y-55635009D01*
X137511078Y-55572697D01*
X137524610Y-55560965D01*
X137581080Y-55518643D01*
X137581081Y-55518642D01*
X137588261Y-55513261D01*
X137589187Y-55512026D01*
X137648217Y-55479792D01*
X137719032Y-55484857D01*
X137760355Y-55511414D01*
X137761739Y-55513261D01*
X137876295Y-55599116D01*
X137878295Y-55600615D01*
X137878079Y-55600904D01*
X137924139Y-55647065D01*
X137926353Y-55652418D01*
X137930865Y-55656328D01*
X137938548Y-55657999D01*
X137969670Y-55657999D01*
X137976488Y-55657630D01*
X138009067Y-55654091D01*
X138036280Y-55654091D01*
X138076866Y-55658500D01*
X138324897Y-55658500D01*
X138393018Y-55678502D01*
X138441305Y-55736281D01*
X138468476Y-55801877D01*
X138473503Y-55808428D01*
X138474620Y-55810363D01*
X138491500Y-55873362D01*
X138491500Y-56127561D01*
X138471498Y-56195682D01*
X138454595Y-56216656D01*
X137974657Y-56696594D01*
X137912345Y-56730620D01*
X137885562Y-56733499D01*
X137458892Y-56733499D01*
X137390771Y-56713497D01*
X137344278Y-56659841D01*
X137337895Y-56642653D01*
X137337491Y-56641262D01*
X137330269Y-56616404D01*
X137312789Y-56586846D01*
X137251540Y-56483280D01*
X137247506Y-56476459D01*
X137132541Y-56361494D01*
X137113106Y-56350000D01*
X136999419Y-56282766D01*
X136999418Y-56282766D01*
X136992596Y-56278731D01*
X136984985Y-56276520D01*
X136984983Y-56276519D01*
X136842644Y-56235166D01*
X136842645Y-56235166D01*
X136836466Y-56233371D01*
X136830059Y-56232867D01*
X136830055Y-56232866D01*
X136802444Y-56230693D01*
X136802438Y-56230693D01*
X136799989Y-56230500D01*
X136600122Y-56230500D01*
X136400012Y-56230501D01*
X136363534Y-56233371D01*
X136266730Y-56261495D01*
X136215017Y-56276519D01*
X136215015Y-56276520D01*
X136207404Y-56278731D01*
X136200579Y-56282767D01*
X136200575Y-56282769D01*
X136154139Y-56310231D01*
X136085323Y-56327691D01*
X136025861Y-56310231D01*
X135979425Y-56282769D01*
X135979421Y-56282767D01*
X135972596Y-56278731D01*
X135964985Y-56276520D01*
X135964983Y-56276519D01*
X135822644Y-56235166D01*
X135822645Y-56235166D01*
X135816466Y-56233371D01*
X135810059Y-56232867D01*
X135810055Y-56232866D01*
X135782444Y-56230693D01*
X135782438Y-56230693D01*
X135779989Y-56230500D01*
X135580122Y-56230500D01*
X135380012Y-56230501D01*
X135343534Y-56233371D01*
X135246730Y-56261495D01*
X135195017Y-56276519D01*
X135195015Y-56276520D01*
X135187404Y-56278731D01*
X135180582Y-56282766D01*
X135180581Y-56282766D01*
X135066894Y-56350000D01*
X135047459Y-56361494D01*
X134932494Y-56476459D01*
X134928460Y-56483280D01*
X134867212Y-56586846D01*
X134849731Y-56616404D01*
X134842509Y-56641262D01*
X134842105Y-56642653D01*
X134803891Y-56702488D01*
X134739395Y-56732165D01*
X134721108Y-56733499D01*
X133506240Y-56733499D01*
X133438119Y-56713497D01*
X133391626Y-56659841D01*
X133381522Y-56589567D01*
X133411016Y-56524987D01*
X133417145Y-56518404D01*
X133921234Y-56014315D01*
X133933625Y-56003448D01*
X133952437Y-55989013D01*
X133958987Y-55983987D01*
X133983474Y-55952075D01*
X133983478Y-55952071D01*
X134056524Y-55856876D01*
X134117838Y-55708851D01*
X134121834Y-55678502D01*
X134137673Y-55558188D01*
X134138751Y-55550000D01*
X134134578Y-55518301D01*
X134133500Y-55501856D01*
X134133500Y-53898144D01*
X134134578Y-53881698D01*
X134137673Y-53858188D01*
X134138751Y-53850000D01*
X134117838Y-53691149D01*
X134056524Y-53543124D01*
X133987424Y-53453071D01*
X133961824Y-53386851D01*
X133976089Y-53317303D01*
X134023398Y-53268855D01*
X134023055Y-53268301D01*
X134025287Y-53266920D01*
X134025690Y-53266507D01*
X134027250Y-53265705D01*
X134162173Y-53182212D01*
X134173574Y-53173176D01*
X134283986Y-53062571D01*
X134292998Y-53051160D01*
X134366318Y-52932213D01*
X134419090Y-52884720D01*
X134489162Y-52873296D01*
X134537261Y-52892709D01*
G37*
%TD.AperFunction*%
%TA.AperFunction,Conductor*%
G36*
X144113622Y-50528502D02*
G01*
X144160115Y-50582158D01*
X144171501Y-50634498D01*
X144171501Y-50728746D01*
X144174427Y-50765937D01*
X144220668Y-50925100D01*
X144224704Y-50931925D01*
X144224706Y-50931929D01*
X144227323Y-50936355D01*
X144244781Y-51005171D01*
X144227323Y-51064628D01*
X144225166Y-51068276D01*
X144218918Y-51082713D01*
X144180891Y-51213605D01*
X144180931Y-51227705D01*
X144188201Y-51231000D01*
X144465614Y-51231000D01*
X144529753Y-51248547D01*
X144558071Y-51265294D01*
X144558075Y-51265296D01*
X144564900Y-51269332D01*
X144572511Y-51271543D01*
X144572513Y-51271544D01*
X144623196Y-51286268D01*
X144724063Y-51315573D01*
X144730468Y-51316077D01*
X144730473Y-51316078D01*
X144758797Y-51318307D01*
X144758805Y-51318307D01*
X144761253Y-51318500D01*
X144767636Y-51318500D01*
X144991823Y-51318499D01*
X145059943Y-51338501D01*
X145106436Y-51392156D01*
X145117133Y-51457667D01*
X145116500Y-51463694D01*
X145116500Y-52505900D01*
X145097760Y-52572016D01*
X145032885Y-52677262D01*
X145024203Y-52703437D01*
X144985108Y-52821307D01*
X144977203Y-52845139D01*
X144976503Y-52851975D01*
X144976502Y-52851978D01*
X144972980Y-52886358D01*
X144966500Y-52949600D01*
X144966500Y-53625400D01*
X144966837Y-53628646D01*
X144966837Y-53628650D01*
X144974944Y-53706778D01*
X144977474Y-53731166D01*
X144979655Y-53737702D01*
X144979655Y-53737704D01*
X145015392Y-53844821D01*
X145033450Y-53898946D01*
X145037304Y-53905174D01*
X145037305Y-53905176D01*
X145055297Y-53934250D01*
X145074135Y-54002701D01*
X145055413Y-54066669D01*
X145037184Y-54096243D01*
X145031037Y-54109424D01*
X144979862Y-54263710D01*
X144976995Y-54277086D01*
X144967328Y-54371438D01*
X144967000Y-54377855D01*
X144967000Y-54440385D01*
X144971475Y-54455624D01*
X144972865Y-54456829D01*
X144980548Y-54458500D01*
X147014884Y-54458500D01*
X147030123Y-54454025D01*
X147031328Y-54452635D01*
X147032999Y-54444952D01*
X147032999Y-54377905D01*
X147032662Y-54371386D01*
X147026293Y-54310003D01*
X147039158Y-54240182D01*
X147087729Y-54188400D01*
X147151620Y-54171000D01*
X148355500Y-54171000D01*
X148423621Y-54191002D01*
X148470114Y-54244658D01*
X148481500Y-54297000D01*
X148481500Y-54874092D01*
X148461498Y-54942213D01*
X148407842Y-54988706D01*
X148355857Y-55000091D01*
X148352294Y-55000101D01*
X148349000Y-55007370D01*
X148349000Y-56603000D01*
X148328998Y-56671121D01*
X148275342Y-56717614D01*
X148223000Y-56729000D01*
X147967000Y-56729000D01*
X147898879Y-56708998D01*
X147852386Y-56655342D01*
X147841000Y-56603000D01*
X147841000Y-55013122D01*
X147837027Y-54999591D01*
X147829129Y-54998456D01*
X147689210Y-55039107D01*
X147674779Y-55045352D01*
X147545322Y-55121911D01*
X147532896Y-55131551D01*
X147426551Y-55237896D01*
X147416911Y-55250322D01*
X147340352Y-55379779D01*
X147334107Y-55394210D01*
X147291731Y-55540065D01*
X147289430Y-55552667D01*
X147287193Y-55581084D01*
X147287000Y-55586014D01*
X147287000Y-56007602D01*
X147266998Y-56075723D01*
X147213342Y-56122216D01*
X147143068Y-56132320D01*
X147078488Y-56102826D01*
X147059067Y-56081666D01*
X146960185Y-55945566D01*
X146918464Y-55908000D01*
X146827077Y-55825715D01*
X146827076Y-55825714D01*
X146822169Y-55821296D01*
X146776498Y-55794928D01*
X146727505Y-55743546D01*
X146714069Y-55673832D01*
X146740455Y-55607921D01*
X146750325Y-55596791D01*
X146868739Y-55478171D01*
X146877751Y-55466760D01*
X146962816Y-55328757D01*
X146968963Y-55315576D01*
X147020138Y-55161290D01*
X147023005Y-55147914D01*
X147032672Y-55053562D01*
X147033000Y-55047146D01*
X147033000Y-54984615D01*
X147028525Y-54969376D01*
X147027135Y-54968171D01*
X147019452Y-54966500D01*
X144985116Y-54966500D01*
X144969877Y-54970975D01*
X144968672Y-54972365D01*
X144967001Y-54980048D01*
X144967001Y-55047095D01*
X144967338Y-55053614D01*
X144977257Y-55149206D01*
X144980149Y-55162600D01*
X145031588Y-55316784D01*
X145037762Y-55329962D01*
X145123809Y-55469013D01*
X145142647Y-55537465D01*
X145121486Y-55605235D01*
X145067045Y-55650806D01*
X145023259Y-55661143D01*
X145002624Y-55662224D01*
X145002620Y-55662225D01*
X144996029Y-55662570D01*
X144983071Y-55666042D01*
X144963628Y-55669645D01*
X144950298Y-55671046D01*
X144887106Y-55691578D01*
X144880804Y-55693444D01*
X144853863Y-55700663D01*
X144816637Y-55710638D01*
X144810758Y-55713634D01*
X144810749Y-55713637D01*
X144804683Y-55716728D01*
X144786421Y-55724292D01*
X144779957Y-55726392D01*
X144779949Y-55726395D01*
X144773669Y-55728436D01*
X144767950Y-55731738D01*
X144767945Y-55731740D01*
X144716133Y-55761654D01*
X144710363Y-55764787D01*
X144651161Y-55794953D01*
X144646029Y-55799109D01*
X144640741Y-55803391D01*
X144624448Y-55814589D01*
X144612831Y-55821296D01*
X144607925Y-55825713D01*
X144607920Y-55825717D01*
X144563462Y-55865747D01*
X144558446Y-55870031D01*
X144546043Y-55880075D01*
X144543014Y-55882528D01*
X144528969Y-55896573D01*
X144524184Y-55901114D01*
X144474815Y-55945566D01*
X144466925Y-55956426D01*
X144454088Y-55971454D01*
X144409279Y-56016263D01*
X144360061Y-56046691D01*
X144265096Y-56078374D01*
X144265089Y-56078377D01*
X144258151Y-56080692D01*
X144113945Y-56169929D01*
X144089113Y-56194805D01*
X144026832Y-56228884D01*
X143956012Y-56223882D01*
X143910922Y-56194960D01*
X143890233Y-56174307D01*
X143885053Y-56169136D01*
X143740692Y-56080151D01*
X143687694Y-56062572D01*
X143586262Y-56028928D01*
X143586260Y-56028928D01*
X143579731Y-56026762D01*
X143479572Y-56016500D01*
X142945428Y-56016500D01*
X142942182Y-56016837D01*
X142942178Y-56016837D01*
X142908397Y-56020342D01*
X142844018Y-56027022D01*
X142683151Y-56080692D01*
X142538945Y-56169929D01*
X142533777Y-56175106D01*
X142533776Y-56175107D01*
X142419564Y-56289518D01*
X142357281Y-56323597D01*
X142330391Y-56326500D01*
X141681163Y-56326500D01*
X141613042Y-56306498D01*
X141592068Y-56289595D01*
X141176068Y-55873595D01*
X141142042Y-55811283D01*
X141147107Y-55740468D01*
X141189654Y-55683632D01*
X141256174Y-55658821D01*
X141265163Y-55658500D01*
X142248134Y-55658500D01*
X142310316Y-55651745D01*
X142446705Y-55600615D01*
X142563261Y-55513261D01*
X142650615Y-55396705D01*
X142701745Y-55260316D01*
X142708500Y-55198134D01*
X142708500Y-54521163D01*
X142728502Y-54453042D01*
X142745405Y-54432068D01*
X142831640Y-54345833D01*
X142837906Y-54339979D01*
X142853226Y-54326615D01*
X142879184Y-54303970D01*
X142914026Y-54254395D01*
X142917919Y-54249153D01*
X142955319Y-54201454D01*
X142958445Y-54194530D01*
X142961542Y-54189417D01*
X142965743Y-54182053D01*
X142968553Y-54176812D01*
X142972918Y-54170601D01*
X142994927Y-54114153D01*
X142997482Y-54108074D01*
X143019276Y-54059805D01*
X143019277Y-54059803D01*
X143022401Y-54052883D01*
X143023785Y-54045416D01*
X143025577Y-54039698D01*
X143027889Y-54031581D01*
X143029373Y-54025800D01*
X143032132Y-54018723D01*
X143040038Y-53958671D01*
X143041070Y-53952155D01*
X143050724Y-53900067D01*
X143052108Y-53892600D01*
X143048709Y-53833652D01*
X143048500Y-53826400D01*
X143048500Y-53084500D01*
X143068502Y-53016379D01*
X143122158Y-52969886D01*
X143174500Y-52958500D01*
X143248134Y-52958500D01*
X143310316Y-52951745D01*
X143446705Y-52900615D01*
X143563261Y-52813261D01*
X143650615Y-52696705D01*
X143701745Y-52560316D01*
X143708500Y-52498134D01*
X143708500Y-51750871D01*
X144179286Y-51750871D01*
X144218918Y-51887287D01*
X144225166Y-51901724D01*
X144301399Y-52030627D01*
X144311048Y-52043065D01*
X144416935Y-52148952D01*
X144429373Y-52158601D01*
X144558276Y-52234834D01*
X144572713Y-52241082D01*
X144717957Y-52283279D01*
X144728635Y-52285229D01*
X144743031Y-52282205D01*
X144746000Y-52270742D01*
X144746000Y-51757115D01*
X144741525Y-51741876D01*
X144740135Y-51740671D01*
X144732452Y-51739000D01*
X144193952Y-51739000D01*
X144180421Y-51742973D01*
X144179286Y-51750871D01*
X143708500Y-51750871D01*
X143708500Y-51101866D01*
X143701745Y-51039684D01*
X143650615Y-50903295D01*
X143563261Y-50786739D01*
X143494661Y-50735326D01*
X143452146Y-50678467D01*
X143447120Y-50607648D01*
X143481180Y-50545355D01*
X143543511Y-50511365D01*
X143570226Y-50508500D01*
X144045501Y-50508500D01*
X144113622Y-50528502D01*
G37*
%TD.AperFunction*%
%TD*%
M02*
