%TF.GenerationSoftware,KiCad,Pcbnew,(6.0.6)*%
%TF.CreationDate,2022-07-04T15:46:39+03:00*%
%TF.ProjectId,gimble,67696d62-6c65-42e6-9b69-6361645f7063,0.2*%
%TF.SameCoordinates,Original*%
%TF.FileFunction,Legend,Top*%
%TF.FilePolarity,Positive*%
%FSLAX46Y46*%
G04 Gerber Fmt 4.6, Leading zero omitted, Abs format (unit mm)*
G04 Created by KiCad (PCBNEW (6.0.6)) date 2022-07-04 15:46:39*
%MOMM*%
%LPD*%
G01*
G04 APERTURE LIST*
%ADD10C,0.150000*%
%ADD11C,0.120000*%
%ADD12C,0.100000*%
%ADD13C,0.010000*%
G04 APERTURE END LIST*
D10*
X118111803Y-64625000D02*
G75*
G03*
X118111803Y-64625000I-111803J0D01*
G01*
X152461803Y-59075000D02*
G75*
G03*
X152461803Y-59075000I-111803J0D01*
G01*
X109761803Y-69250000D02*
G75*
G03*
X109761803Y-69250000I-111803J0D01*
G01*
X147686803Y-57875000D02*
G75*
G03*
X147686803Y-57875000I-111803J0D01*
G01*
X125711803Y-51025000D02*
G75*
G03*
X125711803Y-51025000I-111803J0D01*
G01*
X125086803Y-66725000D02*
G75*
G03*
X125086803Y-66725000I-111803J0D01*
G01*
X141575000Y-70036904D02*
X141527380Y-70132142D01*
X141527380Y-70275000D01*
X141575000Y-70417857D01*
X141670238Y-70513095D01*
X141765476Y-70560714D01*
X141955952Y-70608333D01*
X142098809Y-70608333D01*
X142289285Y-70560714D01*
X142384523Y-70513095D01*
X142479761Y-70417857D01*
X142527380Y-70275000D01*
X142527380Y-70179761D01*
X142479761Y-70036904D01*
X142432142Y-69989285D01*
X142098809Y-69989285D01*
X142098809Y-70179761D01*
X142527380Y-69560714D02*
X141527380Y-69560714D01*
X142527380Y-68989285D01*
X141527380Y-68989285D01*
X142527380Y-68513095D02*
X141527380Y-68513095D01*
X141527380Y-68275000D01*
X141575000Y-68132142D01*
X141670238Y-68036904D01*
X141765476Y-67989285D01*
X141955952Y-67941666D01*
X142098809Y-67941666D01*
X142289285Y-67989285D01*
X142384523Y-68036904D01*
X142479761Y-68132142D01*
X142527380Y-68275000D01*
X142527380Y-68513095D01*
X106122619Y-51100000D02*
X106027380Y-51052380D01*
X105884523Y-51052380D01*
X105741666Y-51100000D01*
X105646428Y-51195238D01*
X105598809Y-51290476D01*
X105551190Y-51480952D01*
X105551190Y-51623809D01*
X105598809Y-51814285D01*
X105646428Y-51909523D01*
X105741666Y-52004761D01*
X105884523Y-52052380D01*
X105979761Y-52052380D01*
X106122619Y-52004761D01*
X106170238Y-51957142D01*
X106170238Y-51623809D01*
X105979761Y-51623809D01*
X106598809Y-52052380D02*
X106598809Y-51385714D01*
X106598809Y-51052380D02*
X106551190Y-51100000D01*
X106598809Y-51147619D01*
X106646428Y-51100000D01*
X106598809Y-51052380D01*
X106598809Y-51147619D01*
X107075000Y-52052380D02*
X107075000Y-51385714D01*
X107075000Y-51480952D02*
X107122619Y-51433333D01*
X107217857Y-51385714D01*
X107360714Y-51385714D01*
X107455952Y-51433333D01*
X107503571Y-51528571D01*
X107503571Y-52052380D01*
X107503571Y-51528571D02*
X107551190Y-51433333D01*
X107646428Y-51385714D01*
X107789285Y-51385714D01*
X107884523Y-51433333D01*
X107932142Y-51528571D01*
X107932142Y-52052380D01*
X108408333Y-52052380D02*
X108408333Y-51052380D01*
X108408333Y-51433333D02*
X108503571Y-51385714D01*
X108694047Y-51385714D01*
X108789285Y-51433333D01*
X108836904Y-51480952D01*
X108884523Y-51576190D01*
X108884523Y-51861904D01*
X108836904Y-51957142D01*
X108789285Y-52004761D01*
X108694047Y-52052380D01*
X108503571Y-52052380D01*
X108408333Y-52004761D01*
X109455952Y-52052380D02*
X109360714Y-52004761D01*
X109313095Y-51909523D01*
X109313095Y-51052380D01*
X110217857Y-52004761D02*
X110122619Y-52052380D01*
X109932142Y-52052380D01*
X109836904Y-52004761D01*
X109789285Y-51909523D01*
X109789285Y-51528571D01*
X109836904Y-51433333D01*
X109932142Y-51385714D01*
X110122619Y-51385714D01*
X110217857Y-51433333D01*
X110265476Y-51528571D01*
X110265476Y-51623809D01*
X109789285Y-51719047D01*
X111789285Y-51528571D02*
X111932142Y-51576190D01*
X111979761Y-51623809D01*
X112027380Y-51719047D01*
X112027380Y-51861904D01*
X111979761Y-51957142D01*
X111932142Y-52004761D01*
X111836904Y-52052380D01*
X111455952Y-52052380D01*
X111455952Y-51052380D01*
X111789285Y-51052380D01*
X111884523Y-51100000D01*
X111932142Y-51147619D01*
X111979761Y-51242857D01*
X111979761Y-51338095D01*
X111932142Y-51433333D01*
X111884523Y-51480952D01*
X111789285Y-51528571D01*
X111455952Y-51528571D01*
X112598809Y-52052380D02*
X112503571Y-52004761D01*
X112455952Y-51957142D01*
X112408333Y-51861904D01*
X112408333Y-51576190D01*
X112455952Y-51480952D01*
X112503571Y-51433333D01*
X112598809Y-51385714D01*
X112741666Y-51385714D01*
X112836904Y-51433333D01*
X112884523Y-51480952D01*
X112932142Y-51576190D01*
X112932142Y-51861904D01*
X112884523Y-51957142D01*
X112836904Y-52004761D01*
X112741666Y-52052380D01*
X112598809Y-52052380D01*
X113789285Y-52052380D02*
X113789285Y-51528571D01*
X113741666Y-51433333D01*
X113646428Y-51385714D01*
X113455952Y-51385714D01*
X113360714Y-51433333D01*
X113789285Y-52004761D02*
X113694047Y-52052380D01*
X113455952Y-52052380D01*
X113360714Y-52004761D01*
X113313095Y-51909523D01*
X113313095Y-51814285D01*
X113360714Y-51719047D01*
X113455952Y-51671428D01*
X113694047Y-51671428D01*
X113789285Y-51623809D01*
X114265476Y-52052380D02*
X114265476Y-51385714D01*
X114265476Y-51576190D02*
X114313095Y-51480952D01*
X114360714Y-51433333D01*
X114455952Y-51385714D01*
X114551190Y-51385714D01*
X115313095Y-52052380D02*
X115313095Y-51052380D01*
X115313095Y-52004761D02*
X115217857Y-52052380D01*
X115027380Y-52052380D01*
X114932142Y-52004761D01*
X114884523Y-51957142D01*
X114836904Y-51861904D01*
X114836904Y-51576190D01*
X114884523Y-51480952D01*
X114932142Y-51433333D01*
X115027380Y-51385714D01*
X115217857Y-51385714D01*
X115313095Y-51433333D01*
X117122619Y-52052380D02*
X116789285Y-51576190D01*
X116551190Y-52052380D02*
X116551190Y-51052380D01*
X116932142Y-51052380D01*
X117027380Y-51100000D01*
X117075000Y-51147619D01*
X117122619Y-51242857D01*
X117122619Y-51385714D01*
X117075000Y-51480952D01*
X117027380Y-51528571D01*
X116932142Y-51576190D01*
X116551190Y-51576190D01*
X117932142Y-52004761D02*
X117836904Y-52052380D01*
X117646428Y-52052380D01*
X117551190Y-52004761D01*
X117503571Y-51909523D01*
X117503571Y-51528571D01*
X117551190Y-51433333D01*
X117646428Y-51385714D01*
X117836904Y-51385714D01*
X117932142Y-51433333D01*
X117979761Y-51528571D01*
X117979761Y-51623809D01*
X117503571Y-51719047D01*
X118313095Y-51385714D02*
X118551190Y-52052380D01*
X118789285Y-51385714D01*
X119170238Y-51957142D02*
X119217857Y-52004761D01*
X119170238Y-52052380D01*
X119122619Y-52004761D01*
X119170238Y-51957142D01*
X119170238Y-52052380D01*
X119836904Y-51052380D02*
X119932142Y-51052380D01*
X120027380Y-51100000D01*
X120075000Y-51147619D01*
X120122619Y-51242857D01*
X120170238Y-51433333D01*
X120170238Y-51671428D01*
X120122619Y-51861904D01*
X120075000Y-51957142D01*
X120027380Y-52004761D01*
X119932142Y-52052380D01*
X119836904Y-52052380D01*
X119741666Y-52004761D01*
X119694047Y-51957142D01*
X119646428Y-51861904D01*
X119598809Y-51671428D01*
X119598809Y-51433333D01*
X119646428Y-51242857D01*
X119694047Y-51147619D01*
X119741666Y-51100000D01*
X119836904Y-51052380D01*
X120598809Y-51957142D02*
X120646428Y-52004761D01*
X120598809Y-52052380D01*
X120551190Y-52004761D01*
X120598809Y-51957142D01*
X120598809Y-52052380D01*
X121027380Y-51147619D02*
X121075000Y-51100000D01*
X121170238Y-51052380D01*
X121408333Y-51052380D01*
X121503571Y-51100000D01*
X121551190Y-51147619D01*
X121598809Y-51242857D01*
X121598809Y-51338095D01*
X121551190Y-51480952D01*
X120979761Y-52052380D01*
X121598809Y-52052380D01*
X139904761Y-70634916D02*
X139952380Y-70492059D01*
X139952380Y-70253964D01*
X139904761Y-70158726D01*
X139857142Y-70111107D01*
X139761904Y-70063488D01*
X139666666Y-70063488D01*
X139571428Y-70111107D01*
X139523809Y-70158726D01*
X139476190Y-70253964D01*
X139428571Y-70444440D01*
X139380952Y-70539678D01*
X139333333Y-70587297D01*
X139238095Y-70634916D01*
X139142857Y-70634916D01*
X139047619Y-70587297D01*
X139000000Y-70539678D01*
X138952380Y-70444440D01*
X138952380Y-70206345D01*
X139000000Y-70063488D01*
X138952380Y-69730154D02*
X139952380Y-69492059D01*
X139238095Y-69301583D01*
X139952380Y-69111107D01*
X138952380Y-68873012D01*
X139857142Y-67920631D02*
X139904761Y-67968250D01*
X139952380Y-68111107D01*
X139952380Y-68206345D01*
X139904761Y-68349202D01*
X139809523Y-68444440D01*
X139714285Y-68492059D01*
X139523809Y-68539678D01*
X139380952Y-68539678D01*
X139190476Y-68492059D01*
X139095238Y-68444440D01*
X139000000Y-68349202D01*
X138952380Y-68206345D01*
X138952380Y-68111107D01*
X139000000Y-67968250D01*
X139047619Y-67920631D01*
X139952380Y-67015869D02*
X139952380Y-67492059D01*
X138952380Y-67492059D01*
X139952380Y-66682535D02*
X138952380Y-66682535D01*
X139952380Y-66111107D02*
X139380952Y-66539678D01*
X138952380Y-66111107D02*
X139523809Y-66682535D01*
X144979761Y-70632142D02*
X145027380Y-70489285D01*
X145027380Y-70251190D01*
X144979761Y-70155952D01*
X144932142Y-70108333D01*
X144836904Y-70060714D01*
X144741666Y-70060714D01*
X144646428Y-70108333D01*
X144598809Y-70155952D01*
X144551190Y-70251190D01*
X144503571Y-70441666D01*
X144455952Y-70536904D01*
X144408333Y-70584523D01*
X144313095Y-70632142D01*
X144217857Y-70632142D01*
X144122619Y-70584523D01*
X144075000Y-70536904D01*
X144027380Y-70441666D01*
X144027380Y-70203571D01*
X144075000Y-70060714D01*
X144027380Y-69727380D02*
X145027380Y-69489285D01*
X144313095Y-69298809D01*
X145027380Y-69108333D01*
X144027380Y-68870238D01*
X145027380Y-68489285D02*
X144027380Y-68489285D01*
X144027380Y-68251190D01*
X144075000Y-68108333D01*
X144170238Y-68013095D01*
X144265476Y-67965476D01*
X144455952Y-67917857D01*
X144598809Y-67917857D01*
X144789285Y-67965476D01*
X144884523Y-68013095D01*
X144979761Y-68108333D01*
X145027380Y-68251190D01*
X145027380Y-68489285D01*
D11*
%TO.C,C402*%
X118490000Y-54057836D02*
X118490000Y-53842164D01*
X119210000Y-54057836D02*
X119210000Y-53842164D01*
D12*
%TO.C,D202*%
X145050000Y-52090000D02*
G75*
G03*
X145050000Y-52090000I-50000J0D01*
G01*
D11*
%TO.C,M500*%
X110630000Y-52985000D02*
X110630000Y-53285507D01*
X114505000Y-54375000D02*
X110630000Y-54375000D01*
X114505000Y-52985000D02*
X110630000Y-52985000D01*
X115875000Y-52985000D02*
X115875000Y-53680000D01*
X114505000Y-54288276D02*
X114505000Y-54375000D01*
X115190000Y-52985000D02*
X115875000Y-52985000D01*
X110630000Y-54074493D02*
X110630000Y-54375000D01*
X114505000Y-52985000D02*
X114505000Y-53071724D01*
%TO.C,D200*%
X155800000Y-58265000D02*
X153515000Y-58265000D01*
X153515000Y-58265000D02*
X153515000Y-59735000D01*
X153515000Y-59735000D02*
X155800000Y-59735000D01*
%TO.C,U301*%
X129310000Y-50265000D02*
X132310000Y-50265000D01*
X126310000Y-55485000D02*
X132310000Y-55485000D01*
%TO.C,C200*%
X150800000Y-67215000D02*
X148490000Y-67215000D01*
X148490000Y-68785000D02*
X150800000Y-68785000D01*
X148490000Y-67215000D02*
X148490000Y-68785000D01*
%TO.C,SW300*%
X148500000Y-70900000D02*
X148000000Y-71280000D01*
X147350000Y-74100000D02*
X147350000Y-74400000D01*
X148500000Y-70900000D02*
X149500000Y-70900000D01*
X147350000Y-71600000D02*
X150650000Y-71600000D01*
X150650000Y-71600000D02*
X150650000Y-71900000D01*
X150000000Y-71280000D02*
X150000000Y-71600000D01*
X150650000Y-74400000D02*
X150650000Y-74100000D01*
X147350000Y-71900000D02*
X147350000Y-71600000D01*
X149500000Y-70900000D02*
X150000000Y-71280000D01*
X147350000Y-74400000D02*
X150650000Y-74400000D01*
X148000000Y-71280000D02*
X148000000Y-71600000D01*
%TO.C,U400*%
X121410000Y-55065000D02*
X122085000Y-55065000D01*
X119540000Y-58285000D02*
X118865000Y-58285000D01*
X119540000Y-55065000D02*
X118865000Y-55065000D01*
X118865000Y-58285000D02*
X118865000Y-58110000D01*
X122085000Y-55065000D02*
X122085000Y-55240000D01*
X121410000Y-58285000D02*
X122085000Y-58285000D01*
X118865000Y-55065000D02*
X118865000Y-55240000D01*
%TO.C,kibuzzard-62C2D4AD*%
G36*
X150666055Y-68854545D02*
G01*
X150765593Y-68869310D01*
X150863205Y-68893760D01*
X150957950Y-68927661D01*
X151048916Y-68970684D01*
X151135227Y-69022417D01*
X151216051Y-69082361D01*
X151290611Y-69149938D01*
X151358188Y-69224498D01*
X151418132Y-69305322D01*
X151469865Y-69391633D01*
X151512888Y-69482599D01*
X151546789Y-69577344D01*
X151571239Y-69674956D01*
X151586004Y-69774494D01*
X151590942Y-69875000D01*
X151586004Y-69975506D01*
X151571239Y-70075044D01*
X151546789Y-70172656D01*
X151512888Y-70267401D01*
X151469865Y-70358367D01*
X151418132Y-70444678D01*
X151358188Y-70525502D01*
X151290611Y-70600062D01*
X151216051Y-70667639D01*
X151135227Y-70727583D01*
X151048916Y-70779316D01*
X150957950Y-70822339D01*
X150863205Y-70856240D01*
X150765593Y-70880690D01*
X150666055Y-70895455D01*
X150565549Y-70900393D01*
X147284451Y-70900393D01*
X147183945Y-70895455D01*
X147084407Y-70880690D01*
X146986795Y-70856240D01*
X146892050Y-70822339D01*
X146801084Y-70779316D01*
X146714773Y-70727583D01*
X146633949Y-70667639D01*
X146559389Y-70600062D01*
X146491812Y-70525502D01*
X146431868Y-70444678D01*
X146385384Y-70367125D01*
X147797081Y-70367125D01*
X147992344Y-70367125D01*
X147992344Y-70005175D01*
X148093944Y-70005175D01*
X148147720Y-70095067D01*
X148197925Y-70183769D01*
X148243367Y-70273661D01*
X148282856Y-70367125D01*
X148487644Y-70367125D01*
X148464159Y-70313150D01*
X148568606Y-70313150D01*
X148678144Y-70361569D01*
X148763472Y-70381214D01*
X148873406Y-70387763D01*
X148984796Y-70379384D01*
X149075548Y-70354249D01*
X149145663Y-70312356D01*
X149212933Y-70221273D01*
X149235356Y-70098838D01*
X149228609Y-70024820D01*
X149208369Y-69964694D01*
X149139313Y-69875794D01*
X149047238Y-69818644D01*
X148951194Y-69779750D01*
X148890075Y-69755937D01*
X148834512Y-69726569D01*
X148794031Y-69688469D01*
X148778156Y-69638462D01*
X148795442Y-69575844D01*
X148847301Y-69538274D01*
X148933731Y-69525750D01*
X149045650Y-69541625D01*
X149133756Y-69579725D01*
X149146389Y-69546387D01*
X149338544Y-69546387D01*
X149597306Y-69546387D01*
X149597306Y-70367125D01*
X149794156Y-70367125D01*
X149794156Y-69546387D01*
X150052919Y-69546387D01*
X150052919Y-69384462D01*
X149338544Y-69384462D01*
X149338544Y-69546387D01*
X149146389Y-69546387D01*
X149190906Y-69428912D01*
X149077400Y-69382875D01*
X149004177Y-69367397D01*
X148919444Y-69362237D01*
X148822165Y-69370881D01*
X148739880Y-69396810D01*
X148672588Y-69440025D01*
X148605317Y-69532894D01*
X148582894Y-69655925D01*
X148608294Y-69772606D01*
X148672588Y-69851187D01*
X148759106Y-69903575D01*
X148851181Y-69940088D01*
X148917856Y-69967869D01*
X148978181Y-70001206D01*
X149022631Y-70043275D01*
X149040094Y-70097250D01*
X149032950Y-70144081D01*
X149006756Y-70185356D01*
X148955163Y-70213931D01*
X148873406Y-70224250D01*
X148794230Y-70218694D01*
X148728150Y-70202025D01*
X148625756Y-70154400D01*
X148568606Y-70313150D01*
X148464159Y-70313150D01*
X148442400Y-70263144D01*
X148387631Y-70153606D01*
X148328894Y-70048831D01*
X148271744Y-69957550D01*
X148341197Y-69912703D01*
X148387631Y-69851187D01*
X148413825Y-69777369D01*
X148422556Y-69695612D01*
X148416008Y-69618420D01*
X148396362Y-69551944D01*
X148320956Y-69451137D01*
X148266981Y-69416609D01*
X148203481Y-69392400D01*
X148131250Y-69378112D01*
X148051081Y-69373350D01*
X147995519Y-69374938D01*
X147928844Y-69378906D01*
X147859787Y-69386844D01*
X147797081Y-69398750D01*
X147797081Y-70367125D01*
X146385384Y-70367125D01*
X146380135Y-70358367D01*
X146337112Y-70267401D01*
X146303211Y-70172656D01*
X146278761Y-70075044D01*
X146263996Y-69975506D01*
X146259058Y-69875000D01*
X146263996Y-69774494D01*
X146278761Y-69674956D01*
X146303211Y-69577344D01*
X146337112Y-69482599D01*
X146380135Y-69391633D01*
X146431868Y-69305322D01*
X146491812Y-69224498D01*
X146559389Y-69149938D01*
X146633949Y-69082361D01*
X146714773Y-69022417D01*
X146801084Y-68970684D01*
X146892050Y-68927661D01*
X146986795Y-68893760D01*
X147084407Y-68869310D01*
X147183945Y-68854545D01*
X147284451Y-68849607D01*
X150565549Y-68849607D01*
X150666055Y-68854545D01*
G37*
G36*
X148121328Y-69552341D02*
G01*
X148176494Y-69579725D01*
X148212212Y-69626556D01*
X148224119Y-69694025D01*
X148179669Y-69804356D01*
X148121328Y-69833527D01*
X148035206Y-69843250D01*
X147992344Y-69843250D01*
X147992344Y-69547975D01*
X148024094Y-69544006D01*
X148051081Y-69543212D01*
X148121328Y-69552341D01*
G37*
%TO.C,C311*%
X127965000Y-73907836D02*
X127965000Y-73692164D01*
X128685000Y-73907836D02*
X128685000Y-73692164D01*
%TO.C,R303*%
X136771359Y-63020000D02*
X137078641Y-63020000D01*
X136771359Y-63780000D02*
X137078641Y-63780000D01*
%TO.C,U200*%
X147440000Y-63000000D02*
X147440000Y-61050000D01*
X147440000Y-63000000D02*
X147440000Y-64950000D01*
X152560000Y-63000000D02*
X152560000Y-64950000D01*
X152560000Y-63000000D02*
X152560000Y-59550000D01*
%TO.C,M501*%
X106085000Y-58898276D02*
X106085000Y-58985000D01*
X106085000Y-57595000D02*
X102210000Y-57595000D01*
X102210000Y-58684493D02*
X102210000Y-58985000D01*
X106085000Y-57595000D02*
X106085000Y-57681724D01*
X107455000Y-57595000D02*
X107455000Y-58290000D01*
X102210000Y-57595000D02*
X102210000Y-57895507D01*
X106770000Y-57595000D02*
X107455000Y-57595000D01*
X106085000Y-58985000D02*
X102210000Y-58985000D01*
%TO.C,SW301*%
X153680000Y-62725000D02*
X154000000Y-62725000D01*
X153300000Y-64225000D02*
X153300000Y-63225000D01*
X153300000Y-63225000D02*
X153680000Y-62725000D01*
X154000000Y-65375000D02*
X154000000Y-62075000D01*
X156500000Y-65375000D02*
X156800000Y-65375000D01*
X154000000Y-62075000D02*
X154300000Y-62075000D01*
X156800000Y-62075000D02*
X156500000Y-62075000D01*
X154300000Y-65375000D02*
X154000000Y-65375000D01*
X156800000Y-65375000D02*
X156800000Y-62075000D01*
X153300000Y-64225000D02*
X153680000Y-64725000D01*
X153680000Y-64725000D02*
X154000000Y-64725000D01*
%TO.C,R302*%
X131971359Y-71105000D02*
X132278641Y-71105000D01*
X131971359Y-70345000D02*
X132278641Y-70345000D01*
%TO.C,J300*%
X139475000Y-74330000D02*
X138145000Y-74330000D01*
X140745000Y-71670000D02*
X145885000Y-71670000D01*
X145885000Y-74330000D02*
X145885000Y-71670000D01*
X140745000Y-74330000D02*
X140745000Y-71670000D01*
X140745000Y-74330000D02*
X145885000Y-74330000D01*
X138145000Y-74330000D02*
X138145000Y-73000000D01*
%TO.C,R401*%
X122696359Y-58620000D02*
X123003641Y-58620000D01*
X122696359Y-59380000D02*
X123003641Y-59380000D01*
%TO.C,U201*%
X147440000Y-54000000D02*
X147440000Y-52050000D01*
X152560000Y-54000000D02*
X152560000Y-55950000D01*
X147440000Y-54000000D02*
X147440000Y-57450000D01*
X152560000Y-54000000D02*
X152560000Y-52050000D01*
%TO.C,U502*%
X125680000Y-70910000D02*
X125680000Y-67460000D01*
X125680000Y-70910000D02*
X125680000Y-72860000D01*
X115560000Y-70910000D02*
X115560000Y-72860000D01*
X115560000Y-70910000D02*
X115560000Y-68960000D01*
%TO.C,kibuzzard-62C2DC45*%
G36*
X103662559Y-71178345D02*
G01*
X103728837Y-71196800D01*
X103821706Y-71266650D01*
X103870125Y-71374600D01*
X103880841Y-71440680D01*
X103884412Y-71513506D01*
X103884412Y-71934194D01*
X103689150Y-71934194D01*
X103689150Y-71538906D01*
X103683197Y-71448816D01*
X103665337Y-71388094D01*
X103568500Y-71342056D01*
X103524844Y-71343644D01*
X103479600Y-71348406D01*
X103479600Y-71934194D01*
X103284337Y-71934194D01*
X103284337Y-71211881D01*
X103342877Y-71197991D01*
X103413719Y-71184894D01*
X103494086Y-71175369D01*
X103581200Y-71172194D01*
X103662559Y-71178345D01*
G37*
G36*
X108425059Y-71178345D02*
G01*
X108491338Y-71196800D01*
X108584206Y-71266650D01*
X108632625Y-71374600D01*
X108643341Y-71440680D01*
X108646913Y-71513506D01*
X108646913Y-71934194D01*
X108451650Y-71934194D01*
X108451650Y-71538906D01*
X108445697Y-71448816D01*
X108427838Y-71388094D01*
X108331000Y-71342056D01*
X108287344Y-71343644D01*
X108242100Y-71348406D01*
X108242100Y-71934194D01*
X108046838Y-71934194D01*
X108046838Y-71211881D01*
X108105377Y-71197991D01*
X108176219Y-71184894D01*
X108256586Y-71175369D01*
X108343700Y-71172194D01*
X108425059Y-71178345D01*
G37*
G36*
X106896694Y-71175369D02*
G01*
X106959400Y-71180925D01*
X107026869Y-71190450D01*
X107087988Y-71205531D01*
X107053063Y-71386506D01*
X107007819Y-71376981D01*
X106954638Y-71368250D01*
X106902250Y-71362694D01*
X106859388Y-71361106D01*
X106778425Y-71365075D01*
X106697463Y-71380156D01*
X106697463Y-71934194D01*
X106500613Y-71934194D01*
X106500613Y-71237281D01*
X106579392Y-71211484D01*
X106660156Y-71191244D01*
X106748858Y-71178147D01*
X106851450Y-71173781D01*
X106896694Y-71175369D01*
G37*
G36*
X102849362Y-71650031D02*
G01*
X102873969Y-71749250D01*
X102955725Y-71781794D01*
X103020812Y-71774650D01*
X103106537Y-71745281D01*
X103131937Y-71902444D01*
X103018431Y-71941338D01*
X102920800Y-71951656D01*
X102850752Y-71946100D01*
X102793006Y-71929431D01*
X102710456Y-71865138D01*
X102666800Y-71762744D01*
X102657275Y-71698053D01*
X102654100Y-71624631D01*
X102654100Y-71349994D01*
X102447725Y-71349994D01*
X102447725Y-71188069D01*
X102849362Y-71188069D01*
X102849362Y-71650031D01*
G37*
G36*
X107232450Y-71394444D02*
G01*
X107267375Y-71325983D01*
X107311825Y-71269825D01*
X107364609Y-71225970D01*
X107424538Y-71194419D01*
X107488831Y-71175369D01*
X107554713Y-71169019D01*
X107655960Y-71179867D01*
X107739568Y-71212410D01*
X107805538Y-71266650D01*
X107853163Y-71341703D01*
X107881738Y-71436689D01*
X107891263Y-71551606D01*
X107890469Y-71591294D01*
X107888088Y-71624631D01*
X107403900Y-71624631D01*
X107418981Y-71689917D01*
X107464225Y-71739725D01*
X107533281Y-71771277D01*
X107619800Y-71781794D01*
X107731719Y-71769094D01*
X107821413Y-71743694D01*
X107848400Y-71910381D01*
X107740450Y-71939750D01*
X107611863Y-71951656D01*
X107521573Y-71945505D01*
X107441206Y-71927050D01*
X107371356Y-71896491D01*
X107312619Y-71854025D01*
X107265589Y-71799852D01*
X107230863Y-71734169D01*
X107209431Y-71656778D01*
X107202288Y-71567481D01*
X107208631Y-71489694D01*
X107403900Y-71489694D01*
X107702350Y-71489694D01*
X107694413Y-71431750D01*
X107669013Y-71381744D01*
X107624563Y-71346025D01*
X107557888Y-71332531D01*
X107492006Y-71345231D01*
X107445969Y-71380156D01*
X107417394Y-71430956D01*
X107403900Y-71489694D01*
X107208631Y-71489694D01*
X107209828Y-71475009D01*
X107232450Y-71394444D01*
G37*
G36*
X102242937Y-71199181D02*
G01*
X102305644Y-71256331D01*
X102336600Y-71352375D01*
X102342553Y-71415280D01*
X102344537Y-71488106D01*
X102344537Y-71934194D01*
X102185787Y-71934194D01*
X102185787Y-71478581D01*
X102180231Y-71407144D01*
X102165944Y-71365869D01*
X102145306Y-71346819D01*
X102120700Y-71342056D01*
X102090537Y-71344437D01*
X102061962Y-71353169D01*
X102069900Y-71419844D01*
X102073075Y-71500806D01*
X102073075Y-71650031D01*
X101914325Y-71650031D01*
X101914325Y-71478581D01*
X101899244Y-71372219D01*
X101850825Y-71342056D01*
X101827806Y-71343644D01*
X101801612Y-71348406D01*
X101801612Y-71934194D01*
X101642862Y-71934194D01*
X101642862Y-71216644D01*
X101765100Y-71189656D01*
X101871462Y-71180131D01*
X101945281Y-71190450D01*
X102001637Y-71224581D01*
X102065137Y-71193625D01*
X102141337Y-71180131D01*
X102242937Y-71199181D01*
G37*
G36*
X105040509Y-71066823D02*
G01*
X105082975Y-71184100D01*
X105128219Y-71297408D01*
X105175050Y-71400794D01*
X105215531Y-71308719D01*
X105261569Y-71191244D01*
X105284191Y-71128934D01*
X105306019Y-71065831D01*
X105344913Y-70951531D01*
X105546525Y-70951531D01*
X105516363Y-71031303D01*
X105486200Y-71108694D01*
X105455244Y-71184497D01*
X105422700Y-71259506D01*
X105388172Y-71333920D01*
X105351263Y-71407938D01*
X105311575Y-71482748D01*
X105268713Y-71559544D01*
X105268713Y-71934194D01*
X105071863Y-71934194D01*
X105071863Y-71561131D01*
X105016035Y-71459267D01*
X104964971Y-71358990D01*
X104918669Y-71260300D01*
X104875365Y-71160728D01*
X104833297Y-71057806D01*
X104792463Y-70951531D01*
X105002013Y-70951531D01*
X105040509Y-71066823D01*
G37*
G36*
X101498400Y-71113456D02*
G01*
X101098350Y-71113456D01*
X101098350Y-71334119D01*
X101446012Y-71334119D01*
X101446012Y-71496044D01*
X101098350Y-71496044D01*
X101098350Y-71772269D01*
X101533325Y-71772269D01*
X101533325Y-71934194D01*
X100903087Y-71934194D01*
X100903087Y-70951531D01*
X101498400Y-70951531D01*
X101498400Y-71113456D01*
G37*
G36*
X106078338Y-71486519D02*
G01*
X106078338Y-71462706D01*
X106043413Y-71369837D01*
X105995788Y-71341858D01*
X105922763Y-71332531D01*
X105815606Y-71340469D01*
X105732263Y-71359519D01*
X105705275Y-71202356D01*
X105808463Y-71179337D01*
X105876328Y-71171598D01*
X105946575Y-71169019D01*
X106030911Y-71174377D01*
X106099769Y-71190450D01*
X106197400Y-71250775D01*
X106249788Y-71346025D01*
X106265663Y-71472231D01*
X106265663Y-71916731D01*
X106138663Y-71938956D01*
X106049366Y-71948481D01*
X105949750Y-71951656D01*
X105820369Y-71938956D01*
X105721150Y-71896888D01*
X105657650Y-71820688D01*
X105635425Y-71705594D01*
X105636529Y-71700831D01*
X105827513Y-71700831D01*
X105865613Y-71773063D01*
X105964038Y-71794494D01*
X106025950Y-71793700D01*
X106078338Y-71789731D01*
X106078338Y-71618281D01*
X106032300Y-71612725D01*
X105983088Y-71610344D01*
X105924350Y-71614313D01*
X105874344Y-71627806D01*
X105840213Y-71654794D01*
X105827513Y-71700831D01*
X105636529Y-71700831D01*
X105660825Y-71596056D01*
X105729088Y-71524619D01*
X105827513Y-71485725D01*
X105943400Y-71473819D01*
X106015234Y-71476994D01*
X106078338Y-71486519D01*
G37*
G36*
X102804912Y-70881681D02*
G01*
X102841425Y-70973756D01*
X102804912Y-71064244D01*
X102717600Y-71097581D01*
X102631081Y-71064244D01*
X102595362Y-70973756D01*
X102631081Y-70881681D01*
X102717600Y-70848344D01*
X102804912Y-70881681D01*
G37*
%TO.C,C313*%
X133970000Y-51459420D02*
X133970000Y-51740580D01*
X132950000Y-51459420D02*
X132950000Y-51740580D01*
%TO.C,C403*%
X119082836Y-59360000D02*
X118867164Y-59360000D01*
X119082836Y-58640000D02*
X118867164Y-58640000D01*
%TO.C,R301*%
X136243641Y-57695000D02*
X135936359Y-57695000D01*
X136243641Y-58455000D02*
X135936359Y-58455000D01*
%TO.C,Y300*%
X129000000Y-74650000D02*
X133000000Y-74650000D01*
X129000000Y-71350000D02*
X129000000Y-74650000D01*
D12*
%TO.C,D201*%
X146350000Y-60140000D02*
G75*
G03*
X146350000Y-60140000I-50000J0D01*
G01*
D11*
%TO.C,C400*%
X121007836Y-58640000D02*
X120792164Y-58640000D01*
X121007836Y-59360000D02*
X120792164Y-59360000D01*
D12*
%TO.C,D300*%
X140115000Y-63400000D02*
G75*
G03*
X140115000Y-63400000I-50000J0D01*
G01*
D11*
%TO.C,J201*%
X155250000Y-56990000D02*
X155250000Y-55990000D01*
X156740000Y-50970000D02*
X156740000Y-51570000D01*
X153330000Y-52000000D02*
X153330000Y-56000000D01*
X157540000Y-55990000D02*
X157540000Y-56990000D01*
X155000000Y-55990000D02*
X155250000Y-55460000D01*
X157290000Y-55460000D02*
X157540000Y-55990000D01*
X156740000Y-51570000D02*
X158340000Y-51570000D01*
X154200000Y-50970000D02*
X154200000Y-51570000D01*
X154200000Y-51570000D02*
X155800000Y-51570000D01*
X155800000Y-51570000D02*
X155800000Y-50970000D01*
X153620000Y-56990000D02*
X158920000Y-56990000D01*
X155000000Y-55990000D02*
X157540000Y-55990000D01*
X155000000Y-56990000D02*
X155000000Y-55990000D01*
X158920000Y-56990000D02*
X158920000Y-50970000D01*
X158340000Y-51570000D02*
X158340000Y-50970000D01*
X155250000Y-55460000D02*
X157290000Y-55460000D01*
X157290000Y-56990000D02*
X157290000Y-55990000D01*
X158920000Y-50970000D02*
X153620000Y-50970000D01*
X153620000Y-50970000D02*
X153620000Y-56990000D01*
%TO.C,C201*%
X146785000Y-52490000D02*
X145215000Y-52490000D01*
X146785000Y-54800000D02*
X146785000Y-52490000D01*
X145215000Y-52490000D02*
X145215000Y-54800000D01*
%TO.C,U501*%
X105480000Y-69870000D02*
X103530000Y-69870000D01*
X105480000Y-69870000D02*
X108930000Y-69870000D01*
X105480000Y-59750000D02*
X107430000Y-59750000D01*
X105480000Y-59750000D02*
X103530000Y-59750000D01*
%TO.C,R304*%
X155163641Y-60215000D02*
X154856359Y-60215000D01*
X155163641Y-60975000D02*
X154856359Y-60975000D01*
%TO.C,FB200*%
X142515000Y-56265000D02*
X142515000Y-57735000D01*
X142515000Y-57735000D02*
X144800000Y-57735000D01*
X144800000Y-56265000D02*
X142515000Y-56265000D01*
%TO.C,C312*%
X133340000Y-72142164D02*
X133340000Y-72357836D01*
X134060000Y-72142164D02*
X134060000Y-72357836D01*
%TO.C,U300*%
X127390000Y-67610000D02*
X127390000Y-66960000D01*
X134610000Y-60390000D02*
X134610000Y-61040000D01*
X133960000Y-67610000D02*
X134610000Y-67610000D01*
X133960000Y-60390000D02*
X134610000Y-60390000D01*
X128040000Y-67610000D02*
X127390000Y-67610000D01*
X134610000Y-67610000D02*
X134610000Y-66960000D01*
G36*
X126800000Y-61400000D02*
G01*
X126500000Y-61570000D01*
X126500000Y-61190000D01*
X126800000Y-61400000D01*
G37*
X126800000Y-61400000D02*
X126500000Y-61570000D01*
X126500000Y-61190000D01*
X126800000Y-61400000D01*
%TO.C,R203*%
X144846359Y-62620000D02*
X145153641Y-62620000D01*
X144846359Y-63380000D02*
X145153641Y-63380000D01*
%TO.C,Q200*%
X142440000Y-60000000D02*
X142440000Y-59350000D01*
X145560000Y-60000000D02*
X145560000Y-60650000D01*
X142440000Y-60000000D02*
X142440000Y-61675000D01*
X145560000Y-60000000D02*
X145560000Y-59350000D01*
%TO.C,M502*%
X114865000Y-70325000D02*
X114865000Y-74200000D01*
X113475000Y-68955000D02*
X114170000Y-68955000D01*
X113475000Y-70325000D02*
X113561724Y-70325000D01*
X114564493Y-74200000D02*
X114865000Y-74200000D01*
X114778276Y-70325000D02*
X114865000Y-70325000D01*
X113475000Y-70325000D02*
X113475000Y-74200000D01*
X113475000Y-74200000D02*
X113775507Y-74200000D01*
X113475000Y-69640000D02*
X113475000Y-68955000D01*
%TO.C,R202*%
X146380000Y-51153641D02*
X146380000Y-50846359D01*
X145620000Y-51153641D02*
X145620000Y-50846359D01*
%TO.C,U500*%
X113900000Y-65285000D02*
X117350000Y-65285000D01*
X113900000Y-55165000D02*
X115850000Y-55165000D01*
X113900000Y-65285000D02*
X111950000Y-65285000D01*
X113900000Y-55165000D02*
X111950000Y-55165000D01*
%TO.C,J200*%
X135190000Y-50660000D02*
X135190000Y-50400000D01*
X135190000Y-54710000D02*
X135570000Y-54710000D01*
X142810000Y-52940000D02*
X142810000Y-54710000D01*
X142810000Y-54710000D02*
X142430000Y-54710000D01*
X142810000Y-50400000D02*
X142810000Y-50660000D01*
X135190000Y-54710000D02*
X135190000Y-52940000D01*
%TO.C,REF\u002A\u002A*%
G36*
X121829926Y-65549755D02*
G01*
X121895858Y-65574084D01*
X121949273Y-65617117D01*
X121970164Y-65647409D01*
X121992939Y-65702994D01*
X121992466Y-65743186D01*
X121968562Y-65770217D01*
X121959717Y-65774813D01*
X121921530Y-65789144D01*
X121902028Y-65785472D01*
X121895422Y-65761407D01*
X121895086Y-65748114D01*
X121882992Y-65699210D01*
X121851471Y-65664999D01*
X121807659Y-65648476D01*
X121758695Y-65652634D01*
X121718894Y-65674227D01*
X121705450Y-65686544D01*
X121695921Y-65701487D01*
X121689485Y-65724075D01*
X121685317Y-65759328D01*
X121682597Y-65812266D01*
X121680502Y-65887907D01*
X121679960Y-65911857D01*
X121677981Y-65993790D01*
X121675731Y-66051455D01*
X121672357Y-66089608D01*
X121667006Y-66113004D01*
X121658824Y-66126398D01*
X121646959Y-66134545D01*
X121639362Y-66138144D01*
X121607102Y-66150452D01*
X121588111Y-66154514D01*
X121581836Y-66140948D01*
X121578006Y-66099934D01*
X121576600Y-66030999D01*
X121577598Y-65933669D01*
X121577908Y-65918657D01*
X121580101Y-65829859D01*
X121582693Y-65765019D01*
X121586382Y-65719067D01*
X121591864Y-65686935D01*
X121599835Y-65663553D01*
X121610993Y-65643852D01*
X121616830Y-65635410D01*
X121650296Y-65598057D01*
X121687727Y-65569003D01*
X121692309Y-65566467D01*
X121759426Y-65546443D01*
X121829926Y-65549755D01*
G37*
D13*
X121829926Y-65549755D02*
X121895858Y-65574084D01*
X121949273Y-65617117D01*
X121970164Y-65647409D01*
X121992939Y-65702994D01*
X121992466Y-65743186D01*
X121968562Y-65770217D01*
X121959717Y-65774813D01*
X121921530Y-65789144D01*
X121902028Y-65785472D01*
X121895422Y-65761407D01*
X121895086Y-65748114D01*
X121882992Y-65699210D01*
X121851471Y-65664999D01*
X121807659Y-65648476D01*
X121758695Y-65652634D01*
X121718894Y-65674227D01*
X121705450Y-65686544D01*
X121695921Y-65701487D01*
X121689485Y-65724075D01*
X121685317Y-65759328D01*
X121682597Y-65812266D01*
X121680502Y-65887907D01*
X121679960Y-65911857D01*
X121677981Y-65993790D01*
X121675731Y-66051455D01*
X121672357Y-66089608D01*
X121667006Y-66113004D01*
X121658824Y-66126398D01*
X121646959Y-66134545D01*
X121639362Y-66138144D01*
X121607102Y-66150452D01*
X121588111Y-66154514D01*
X121581836Y-66140948D01*
X121578006Y-66099934D01*
X121576600Y-66030999D01*
X121577598Y-65933669D01*
X121577908Y-65918657D01*
X121580101Y-65829859D01*
X121582693Y-65765019D01*
X121586382Y-65719067D01*
X121591864Y-65686935D01*
X121599835Y-65663553D01*
X121610993Y-65643852D01*
X121616830Y-65635410D01*
X121650296Y-65598057D01*
X121687727Y-65569003D01*
X121692309Y-65566467D01*
X121759426Y-65546443D01*
X121829926Y-65549755D01*
G36*
X122084726Y-65690086D02*
G01*
X122107135Y-65638600D01*
X122142124Y-65598443D01*
X122169375Y-65577861D01*
X122218907Y-65555625D01*
X122276316Y-65545304D01*
X122329682Y-65548067D01*
X122359543Y-65559212D01*
X122371261Y-65562383D01*
X122379037Y-65550557D01*
X122384465Y-65518866D01*
X122388571Y-65470593D01*
X122393067Y-65416829D01*
X122399313Y-65384482D01*
X122410676Y-65365985D01*
X122430528Y-65353770D01*
X122443000Y-65348362D01*
X122490171Y-65328601D01*
X122490117Y-65665358D01*
X122489933Y-65773837D01*
X122489219Y-65857287D01*
X122487675Y-65919704D01*
X122485001Y-65965085D01*
X122480894Y-65997429D01*
X122475055Y-66020733D01*
X122467182Y-66038995D01*
X122461221Y-66049418D01*
X122411855Y-66105945D01*
X122349264Y-66141377D01*
X122280013Y-66154090D01*
X122210668Y-66142463D01*
X122169375Y-66121568D01*
X122126025Y-66085422D01*
X122096481Y-66041276D01*
X122078655Y-65983462D01*
X122070463Y-65906313D01*
X122069302Y-65849714D01*
X122069458Y-65845647D01*
X122170857Y-65845647D01*
X122171476Y-65910550D01*
X122174314Y-65953514D01*
X122180840Y-65981622D01*
X122192523Y-66001953D01*
X122206483Y-66017288D01*
X122253365Y-66046890D01*
X122303701Y-66049419D01*
X122351276Y-66024705D01*
X122354979Y-66021356D01*
X122370783Y-66003935D01*
X122380693Y-65983209D01*
X122386058Y-65952362D01*
X122388228Y-65904577D01*
X122388571Y-65851748D01*
X122387827Y-65785381D01*
X122384748Y-65741106D01*
X122378061Y-65712009D01*
X122366496Y-65691173D01*
X122357013Y-65680107D01*
X122312960Y-65652198D01*
X122262224Y-65648843D01*
X122213796Y-65670159D01*
X122204450Y-65678073D01*
X122188540Y-65695647D01*
X122178610Y-65716587D01*
X122173278Y-65747782D01*
X122171163Y-65796122D01*
X122170857Y-65845647D01*
X122069458Y-65845647D01*
X122072810Y-65758568D01*
X122084726Y-65690086D01*
G37*
X122084726Y-65690086D02*
X122107135Y-65638600D01*
X122142124Y-65598443D01*
X122169375Y-65577861D01*
X122218907Y-65555625D01*
X122276316Y-65545304D01*
X122329682Y-65548067D01*
X122359543Y-65559212D01*
X122371261Y-65562383D01*
X122379037Y-65550557D01*
X122384465Y-65518866D01*
X122388571Y-65470593D01*
X122393067Y-65416829D01*
X122399313Y-65384482D01*
X122410676Y-65365985D01*
X122430528Y-65353770D01*
X122443000Y-65348362D01*
X122490171Y-65328601D01*
X122490117Y-65665358D01*
X122489933Y-65773837D01*
X122489219Y-65857287D01*
X122487675Y-65919704D01*
X122485001Y-65965085D01*
X122480894Y-65997429D01*
X122475055Y-66020733D01*
X122467182Y-66038995D01*
X122461221Y-66049418D01*
X122411855Y-66105945D01*
X122349264Y-66141377D01*
X122280013Y-66154090D01*
X122210668Y-66142463D01*
X122169375Y-66121568D01*
X122126025Y-66085422D01*
X122096481Y-66041276D01*
X122078655Y-65983462D01*
X122070463Y-65906313D01*
X122069302Y-65849714D01*
X122069458Y-65845647D01*
X122170857Y-65845647D01*
X122171476Y-65910550D01*
X122174314Y-65953514D01*
X122180840Y-65981622D01*
X122192523Y-66001953D01*
X122206483Y-66017288D01*
X122253365Y-66046890D01*
X122303701Y-66049419D01*
X122351276Y-66024705D01*
X122354979Y-66021356D01*
X122370783Y-66003935D01*
X122380693Y-65983209D01*
X122386058Y-65952362D01*
X122388228Y-65904577D01*
X122388571Y-65851748D01*
X122387827Y-65785381D01*
X122384748Y-65741106D01*
X122378061Y-65712009D01*
X122366496Y-65691173D01*
X122357013Y-65680107D01*
X122312960Y-65652198D01*
X122262224Y-65648843D01*
X122213796Y-65670159D01*
X122204450Y-65678073D01*
X122188540Y-65695647D01*
X122178610Y-65716587D01*
X122173278Y-65747782D01*
X122171163Y-65796122D01*
X122170857Y-65845647D01*
X122069458Y-65845647D01*
X122072810Y-65758568D01*
X122084726Y-65690086D01*
G36*
X121339744Y-65550968D02*
G01*
X121396616Y-65572087D01*
X121397267Y-65572493D01*
X121432440Y-65598380D01*
X121458407Y-65628633D01*
X121476670Y-65668058D01*
X121488732Y-65721462D01*
X121496096Y-65793651D01*
X121500264Y-65889432D01*
X121500629Y-65903078D01*
X121505876Y-66108842D01*
X121461716Y-66131678D01*
X121429763Y-66147110D01*
X121410470Y-66154423D01*
X121409578Y-66154514D01*
X121406239Y-66141022D01*
X121403587Y-66104626D01*
X121401956Y-66051452D01*
X121401600Y-66008393D01*
X121401592Y-65938641D01*
X121398403Y-65894837D01*
X121387288Y-65873944D01*
X121363501Y-65872925D01*
X121322296Y-65888741D01*
X121260086Y-65917815D01*
X121214341Y-65941963D01*
X121190813Y-65962913D01*
X121183896Y-65985747D01*
X121183886Y-65986877D01*
X121195299Y-66026212D01*
X121229092Y-66047462D01*
X121280809Y-66050539D01*
X121318061Y-66050006D01*
X121337703Y-66060735D01*
X121349952Y-66086505D01*
X121357002Y-66119337D01*
X121346842Y-66137966D01*
X121343017Y-66140632D01*
X121307001Y-66151340D01*
X121256566Y-66152856D01*
X121204626Y-66145759D01*
X121167822Y-66132788D01*
X121116938Y-66089585D01*
X121088014Y-66029446D01*
X121082286Y-65982462D01*
X121086657Y-65940082D01*
X121102475Y-65905488D01*
X121133797Y-65874763D01*
X121184678Y-65843990D01*
X121259176Y-65809252D01*
X121263714Y-65807288D01*
X121330821Y-65776287D01*
X121372232Y-65750862D01*
X121389981Y-65728014D01*
X121386107Y-65704745D01*
X121362643Y-65678056D01*
X121355627Y-65671914D01*
X121308630Y-65648100D01*
X121259933Y-65649103D01*
X121217522Y-65672451D01*
X121189384Y-65715675D01*
X121186769Y-65724160D01*
X121161308Y-65765308D01*
X121129001Y-65785128D01*
X121082286Y-65804770D01*
X121082286Y-65753950D01*
X121096496Y-65680082D01*
X121138675Y-65612327D01*
X121160624Y-65589661D01*
X121210517Y-65560569D01*
X121273967Y-65547400D01*
X121339744Y-65550968D01*
G37*
X121339744Y-65550968D02*
X121396616Y-65572087D01*
X121397267Y-65572493D01*
X121432440Y-65598380D01*
X121458407Y-65628633D01*
X121476670Y-65668058D01*
X121488732Y-65721462D01*
X121496096Y-65793651D01*
X121500264Y-65889432D01*
X121500629Y-65903078D01*
X121505876Y-66108842D01*
X121461716Y-66131678D01*
X121429763Y-66147110D01*
X121410470Y-66154423D01*
X121409578Y-66154514D01*
X121406239Y-66141022D01*
X121403587Y-66104626D01*
X121401956Y-66051452D01*
X121401600Y-66008393D01*
X121401592Y-65938641D01*
X121398403Y-65894837D01*
X121387288Y-65873944D01*
X121363501Y-65872925D01*
X121322296Y-65888741D01*
X121260086Y-65917815D01*
X121214341Y-65941963D01*
X121190813Y-65962913D01*
X121183896Y-65985747D01*
X121183886Y-65986877D01*
X121195299Y-66026212D01*
X121229092Y-66047462D01*
X121280809Y-66050539D01*
X121318061Y-66050006D01*
X121337703Y-66060735D01*
X121349952Y-66086505D01*
X121357002Y-66119337D01*
X121346842Y-66137966D01*
X121343017Y-66140632D01*
X121307001Y-66151340D01*
X121256566Y-66152856D01*
X121204626Y-66145759D01*
X121167822Y-66132788D01*
X121116938Y-66089585D01*
X121088014Y-66029446D01*
X121082286Y-65982462D01*
X121086657Y-65940082D01*
X121102475Y-65905488D01*
X121133797Y-65874763D01*
X121184678Y-65843990D01*
X121259176Y-65809252D01*
X121263714Y-65807288D01*
X121330821Y-65776287D01*
X121372232Y-65750862D01*
X121389981Y-65728014D01*
X121386107Y-65704745D01*
X121362643Y-65678056D01*
X121355627Y-65671914D01*
X121308630Y-65648100D01*
X121259933Y-65649103D01*
X121217522Y-65672451D01*
X121189384Y-65715675D01*
X121186769Y-65724160D01*
X121161308Y-65765308D01*
X121129001Y-65785128D01*
X121082286Y-65804770D01*
X121082286Y-65753950D01*
X121096496Y-65680082D01*
X121138675Y-65612327D01*
X121160624Y-65589661D01*
X121210517Y-65560569D01*
X121273967Y-65547400D01*
X121339744Y-65550968D01*
G36*
X119171550Y-65636212D02*
G01*
X119205456Y-65587302D01*
X119266653Y-65537878D01*
X119334063Y-65513359D01*
X119402880Y-65511797D01*
X119468303Y-65531239D01*
X119525527Y-65569735D01*
X119569749Y-65625335D01*
X119596167Y-65696086D01*
X119601510Y-65748162D01*
X119600903Y-65769893D01*
X119595822Y-65786531D01*
X119581855Y-65801437D01*
X119554589Y-65817973D01*
X119509612Y-65839498D01*
X119442511Y-65869374D01*
X119442171Y-65869524D01*
X119380407Y-65897813D01*
X119329759Y-65922933D01*
X119295404Y-65942179D01*
X119282518Y-65952848D01*
X119282514Y-65952934D01*
X119293872Y-65976166D01*
X119320431Y-66001774D01*
X119350923Y-66020221D01*
X119366370Y-66023886D01*
X119408515Y-66011212D01*
X119444808Y-65979471D01*
X119462517Y-65944572D01*
X119479552Y-65918845D01*
X119512922Y-65889546D01*
X119552149Y-65864235D01*
X119586756Y-65850471D01*
X119593993Y-65849714D01*
X119602139Y-65862160D01*
X119602630Y-65893972D01*
X119596643Y-65936866D01*
X119585357Y-65982558D01*
X119569950Y-66022761D01*
X119569171Y-66024322D01*
X119522804Y-66089062D01*
X119462711Y-66133097D01*
X119394465Y-66154711D01*
X119323638Y-66152185D01*
X119255804Y-66123804D01*
X119252788Y-66121808D01*
X119199427Y-66073448D01*
X119164340Y-66010352D01*
X119144922Y-65927387D01*
X119142316Y-65904078D01*
X119137701Y-65794055D01*
X119143233Y-65742748D01*
X119282514Y-65742748D01*
X119284324Y-65774753D01*
X119294222Y-65784093D01*
X119318898Y-65777105D01*
X119357795Y-65760587D01*
X119401275Y-65739881D01*
X119402356Y-65739333D01*
X119439209Y-65719949D01*
X119454000Y-65707013D01*
X119450353Y-65693451D01*
X119434995Y-65675632D01*
X119395923Y-65649845D01*
X119353846Y-65647950D01*
X119316103Y-65666717D01*
X119290034Y-65702915D01*
X119282514Y-65742748D01*
X119143233Y-65742748D01*
X119147194Y-65706027D01*
X119171550Y-65636212D01*
G37*
X119171550Y-65636212D02*
X119205456Y-65587302D01*
X119266653Y-65537878D01*
X119334063Y-65513359D01*
X119402880Y-65511797D01*
X119468303Y-65531239D01*
X119525527Y-65569735D01*
X119569749Y-65625335D01*
X119596167Y-65696086D01*
X119601510Y-65748162D01*
X119600903Y-65769893D01*
X119595822Y-65786531D01*
X119581855Y-65801437D01*
X119554589Y-65817973D01*
X119509612Y-65839498D01*
X119442511Y-65869374D01*
X119442171Y-65869524D01*
X119380407Y-65897813D01*
X119329759Y-65922933D01*
X119295404Y-65942179D01*
X119282518Y-65952848D01*
X119282514Y-65952934D01*
X119293872Y-65976166D01*
X119320431Y-66001774D01*
X119350923Y-66020221D01*
X119366370Y-66023886D01*
X119408515Y-66011212D01*
X119444808Y-65979471D01*
X119462517Y-65944572D01*
X119479552Y-65918845D01*
X119512922Y-65889546D01*
X119552149Y-65864235D01*
X119586756Y-65850471D01*
X119593993Y-65849714D01*
X119602139Y-65862160D01*
X119602630Y-65893972D01*
X119596643Y-65936866D01*
X119585357Y-65982558D01*
X119569950Y-66022761D01*
X119569171Y-66024322D01*
X119522804Y-66089062D01*
X119462711Y-66133097D01*
X119394465Y-66154711D01*
X119323638Y-66152185D01*
X119255804Y-66123804D01*
X119252788Y-66121808D01*
X119199427Y-66073448D01*
X119164340Y-66010352D01*
X119144922Y-65927387D01*
X119142316Y-65904078D01*
X119137701Y-65794055D01*
X119143233Y-65742748D01*
X119282514Y-65742748D01*
X119284324Y-65774753D01*
X119294222Y-65784093D01*
X119318898Y-65777105D01*
X119357795Y-65760587D01*
X119401275Y-65739881D01*
X119402356Y-65739333D01*
X119439209Y-65719949D01*
X119454000Y-65707013D01*
X119450353Y-65693451D01*
X119434995Y-65675632D01*
X119395923Y-65649845D01*
X119353846Y-65647950D01*
X119316103Y-65666717D01*
X119290034Y-65702915D01*
X119282514Y-65742748D01*
X119143233Y-65742748D01*
X119147194Y-65706027D01*
X119171550Y-65636212D01*
G36*
X123079833Y-65558663D02*
G01*
X123082048Y-65596850D01*
X123083784Y-65654886D01*
X123084899Y-65728180D01*
X123085257Y-65805055D01*
X123085257Y-66065196D01*
X123039326Y-66111127D01*
X123007675Y-66139429D01*
X122979890Y-66150893D01*
X122941915Y-66150168D01*
X122926840Y-66148321D01*
X122879726Y-66142948D01*
X122840756Y-66139869D01*
X122831257Y-66139585D01*
X122799233Y-66141445D01*
X122753432Y-66146114D01*
X122735674Y-66148321D01*
X122692057Y-66151735D01*
X122662745Y-66144320D01*
X122633680Y-66121427D01*
X122623188Y-66111127D01*
X122577257Y-66065196D01*
X122577257Y-65578602D01*
X122614226Y-65561758D01*
X122646059Y-65549282D01*
X122664683Y-65544914D01*
X122669458Y-65558718D01*
X122673921Y-65597286D01*
X122677775Y-65656356D01*
X122680722Y-65731663D01*
X122682143Y-65795286D01*
X122686114Y-66045657D01*
X122720759Y-66050556D01*
X122752268Y-66047131D01*
X122767708Y-66036041D01*
X122772023Y-66015308D01*
X122775708Y-65971145D01*
X122778469Y-65909146D01*
X122780012Y-65834909D01*
X122780235Y-65796706D01*
X122780457Y-65576783D01*
X122826166Y-65560849D01*
X122858518Y-65550015D01*
X122876115Y-65544962D01*
X122876623Y-65544914D01*
X122878388Y-65558648D01*
X122880329Y-65596730D01*
X122882282Y-65654482D01*
X122884084Y-65727227D01*
X122885343Y-65795286D01*
X122889314Y-66045657D01*
X122976400Y-66045657D01*
X122980396Y-65817240D01*
X122984392Y-65588822D01*
X123026847Y-65566868D01*
X123058192Y-65551793D01*
X123076744Y-65544951D01*
X123077279Y-65544914D01*
X123079833Y-65558663D01*
G37*
X123079833Y-65558663D02*
X123082048Y-65596850D01*
X123083784Y-65654886D01*
X123084899Y-65728180D01*
X123085257Y-65805055D01*
X123085257Y-66065196D01*
X123039326Y-66111127D01*
X123007675Y-66139429D01*
X122979890Y-66150893D01*
X122941915Y-66150168D01*
X122926840Y-66148321D01*
X122879726Y-66142948D01*
X122840756Y-66139869D01*
X122831257Y-66139585D01*
X122799233Y-66141445D01*
X122753432Y-66146114D01*
X122735674Y-66148321D01*
X122692057Y-66151735D01*
X122662745Y-66144320D01*
X122633680Y-66121427D01*
X122623188Y-66111127D01*
X122577257Y-66065196D01*
X122577257Y-65578602D01*
X122614226Y-65561758D01*
X122646059Y-65549282D01*
X122664683Y-65544914D01*
X122669458Y-65558718D01*
X122673921Y-65597286D01*
X122677775Y-65656356D01*
X122680722Y-65731663D01*
X122682143Y-65795286D01*
X122686114Y-66045657D01*
X122720759Y-66050556D01*
X122752268Y-66047131D01*
X122767708Y-66036041D01*
X122772023Y-66015308D01*
X122775708Y-65971145D01*
X122778469Y-65909146D01*
X122780012Y-65834909D01*
X122780235Y-65796706D01*
X122780457Y-65576783D01*
X122826166Y-65560849D01*
X122858518Y-65550015D01*
X122876115Y-65544962D01*
X122876623Y-65544914D01*
X122878388Y-65558648D01*
X122880329Y-65596730D01*
X122882282Y-65654482D01*
X122884084Y-65727227D01*
X122885343Y-65795286D01*
X122889314Y-66045657D01*
X122976400Y-66045657D01*
X122980396Y-65817240D01*
X122984392Y-65588822D01*
X123026847Y-65566868D01*
X123058192Y-65551793D01*
X123076744Y-65544951D01*
X123077279Y-65544914D01*
X123079833Y-65558663D01*
G36*
X118037096Y-65708159D02*
G01*
X118042068Y-65671949D01*
X118050713Y-65645299D01*
X118064005Y-65621722D01*
X118066943Y-65617338D01*
X118116313Y-65558249D01*
X118170109Y-65523947D01*
X118235602Y-65510331D01*
X118257842Y-65509665D01*
X118341115Y-65521962D01*
X118409145Y-65557733D01*
X118459351Y-65615301D01*
X118477185Y-65652312D01*
X118491063Y-65707882D01*
X118498167Y-65778096D01*
X118498840Y-65854727D01*
X118493427Y-65929552D01*
X118482270Y-65994342D01*
X118465714Y-66040873D01*
X118460626Y-66048887D01*
X118400355Y-66108707D01*
X118328769Y-66144535D01*
X118251092Y-66155020D01*
X118172548Y-66138810D01*
X118150689Y-66129092D01*
X118108122Y-66099143D01*
X118070763Y-66059433D01*
X118067232Y-66054397D01*
X118052881Y-66030124D01*
X118043394Y-66004178D01*
X118037790Y-65970022D01*
X118035086Y-65921119D01*
X118034299Y-65850935D01*
X118034286Y-65835200D01*
X118034322Y-65830192D01*
X118179429Y-65830192D01*
X118180273Y-65896430D01*
X118183596Y-65940386D01*
X118190583Y-65968779D01*
X118202416Y-65988325D01*
X118208457Y-65994857D01*
X118243186Y-66019680D01*
X118276903Y-66018548D01*
X118310995Y-65997016D01*
X118331329Y-65974029D01*
X118343371Y-65940478D01*
X118350134Y-65887569D01*
X118350598Y-65881399D01*
X118351752Y-65785513D01*
X118339688Y-65714299D01*
X118314570Y-65668194D01*
X118276560Y-65647635D01*
X118262992Y-65646514D01*
X118227364Y-65652152D01*
X118202994Y-65671686D01*
X118188093Y-65709042D01*
X118180875Y-65768150D01*
X118179429Y-65830192D01*
X118034322Y-65830192D01*
X118034826Y-65760413D01*
X118037096Y-65708159D01*
G37*
X118037096Y-65708159D02*
X118042068Y-65671949D01*
X118050713Y-65645299D01*
X118064005Y-65621722D01*
X118066943Y-65617338D01*
X118116313Y-65558249D01*
X118170109Y-65523947D01*
X118235602Y-65510331D01*
X118257842Y-65509665D01*
X118341115Y-65521962D01*
X118409145Y-65557733D01*
X118459351Y-65615301D01*
X118477185Y-65652312D01*
X118491063Y-65707882D01*
X118498167Y-65778096D01*
X118498840Y-65854727D01*
X118493427Y-65929552D01*
X118482270Y-65994342D01*
X118465714Y-66040873D01*
X118460626Y-66048887D01*
X118400355Y-66108707D01*
X118328769Y-66144535D01*
X118251092Y-66155020D01*
X118172548Y-66138810D01*
X118150689Y-66129092D01*
X118108122Y-66099143D01*
X118070763Y-66059433D01*
X118067232Y-66054397D01*
X118052881Y-66030124D01*
X118043394Y-66004178D01*
X118037790Y-65970022D01*
X118035086Y-65921119D01*
X118034299Y-65850935D01*
X118034286Y-65835200D01*
X118034322Y-65830192D01*
X118179429Y-65830192D01*
X118180273Y-65896430D01*
X118183596Y-65940386D01*
X118190583Y-65968779D01*
X118202416Y-65988325D01*
X118208457Y-65994857D01*
X118243186Y-66019680D01*
X118276903Y-66018548D01*
X118310995Y-65997016D01*
X118331329Y-65974029D01*
X118343371Y-65940478D01*
X118350134Y-65887569D01*
X118350598Y-65881399D01*
X118351752Y-65785513D01*
X118339688Y-65714299D01*
X118314570Y-65668194D01*
X118276560Y-65647635D01*
X118262992Y-65646514D01*
X118227364Y-65652152D01*
X118202994Y-65671686D01*
X118188093Y-65709042D01*
X118180875Y-65768150D01*
X118179429Y-65830192D01*
X118034322Y-65830192D01*
X118034826Y-65760413D01*
X118037096Y-65708159D01*
G36*
X120675886Y-65451289D02*
G01*
X120680139Y-65510613D01*
X120685025Y-65545572D01*
X120691795Y-65560820D01*
X120701702Y-65561015D01*
X120704914Y-65559195D01*
X120747644Y-65546015D01*
X120803227Y-65546785D01*
X120859737Y-65560333D01*
X120895082Y-65577861D01*
X120931321Y-65605861D01*
X120957813Y-65637549D01*
X120975999Y-65677813D01*
X120987322Y-65731543D01*
X120993222Y-65803626D01*
X120995143Y-65898951D01*
X120995177Y-65917237D01*
X120995200Y-66122646D01*
X120949491Y-66138580D01*
X120917027Y-66149420D01*
X120899215Y-66154468D01*
X120898691Y-66154514D01*
X120896937Y-66140828D01*
X120895444Y-66103076D01*
X120894326Y-66046224D01*
X120893697Y-65975234D01*
X120893600Y-65932073D01*
X120893398Y-65846973D01*
X120892358Y-65785981D01*
X120889831Y-65744177D01*
X120885164Y-65716642D01*
X120877707Y-65698456D01*
X120866811Y-65684698D01*
X120860007Y-65678073D01*
X120813272Y-65651375D01*
X120762272Y-65649375D01*
X120716001Y-65671955D01*
X120707444Y-65680107D01*
X120694893Y-65695436D01*
X120686188Y-65713618D01*
X120680631Y-65739909D01*
X120677526Y-65779562D01*
X120676176Y-65837832D01*
X120675886Y-65918173D01*
X120675886Y-66122646D01*
X120630177Y-66138580D01*
X120597713Y-66149420D01*
X120579901Y-66154468D01*
X120579377Y-66154514D01*
X120578037Y-66140623D01*
X120576828Y-66101439D01*
X120575801Y-66040700D01*
X120575002Y-65962141D01*
X120574481Y-65869498D01*
X120574286Y-65766509D01*
X120574286Y-65369342D01*
X120621457Y-65349444D01*
X120668629Y-65329547D01*
X120675886Y-65451289D01*
G37*
X120675886Y-65451289D02*
X120680139Y-65510613D01*
X120685025Y-65545572D01*
X120691795Y-65560820D01*
X120701702Y-65561015D01*
X120704914Y-65559195D01*
X120747644Y-65546015D01*
X120803227Y-65546785D01*
X120859737Y-65560333D01*
X120895082Y-65577861D01*
X120931321Y-65605861D01*
X120957813Y-65637549D01*
X120975999Y-65677813D01*
X120987322Y-65731543D01*
X120993222Y-65803626D01*
X120995143Y-65898951D01*
X120995177Y-65917237D01*
X120995200Y-66122646D01*
X120949491Y-66138580D01*
X120917027Y-66149420D01*
X120899215Y-66154468D01*
X120898691Y-66154514D01*
X120896937Y-66140828D01*
X120895444Y-66103076D01*
X120894326Y-66046224D01*
X120893697Y-65975234D01*
X120893600Y-65932073D01*
X120893398Y-65846973D01*
X120892358Y-65785981D01*
X120889831Y-65744177D01*
X120885164Y-65716642D01*
X120877707Y-65698456D01*
X120866811Y-65684698D01*
X120860007Y-65678073D01*
X120813272Y-65651375D01*
X120762272Y-65649375D01*
X120716001Y-65671955D01*
X120707444Y-65680107D01*
X120694893Y-65695436D01*
X120686188Y-65713618D01*
X120680631Y-65739909D01*
X120677526Y-65779562D01*
X120676176Y-65837832D01*
X120675886Y-65918173D01*
X120675886Y-66122646D01*
X120630177Y-66138580D01*
X120597713Y-66149420D01*
X120579901Y-66154468D01*
X120579377Y-66154514D01*
X120578037Y-66140623D01*
X120576828Y-66101439D01*
X120575801Y-66040700D01*
X120575002Y-65962141D01*
X120574481Y-65869498D01*
X120574286Y-65766509D01*
X120574286Y-65369342D01*
X120621457Y-65349444D01*
X120668629Y-65329547D01*
X120675886Y-65451289D01*
G36*
X123952600Y-65558752D02*
G01*
X123969948Y-65566334D01*
X124011356Y-65599128D01*
X124046765Y-65646547D01*
X124068664Y-65697151D01*
X124072229Y-65722098D01*
X124060279Y-65756927D01*
X124034067Y-65775357D01*
X124005964Y-65786516D01*
X123993095Y-65788572D01*
X123986829Y-65773649D01*
X123974456Y-65741175D01*
X123969028Y-65726502D01*
X123938590Y-65675744D01*
X123894520Y-65650427D01*
X123838010Y-65651206D01*
X123833825Y-65652203D01*
X123803655Y-65666507D01*
X123781476Y-65694393D01*
X123766327Y-65739287D01*
X123757250Y-65804615D01*
X123753286Y-65893804D01*
X123752914Y-65941261D01*
X123752730Y-66016071D01*
X123751522Y-66067069D01*
X123748309Y-66099471D01*
X123742109Y-66118495D01*
X123731940Y-66129356D01*
X123716819Y-66137272D01*
X123715946Y-66137670D01*
X123686828Y-66149981D01*
X123672403Y-66154514D01*
X123670186Y-66140809D01*
X123668289Y-66102925D01*
X123666847Y-66045715D01*
X123665998Y-65974027D01*
X123665829Y-65921565D01*
X123666692Y-65820047D01*
X123670070Y-65743032D01*
X123677142Y-65686023D01*
X123689088Y-65644526D01*
X123707090Y-65614043D01*
X123732327Y-65590080D01*
X123757247Y-65573355D01*
X123817171Y-65551097D01*
X123886911Y-65546076D01*
X123952600Y-65558752D01*
G37*
X123952600Y-65558752D02*
X123969948Y-65566334D01*
X124011356Y-65599128D01*
X124046765Y-65646547D01*
X124068664Y-65697151D01*
X124072229Y-65722098D01*
X124060279Y-65756927D01*
X124034067Y-65775357D01*
X124005964Y-65786516D01*
X123993095Y-65788572D01*
X123986829Y-65773649D01*
X123974456Y-65741175D01*
X123969028Y-65726502D01*
X123938590Y-65675744D01*
X123894520Y-65650427D01*
X123838010Y-65651206D01*
X123833825Y-65652203D01*
X123803655Y-65666507D01*
X123781476Y-65694393D01*
X123766327Y-65739287D01*
X123757250Y-65804615D01*
X123753286Y-65893804D01*
X123752914Y-65941261D01*
X123752730Y-66016071D01*
X123751522Y-66067069D01*
X123748309Y-66099471D01*
X123742109Y-66118495D01*
X123731940Y-66129356D01*
X123716819Y-66137272D01*
X123715946Y-66137670D01*
X123686828Y-66149981D01*
X123672403Y-66154514D01*
X123670186Y-66140809D01*
X123668289Y-66102925D01*
X123666847Y-66045715D01*
X123665998Y-65974027D01*
X123665829Y-65921565D01*
X123666692Y-65820047D01*
X123670070Y-65743032D01*
X123677142Y-65686023D01*
X123689088Y-65644526D01*
X123707090Y-65614043D01*
X123732327Y-65590080D01*
X123757247Y-65573355D01*
X123817171Y-65551097D01*
X123886911Y-65546076D01*
X123952600Y-65558752D01*
G36*
X120016093Y-65527780D02*
G01*
X120062672Y-65554723D01*
X120095057Y-65581466D01*
X120118742Y-65609484D01*
X120135059Y-65643748D01*
X120145339Y-65689227D01*
X120150914Y-65750892D01*
X120153116Y-65833711D01*
X120153371Y-65893246D01*
X120153371Y-66112391D01*
X120091686Y-66140044D01*
X120030000Y-66167697D01*
X120022743Y-65927670D01*
X120019744Y-65838028D01*
X120016598Y-65772962D01*
X120012701Y-65728026D01*
X120007447Y-65698770D01*
X120000231Y-65680748D01*
X119990450Y-65669511D01*
X119987312Y-65667079D01*
X119939761Y-65648083D01*
X119891697Y-65655600D01*
X119863086Y-65675543D01*
X119851447Y-65689675D01*
X119843391Y-65708220D01*
X119838271Y-65736334D01*
X119835441Y-65779173D01*
X119834256Y-65841895D01*
X119834057Y-65907261D01*
X119834018Y-65989268D01*
X119832614Y-66047316D01*
X119827914Y-66086465D01*
X119817987Y-66111780D01*
X119800903Y-66128323D01*
X119774732Y-66141156D01*
X119739775Y-66154491D01*
X119701596Y-66169007D01*
X119706141Y-65911389D01*
X119707971Y-65818519D01*
X119710112Y-65749889D01*
X119713181Y-65700711D01*
X119717794Y-65666198D01*
X119724568Y-65641562D01*
X119734119Y-65622016D01*
X119745634Y-65604770D01*
X119801190Y-65549680D01*
X119868980Y-65517822D01*
X119942713Y-65510191D01*
X120016093Y-65527780D01*
G37*
X120016093Y-65527780D02*
X120062672Y-65554723D01*
X120095057Y-65581466D01*
X120118742Y-65609484D01*
X120135059Y-65643748D01*
X120145339Y-65689227D01*
X120150914Y-65750892D01*
X120153116Y-65833711D01*
X120153371Y-65893246D01*
X120153371Y-66112391D01*
X120091686Y-66140044D01*
X120030000Y-66167697D01*
X120022743Y-65927670D01*
X120019744Y-65838028D01*
X120016598Y-65772962D01*
X120012701Y-65728026D01*
X120007447Y-65698770D01*
X120000231Y-65680748D01*
X119990450Y-65669511D01*
X119987312Y-65667079D01*
X119939761Y-65648083D01*
X119891697Y-65655600D01*
X119863086Y-65675543D01*
X119851447Y-65689675D01*
X119843391Y-65708220D01*
X119838271Y-65736334D01*
X119835441Y-65779173D01*
X119834256Y-65841895D01*
X119834057Y-65907261D01*
X119834018Y-65989268D01*
X119832614Y-66047316D01*
X119827914Y-66086465D01*
X119817987Y-66111780D01*
X119800903Y-66128323D01*
X119774732Y-66141156D01*
X119739775Y-66154491D01*
X119701596Y-66169007D01*
X119706141Y-65911389D01*
X119707971Y-65818519D01*
X119710112Y-65749889D01*
X119713181Y-65700711D01*
X119717794Y-65666198D01*
X119724568Y-65641562D01*
X119734119Y-65622016D01*
X119745634Y-65604770D01*
X119801190Y-65549680D01*
X119868980Y-65517822D01*
X119942713Y-65510191D01*
X120016093Y-65527780D01*
G36*
X121403910Y-60842348D02*
G01*
X121482454Y-60842778D01*
X121539298Y-60843942D01*
X121578105Y-60846207D01*
X121602538Y-60849940D01*
X121616262Y-60855506D01*
X121622940Y-60863273D01*
X121626236Y-60873605D01*
X121626556Y-60874943D01*
X121631562Y-60899079D01*
X121640829Y-60946701D01*
X121653392Y-61012741D01*
X121668287Y-61092128D01*
X121684551Y-61179796D01*
X121685119Y-61182875D01*
X121701410Y-61268789D01*
X121716652Y-61344696D01*
X121729861Y-61406045D01*
X121740054Y-61448282D01*
X121746248Y-61466855D01*
X121746543Y-61467184D01*
X121764788Y-61476253D01*
X121802405Y-61491367D01*
X121851271Y-61509262D01*
X121851543Y-61509358D01*
X121913093Y-61532493D01*
X121985657Y-61561965D01*
X122054057Y-61591597D01*
X122057294Y-61593062D01*
X122168702Y-61643626D01*
X122415399Y-61475160D01*
X122491077Y-61423803D01*
X122559631Y-61377889D01*
X122617088Y-61340030D01*
X122659476Y-61312837D01*
X122682825Y-61298921D01*
X122685042Y-61297889D01*
X122702010Y-61302484D01*
X122733701Y-61324655D01*
X122781352Y-61365447D01*
X122846198Y-61425905D01*
X122912397Y-61490227D01*
X122976214Y-61553612D01*
X123033329Y-61611451D01*
X123080305Y-61660175D01*
X123113703Y-61696210D01*
X123130085Y-61715984D01*
X123130694Y-61717002D01*
X123132505Y-61730572D01*
X123125683Y-61752733D01*
X123108540Y-61786478D01*
X123079393Y-61834800D01*
X123036555Y-61900692D01*
X122979448Y-61985517D01*
X122928766Y-62060177D01*
X122883461Y-62127140D01*
X122846150Y-62182516D01*
X122819452Y-62222420D01*
X122805985Y-62242962D01*
X122805137Y-62244356D01*
X122806781Y-62264038D01*
X122819245Y-62302293D01*
X122840048Y-62351889D01*
X122847462Y-62367728D01*
X122879814Y-62438290D01*
X122914328Y-62518353D01*
X122942365Y-62587629D01*
X122962568Y-62639045D01*
X122978615Y-62678119D01*
X122987888Y-62698541D01*
X122989041Y-62700114D01*
X123006096Y-62702721D01*
X123046298Y-62709863D01*
X123104302Y-62720523D01*
X123174763Y-62733685D01*
X123252335Y-62748333D01*
X123331672Y-62763449D01*
X123407431Y-62778018D01*
X123474264Y-62791022D01*
X123526828Y-62801445D01*
X123559776Y-62808270D01*
X123567857Y-62810199D01*
X123576205Y-62814962D01*
X123582506Y-62825718D01*
X123587045Y-62846098D01*
X123590104Y-62879734D01*
X123591967Y-62930255D01*
X123592918Y-63001292D01*
X123593240Y-63096476D01*
X123593257Y-63135492D01*
X123593257Y-63452799D01*
X123517057Y-63467839D01*
X123474663Y-63475995D01*
X123411400Y-63487899D01*
X123334962Y-63502116D01*
X123253043Y-63517210D01*
X123230400Y-63521355D01*
X123154806Y-63536053D01*
X123088953Y-63550505D01*
X123038366Y-63563375D01*
X123008574Y-63573322D01*
X123003612Y-63576287D01*
X122991426Y-63597283D01*
X122973953Y-63637967D01*
X122954577Y-63690322D01*
X122950734Y-63701600D01*
X122925339Y-63771523D01*
X122893817Y-63850418D01*
X122862969Y-63921266D01*
X122862817Y-63921595D01*
X122811447Y-64032733D01*
X122980399Y-64281253D01*
X123149352Y-64529772D01*
X122932429Y-64747058D01*
X122866819Y-64811726D01*
X122806979Y-64868733D01*
X122756267Y-64915033D01*
X122718046Y-64947584D01*
X122695675Y-64963343D01*
X122692466Y-64964343D01*
X122673626Y-64956469D01*
X122635180Y-64934578D01*
X122581330Y-64901267D01*
X122516276Y-64859131D01*
X122445940Y-64811943D01*
X122374555Y-64763810D01*
X122310908Y-64721928D01*
X122259041Y-64688871D01*
X122222995Y-64667218D01*
X122206867Y-64659543D01*
X122187189Y-64666037D01*
X122149875Y-64683150D01*
X122102621Y-64707326D01*
X122097612Y-64710013D01*
X122033977Y-64741927D01*
X121990341Y-64757579D01*
X121963202Y-64757745D01*
X121949057Y-64743204D01*
X121948975Y-64743000D01*
X121941905Y-64725779D01*
X121925042Y-64684899D01*
X121899695Y-64623525D01*
X121867171Y-64544819D01*
X121828778Y-64451947D01*
X121785822Y-64348072D01*
X121744222Y-64247502D01*
X121698504Y-64136516D01*
X121656526Y-64033703D01*
X121619548Y-63942215D01*
X121588827Y-63865201D01*
X121565622Y-63805815D01*
X121551190Y-63767209D01*
X121546743Y-63752800D01*
X121557896Y-63736272D01*
X121587069Y-63709930D01*
X121625971Y-63680887D01*
X121736757Y-63589039D01*
X121823351Y-63483759D01*
X121884716Y-63367266D01*
X121919815Y-63241776D01*
X121927608Y-63109507D01*
X121921943Y-63048457D01*
X121891078Y-62921795D01*
X121837920Y-62809941D01*
X121765767Y-62714001D01*
X121677917Y-62635076D01*
X121577665Y-62574270D01*
X121468310Y-62532687D01*
X121353147Y-62511428D01*
X121235475Y-62511599D01*
X121118590Y-62534301D01*
X121005789Y-62580638D01*
X120900369Y-62651713D01*
X120856368Y-62691911D01*
X120771979Y-62795129D01*
X120713222Y-62907925D01*
X120679704Y-63027010D01*
X120671035Y-63149095D01*
X120686823Y-63270893D01*
X120726678Y-63389116D01*
X120790207Y-63500475D01*
X120877021Y-63601684D01*
X120974029Y-63680887D01*
X121014437Y-63711162D01*
X121042982Y-63737219D01*
X121053257Y-63752825D01*
X121047877Y-63769843D01*
X121032575Y-63810500D01*
X121008612Y-63871642D01*
X120977244Y-63950119D01*
X120939732Y-64042780D01*
X120897333Y-64146472D01*
X120855663Y-64247526D01*
X120809690Y-64358607D01*
X120767107Y-64461541D01*
X120729221Y-64553165D01*
X120697340Y-64630316D01*
X120672771Y-64689831D01*
X120656820Y-64728544D01*
X120650910Y-64743000D01*
X120636948Y-64757685D01*
X120609940Y-64757642D01*
X120566413Y-64742099D01*
X120502890Y-64710284D01*
X120502388Y-64710013D01*
X120454560Y-64685323D01*
X120415897Y-64667338D01*
X120394095Y-64659614D01*
X120393133Y-64659543D01*
X120376721Y-64667378D01*
X120340487Y-64689165D01*
X120288474Y-64722328D01*
X120224725Y-64764291D01*
X120154060Y-64811943D01*
X120082116Y-64860191D01*
X120017274Y-64902151D01*
X119963735Y-64935227D01*
X119925697Y-64956821D01*
X119907533Y-64964343D01*
X119890808Y-64954457D01*
X119857180Y-64926826D01*
X119810010Y-64884495D01*
X119752658Y-64830505D01*
X119688484Y-64767899D01*
X119667497Y-64746983D01*
X119450499Y-64529623D01*
X119615668Y-64287220D01*
X119665864Y-64212781D01*
X119709919Y-64145972D01*
X119745362Y-64090665D01*
X119769719Y-64050729D01*
X119780522Y-64030036D01*
X119780838Y-64028563D01*
X119775143Y-64009058D01*
X119759826Y-63969822D01*
X119737537Y-63917430D01*
X119721893Y-63882355D01*
X119692641Y-63815201D01*
X119665094Y-63747358D01*
X119643737Y-63690034D01*
X119637935Y-63672572D01*
X119621452Y-63625938D01*
X119605340Y-63589905D01*
X119596490Y-63576287D01*
X119576960Y-63567952D01*
X119534334Y-63556137D01*
X119474145Y-63542181D01*
X119401922Y-63527422D01*
X119369600Y-63521355D01*
X119287522Y-63506273D01*
X119208795Y-63491669D01*
X119141109Y-63478980D01*
X119092160Y-63469642D01*
X119082943Y-63467839D01*
X119006743Y-63452799D01*
X119006743Y-63135492D01*
X119006914Y-63031154D01*
X119007616Y-62952213D01*
X119009134Y-62895038D01*
X119011749Y-62855999D01*
X119015746Y-62831465D01*
X119021409Y-62817805D01*
X119029020Y-62811389D01*
X119032143Y-62810199D01*
X119050978Y-62805980D01*
X119092588Y-62797562D01*
X119151630Y-62785961D01*
X119222757Y-62772195D01*
X119300625Y-62757280D01*
X119379887Y-62742232D01*
X119455198Y-62728069D01*
X119521213Y-62715806D01*
X119572587Y-62706461D01*
X119603975Y-62701050D01*
X119610959Y-62700114D01*
X119617285Y-62687596D01*
X119631290Y-62654246D01*
X119650355Y-62606377D01*
X119657634Y-62587629D01*
X119686996Y-62515195D01*
X119721571Y-62435170D01*
X119752537Y-62367728D01*
X119775323Y-62316159D01*
X119790482Y-62273785D01*
X119795542Y-62247834D01*
X119794736Y-62244356D01*
X119784041Y-62227936D01*
X119759620Y-62191417D01*
X119724095Y-62138687D01*
X119680087Y-62073635D01*
X119630217Y-62000151D01*
X119620356Y-61985645D01*
X119562492Y-61899704D01*
X119519956Y-61834261D01*
X119491054Y-61786304D01*
X119474090Y-61752820D01*
X119467367Y-61730795D01*
X119469190Y-61717217D01*
X119469236Y-61717131D01*
X119483586Y-61699297D01*
X119515323Y-61664817D01*
X119561010Y-61617268D01*
X119617204Y-61560222D01*
X119680468Y-61497255D01*
X119687602Y-61490227D01*
X119767330Y-61413020D01*
X119828857Y-61356330D01*
X119873421Y-61319110D01*
X119902257Y-61300315D01*
X119914958Y-61297889D01*
X119933494Y-61308471D01*
X119971961Y-61332916D01*
X120026386Y-61368612D01*
X120092798Y-61412947D01*
X120167225Y-61463311D01*
X120184601Y-61475160D01*
X120431297Y-61643626D01*
X120542706Y-61593062D01*
X120610457Y-61563595D01*
X120683183Y-61533959D01*
X120745703Y-61510330D01*
X120748457Y-61509358D01*
X120797360Y-61491457D01*
X120835057Y-61476320D01*
X120853425Y-61467210D01*
X120853456Y-61467184D01*
X120859285Y-61450717D01*
X120869192Y-61410219D01*
X120882195Y-61350242D01*
X120897309Y-61275340D01*
X120913552Y-61190064D01*
X120914881Y-61182875D01*
X120931175Y-61095014D01*
X120946133Y-61015260D01*
X120958791Y-60948681D01*
X120968186Y-60900347D01*
X120973354Y-60875325D01*
X120973444Y-60874943D01*
X120976589Y-60864299D01*
X120982704Y-60856262D01*
X120995453Y-60850467D01*
X121018500Y-60846547D01*
X121055509Y-60844135D01*
X121110144Y-60842865D01*
X121186067Y-60842371D01*
X121286944Y-60842286D01*
X121300000Y-60842286D01*
X121403910Y-60842348D01*
G37*
X121403910Y-60842348D02*
X121482454Y-60842778D01*
X121539298Y-60843942D01*
X121578105Y-60846207D01*
X121602538Y-60849940D01*
X121616262Y-60855506D01*
X121622940Y-60863273D01*
X121626236Y-60873605D01*
X121626556Y-60874943D01*
X121631562Y-60899079D01*
X121640829Y-60946701D01*
X121653392Y-61012741D01*
X121668287Y-61092128D01*
X121684551Y-61179796D01*
X121685119Y-61182875D01*
X121701410Y-61268789D01*
X121716652Y-61344696D01*
X121729861Y-61406045D01*
X121740054Y-61448282D01*
X121746248Y-61466855D01*
X121746543Y-61467184D01*
X121764788Y-61476253D01*
X121802405Y-61491367D01*
X121851271Y-61509262D01*
X121851543Y-61509358D01*
X121913093Y-61532493D01*
X121985657Y-61561965D01*
X122054057Y-61591597D01*
X122057294Y-61593062D01*
X122168702Y-61643626D01*
X122415399Y-61475160D01*
X122491077Y-61423803D01*
X122559631Y-61377889D01*
X122617088Y-61340030D01*
X122659476Y-61312837D01*
X122682825Y-61298921D01*
X122685042Y-61297889D01*
X122702010Y-61302484D01*
X122733701Y-61324655D01*
X122781352Y-61365447D01*
X122846198Y-61425905D01*
X122912397Y-61490227D01*
X122976214Y-61553612D01*
X123033329Y-61611451D01*
X123080305Y-61660175D01*
X123113703Y-61696210D01*
X123130085Y-61715984D01*
X123130694Y-61717002D01*
X123132505Y-61730572D01*
X123125683Y-61752733D01*
X123108540Y-61786478D01*
X123079393Y-61834800D01*
X123036555Y-61900692D01*
X122979448Y-61985517D01*
X122928766Y-62060177D01*
X122883461Y-62127140D01*
X122846150Y-62182516D01*
X122819452Y-62222420D01*
X122805985Y-62242962D01*
X122805137Y-62244356D01*
X122806781Y-62264038D01*
X122819245Y-62302293D01*
X122840048Y-62351889D01*
X122847462Y-62367728D01*
X122879814Y-62438290D01*
X122914328Y-62518353D01*
X122942365Y-62587629D01*
X122962568Y-62639045D01*
X122978615Y-62678119D01*
X122987888Y-62698541D01*
X122989041Y-62700114D01*
X123006096Y-62702721D01*
X123046298Y-62709863D01*
X123104302Y-62720523D01*
X123174763Y-62733685D01*
X123252335Y-62748333D01*
X123331672Y-62763449D01*
X123407431Y-62778018D01*
X123474264Y-62791022D01*
X123526828Y-62801445D01*
X123559776Y-62808270D01*
X123567857Y-62810199D01*
X123576205Y-62814962D01*
X123582506Y-62825718D01*
X123587045Y-62846098D01*
X123590104Y-62879734D01*
X123591967Y-62930255D01*
X123592918Y-63001292D01*
X123593240Y-63096476D01*
X123593257Y-63135492D01*
X123593257Y-63452799D01*
X123517057Y-63467839D01*
X123474663Y-63475995D01*
X123411400Y-63487899D01*
X123334962Y-63502116D01*
X123253043Y-63517210D01*
X123230400Y-63521355D01*
X123154806Y-63536053D01*
X123088953Y-63550505D01*
X123038366Y-63563375D01*
X123008574Y-63573322D01*
X123003612Y-63576287D01*
X122991426Y-63597283D01*
X122973953Y-63637967D01*
X122954577Y-63690322D01*
X122950734Y-63701600D01*
X122925339Y-63771523D01*
X122893817Y-63850418D01*
X122862969Y-63921266D01*
X122862817Y-63921595D01*
X122811447Y-64032733D01*
X122980399Y-64281253D01*
X123149352Y-64529772D01*
X122932429Y-64747058D01*
X122866819Y-64811726D01*
X122806979Y-64868733D01*
X122756267Y-64915033D01*
X122718046Y-64947584D01*
X122695675Y-64963343D01*
X122692466Y-64964343D01*
X122673626Y-64956469D01*
X122635180Y-64934578D01*
X122581330Y-64901267D01*
X122516276Y-64859131D01*
X122445940Y-64811943D01*
X122374555Y-64763810D01*
X122310908Y-64721928D01*
X122259041Y-64688871D01*
X122222995Y-64667218D01*
X122206867Y-64659543D01*
X122187189Y-64666037D01*
X122149875Y-64683150D01*
X122102621Y-64707326D01*
X122097612Y-64710013D01*
X122033977Y-64741927D01*
X121990341Y-64757579D01*
X121963202Y-64757745D01*
X121949057Y-64743204D01*
X121948975Y-64743000D01*
X121941905Y-64725779D01*
X121925042Y-64684899D01*
X121899695Y-64623525D01*
X121867171Y-64544819D01*
X121828778Y-64451947D01*
X121785822Y-64348072D01*
X121744222Y-64247502D01*
X121698504Y-64136516D01*
X121656526Y-64033703D01*
X121619548Y-63942215D01*
X121588827Y-63865201D01*
X121565622Y-63805815D01*
X121551190Y-63767209D01*
X121546743Y-63752800D01*
X121557896Y-63736272D01*
X121587069Y-63709930D01*
X121625971Y-63680887D01*
X121736757Y-63589039D01*
X121823351Y-63483759D01*
X121884716Y-63367266D01*
X121919815Y-63241776D01*
X121927608Y-63109507D01*
X121921943Y-63048457D01*
X121891078Y-62921795D01*
X121837920Y-62809941D01*
X121765767Y-62714001D01*
X121677917Y-62635076D01*
X121577665Y-62574270D01*
X121468310Y-62532687D01*
X121353147Y-62511428D01*
X121235475Y-62511599D01*
X121118590Y-62534301D01*
X121005789Y-62580638D01*
X120900369Y-62651713D01*
X120856368Y-62691911D01*
X120771979Y-62795129D01*
X120713222Y-62907925D01*
X120679704Y-63027010D01*
X120671035Y-63149095D01*
X120686823Y-63270893D01*
X120726678Y-63389116D01*
X120790207Y-63500475D01*
X120877021Y-63601684D01*
X120974029Y-63680887D01*
X121014437Y-63711162D01*
X121042982Y-63737219D01*
X121053257Y-63752825D01*
X121047877Y-63769843D01*
X121032575Y-63810500D01*
X121008612Y-63871642D01*
X120977244Y-63950119D01*
X120939732Y-64042780D01*
X120897333Y-64146472D01*
X120855663Y-64247526D01*
X120809690Y-64358607D01*
X120767107Y-64461541D01*
X120729221Y-64553165D01*
X120697340Y-64630316D01*
X120672771Y-64689831D01*
X120656820Y-64728544D01*
X120650910Y-64743000D01*
X120636948Y-64757685D01*
X120609940Y-64757642D01*
X120566413Y-64742099D01*
X120502890Y-64710284D01*
X120502388Y-64710013D01*
X120454560Y-64685323D01*
X120415897Y-64667338D01*
X120394095Y-64659614D01*
X120393133Y-64659543D01*
X120376721Y-64667378D01*
X120340487Y-64689165D01*
X120288474Y-64722328D01*
X120224725Y-64764291D01*
X120154060Y-64811943D01*
X120082116Y-64860191D01*
X120017274Y-64902151D01*
X119963735Y-64935227D01*
X119925697Y-64956821D01*
X119907533Y-64964343D01*
X119890808Y-64954457D01*
X119857180Y-64926826D01*
X119810010Y-64884495D01*
X119752658Y-64830505D01*
X119688484Y-64767899D01*
X119667497Y-64746983D01*
X119450499Y-64529623D01*
X119615668Y-64287220D01*
X119665864Y-64212781D01*
X119709919Y-64145972D01*
X119745362Y-64090665D01*
X119769719Y-64050729D01*
X119780522Y-64030036D01*
X119780838Y-64028563D01*
X119775143Y-64009058D01*
X119759826Y-63969822D01*
X119737537Y-63917430D01*
X119721893Y-63882355D01*
X119692641Y-63815201D01*
X119665094Y-63747358D01*
X119643737Y-63690034D01*
X119637935Y-63672572D01*
X119621452Y-63625938D01*
X119605340Y-63589905D01*
X119596490Y-63576287D01*
X119576960Y-63567952D01*
X119534334Y-63556137D01*
X119474145Y-63542181D01*
X119401922Y-63527422D01*
X119369600Y-63521355D01*
X119287522Y-63506273D01*
X119208795Y-63491669D01*
X119141109Y-63478980D01*
X119092160Y-63469642D01*
X119082943Y-63467839D01*
X119006743Y-63452799D01*
X119006743Y-63135492D01*
X119006914Y-63031154D01*
X119007616Y-62952213D01*
X119009134Y-62895038D01*
X119011749Y-62855999D01*
X119015746Y-62831465D01*
X119021409Y-62817805D01*
X119029020Y-62811389D01*
X119032143Y-62810199D01*
X119050978Y-62805980D01*
X119092588Y-62797562D01*
X119151630Y-62785961D01*
X119222757Y-62772195D01*
X119300625Y-62757280D01*
X119379887Y-62742232D01*
X119455198Y-62728069D01*
X119521213Y-62715806D01*
X119572587Y-62706461D01*
X119603975Y-62701050D01*
X119610959Y-62700114D01*
X119617285Y-62687596D01*
X119631290Y-62654246D01*
X119650355Y-62606377D01*
X119657634Y-62587629D01*
X119686996Y-62515195D01*
X119721571Y-62435170D01*
X119752537Y-62367728D01*
X119775323Y-62316159D01*
X119790482Y-62273785D01*
X119795542Y-62247834D01*
X119794736Y-62244356D01*
X119784041Y-62227936D01*
X119759620Y-62191417D01*
X119724095Y-62138687D01*
X119680087Y-62073635D01*
X119630217Y-62000151D01*
X119620356Y-61985645D01*
X119562492Y-61899704D01*
X119519956Y-61834261D01*
X119491054Y-61786304D01*
X119474090Y-61752820D01*
X119467367Y-61730795D01*
X119469190Y-61717217D01*
X119469236Y-61717131D01*
X119483586Y-61699297D01*
X119515323Y-61664817D01*
X119561010Y-61617268D01*
X119617204Y-61560222D01*
X119680468Y-61497255D01*
X119687602Y-61490227D01*
X119767330Y-61413020D01*
X119828857Y-61356330D01*
X119873421Y-61319110D01*
X119902257Y-61300315D01*
X119914958Y-61297889D01*
X119933494Y-61308471D01*
X119971961Y-61332916D01*
X120026386Y-61368612D01*
X120092798Y-61412947D01*
X120167225Y-61463311D01*
X120184601Y-61475160D01*
X120431297Y-61643626D01*
X120542706Y-61593062D01*
X120610457Y-61563595D01*
X120683183Y-61533959D01*
X120745703Y-61510330D01*
X120748457Y-61509358D01*
X120797360Y-61491457D01*
X120835057Y-61476320D01*
X120853425Y-61467210D01*
X120853456Y-61467184D01*
X120859285Y-61450717D01*
X120869192Y-61410219D01*
X120882195Y-61350242D01*
X120897309Y-61275340D01*
X120913552Y-61190064D01*
X120914881Y-61182875D01*
X120931175Y-61095014D01*
X120946133Y-61015260D01*
X120958791Y-60948681D01*
X120968186Y-60900347D01*
X120973354Y-60875325D01*
X120973444Y-60874943D01*
X120976589Y-60864299D01*
X120982704Y-60856262D01*
X120995453Y-60850467D01*
X121018500Y-60846547D01*
X121055509Y-60844135D01*
X121110144Y-60842865D01*
X121186067Y-60842371D01*
X121286944Y-60842286D01*
X121300000Y-60842286D01*
X121403910Y-60842348D01*
G36*
X118593677Y-65750333D02*
G01*
X118596450Y-65702958D01*
X118600388Y-65669290D01*
X118605849Y-65645498D01*
X118613192Y-65627753D01*
X118622777Y-65612224D01*
X118626887Y-65606381D01*
X118681405Y-65551185D01*
X118750336Y-65519890D01*
X118830072Y-65511165D01*
X118899744Y-65519918D01*
X118955201Y-65547568D01*
X119004148Y-65598480D01*
X119017629Y-65617338D01*
X119032314Y-65642015D01*
X119041842Y-65668816D01*
X119047293Y-65704587D01*
X119049747Y-65756169D01*
X119050286Y-65824267D01*
X119047852Y-65917588D01*
X119039394Y-65987657D01*
X119023174Y-66039931D01*
X118997454Y-66079869D01*
X118960497Y-66112929D01*
X118957782Y-66114886D01*
X118921360Y-66134908D01*
X118877502Y-66144815D01*
X118821724Y-66147257D01*
X118731048Y-66147257D01*
X118731010Y-66235283D01*
X118730166Y-66284308D01*
X118725024Y-66313065D01*
X118711587Y-66330311D01*
X118685858Y-66344808D01*
X118679679Y-66347769D01*
X118650764Y-66361648D01*
X118628376Y-66370414D01*
X118611729Y-66371171D01*
X118600036Y-66361023D01*
X118592510Y-66337073D01*
X118588366Y-66296426D01*
X118586815Y-66236186D01*
X118587071Y-66153455D01*
X118588349Y-66045339D01*
X118588748Y-66013000D01*
X118590185Y-65901524D01*
X118591472Y-65828603D01*
X118730971Y-65828603D01*
X118731755Y-65890499D01*
X118735240Y-65930997D01*
X118743124Y-65957708D01*
X118757105Y-65978244D01*
X118766597Y-65988260D01*
X118805404Y-66017567D01*
X118839763Y-66019952D01*
X118875216Y-65995750D01*
X118876114Y-65994857D01*
X118890539Y-65976153D01*
X118899313Y-65950732D01*
X118903739Y-65911584D01*
X118905118Y-65851697D01*
X118905143Y-65838430D01*
X118901812Y-65755901D01*
X118890969Y-65698691D01*
X118871340Y-65663766D01*
X118841650Y-65648094D01*
X118824491Y-65646514D01*
X118783766Y-65653926D01*
X118755832Y-65678330D01*
X118739017Y-65722980D01*
X118731650Y-65791130D01*
X118730971Y-65828603D01*
X118591472Y-65828603D01*
X118591708Y-65815245D01*
X118593677Y-65750333D01*
G37*
X118593677Y-65750333D02*
X118596450Y-65702958D01*
X118600388Y-65669290D01*
X118605849Y-65645498D01*
X118613192Y-65627753D01*
X118622777Y-65612224D01*
X118626887Y-65606381D01*
X118681405Y-65551185D01*
X118750336Y-65519890D01*
X118830072Y-65511165D01*
X118899744Y-65519918D01*
X118955201Y-65547568D01*
X119004148Y-65598480D01*
X119017629Y-65617338D01*
X119032314Y-65642015D01*
X119041842Y-65668816D01*
X119047293Y-65704587D01*
X119049747Y-65756169D01*
X119050286Y-65824267D01*
X119047852Y-65917588D01*
X119039394Y-65987657D01*
X119023174Y-66039931D01*
X118997454Y-66079869D01*
X118960497Y-66112929D01*
X118957782Y-66114886D01*
X118921360Y-66134908D01*
X118877502Y-66144815D01*
X118821724Y-66147257D01*
X118731048Y-66147257D01*
X118731010Y-66235283D01*
X118730166Y-66284308D01*
X118725024Y-66313065D01*
X118711587Y-66330311D01*
X118685858Y-66344808D01*
X118679679Y-66347769D01*
X118650764Y-66361648D01*
X118628376Y-66370414D01*
X118611729Y-66371171D01*
X118600036Y-66361023D01*
X118592510Y-66337073D01*
X118588366Y-66296426D01*
X118586815Y-66236186D01*
X118587071Y-66153455D01*
X118588349Y-66045339D01*
X118588748Y-66013000D01*
X118590185Y-65901524D01*
X118591472Y-65828603D01*
X118730971Y-65828603D01*
X118731755Y-65890499D01*
X118735240Y-65930997D01*
X118743124Y-65957708D01*
X118757105Y-65978244D01*
X118766597Y-65988260D01*
X118805404Y-66017567D01*
X118839763Y-66019952D01*
X118875216Y-65995750D01*
X118876114Y-65994857D01*
X118890539Y-65976153D01*
X118899313Y-65950732D01*
X118903739Y-65911584D01*
X118905118Y-65851697D01*
X118905143Y-65838430D01*
X118901812Y-65755901D01*
X118890969Y-65698691D01*
X118871340Y-65663766D01*
X118841650Y-65648094D01*
X118824491Y-65646514D01*
X118783766Y-65653926D01*
X118755832Y-65678330D01*
X118739017Y-65722980D01*
X118731650Y-65791130D01*
X118730971Y-65828603D01*
X118591472Y-65828603D01*
X118591708Y-65815245D01*
X118593677Y-65750333D01*
G36*
X123444876Y-65556335D02*
G01*
X123486667Y-65575344D01*
X123519469Y-65598378D01*
X123543503Y-65624133D01*
X123560097Y-65657358D01*
X123570577Y-65702800D01*
X123576271Y-65765207D01*
X123578507Y-65849327D01*
X123578743Y-65904721D01*
X123578743Y-66120826D01*
X123541774Y-66137670D01*
X123512656Y-66149981D01*
X123498231Y-66154514D01*
X123495472Y-66141025D01*
X123493282Y-66104653D01*
X123491942Y-66051542D01*
X123491657Y-66009372D01*
X123490434Y-65948447D01*
X123487136Y-65900115D01*
X123482321Y-65870518D01*
X123478496Y-65864229D01*
X123452783Y-65870652D01*
X123412418Y-65887125D01*
X123365679Y-65909458D01*
X123320845Y-65933457D01*
X123286193Y-65954930D01*
X123270002Y-65969685D01*
X123269938Y-65969845D01*
X123271330Y-65997152D01*
X123283818Y-66023219D01*
X123305743Y-66044392D01*
X123337743Y-66051474D01*
X123365092Y-66050649D01*
X123403826Y-66050042D01*
X123424158Y-66059116D01*
X123436369Y-66083092D01*
X123437909Y-66087613D01*
X123443203Y-66121806D01*
X123429047Y-66142568D01*
X123392148Y-66152462D01*
X123352289Y-66154292D01*
X123280562Y-66140727D01*
X123243432Y-66121355D01*
X123197576Y-66075845D01*
X123173256Y-66019983D01*
X123171073Y-65960957D01*
X123191629Y-65905953D01*
X123222549Y-65871486D01*
X123253420Y-65852189D01*
X123301942Y-65827759D01*
X123358485Y-65802985D01*
X123367910Y-65799199D01*
X123430019Y-65771791D01*
X123465822Y-65747634D01*
X123477337Y-65723619D01*
X123466580Y-65696635D01*
X123448114Y-65675543D01*
X123404469Y-65649572D01*
X123356446Y-65647624D01*
X123312406Y-65667637D01*
X123280709Y-65707551D01*
X123276549Y-65717848D01*
X123252327Y-65755724D01*
X123216965Y-65783842D01*
X123172343Y-65806917D01*
X123172343Y-65741485D01*
X123174969Y-65701506D01*
X123186230Y-65669997D01*
X123211199Y-65636378D01*
X123235169Y-65610484D01*
X123272441Y-65573817D01*
X123301401Y-65554121D01*
X123332505Y-65546220D01*
X123367713Y-65544914D01*
X123444876Y-65556335D01*
G37*
X123444876Y-65556335D02*
X123486667Y-65575344D01*
X123519469Y-65598378D01*
X123543503Y-65624133D01*
X123560097Y-65657358D01*
X123570577Y-65702800D01*
X123576271Y-65765207D01*
X123578507Y-65849327D01*
X123578743Y-65904721D01*
X123578743Y-66120826D01*
X123541774Y-66137670D01*
X123512656Y-66149981D01*
X123498231Y-66154514D01*
X123495472Y-66141025D01*
X123493282Y-66104653D01*
X123491942Y-66051542D01*
X123491657Y-66009372D01*
X123490434Y-65948447D01*
X123487136Y-65900115D01*
X123482321Y-65870518D01*
X123478496Y-65864229D01*
X123452783Y-65870652D01*
X123412418Y-65887125D01*
X123365679Y-65909458D01*
X123320845Y-65933457D01*
X123286193Y-65954930D01*
X123270002Y-65969685D01*
X123269938Y-65969845D01*
X123271330Y-65997152D01*
X123283818Y-66023219D01*
X123305743Y-66044392D01*
X123337743Y-66051474D01*
X123365092Y-66050649D01*
X123403826Y-66050042D01*
X123424158Y-66059116D01*
X123436369Y-66083092D01*
X123437909Y-66087613D01*
X123443203Y-66121806D01*
X123429047Y-66142568D01*
X123392148Y-66152462D01*
X123352289Y-66154292D01*
X123280562Y-66140727D01*
X123243432Y-66121355D01*
X123197576Y-66075845D01*
X123173256Y-66019983D01*
X123171073Y-65960957D01*
X123191629Y-65905953D01*
X123222549Y-65871486D01*
X123253420Y-65852189D01*
X123301942Y-65827759D01*
X123358485Y-65802985D01*
X123367910Y-65799199D01*
X123430019Y-65771791D01*
X123465822Y-65747634D01*
X123477337Y-65723619D01*
X123466580Y-65696635D01*
X123448114Y-65675543D01*
X123404469Y-65649572D01*
X123356446Y-65647624D01*
X123312406Y-65667637D01*
X123280709Y-65707551D01*
X123276549Y-65717848D01*
X123252327Y-65755724D01*
X123216965Y-65783842D01*
X123172343Y-65806917D01*
X123172343Y-65741485D01*
X123174969Y-65701506D01*
X123186230Y-65669997D01*
X123211199Y-65636378D01*
X123235169Y-65610484D01*
X123272441Y-65573817D01*
X123301401Y-65554121D01*
X123332505Y-65546220D01*
X123367713Y-65544914D01*
X123444876Y-65556335D01*
G36*
X124168196Y-65695384D02*
G01*
X124181884Y-65646695D01*
X124204096Y-65610849D01*
X124236574Y-65582513D01*
X124250733Y-65573355D01*
X124315053Y-65549507D01*
X124385473Y-65548006D01*
X124453595Y-65566966D01*
X124511021Y-65604497D01*
X124538719Y-65638096D01*
X124560662Y-65699064D01*
X124562405Y-65747308D01*
X124558457Y-65811816D01*
X124409686Y-65876934D01*
X124337349Y-65910202D01*
X124290084Y-65936964D01*
X124265507Y-65960144D01*
X124261237Y-65982667D01*
X124274889Y-66007455D01*
X124289943Y-66023886D01*
X124333746Y-66050235D01*
X124381389Y-66052081D01*
X124425145Y-66031546D01*
X124457289Y-65990752D01*
X124463038Y-65976347D01*
X124490576Y-65931356D01*
X124522258Y-65912182D01*
X124565714Y-65895779D01*
X124565714Y-65957966D01*
X124561872Y-66000283D01*
X124546823Y-66035969D01*
X124515280Y-66076943D01*
X124510592Y-66082267D01*
X124475506Y-66118720D01*
X124445347Y-66138283D01*
X124407615Y-66147283D01*
X124376335Y-66150230D01*
X124320385Y-66150965D01*
X124280555Y-66141660D01*
X124255708Y-66127846D01*
X124216656Y-66097467D01*
X124189625Y-66064613D01*
X124172517Y-66023294D01*
X124163238Y-65967521D01*
X124159693Y-65891305D01*
X124159410Y-65852622D01*
X124160372Y-65806247D01*
X124248007Y-65806247D01*
X124249023Y-65831126D01*
X124251556Y-65835200D01*
X124268274Y-65829665D01*
X124304249Y-65815017D01*
X124352331Y-65794190D01*
X124362386Y-65789714D01*
X124423152Y-65758814D01*
X124456632Y-65731657D01*
X124463990Y-65706220D01*
X124446391Y-65680481D01*
X124431856Y-65669109D01*
X124379410Y-65646364D01*
X124330322Y-65650122D01*
X124289227Y-65677884D01*
X124260758Y-65727152D01*
X124251631Y-65766257D01*
X124248007Y-65806247D01*
X124160372Y-65806247D01*
X124161285Y-65762249D01*
X124168196Y-65695384D01*
G37*
X124168196Y-65695384D02*
X124181884Y-65646695D01*
X124204096Y-65610849D01*
X124236574Y-65582513D01*
X124250733Y-65573355D01*
X124315053Y-65549507D01*
X124385473Y-65548006D01*
X124453595Y-65566966D01*
X124511021Y-65604497D01*
X124538719Y-65638096D01*
X124560662Y-65699064D01*
X124562405Y-65747308D01*
X124558457Y-65811816D01*
X124409686Y-65876934D01*
X124337349Y-65910202D01*
X124290084Y-65936964D01*
X124265507Y-65960144D01*
X124261237Y-65982667D01*
X124274889Y-66007455D01*
X124289943Y-66023886D01*
X124333746Y-66050235D01*
X124381389Y-66052081D01*
X124425145Y-66031546D01*
X124457289Y-65990752D01*
X124463038Y-65976347D01*
X124490576Y-65931356D01*
X124522258Y-65912182D01*
X124565714Y-65895779D01*
X124565714Y-65957966D01*
X124561872Y-66000283D01*
X124546823Y-66035969D01*
X124515280Y-66076943D01*
X124510592Y-66082267D01*
X124475506Y-66118720D01*
X124445347Y-66138283D01*
X124407615Y-66147283D01*
X124376335Y-66150230D01*
X124320385Y-66150965D01*
X124280555Y-66141660D01*
X124255708Y-66127846D01*
X124216656Y-66097467D01*
X124189625Y-66064613D01*
X124172517Y-66023294D01*
X124163238Y-65967521D01*
X124159693Y-65891305D01*
X124159410Y-65852622D01*
X124160372Y-65806247D01*
X124248007Y-65806247D01*
X124249023Y-65831126D01*
X124251556Y-65835200D01*
X124268274Y-65829665D01*
X124304249Y-65815017D01*
X124352331Y-65794190D01*
X124362386Y-65789714D01*
X124423152Y-65758814D01*
X124456632Y-65731657D01*
X124463990Y-65706220D01*
X124446391Y-65680481D01*
X124431856Y-65669109D01*
X124379410Y-65646364D01*
X124330322Y-65650122D01*
X124289227Y-65677884D01*
X124260758Y-65727152D01*
X124251631Y-65766257D01*
X124248007Y-65806247D01*
X124160372Y-65806247D01*
X124161285Y-65762249D01*
X124168196Y-65695384D01*
D11*
%TO.C,R400*%
X122420000Y-55921359D02*
X122420000Y-56228641D01*
X123180000Y-55921359D02*
X123180000Y-56228641D01*
%TO.C,R201*%
X146680000Y-56896359D02*
X146680000Y-57203641D01*
X145920000Y-56896359D02*
X145920000Y-57203641D01*
%TO.C,R300*%
X136243641Y-56679000D02*
X135936359Y-56679000D01*
X136243641Y-57439000D02*
X135936359Y-57439000D01*
%TO.C,C401*%
X120734420Y-53565000D02*
X121015580Y-53565000D01*
X120734420Y-54585000D02*
X121015580Y-54585000D01*
%TO.C,R200*%
X143153641Y-62620000D02*
X142846359Y-62620000D01*
X143153641Y-63380000D02*
X142846359Y-63380000D01*
%TO.C,kibuzzard-62C2DB9E*%
G36*
X103449263Y-73377570D02*
G01*
X103435240Y-73463560D01*
X103411869Y-73531381D01*
X103360077Y-73597461D01*
X103288837Y-73619488D01*
X103218591Y-73597461D01*
X103166600Y-73531381D01*
X103142787Y-73463560D01*
X103128500Y-73377570D01*
X103123737Y-73273412D01*
X103124469Y-73257537D01*
X103201525Y-73257537D01*
X103225337Y-73331356D01*
X103290425Y-73362313D01*
X103353131Y-73331356D01*
X103377737Y-73257537D01*
X103353131Y-73182925D01*
X103290425Y-73151175D01*
X103225337Y-73182925D01*
X103201525Y-73257537D01*
X103124469Y-73257537D01*
X103128500Y-73170137D01*
X103142787Y-73084676D01*
X103166600Y-73017031D01*
X103218591Y-72950952D01*
X103288837Y-72928925D01*
X103360077Y-72950952D01*
X103411869Y-73017031D01*
X103435240Y-73084676D01*
X103449263Y-73170137D01*
X103453937Y-73273412D01*
X103449263Y-73377570D01*
G37*
G36*
X105036763Y-73377570D02*
G01*
X105022740Y-73463560D01*
X104999369Y-73531381D01*
X104947577Y-73597461D01*
X104876338Y-73619488D01*
X104806091Y-73597461D01*
X104754100Y-73531381D01*
X104730288Y-73463560D01*
X104716000Y-73377570D01*
X104711238Y-73273412D01*
X104711970Y-73257537D01*
X104789025Y-73257537D01*
X104812838Y-73331356D01*
X104877925Y-73362313D01*
X104940631Y-73331356D01*
X104965238Y-73257537D01*
X104940631Y-73182925D01*
X104877925Y-73151175D01*
X104812838Y-73182925D01*
X104789025Y-73257537D01*
X104711970Y-73257537D01*
X104716000Y-73170137D01*
X104730288Y-73084676D01*
X104754100Y-73017031D01*
X104806091Y-72950952D01*
X104876338Y-72928925D01*
X104947577Y-72950952D01*
X104999369Y-73017031D01*
X105022740Y-73084676D01*
X105036763Y-73170137D01*
X105041438Y-73273412D01*
X105036763Y-73377570D01*
G37*
G36*
X100860095Y-72249607D02*
G01*
X106539905Y-72249607D01*
X106539905Y-74300393D01*
X100860095Y-74300393D01*
X100860095Y-72892412D01*
X101372725Y-72892412D01*
X101469562Y-73028937D01*
X101569575Y-72954325D01*
X101666413Y-72932100D01*
X101758487Y-72964644D01*
X101795000Y-73057512D01*
X101765631Y-73141650D01*
X101691019Y-73227375D01*
X101644187Y-73272817D01*
X101594181Y-73320244D01*
X101544175Y-73370647D01*
X101497344Y-73425019D01*
X101456069Y-73483955D01*
X101422731Y-73548050D01*
X101400705Y-73617900D01*
X101393362Y-73694100D01*
X101392569Y-73727438D01*
X101396537Y-73767125D01*
X102037887Y-73767125D01*
X102037887Y-73605200D01*
X101615612Y-73605200D01*
X101632281Y-73552813D01*
X101672762Y-73496456D01*
X101723562Y-73442481D01*
X101771187Y-73397238D01*
X101852150Y-73317863D01*
X101923587Y-73232137D01*
X101974387Y-73140856D01*
X101993437Y-73043225D01*
X101968037Y-72920194D01*
X101946513Y-72892412D01*
X102166475Y-72892412D01*
X102263312Y-73028937D01*
X102363325Y-72954325D01*
X102460162Y-72932100D01*
X102552237Y-72964644D01*
X102588750Y-73057512D01*
X102559381Y-73141650D01*
X102484769Y-73227375D01*
X102437937Y-73272817D01*
X102387931Y-73320244D01*
X102337925Y-73370647D01*
X102291094Y-73425019D01*
X102249819Y-73483955D01*
X102216481Y-73548050D01*
X102194455Y-73617900D01*
X102187112Y-73694100D01*
X102186319Y-73727438D01*
X102190287Y-73767125D01*
X102831637Y-73767125D01*
X102831637Y-73605200D01*
X102409362Y-73605200D01*
X102426031Y-73552813D01*
X102466512Y-73496456D01*
X102517312Y-73442481D01*
X102564937Y-73397238D01*
X102645900Y-73317863D01*
X102682942Y-73273412D01*
X102947525Y-73273412D01*
X102952982Y-73395253D01*
X102969353Y-73500425D01*
X102996638Y-73588928D01*
X103034837Y-73660763D01*
X103101865Y-73731318D01*
X103186532Y-73773651D01*
X103288837Y-73787763D01*
X103391143Y-73773651D01*
X103475810Y-73731318D01*
X103542837Y-73660763D01*
X103581037Y-73588928D01*
X103608322Y-73500425D01*
X103624693Y-73395253D01*
X103630150Y-73273412D01*
X103624693Y-73152316D01*
X103608322Y-73047789D01*
X103581037Y-72959832D01*
X103573843Y-72946387D01*
X103763500Y-72946387D01*
X104176250Y-72946387D01*
X104132197Y-73024770D01*
X104085763Y-73117044D01*
X104039923Y-73219239D01*
X103997656Y-73327388D01*
X103960152Y-73439108D01*
X103928600Y-73552019D01*
X103905978Y-73662548D01*
X103895263Y-73767125D01*
X104093700Y-73767125D01*
X104108186Y-73639927D01*
X104135769Y-73512331D01*
X104172678Y-73388308D01*
X104214565Y-73273412D01*
X104535025Y-73273412D01*
X104540482Y-73395253D01*
X104556853Y-73500425D01*
X104584138Y-73588928D01*
X104622338Y-73660763D01*
X104689365Y-73731318D01*
X104774032Y-73773651D01*
X104876338Y-73787763D01*
X104978643Y-73773651D01*
X105063310Y-73731318D01*
X105130338Y-73660763D01*
X105168537Y-73588928D01*
X105185055Y-73535350D01*
X105316075Y-73535350D01*
X105725650Y-73535350D01*
X105725650Y-73767125D01*
X105920913Y-73767125D01*
X105920913Y-73535350D01*
X106027275Y-73535350D01*
X106027275Y-73375013D01*
X105920913Y-73375013D01*
X105920913Y-72784462D01*
X105746288Y-72784462D01*
X105682788Y-72852130D01*
X105619288Y-72928131D01*
X105557375Y-73008895D01*
X105498638Y-73090850D01*
X105443869Y-73172408D01*
X105393863Y-73251981D01*
X105350603Y-73326395D01*
X105316075Y-73392475D01*
X105316075Y-73535350D01*
X105185055Y-73535350D01*
X105195822Y-73500425D01*
X105212193Y-73395253D01*
X105217650Y-73273412D01*
X105212193Y-73152316D01*
X105195822Y-73047789D01*
X105168537Y-72959832D01*
X105130338Y-72888444D01*
X105063310Y-72818329D01*
X104978643Y-72776260D01*
X104876338Y-72762237D01*
X104775619Y-72776349D01*
X104691482Y-72818682D01*
X104623925Y-72889237D01*
X104585031Y-72960873D01*
X104557250Y-73048781D01*
X104540581Y-73152961D01*
X104535025Y-73273412D01*
X104214565Y-73273412D01*
X104215144Y-73271825D01*
X104261777Y-73165066D01*
X104311188Y-73070212D01*
X104360003Y-72991234D01*
X104404850Y-72932100D01*
X104404850Y-72784462D01*
X103763500Y-72784462D01*
X103763500Y-72946387D01*
X103573843Y-72946387D01*
X103542837Y-72888444D01*
X103475810Y-72818329D01*
X103391143Y-72776260D01*
X103288837Y-72762237D01*
X103188119Y-72776349D01*
X103103982Y-72818682D01*
X103036425Y-72889237D01*
X102997531Y-72960873D01*
X102969750Y-73048781D01*
X102953081Y-73152961D01*
X102947525Y-73273412D01*
X102682942Y-73273412D01*
X102717337Y-73232137D01*
X102768137Y-73140856D01*
X102787187Y-73043225D01*
X102761787Y-72920194D01*
X102693525Y-72832087D01*
X102595100Y-72779700D01*
X102479212Y-72762237D01*
X102396464Y-72770175D01*
X102313319Y-72793987D01*
X102234936Y-72834469D01*
X102166475Y-72892412D01*
X101946513Y-72892412D01*
X101899775Y-72832087D01*
X101801350Y-72779700D01*
X101685463Y-72762237D01*
X101602714Y-72770175D01*
X101519569Y-72793987D01*
X101441186Y-72834469D01*
X101372725Y-72892412D01*
X100860095Y-72892412D01*
X100860095Y-72249607D01*
G37*
G36*
X105725650Y-73375013D02*
G01*
X105503400Y-73375013D01*
X105551025Y-73284525D01*
X105607381Y-73193244D01*
X105666913Y-73106725D01*
X105725650Y-73028937D01*
X105725650Y-73375013D01*
G37*
%TO.C,kibuzzard-62C2D491*%
G36*
X158244056Y-64090708D02*
G01*
X158308350Y-64094875D01*
X158417094Y-64117100D01*
X158490913Y-64164725D01*
X158517900Y-64244894D01*
X158490913Y-64325856D01*
X158417888Y-64372688D01*
X158309144Y-64394913D01*
X158244255Y-64399080D01*
X158175000Y-64400469D01*
X158105944Y-64399080D01*
X158041650Y-64394913D01*
X157932906Y-64372688D01*
X157859087Y-64325856D01*
X157832100Y-64244894D01*
X157859087Y-64163931D01*
X157932112Y-64117100D01*
X158040856Y-64094875D01*
X158105745Y-64090708D01*
X158175000Y-64089319D01*
X158244056Y-64090708D01*
G37*
G36*
X158244056Y-63296958D02*
G01*
X158308350Y-63301125D01*
X158417094Y-63323350D01*
X158490913Y-63370975D01*
X158517900Y-63451144D01*
X158490913Y-63532106D01*
X158417888Y-63578937D01*
X158309144Y-63601162D01*
X158244255Y-63605330D01*
X158175000Y-63606719D01*
X158105944Y-63605330D01*
X158041650Y-63601162D01*
X157932906Y-63578937D01*
X157859087Y-63532106D01*
X157832100Y-63451144D01*
X157859087Y-63370181D01*
X157932112Y-63323350D01*
X158040856Y-63301125D01*
X158105745Y-63296958D01*
X158175000Y-63295569D01*
X158244056Y-63296958D01*
G37*
G36*
X158440906Y-64898944D02*
G01*
X158483769Y-64939425D01*
X158504406Y-64995781D01*
X158509963Y-65060869D01*
X158508375Y-65109288D01*
X158503613Y-65154531D01*
X158236913Y-65154531D01*
X158236913Y-65049756D01*
X158267869Y-64928313D01*
X158370263Y-64883069D01*
X158440906Y-64898944D01*
G37*
G36*
X158042444Y-64965619D02*
G01*
X158074987Y-65078331D01*
X158074987Y-65154531D01*
X157849562Y-65154531D01*
X157844800Y-65111669D01*
X157843212Y-65065631D01*
X157847181Y-65013244D01*
X157863056Y-64968794D01*
X157896394Y-64938631D01*
X157952750Y-64927519D01*
X158042444Y-64965619D01*
G37*
G36*
X158175000Y-61103981D02*
G01*
X159200393Y-61787576D01*
X159200393Y-65862424D01*
X158175000Y-66546019D01*
X157149607Y-65862424D01*
X157149607Y-65095794D01*
X157673350Y-65095794D01*
X157680494Y-65227556D01*
X157697162Y-65349794D01*
X158651250Y-65349794D01*
X158663752Y-65281134D01*
X158672681Y-65211681D01*
X158678039Y-65143022D01*
X158679825Y-65076744D01*
X158676055Y-64998361D01*
X158664744Y-64925138D01*
X158644503Y-64859256D01*
X158613944Y-64802900D01*
X158518694Y-64721144D01*
X158451820Y-64698522D01*
X158370263Y-64690981D01*
X158303588Y-64699911D01*
X158240088Y-64726700D01*
X158184525Y-64778492D01*
X158141662Y-64862431D01*
X158055937Y-64771150D01*
X157997994Y-64745552D01*
X157932112Y-64737019D01*
X157840037Y-64751306D01*
X157756694Y-64805281D01*
X157696369Y-64914819D01*
X157679105Y-64994988D01*
X157673350Y-65095794D01*
X157149607Y-65095794D01*
X157149607Y-64244894D01*
X157662237Y-64244894D01*
X157676613Y-64347905D01*
X157719740Y-64434688D01*
X157791619Y-64505244D01*
X157864098Y-64546221D01*
X157952155Y-64575491D01*
X158055789Y-64593052D01*
X158175000Y-64598906D01*
X158294211Y-64593201D01*
X158397845Y-64576086D01*
X158485902Y-64547561D01*
X158558381Y-64507625D01*
X158630260Y-64437687D01*
X158673387Y-64349581D01*
X158687763Y-64243306D01*
X158673387Y-64139590D01*
X158630260Y-64052806D01*
X158558381Y-63982956D01*
X158485902Y-63942673D01*
X158397845Y-63913900D01*
X158294211Y-63896636D01*
X158175000Y-63890881D01*
X158055789Y-63896537D01*
X157952155Y-63913503D01*
X157864098Y-63941780D01*
X157791619Y-63981369D01*
X157719740Y-64050866D01*
X157676613Y-64138708D01*
X157662237Y-64244894D01*
X157149607Y-64244894D01*
X157149607Y-63451144D01*
X157662237Y-63451144D01*
X157676613Y-63554155D01*
X157719740Y-63640938D01*
X157791619Y-63711494D01*
X157864098Y-63752471D01*
X157952155Y-63781741D01*
X158055789Y-63799302D01*
X158175000Y-63805156D01*
X158294211Y-63799451D01*
X158397845Y-63782336D01*
X158485902Y-63753811D01*
X158558381Y-63713875D01*
X158630260Y-63643937D01*
X158673387Y-63555831D01*
X158687763Y-63449556D01*
X158673387Y-63345840D01*
X158630260Y-63259056D01*
X158558381Y-63189206D01*
X158485902Y-63148923D01*
X158397845Y-63120150D01*
X158294211Y-63102886D01*
X158175000Y-63097131D01*
X158055789Y-63102787D01*
X157952155Y-63119753D01*
X157864098Y-63148030D01*
X157791619Y-63187619D01*
X157719740Y-63257116D01*
X157676613Y-63344958D01*
X157662237Y-63451144D01*
X157149607Y-63451144D01*
X157149607Y-63014581D01*
X157684462Y-63014581D01*
X157846387Y-63014581D01*
X157846387Y-62755819D01*
X158667125Y-62755819D01*
X158667125Y-62558969D01*
X157846387Y-62558969D01*
X157846387Y-62300206D01*
X157684462Y-62300206D01*
X157684462Y-63014581D01*
X157149607Y-63014581D01*
X157149607Y-61787576D01*
X158175000Y-61103981D01*
G37*
%TD*%
M02*
