%TF.GenerationSoftware,KiCad,Pcbnew,(6.0.6)*%
%TF.CreationDate,2022-07-04T15:46:39+03:00*%
%TF.ProjectId,gimble,67696d62-6c65-42e6-9b69-6361645f7063,0.2*%
%TF.SameCoordinates,Original*%
%TF.FileFunction,Copper,L3,Inr*%
%TF.FilePolarity,Positive*%
%FSLAX46Y46*%
G04 Gerber Fmt 4.6, Leading zero omitted, Abs format (unit mm)*
G04 Created by KiCad (PCBNEW (6.0.6)) date 2022-07-04 15:46:39*
%MOMM*%
%LPD*%
G01*
G04 APERTURE LIST*
G04 Aperture macros list*
%AMRoundRect*
0 Rectangle with rounded corners*
0 $1 Rounding radius*
0 $2 $3 $4 $5 $6 $7 $8 $9 X,Y pos of 4 corners*
0 Add a 4 corners polygon primitive as box body*
4,1,4,$2,$3,$4,$5,$6,$7,$8,$9,$2,$3,0*
0 Add four circle primitives for the rounded corners*
1,1,$1+$1,$2,$3*
1,1,$1+$1,$4,$5*
1,1,$1+$1,$6,$7*
1,1,$1+$1,$8,$9*
0 Add four rect primitives between the rounded corners*
20,1,$1+$1,$2,$3,$4,$5,0*
20,1,$1+$1,$4,$5,$6,$7,0*
20,1,$1+$1,$6,$7,$8,$9,0*
20,1,$1+$1,$8,$9,$2,$3,0*%
G04 Aperture macros list end*
%TA.AperFunction,ComponentPad*%
%ADD10R,0.850000X0.850000*%
%TD*%
%TA.AperFunction,ComponentPad*%
%ADD11O,0.850000X0.850000*%
%TD*%
%TA.AperFunction,ComponentPad*%
%ADD12R,1.700000X1.700000*%
%TD*%
%TA.AperFunction,ComponentPad*%
%ADD13O,1.700000X1.700000*%
%TD*%
%TA.AperFunction,ComponentPad*%
%ADD14RoundRect,0.250000X-0.620000X-0.845000X0.620000X-0.845000X0.620000X0.845000X-0.620000X0.845000X0*%
%TD*%
%TA.AperFunction,ComponentPad*%
%ADD15O,1.740000X2.190000*%
%TD*%
%TA.AperFunction,ViaPad*%
%ADD16C,0.500000*%
%TD*%
%TA.AperFunction,Conductor*%
%ADD17C,0.200000*%
%TD*%
G04 APERTURE END LIST*
D10*
%TO.N,+5V*%
%TO.C,M500*%
X115190000Y-53680000D03*
D11*
%TO.N,Net-(M500-Pad2)*%
X114190000Y-53680000D03*
%TO.N,Net-(M500-Pad3)*%
X113190000Y-53680000D03*
%TO.N,Net-(M500-Pad4)*%
X112190000Y-53680000D03*
%TO.N,Net-(M500-Pad5)*%
X111190000Y-53680000D03*
%TD*%
D10*
%TO.N,+5V*%
%TO.C,M501*%
X106770000Y-58290000D03*
D11*
%TO.N,Net-(U501-Pad15)*%
X105770000Y-58290000D03*
%TO.N,Net-(U501-Pad13)*%
X104770000Y-58290000D03*
%TO.N,Net-(U501-Pad14)*%
X103770000Y-58290000D03*
%TO.N,Net-(U501-Pad16)*%
X102770000Y-58290000D03*
%TD*%
D12*
%TO.N,/RP2040/SWCLK*%
%TO.C,J300*%
X139475000Y-73000000D03*
D13*
%TO.N,GND*%
X142015000Y-73000000D03*
%TO.N,/RP2040/SWD*%
X144555000Y-73000000D03*
%TD*%
D14*
%TO.N,+12V*%
%TO.C,J201*%
X155000000Y-54000000D03*
D15*
%TO.N,GND*%
X157540000Y-54000000D03*
%TD*%
D10*
%TO.N,+5V*%
%TO.C,M502*%
X114170000Y-69640000D03*
D11*
%TO.N,Net-(U502-Pad15)*%
X114170000Y-70640000D03*
%TO.N,Net-(U502-Pad13)*%
X114170000Y-71640000D03*
%TO.N,Net-(U502-Pad14)*%
X114170000Y-72640000D03*
%TO.N,Net-(U502-Pad16)*%
X114170000Y-73640000D03*
%TD*%
D16*
%TO.N,+3V3*%
X126700000Y-64700000D03*
X134275000Y-50700000D03*
X150635000Y-63965000D03*
X121700000Y-55100000D03*
X122325000Y-59700000D03*
X118300000Y-54450000D03*
X131450000Y-59325000D03*
X122500000Y-55000000D03*
X135000000Y-60400000D03*
X149365000Y-63910000D03*
X121400000Y-59700000D03*
X131200000Y-68350000D03*
X149365000Y-62360000D03*
X150635000Y-62340000D03*
X134025000Y-60375000D03*
X133275000Y-61350000D03*
X120325000Y-56150000D03*
X148425000Y-68025000D03*
X131250000Y-61375000D03*
X122400000Y-57725000D03*
X135150070Y-61370751D03*
X126904891Y-61329831D03*
X120075000Y-53300000D03*
X135181407Y-65000036D03*
%TO.N,GND*%
X118175000Y-56675000D03*
X107950000Y-59775000D03*
X128000000Y-53250000D03*
X129975000Y-63050000D03*
X134500000Y-56750000D03*
X138004418Y-53196992D03*
X131000000Y-64000000D03*
X140100000Y-63400000D03*
X128000000Y-57000000D03*
X118825000Y-52900000D03*
X132925000Y-69875000D03*
X130050000Y-64875000D03*
X142025000Y-63000000D03*
X117950000Y-59025000D03*
X151850000Y-59200000D03*
X148075000Y-55150000D03*
X134219803Y-70831690D03*
X124750000Y-61250000D03*
X145000000Y-52050000D03*
X116350000Y-55125000D03*
X134250000Y-72725000D03*
X137100000Y-65000000D03*
X148075000Y-57800000D03*
X151900000Y-61875000D03*
X134250000Y-53150000D03*
X118650000Y-57350000D03*
X146000000Y-55500000D03*
X145150000Y-54700000D03*
X128000000Y-54500000D03*
X129850000Y-71325000D03*
X131975000Y-64900000D03*
X148090000Y-72990000D03*
X133075000Y-74150000D03*
X125270000Y-64450000D03*
X117690000Y-55790000D03*
X130000000Y-66625000D03*
X120975000Y-56825000D03*
X130500000Y-54500000D03*
X106620000Y-60380000D03*
X130500000Y-53250000D03*
X115450000Y-68350000D03*
X120425000Y-57350000D03*
X114550000Y-68350000D03*
X130500000Y-51250000D03*
X120425000Y-59675000D03*
X128900000Y-72150000D03*
X133075000Y-73525000D03*
X137250000Y-61400000D03*
X130500000Y-52250000D03*
X128550000Y-57475000D03*
X146300000Y-60200000D03*
X128000000Y-51250000D03*
X128000000Y-52250000D03*
X118550000Y-56175000D03*
X118625000Y-55500000D03*
X118775000Y-58025000D03*
X127600000Y-73325000D03*
X137275000Y-60350000D03*
X151830000Y-67970000D03*
X131925000Y-63050000D03*
X122400000Y-54100000D03*
X137700000Y-55475000D03*
X155400000Y-66175000D03*
X133250000Y-56750000D03*
%TO.N,+5V*%
X146250000Y-63000000D03*
X146500000Y-65000000D03*
X144250000Y-65000000D03*
X111500000Y-56320000D03*
X103000000Y-60910000D03*
X116720000Y-72060000D03*
X145450000Y-65000000D03*
X145490000Y-63900000D03*
%TO.N,+1V1*%
X130700000Y-59250000D03*
X131610000Y-66640000D03*
X133175000Y-59675500D03*
%TO.N,Net-(U502-Pad15)*%
X120570000Y-69850000D03*
X124350000Y-72410000D03*
%TO.N,Net-(U502-Pad13)*%
X121240000Y-72130000D03*
X120300000Y-70570000D03*
%TO.N,Net-(U502-Pad16)*%
X125870000Y-73460000D03*
%TO.N,P21*%
X126475000Y-67650000D03*
X110475000Y-69250000D03*
%TO.N,SS*%
X123625000Y-53300000D03*
X153950000Y-60600000D03*
%TD*%
D17*
%TO.N,+1V1*%
X132950000Y-62318395D02*
X131725000Y-61093395D01*
X133149500Y-59675500D02*
X132325000Y-60500000D01*
X131725000Y-60500000D02*
X131150000Y-60500000D01*
X131725000Y-61093395D02*
X131725000Y-60500000D01*
X132325000Y-60500000D02*
X131725000Y-60500000D01*
X133175000Y-59675500D02*
X133149500Y-59675500D01*
X131150000Y-60500000D02*
X130700000Y-60050000D01*
X132085000Y-66640000D02*
X132950000Y-65775000D01*
X130700000Y-60050000D02*
X130700000Y-59250000D01*
X131610000Y-66640000D02*
X132085000Y-66640000D01*
X132950000Y-65775000D02*
X132950000Y-62318395D01*
%TD*%
%TA.AperFunction,Conductor*%
%TO.N,+5V*%
G36*
X146942121Y-62270002D02*
G01*
X146988614Y-62323658D01*
X147000000Y-62376000D01*
X147000000Y-74365500D01*
X146979998Y-74433621D01*
X146926342Y-74480114D01*
X146874000Y-74491500D01*
X145142160Y-74491500D01*
X145074039Y-74471498D01*
X145027546Y-74417842D01*
X145017442Y-74347568D01*
X145046936Y-74282988D01*
X145086728Y-74252349D01*
X145197323Y-74198169D01*
X145252994Y-74170896D01*
X145434860Y-74041173D01*
X145467380Y-74008767D01*
X145578616Y-73897918D01*
X145593096Y-73883489D01*
X145723453Y-73702077D01*
X145734477Y-73679773D01*
X145820136Y-73506453D01*
X145820137Y-73506451D01*
X145822430Y-73501811D01*
X145866764Y-73355892D01*
X145885865Y-73293023D01*
X145885865Y-73293021D01*
X145887370Y-73288069D01*
X145916529Y-73066590D01*
X145917236Y-73037648D01*
X145918074Y-73003365D01*
X145918074Y-73003361D01*
X145918156Y-73000000D01*
X145899852Y-72777361D01*
X145845431Y-72560702D01*
X145756354Y-72355840D01*
X145688452Y-72250879D01*
X145637822Y-72172617D01*
X145637820Y-72172614D01*
X145635014Y-72168277D01*
X145484670Y-72003051D01*
X145480619Y-71999852D01*
X145480615Y-71999848D01*
X145313414Y-71867800D01*
X145313410Y-71867798D01*
X145309359Y-71864598D01*
X145113789Y-71756638D01*
X145108920Y-71754914D01*
X145108916Y-71754912D01*
X144908087Y-71683795D01*
X144908083Y-71683794D01*
X144903212Y-71682069D01*
X144898119Y-71681162D01*
X144898116Y-71681161D01*
X144688373Y-71643800D01*
X144688367Y-71643799D01*
X144683284Y-71642894D01*
X144609452Y-71641992D01*
X144465081Y-71640228D01*
X144465079Y-71640228D01*
X144459911Y-71640165D01*
X144239091Y-71673955D01*
X144026756Y-71743357D01*
X143996443Y-71759137D01*
X143879279Y-71820129D01*
X143828607Y-71846507D01*
X143824474Y-71849610D01*
X143824471Y-71849612D01*
X143663442Y-71970516D01*
X143649965Y-71980635D01*
X143646393Y-71984373D01*
X143504984Y-72132349D01*
X143495629Y-72142138D01*
X143388201Y-72299621D01*
X143333293Y-72344621D01*
X143262768Y-72352792D01*
X143199021Y-72321538D01*
X143178324Y-72297054D01*
X143097822Y-72172617D01*
X143097820Y-72172614D01*
X143095014Y-72168277D01*
X142944670Y-72003051D01*
X142940619Y-71999852D01*
X142940615Y-71999848D01*
X142773414Y-71867800D01*
X142773410Y-71867798D01*
X142769359Y-71864598D01*
X142573789Y-71756638D01*
X142568920Y-71754914D01*
X142568916Y-71754912D01*
X142368087Y-71683795D01*
X142368083Y-71683794D01*
X142363212Y-71682069D01*
X142358119Y-71681162D01*
X142358116Y-71681161D01*
X142148373Y-71643800D01*
X142148367Y-71643799D01*
X142143284Y-71642894D01*
X142069452Y-71641992D01*
X141925081Y-71640228D01*
X141925079Y-71640228D01*
X141919911Y-71640165D01*
X141699091Y-71673955D01*
X141486756Y-71743357D01*
X141456443Y-71759137D01*
X141339279Y-71820129D01*
X141288607Y-71846507D01*
X141284474Y-71849610D01*
X141284471Y-71849612D01*
X141123442Y-71970516D01*
X141109965Y-71980635D01*
X141033013Y-72061161D01*
X141029283Y-72065064D01*
X140967759Y-72100494D01*
X140896846Y-72097037D01*
X140839060Y-72055791D01*
X140820207Y-72022243D01*
X140778767Y-71911703D01*
X140775615Y-71903295D01*
X140688261Y-71786739D01*
X140571705Y-71699385D01*
X140435316Y-71648255D01*
X140373134Y-71641500D01*
X138576866Y-71641500D01*
X138514684Y-71648255D01*
X138378295Y-71699385D01*
X138261739Y-71786739D01*
X138174385Y-71903295D01*
X138123255Y-72039684D01*
X138116500Y-72101866D01*
X138116500Y-73898134D01*
X138123255Y-73960316D01*
X138174385Y-74096705D01*
X138261739Y-74213261D01*
X138268919Y-74218642D01*
X138268920Y-74218643D01*
X138330339Y-74264674D01*
X138372854Y-74321533D01*
X138377880Y-74392352D01*
X138343820Y-74454645D01*
X138281489Y-74488635D01*
X138254774Y-74491500D01*
X133937003Y-74491500D01*
X133868882Y-74471498D01*
X133822389Y-74417842D01*
X133812285Y-74347568D01*
X133813291Y-74342531D01*
X133814319Y-74339825D01*
X133838001Y-74171313D01*
X133838197Y-74157301D01*
X133838244Y-74153961D01*
X133838244Y-74153955D01*
X133838299Y-74150000D01*
X133819331Y-73980892D01*
X133783676Y-73878505D01*
X133780162Y-73807597D01*
X133784879Y-73792325D01*
X133789498Y-73780167D01*
X133814319Y-73714825D01*
X133816763Y-73697438D01*
X133838001Y-73546313D01*
X133839479Y-73546521D01*
X133862468Y-73485904D01*
X133919537Y-73443670D01*
X133990379Y-73438994D01*
X134006829Y-73443865D01*
X134065341Y-73465626D01*
X134234015Y-73488132D01*
X134241026Y-73487494D01*
X134241030Y-73487494D01*
X134396462Y-73473348D01*
X134403483Y-73472709D01*
X134410185Y-73470531D01*
X134410187Y-73470531D01*
X134558623Y-73422301D01*
X134558626Y-73422300D01*
X134565322Y-73420124D01*
X134711490Y-73332990D01*
X134716584Y-73328139D01*
X134716588Y-73328136D01*
X134816595Y-73232900D01*
X134834721Y-73215639D01*
X134858608Y-73179687D01*
X134891494Y-73130189D01*
X134928891Y-73073902D01*
X134989319Y-72914825D01*
X134991064Y-72902412D01*
X134998306Y-72850879D01*
X135013001Y-72746313D01*
X135013143Y-72736191D01*
X135013244Y-72728961D01*
X135013244Y-72728955D01*
X135013299Y-72725000D01*
X134994331Y-72555892D01*
X134938368Y-72395189D01*
X134932383Y-72385610D01*
X134884322Y-72308699D01*
X134848192Y-72250879D01*
X134728286Y-72130132D01*
X134712039Y-72119821D01*
X134655299Y-72083813D01*
X134584608Y-72038951D01*
X134424300Y-71981868D01*
X134255329Y-71961720D01*
X134248326Y-71962456D01*
X134248325Y-71962456D01*
X134093101Y-71978770D01*
X134093097Y-71978771D01*
X134086093Y-71979507D01*
X134079422Y-71981778D01*
X133931673Y-72032075D01*
X133931670Y-72032076D01*
X133925003Y-72034346D01*
X133919005Y-72038036D01*
X133919003Y-72038037D01*
X133786065Y-72119821D01*
X133786063Y-72119823D01*
X133780066Y-72123512D01*
X133658486Y-72242573D01*
X133654675Y-72248487D01*
X133654673Y-72248489D01*
X133582428Y-72360590D01*
X133566304Y-72385610D01*
X133508103Y-72545516D01*
X133507220Y-72552506D01*
X133488030Y-72704406D01*
X133459648Y-72769483D01*
X133400588Y-72808884D01*
X133329602Y-72810101D01*
X133320766Y-72807316D01*
X133249300Y-72781868D01*
X133080329Y-72761720D01*
X133073326Y-72762456D01*
X133073325Y-72762456D01*
X132918101Y-72778770D01*
X132918097Y-72778771D01*
X132911093Y-72779507D01*
X132904422Y-72781778D01*
X132756673Y-72832075D01*
X132756670Y-72832076D01*
X132750003Y-72834346D01*
X132744005Y-72838036D01*
X132744003Y-72838037D01*
X132611065Y-72919821D01*
X132611063Y-72919823D01*
X132605066Y-72923512D01*
X132537978Y-72989210D01*
X132523524Y-73003365D01*
X132483486Y-73042573D01*
X132479675Y-73048487D01*
X132479673Y-73048489D01*
X132395121Y-73179687D01*
X132391304Y-73185610D01*
X132359170Y-73273897D01*
X132339129Y-73328961D01*
X132333103Y-73345516D01*
X132311775Y-73514343D01*
X132328381Y-73683699D01*
X132330605Y-73690384D01*
X132330605Y-73690385D01*
X132366636Y-73798698D01*
X132369159Y-73869650D01*
X132365481Y-73881559D01*
X132353989Y-73913132D01*
X132336816Y-73960316D01*
X132333103Y-73970516D01*
X132311775Y-74139343D01*
X132328381Y-74308699D01*
X132334046Y-74325729D01*
X132336569Y-74396679D01*
X132300333Y-74457731D01*
X132236841Y-74489501D01*
X132214488Y-74491500D01*
X123250000Y-74491500D01*
X123250000Y-72399343D01*
X123586775Y-72399343D01*
X123603381Y-72568699D01*
X123657094Y-72730167D01*
X123660741Y-72736189D01*
X123660742Y-72736191D01*
X123737808Y-72863441D01*
X123745246Y-72875723D01*
X123863455Y-72998132D01*
X123869351Y-73001990D01*
X123988216Y-73079773D01*
X124005846Y-73091310D01*
X124012450Y-73093766D01*
X124012452Y-73093767D01*
X124048844Y-73107301D01*
X124165341Y-73150626D01*
X124334015Y-73173132D01*
X124341026Y-73172494D01*
X124341030Y-73172494D01*
X124496462Y-73158348D01*
X124503483Y-73157709D01*
X124510185Y-73155531D01*
X124510187Y-73155531D01*
X124658623Y-73107301D01*
X124658626Y-73107300D01*
X124665322Y-73105124D01*
X124811490Y-73017990D01*
X124816584Y-73013139D01*
X124816588Y-73013136D01*
X124922272Y-72912494D01*
X124934721Y-72900639D01*
X124940755Y-72891558D01*
X125013692Y-72781778D01*
X125028891Y-72758902D01*
X125089319Y-72599825D01*
X125113001Y-72431313D01*
X125113299Y-72410000D01*
X125094331Y-72240892D01*
X125038368Y-72080189D01*
X125032383Y-72070610D01*
X124998581Y-72016518D01*
X124948192Y-71935879D01*
X124924185Y-71911703D01*
X124857070Y-71844118D01*
X124828286Y-71815132D01*
X124821161Y-71810610D01*
X124736114Y-71756638D01*
X124684608Y-71723951D01*
X124524300Y-71666868D01*
X124355329Y-71646720D01*
X124348326Y-71647456D01*
X124348325Y-71647456D01*
X124193101Y-71663770D01*
X124193097Y-71663771D01*
X124186093Y-71664507D01*
X124179422Y-71666778D01*
X124031673Y-71717075D01*
X124031670Y-71717076D01*
X124025003Y-71719346D01*
X124019005Y-71723036D01*
X124019003Y-71723037D01*
X123886065Y-71804821D01*
X123886063Y-71804823D01*
X123880066Y-71808512D01*
X123758486Y-71927573D01*
X123754675Y-71933487D01*
X123754673Y-71933489D01*
X123670121Y-72064687D01*
X123666304Y-72070610D01*
X123608103Y-72230516D01*
X123586775Y-72399343D01*
X123250000Y-72399343D01*
X123250000Y-70500000D01*
X129301493Y-70500000D01*
X129369614Y-70520002D01*
X129416107Y-70573658D01*
X129426211Y-70643932D01*
X129396717Y-70708512D01*
X129382533Y-70721994D01*
X129380066Y-70723512D01*
X129375038Y-70728436D01*
X129375034Y-70728439D01*
X129273321Y-70828045D01*
X129258486Y-70842573D01*
X129166304Y-70985610D01*
X129108103Y-71145516D01*
X129107220Y-71152506D01*
X129090757Y-71282824D01*
X129062375Y-71347901D01*
X129003316Y-71387302D01*
X128950833Y-71392146D01*
X128905329Y-71386720D01*
X128898326Y-71387456D01*
X128898325Y-71387456D01*
X128743101Y-71403770D01*
X128743097Y-71403771D01*
X128736093Y-71404507D01*
X128729422Y-71406778D01*
X128581673Y-71457075D01*
X128581670Y-71457076D01*
X128575003Y-71459346D01*
X128569005Y-71463036D01*
X128569003Y-71463037D01*
X128436065Y-71544821D01*
X128436063Y-71544823D01*
X128430066Y-71548512D01*
X128404807Y-71573248D01*
X128328929Y-71647554D01*
X128308486Y-71667573D01*
X128304675Y-71673487D01*
X128304673Y-71673489D01*
X128259646Y-71743357D01*
X128216304Y-71810610D01*
X128197563Y-71862101D01*
X128161037Y-71962456D01*
X128158103Y-71970516D01*
X128136775Y-72139343D01*
X128153381Y-72308699D01*
X128207094Y-72470167D01*
X128210741Y-72476189D01*
X128210742Y-72476191D01*
X128267219Y-72569445D01*
X128285398Y-72638074D01*
X128263588Y-72705638D01*
X128208712Y-72750684D01*
X128138194Y-72758911D01*
X128081498Y-72733366D01*
X128078286Y-72730132D01*
X127934608Y-72638951D01*
X127774300Y-72581868D01*
X127605329Y-72561720D01*
X127598326Y-72562456D01*
X127598325Y-72562456D01*
X127443101Y-72578770D01*
X127443097Y-72578771D01*
X127436093Y-72579507D01*
X127429422Y-72581778D01*
X127281673Y-72632075D01*
X127281670Y-72632076D01*
X127275003Y-72634346D01*
X127269005Y-72638036D01*
X127269003Y-72638037D01*
X127136065Y-72719821D01*
X127136063Y-72719823D01*
X127130066Y-72723512D01*
X127008486Y-72842573D01*
X127004675Y-72848487D01*
X127004673Y-72848489D01*
X126920121Y-72979687D01*
X126916304Y-72985610D01*
X126904519Y-73017990D01*
X126863682Y-73130189D01*
X126858103Y-73145516D01*
X126848631Y-73220498D01*
X126847064Y-73232900D01*
X126818682Y-73297976D01*
X126759623Y-73337378D01*
X126688637Y-73338595D01*
X126628262Y-73301240D01*
X126603067Y-73258546D01*
X126579974Y-73192232D01*
X126558368Y-73130189D01*
X126552383Y-73120610D01*
X126526864Y-73079773D01*
X126468192Y-72985879D01*
X126348286Y-72865132D01*
X126332039Y-72854821D01*
X126257178Y-72807313D01*
X126204608Y-72773951D01*
X126044300Y-72716868D01*
X125875329Y-72696720D01*
X125868326Y-72697456D01*
X125868325Y-72697456D01*
X125713101Y-72713770D01*
X125713097Y-72713771D01*
X125706093Y-72714507D01*
X125699422Y-72716778D01*
X125551673Y-72767075D01*
X125551670Y-72767076D01*
X125545003Y-72769346D01*
X125539005Y-72773036D01*
X125539003Y-72773037D01*
X125406065Y-72854821D01*
X125406063Y-72854823D01*
X125400066Y-72858512D01*
X125278486Y-72977573D01*
X125274675Y-72983487D01*
X125274673Y-72983489D01*
X125212622Y-73079773D01*
X125186304Y-73120610D01*
X125128103Y-73280516D01*
X125106775Y-73449343D01*
X125123381Y-73618699D01*
X125125605Y-73625384D01*
X125125605Y-73625385D01*
X125147228Y-73690385D01*
X125177094Y-73780167D01*
X125180741Y-73786189D01*
X125180742Y-73786191D01*
X125257621Y-73913132D01*
X125265246Y-73925723D01*
X125383455Y-74048132D01*
X125444834Y-74088297D01*
X125492123Y-74119242D01*
X125525846Y-74141310D01*
X125532450Y-74143766D01*
X125532452Y-74143767D01*
X125568844Y-74157301D01*
X125685341Y-74200626D01*
X125854015Y-74223132D01*
X125861026Y-74222494D01*
X125861030Y-74222494D01*
X126016462Y-74208348D01*
X126023483Y-74207709D01*
X126030185Y-74205531D01*
X126030187Y-74205531D01*
X126178623Y-74157301D01*
X126178626Y-74157300D01*
X126185322Y-74155124D01*
X126331490Y-74067990D01*
X126336584Y-74063139D01*
X126336588Y-74063136D01*
X126429936Y-73974241D01*
X126454721Y-73950639D01*
X126464053Y-73936594D01*
X126531421Y-73835196D01*
X126548891Y-73808902D01*
X126609319Y-73649825D01*
X126613694Y-73618699D01*
X126623455Y-73549240D01*
X126652743Y-73484566D01*
X126712347Y-73445993D01*
X126783343Y-73445768D01*
X126843191Y-73483962D01*
X126867785Y-73527000D01*
X126907094Y-73645167D01*
X126910741Y-73651189D01*
X126910742Y-73651191D01*
X126984806Y-73773484D01*
X126995246Y-73790723D01*
X127113455Y-73913132D01*
X127255846Y-74006310D01*
X127262450Y-74008766D01*
X127262452Y-74008767D01*
X127298844Y-74022301D01*
X127415341Y-74065626D01*
X127584015Y-74088132D01*
X127591026Y-74087494D01*
X127591030Y-74087494D01*
X127746462Y-74073348D01*
X127753483Y-74072709D01*
X127760185Y-74070531D01*
X127760187Y-74070531D01*
X127908623Y-74022301D01*
X127908626Y-74022300D01*
X127915322Y-74020124D01*
X128061490Y-73932990D01*
X128066584Y-73928139D01*
X128066588Y-73928136D01*
X128133833Y-73864099D01*
X128184721Y-73815639D01*
X128194655Y-73800688D01*
X128257381Y-73706277D01*
X128278891Y-73673902D01*
X128339319Y-73514825D01*
X128363001Y-73346313D01*
X128363299Y-73325000D01*
X128344331Y-73155892D01*
X128334351Y-73127232D01*
X128290686Y-73001846D01*
X128288368Y-72995189D01*
X128282551Y-72985879D01*
X128232922Y-72906458D01*
X128213785Y-72838089D01*
X128234650Y-72770227D01*
X128288891Y-72724419D01*
X128359287Y-72715207D01*
X128412708Y-72739274D01*
X128413455Y-72738132D01*
X128519175Y-72807313D01*
X128555846Y-72831310D01*
X128562450Y-72833766D01*
X128562452Y-72833767D01*
X128635594Y-72860968D01*
X128715341Y-72890626D01*
X128884015Y-72913132D01*
X128891026Y-72912494D01*
X128891030Y-72912494D01*
X129046462Y-72898348D01*
X129053483Y-72897709D01*
X129060185Y-72895531D01*
X129060187Y-72895531D01*
X129208623Y-72847301D01*
X129208626Y-72847300D01*
X129215322Y-72845124D01*
X129361490Y-72757990D01*
X129366584Y-72753139D01*
X129366588Y-72753136D01*
X129433833Y-72689099D01*
X129484721Y-72640639D01*
X129578891Y-72498902D01*
X129639319Y-72339825D01*
X129660210Y-72191170D01*
X129689498Y-72126497D01*
X129749101Y-72087923D01*
X129801647Y-72083813D01*
X129824356Y-72086843D01*
X129827037Y-72087201D01*
X129827038Y-72087201D01*
X129834015Y-72088132D01*
X129841026Y-72087494D01*
X129841030Y-72087494D01*
X129996462Y-72073348D01*
X130003483Y-72072709D01*
X130010185Y-72070531D01*
X130010187Y-72070531D01*
X130158623Y-72022301D01*
X130158626Y-72022300D01*
X130165322Y-72020124D01*
X130311490Y-71932990D01*
X130316584Y-71928139D01*
X130316588Y-71928136D01*
X130404815Y-71844118D01*
X130434721Y-71815639D01*
X130441909Y-71804821D01*
X130500207Y-71717075D01*
X130528891Y-71673902D01*
X130589319Y-71514825D01*
X130613001Y-71346313D01*
X130613299Y-71325000D01*
X130594331Y-71155892D01*
X130538368Y-70995189D01*
X130532383Y-70985610D01*
X130510420Y-70950464D01*
X130448192Y-70850879D01*
X130411609Y-70814039D01*
X130333249Y-70735129D01*
X130333245Y-70735126D01*
X130328286Y-70730132D01*
X130322338Y-70726357D01*
X130319652Y-70724198D01*
X130279095Y-70665926D01*
X130276481Y-70594978D01*
X130312639Y-70533879D01*
X130376090Y-70502027D01*
X130398602Y-70500000D01*
X132457233Y-70500000D01*
X132526224Y-70520566D01*
X132580846Y-70556310D01*
X132587450Y-70558766D01*
X132587452Y-70558767D01*
X132623844Y-70572301D01*
X132740341Y-70615626D01*
X132909015Y-70638132D01*
X132916026Y-70637494D01*
X132916030Y-70637494D01*
X133071462Y-70623348D01*
X133078483Y-70622709D01*
X133085185Y-70620531D01*
X133085187Y-70620531D01*
X133233623Y-70572301D01*
X133233626Y-70572300D01*
X133240322Y-70570124D01*
X133246373Y-70566517D01*
X133246375Y-70566516D01*
X133286566Y-70542557D01*
X133355321Y-70524856D01*
X133422730Y-70547137D01*
X133467393Y-70602326D01*
X133476090Y-70666577D01*
X133467430Y-70735129D01*
X133456578Y-70821033D01*
X133473184Y-70990389D01*
X133526897Y-71151857D01*
X133530544Y-71157879D01*
X133530545Y-71157881D01*
X133606214Y-71282824D01*
X133615049Y-71297413D01*
X133733258Y-71419822D01*
X133875649Y-71513000D01*
X133882253Y-71515456D01*
X133882255Y-71515457D01*
X133918647Y-71528991D01*
X134035144Y-71572316D01*
X134203818Y-71594822D01*
X134210829Y-71594184D01*
X134210833Y-71594184D01*
X134366265Y-71580038D01*
X134373286Y-71579399D01*
X134379988Y-71577221D01*
X134379990Y-71577221D01*
X134528426Y-71528991D01*
X134528429Y-71528990D01*
X134535125Y-71526814D01*
X134681293Y-71439680D01*
X134686387Y-71434829D01*
X134686391Y-71434826D01*
X134775232Y-71350223D01*
X134804524Y-71322329D01*
X134898694Y-71180592D01*
X134959122Y-71021515D01*
X134982804Y-70853003D01*
X134983102Y-70831690D01*
X134964134Y-70662582D01*
X134961816Y-70655925D01*
X134961360Y-70653919D01*
X134965771Y-70583059D01*
X135007791Y-70525833D01*
X135074079Y-70500409D01*
X135084228Y-70500000D01*
X143750000Y-70500000D01*
X143750000Y-62376000D01*
X143770002Y-62307879D01*
X143823658Y-62261386D01*
X143876000Y-62250000D01*
X146874000Y-62250000D01*
X146942121Y-62270002D01*
G37*
%TD.AperFunction*%
%TD*%
%TA.AperFunction,Conductor*%
%TO.N,+5V*%
G36*
X117942121Y-50528502D02*
G01*
X117988614Y-50582158D01*
X118000000Y-50634500D01*
X118000000Y-53673548D01*
X117979998Y-53741669D01*
X117940023Y-53780865D01*
X117836067Y-53844819D01*
X117836060Y-53844824D01*
X117830066Y-53848512D01*
X117708486Y-53967573D01*
X117704675Y-53973487D01*
X117704673Y-53973489D01*
X117632961Y-54084763D01*
X117616304Y-54110610D01*
X117558103Y-54270516D01*
X117536775Y-54439343D01*
X117553381Y-54608699D01*
X117555605Y-54615384D01*
X117555605Y-54615385D01*
X117573836Y-54670189D01*
X117607094Y-54770167D01*
X117655600Y-54850259D01*
X117673778Y-54918887D01*
X117651968Y-54986451D01*
X117597092Y-55031497D01*
X117560993Y-55040839D01*
X117533101Y-55043770D01*
X117533097Y-55043771D01*
X117526093Y-55044507D01*
X117519422Y-55046778D01*
X117371673Y-55097075D01*
X117371670Y-55097076D01*
X117365003Y-55099346D01*
X117359005Y-55103036D01*
X117359003Y-55103037D01*
X117295961Y-55141821D01*
X117227460Y-55160479D01*
X117159746Y-55139140D01*
X117114318Y-55084580D01*
X117104724Y-55048548D01*
X117095116Y-54962891D01*
X117094331Y-54955892D01*
X117081445Y-54918887D01*
X117040686Y-54801846D01*
X117038368Y-54795189D01*
X117032383Y-54785610D01*
X116999712Y-54733327D01*
X116948192Y-54650879D01*
X116942847Y-54645496D01*
X116871922Y-54574074D01*
X116828286Y-54530132D01*
X116821585Y-54525879D01*
X116735602Y-54471313D01*
X116684608Y-54438951D01*
X116524300Y-54381868D01*
X116355329Y-54361720D01*
X116348326Y-54362456D01*
X116348325Y-54362456D01*
X116193101Y-54378770D01*
X116193097Y-54378771D01*
X116186093Y-54379507D01*
X116179422Y-54381778D01*
X116031673Y-54432075D01*
X116031670Y-54432076D01*
X116025003Y-54434346D01*
X116019005Y-54438036D01*
X116019003Y-54438037D01*
X115886065Y-54519821D01*
X115886063Y-54519823D01*
X115880066Y-54523512D01*
X115758486Y-54642573D01*
X115754675Y-54648487D01*
X115754673Y-54648489D01*
X115680563Y-54763484D01*
X115666304Y-54785610D01*
X115608103Y-54945516D01*
X115586775Y-55114343D01*
X115603381Y-55283699D01*
X115657094Y-55445167D01*
X115660741Y-55451189D01*
X115660742Y-55451191D01*
X115737119Y-55577303D01*
X115745246Y-55590723D01*
X115863455Y-55713132D01*
X116005846Y-55806310D01*
X116012450Y-55808766D01*
X116012452Y-55808767D01*
X116085593Y-55835968D01*
X116165341Y-55865626D01*
X116334015Y-55888132D01*
X116341026Y-55887494D01*
X116341030Y-55887494D01*
X116496462Y-55873348D01*
X116503483Y-55872709D01*
X116510185Y-55870531D01*
X116510187Y-55870531D01*
X116658623Y-55822301D01*
X116658626Y-55822300D01*
X116665322Y-55820124D01*
X116671373Y-55816517D01*
X116671375Y-55816516D01*
X116745574Y-55772285D01*
X116814329Y-55754585D01*
X116881738Y-55776867D01*
X116926400Y-55832056D01*
X116935489Y-55868217D01*
X116943381Y-55948699D01*
X116945605Y-55955384D01*
X116945605Y-55955385D01*
X116954090Y-55980892D01*
X116997094Y-56110167D01*
X117000741Y-56116189D01*
X117000742Y-56116191D01*
X117069748Y-56230132D01*
X117085246Y-56255723D01*
X117203455Y-56378132D01*
X117345846Y-56471310D01*
X117351733Y-56473499D01*
X117403297Y-56521859D01*
X117420605Y-56590714D01*
X117419709Y-56601539D01*
X117411775Y-56664343D01*
X117428381Y-56833699D01*
X117482094Y-56995167D01*
X117485741Y-57001189D01*
X117485742Y-57001191D01*
X117559823Y-57123512D01*
X117570246Y-57140723D01*
X117688455Y-57263132D01*
X117830846Y-57356310D01*
X117831386Y-57356511D01*
X117881304Y-57403326D01*
X117898109Y-57454930D01*
X117903381Y-57508699D01*
X117905605Y-57515384D01*
X117905605Y-57515385D01*
X117913735Y-57539825D01*
X117957094Y-57670167D01*
X117960744Y-57676194D01*
X117960745Y-57676196D01*
X117981776Y-57710923D01*
X118000000Y-57776194D01*
X118000000Y-58143574D01*
X117979998Y-58211695D01*
X117926342Y-58258188D01*
X117887172Y-58268883D01*
X117844582Y-58273360D01*
X117793101Y-58278770D01*
X117793097Y-58278771D01*
X117786093Y-58279507D01*
X117769165Y-58285270D01*
X117631673Y-58332075D01*
X117631670Y-58332076D01*
X117625003Y-58334346D01*
X117619005Y-58338036D01*
X117619003Y-58338037D01*
X117486065Y-58419821D01*
X117486063Y-58419823D01*
X117480066Y-58423512D01*
X117358486Y-58542573D01*
X117354675Y-58548487D01*
X117354673Y-58548489D01*
X117279267Y-58665495D01*
X117266304Y-58685610D01*
X117208103Y-58845516D01*
X117186775Y-59014343D01*
X117203381Y-59183699D01*
X117205605Y-59190384D01*
X117205605Y-59190385D01*
X117216621Y-59223500D01*
X117257094Y-59345167D01*
X117260741Y-59351189D01*
X117260742Y-59351191D01*
X117317670Y-59445189D01*
X117345246Y-59490723D01*
X117463455Y-59613132D01*
X117502376Y-59638601D01*
X117592730Y-59697727D01*
X117605846Y-59706310D01*
X117612450Y-59708766D01*
X117612452Y-59708767D01*
X117667376Y-59729193D01*
X117765341Y-59765626D01*
X117772324Y-59766558D01*
X117772325Y-59766558D01*
X117890665Y-59782348D01*
X117955542Y-59811184D01*
X117994530Y-59870517D01*
X118000000Y-59907241D01*
X118000000Y-65500000D01*
X126374000Y-65500000D01*
X126442121Y-65520002D01*
X126488614Y-65573658D01*
X126500000Y-65626000D01*
X126500000Y-66771201D01*
X126479998Y-66839322D01*
X126426342Y-66885815D01*
X126387171Y-66896511D01*
X126377957Y-66897479D01*
X126311093Y-66904507D01*
X126304422Y-66906778D01*
X126156673Y-66957075D01*
X126156670Y-66957076D01*
X126150003Y-66959346D01*
X126144005Y-66963036D01*
X126144003Y-66963037D01*
X126011065Y-67044821D01*
X126011063Y-67044823D01*
X126005066Y-67048512D01*
X125883486Y-67167573D01*
X125791304Y-67310610D01*
X125733103Y-67470516D01*
X125711775Y-67639343D01*
X125728381Y-67808699D01*
X125782094Y-67970167D01*
X125785741Y-67976189D01*
X125785742Y-67976191D01*
X125810598Y-68017232D01*
X125870246Y-68115723D01*
X125988455Y-68238132D01*
X126130846Y-68331310D01*
X126137450Y-68333766D01*
X126137452Y-68333767D01*
X126191752Y-68353961D01*
X126290341Y-68390626D01*
X126297326Y-68391558D01*
X126390664Y-68404012D01*
X126455541Y-68432848D01*
X126494529Y-68492181D01*
X126500000Y-68528905D01*
X126500000Y-72732220D01*
X126479998Y-72800341D01*
X126426342Y-72846834D01*
X126356068Y-72856938D01*
X126306486Y-72838605D01*
X126210562Y-72777729D01*
X126210558Y-72777727D01*
X126204608Y-72773951D01*
X126044300Y-72716868D01*
X125875329Y-72696720D01*
X125868326Y-72697456D01*
X125868325Y-72697456D01*
X125713101Y-72713770D01*
X125713097Y-72713771D01*
X125706093Y-72714507D01*
X125699422Y-72716778D01*
X125551673Y-72767075D01*
X125551670Y-72767076D01*
X125545003Y-72769346D01*
X125539005Y-72773036D01*
X125539003Y-72773037D01*
X125406065Y-72854821D01*
X125406063Y-72854823D01*
X125400066Y-72858512D01*
X125278486Y-72977573D01*
X125274675Y-72983487D01*
X125274673Y-72983489D01*
X125250116Y-73021594D01*
X125186304Y-73120610D01*
X125167527Y-73172200D01*
X125133931Y-73264505D01*
X125128103Y-73280516D01*
X125106775Y-73449343D01*
X125123381Y-73618699D01*
X125177094Y-73780167D01*
X125180741Y-73786189D01*
X125180742Y-73786191D01*
X125214199Y-73841434D01*
X125265246Y-73925723D01*
X125383455Y-74048132D01*
X125525846Y-74141310D01*
X125532450Y-74143766D01*
X125532452Y-74143767D01*
X125568844Y-74157301D01*
X125685341Y-74200626D01*
X125854015Y-74223132D01*
X125861026Y-74222494D01*
X125861030Y-74222494D01*
X126016462Y-74208348D01*
X126023483Y-74207709D01*
X126030185Y-74205531D01*
X126030187Y-74205531D01*
X126178623Y-74157301D01*
X126178626Y-74157300D01*
X126185322Y-74155124D01*
X126309483Y-74081109D01*
X126378237Y-74063409D01*
X126445647Y-74085691D01*
X126490309Y-74140879D01*
X126500000Y-74189338D01*
X126500000Y-74365500D01*
X126479998Y-74433621D01*
X126426342Y-74480114D01*
X126374000Y-74491500D01*
X114942454Y-74491500D01*
X114874333Y-74471498D01*
X114827840Y-74417842D01*
X114817736Y-74347568D01*
X114848818Y-74281190D01*
X114924958Y-74196628D01*
X114924959Y-74196627D01*
X114929377Y-74191720D01*
X115000813Y-74067990D01*
X115024188Y-74027503D01*
X115024189Y-74027502D01*
X115027492Y-74021780D01*
X115088130Y-73835155D01*
X115108642Y-73640000D01*
X115088130Y-73444845D01*
X115027492Y-73258220D01*
X114995611Y-73203000D01*
X114978873Y-73134004D01*
X114995611Y-73077000D01*
X115024188Y-73027503D01*
X115024189Y-73027502D01*
X115027492Y-73021780D01*
X115069292Y-72893132D01*
X115086090Y-72841434D01*
X115086090Y-72841433D01*
X115088130Y-72835155D01*
X115094812Y-72771586D01*
X115107952Y-72646565D01*
X115108642Y-72640000D01*
X115105112Y-72606414D01*
X115088820Y-72451409D01*
X115088820Y-72451408D01*
X115088130Y-72444845D01*
X115027492Y-72258220D01*
X114995611Y-72203000D01*
X114978873Y-72134004D01*
X114983178Y-72119343D01*
X120476775Y-72119343D01*
X120493381Y-72288699D01*
X120547094Y-72450167D01*
X120550741Y-72456189D01*
X120550742Y-72456191D01*
X120618880Y-72568699D01*
X120635246Y-72595723D01*
X120753455Y-72718132D01*
X120774984Y-72732220D01*
X120879084Y-72800341D01*
X120895846Y-72811310D01*
X120902450Y-72813766D01*
X120902452Y-72813767D01*
X120938844Y-72827301D01*
X121055341Y-72870626D01*
X121224015Y-72893132D01*
X121231026Y-72892494D01*
X121231030Y-72892494D01*
X121386462Y-72878348D01*
X121393483Y-72877709D01*
X121400185Y-72875531D01*
X121400187Y-72875531D01*
X121548623Y-72827301D01*
X121548626Y-72827300D01*
X121555322Y-72825124D01*
X121701490Y-72737990D01*
X121706584Y-72733139D01*
X121706588Y-72733136D01*
X121804390Y-72640000D01*
X121824721Y-72620639D01*
X121843188Y-72592845D01*
X121914990Y-72484773D01*
X121918891Y-72478902D01*
X121949113Y-72399343D01*
X123586775Y-72399343D01*
X123603381Y-72568699D01*
X123657094Y-72730167D01*
X123660741Y-72736189D01*
X123660742Y-72736191D01*
X123737808Y-72863441D01*
X123745246Y-72875723D01*
X123863455Y-72998132D01*
X124005846Y-73091310D01*
X124012450Y-73093766D01*
X124012452Y-73093767D01*
X124048844Y-73107301D01*
X124165341Y-73150626D01*
X124334015Y-73173132D01*
X124341026Y-73172494D01*
X124341030Y-73172494D01*
X124496462Y-73158348D01*
X124503483Y-73157709D01*
X124510185Y-73155531D01*
X124510187Y-73155531D01*
X124658623Y-73107301D01*
X124658626Y-73107300D01*
X124665322Y-73105124D01*
X124811490Y-73017990D01*
X124816584Y-73013139D01*
X124816588Y-73013136D01*
X124883833Y-72949099D01*
X124934721Y-72900639D01*
X124954043Y-72871558D01*
X125018892Y-72773951D01*
X125028891Y-72758902D01*
X125089319Y-72599825D01*
X125113001Y-72431313D01*
X125113299Y-72410000D01*
X125094331Y-72240892D01*
X125038368Y-72080189D01*
X125032383Y-72070610D01*
X125005446Y-72027503D01*
X124948192Y-71935879D01*
X124828286Y-71815132D01*
X124815230Y-71806846D01*
X124773406Y-71780304D01*
X124684608Y-71723951D01*
X124524300Y-71666868D01*
X124355329Y-71646720D01*
X124348326Y-71647456D01*
X124348325Y-71647456D01*
X124193101Y-71663770D01*
X124193097Y-71663771D01*
X124186093Y-71664507D01*
X124179422Y-71666778D01*
X124031673Y-71717075D01*
X124031670Y-71717076D01*
X124025003Y-71719346D01*
X124019005Y-71723036D01*
X124019003Y-71723037D01*
X123886065Y-71804821D01*
X123886063Y-71804823D01*
X123880066Y-71808512D01*
X123758486Y-71927573D01*
X123754675Y-71933487D01*
X123754673Y-71933489D01*
X123697773Y-72021780D01*
X123666304Y-72070610D01*
X123608103Y-72230516D01*
X123586775Y-72399343D01*
X121949113Y-72399343D01*
X121979319Y-72319825D01*
X122003001Y-72151313D01*
X122003299Y-72130000D01*
X121984331Y-71960892D01*
X121928368Y-71800189D01*
X121922383Y-71790610D01*
X121883090Y-71727730D01*
X121838192Y-71655879D01*
X121718286Y-71535132D01*
X121702039Y-71524821D01*
X121663406Y-71500304D01*
X121574608Y-71443951D01*
X121414300Y-71386868D01*
X121245329Y-71366720D01*
X121238326Y-71367456D01*
X121238325Y-71367456D01*
X121083101Y-71383770D01*
X121083097Y-71383771D01*
X121076093Y-71384507D01*
X121069422Y-71386778D01*
X120921673Y-71437075D01*
X120921670Y-71437076D01*
X120915003Y-71439346D01*
X120909005Y-71443036D01*
X120909003Y-71443037D01*
X120776065Y-71524821D01*
X120776063Y-71524823D01*
X120770066Y-71528512D01*
X120648486Y-71647573D01*
X120644675Y-71653487D01*
X120644673Y-71653489D01*
X120602231Y-71719346D01*
X120556304Y-71790610D01*
X120553894Y-71797232D01*
X120506454Y-71927573D01*
X120498103Y-71950516D01*
X120476775Y-72119343D01*
X114983178Y-72119343D01*
X114995611Y-72077000D01*
X115024188Y-72027503D01*
X115024189Y-72027502D01*
X115027492Y-72021780D01*
X115088130Y-71835155D01*
X115091106Y-71806846D01*
X115107952Y-71646565D01*
X115108642Y-71640000D01*
X115088130Y-71444845D01*
X115085606Y-71437075D01*
X115051625Y-71332494D01*
X115027492Y-71258220D01*
X114995611Y-71203000D01*
X114978873Y-71134004D01*
X114995611Y-71077000D01*
X115024188Y-71027503D01*
X115024189Y-71027502D01*
X115027492Y-71021780D01*
X115088130Y-70835155D01*
X115108642Y-70640000D01*
X115100164Y-70559343D01*
X119536775Y-70559343D01*
X119553381Y-70728699D01*
X119607094Y-70890167D01*
X119610741Y-70896189D01*
X119610742Y-70896191D01*
X119690268Y-71027503D01*
X119695246Y-71035723D01*
X119813455Y-71158132D01*
X119955846Y-71251310D01*
X119962450Y-71253766D01*
X119962452Y-71253767D01*
X119998844Y-71267301D01*
X120115341Y-71310626D01*
X120284015Y-71333132D01*
X120291026Y-71332494D01*
X120291030Y-71332494D01*
X120446462Y-71318348D01*
X120453483Y-71317709D01*
X120460185Y-71315531D01*
X120460187Y-71315531D01*
X120608623Y-71267301D01*
X120608626Y-71267300D01*
X120615322Y-71265124D01*
X120761490Y-71177990D01*
X120766584Y-71173139D01*
X120766588Y-71173136D01*
X120867540Y-71077000D01*
X120884721Y-71060639D01*
X120978891Y-70918902D01*
X121039319Y-70759825D01*
X121063001Y-70591313D01*
X121063299Y-70570000D01*
X121055850Y-70503589D01*
X121068134Y-70433663D01*
X121094173Y-70398298D01*
X121102345Y-70390516D01*
X121154721Y-70340639D01*
X121248891Y-70198902D01*
X121309319Y-70039825D01*
X121333001Y-69871313D01*
X121333299Y-69850000D01*
X121314331Y-69680892D01*
X121258368Y-69520189D01*
X121252383Y-69510610D01*
X121208150Y-69439825D01*
X121168192Y-69375879D01*
X121048286Y-69255132D01*
X121040200Y-69250000D01*
X120993406Y-69220304D01*
X120904608Y-69163951D01*
X120744300Y-69106868D01*
X120575329Y-69086720D01*
X120568326Y-69087456D01*
X120568325Y-69087456D01*
X120413101Y-69103770D01*
X120413097Y-69103771D01*
X120406093Y-69104507D01*
X120399422Y-69106778D01*
X120251673Y-69157075D01*
X120251670Y-69157076D01*
X120245003Y-69159346D01*
X120239005Y-69163036D01*
X120239003Y-69163037D01*
X120106065Y-69244821D01*
X120106063Y-69244823D01*
X120100066Y-69248512D01*
X119978486Y-69367573D01*
X119974675Y-69373487D01*
X119974673Y-69373489D01*
X119931922Y-69439825D01*
X119886304Y-69510610D01*
X119828103Y-69670516D01*
X119806775Y-69839343D01*
X119808957Y-69861594D01*
X119814480Y-69917926D01*
X119801220Y-69987673D01*
X119777239Y-70020244D01*
X119708486Y-70087573D01*
X119704675Y-70093487D01*
X119704673Y-70093489D01*
X119632955Y-70204773D01*
X119616304Y-70230610D01*
X119558103Y-70390516D01*
X119536775Y-70559343D01*
X115100164Y-70559343D01*
X115088130Y-70444845D01*
X115070478Y-70390516D01*
X115029534Y-70264505D01*
X115027492Y-70258220D01*
X114929377Y-70088280D01*
X114860875Y-70012200D01*
X114802496Y-69947364D01*
X114802495Y-69947363D01*
X114798074Y-69942453D01*
X114700159Y-69871313D01*
X114644663Y-69830993D01*
X114644662Y-69830992D01*
X114639321Y-69827112D01*
X114633293Y-69824428D01*
X114633291Y-69824427D01*
X114466087Y-69749983D01*
X114466086Y-69749983D01*
X114460056Y-69747298D01*
X114335331Y-69720787D01*
X114274572Y-69707872D01*
X114274568Y-69707872D01*
X114268115Y-69706500D01*
X114071885Y-69706500D01*
X114065432Y-69707872D01*
X114065428Y-69707872D01*
X114004669Y-69720787D01*
X113879944Y-69747298D01*
X113873914Y-69749983D01*
X113873913Y-69749983D01*
X113706709Y-69824427D01*
X113706707Y-69824428D01*
X113700679Y-69827112D01*
X113695338Y-69830992D01*
X113695337Y-69830993D01*
X113639842Y-69871313D01*
X113541926Y-69942453D01*
X113537505Y-69947363D01*
X113537504Y-69947364D01*
X113479126Y-70012200D01*
X113410623Y-70088280D01*
X113312508Y-70258220D01*
X113310466Y-70264505D01*
X113269523Y-70390516D01*
X113251870Y-70444845D01*
X113231358Y-70640000D01*
X113251870Y-70835155D01*
X113312508Y-71021780D01*
X113315811Y-71027502D01*
X113315812Y-71027503D01*
X113344389Y-71077000D01*
X113361127Y-71145996D01*
X113344389Y-71203000D01*
X113312508Y-71258220D01*
X113288375Y-71332494D01*
X113254395Y-71437075D01*
X113251870Y-71444845D01*
X113231358Y-71640000D01*
X113232048Y-71646565D01*
X113248895Y-71806846D01*
X113251870Y-71835155D01*
X113312508Y-72021780D01*
X113315811Y-72027502D01*
X113315812Y-72027503D01*
X113344389Y-72077000D01*
X113361127Y-72145996D01*
X113344389Y-72203000D01*
X113312508Y-72258220D01*
X113251870Y-72444845D01*
X113251180Y-72451408D01*
X113251180Y-72451409D01*
X113234888Y-72606414D01*
X113231358Y-72640000D01*
X113232048Y-72646565D01*
X113245189Y-72771586D01*
X113251870Y-72835155D01*
X113253910Y-72841433D01*
X113253910Y-72841434D01*
X113270708Y-72893132D01*
X113312508Y-73021780D01*
X113315811Y-73027502D01*
X113315812Y-73027503D01*
X113344389Y-73077000D01*
X113361127Y-73145996D01*
X113344389Y-73203000D01*
X113312508Y-73258220D01*
X113251870Y-73444845D01*
X113231358Y-73640000D01*
X113251870Y-73835155D01*
X113312508Y-74021780D01*
X113315811Y-74027502D01*
X113315812Y-74027503D01*
X113339187Y-74067990D01*
X113410623Y-74191720D01*
X113415041Y-74196627D01*
X113415042Y-74196628D01*
X113491182Y-74281190D01*
X113521900Y-74345197D01*
X113513135Y-74415651D01*
X113467672Y-74470182D01*
X113397546Y-74491500D01*
X100634500Y-74491500D01*
X100566379Y-74471498D01*
X100519886Y-74417842D01*
X100508500Y-74365500D01*
X100508500Y-69239343D01*
X109711775Y-69239343D01*
X109728381Y-69408699D01*
X109782094Y-69570167D01*
X109785741Y-69576189D01*
X109785742Y-69576191D01*
X109849152Y-69680892D01*
X109870246Y-69715723D01*
X109988455Y-69838132D01*
X110130846Y-69931310D01*
X110137450Y-69933766D01*
X110137452Y-69933767D01*
X110210593Y-69960968D01*
X110290341Y-69990626D01*
X110459015Y-70013132D01*
X110466026Y-70012494D01*
X110466030Y-70012494D01*
X110621462Y-69998348D01*
X110628483Y-69997709D01*
X110635185Y-69995531D01*
X110635187Y-69995531D01*
X110783623Y-69947301D01*
X110783626Y-69947300D01*
X110790322Y-69945124D01*
X110936490Y-69857990D01*
X110941584Y-69853139D01*
X110941588Y-69853136D01*
X111008833Y-69789099D01*
X111059721Y-69740639D01*
X111081492Y-69707872D01*
X111149990Y-69604773D01*
X111153891Y-69598902D01*
X111214319Y-69439825D01*
X111238001Y-69271313D01*
X111238157Y-69260129D01*
X111238244Y-69253961D01*
X111238244Y-69253955D01*
X111238299Y-69250000D01*
X111219331Y-69080892D01*
X111205620Y-69041518D01*
X111169616Y-68938132D01*
X111163368Y-68920189D01*
X111157383Y-68910610D01*
X111101254Y-68820787D01*
X111073192Y-68775879D01*
X110953286Y-68655132D01*
X110937039Y-68644821D01*
X110898406Y-68620304D01*
X110809608Y-68563951D01*
X110649300Y-68506868D01*
X110480329Y-68486720D01*
X110473326Y-68487456D01*
X110473325Y-68487456D01*
X110318101Y-68503770D01*
X110318097Y-68503771D01*
X110311093Y-68504507D01*
X110304422Y-68506778D01*
X110156673Y-68557075D01*
X110156670Y-68557076D01*
X110150003Y-68559346D01*
X110144005Y-68563036D01*
X110144003Y-68563037D01*
X110011065Y-68644821D01*
X110011063Y-68644823D01*
X110005066Y-68648512D01*
X109883486Y-68767573D01*
X109879675Y-68773487D01*
X109879673Y-68773489D01*
X109833266Y-68845498D01*
X109791304Y-68910610D01*
X109781287Y-68938132D01*
X109741553Y-69047301D01*
X109733103Y-69070516D01*
X109711775Y-69239343D01*
X100508500Y-69239343D01*
X100508500Y-68339343D01*
X113786775Y-68339343D01*
X113803381Y-68508699D01*
X113857094Y-68670167D01*
X113860741Y-68676189D01*
X113860742Y-68676191D01*
X113921116Y-68775879D01*
X113945246Y-68815723D01*
X114063455Y-68938132D01*
X114205846Y-69031310D01*
X114212450Y-69033766D01*
X114212452Y-69033767D01*
X114248844Y-69047301D01*
X114365341Y-69090626D01*
X114534015Y-69113132D01*
X114541026Y-69112494D01*
X114541030Y-69112494D01*
X114696462Y-69098348D01*
X114703483Y-69097709D01*
X114710185Y-69095531D01*
X114710187Y-69095531D01*
X114858623Y-69047301D01*
X114858626Y-69047300D01*
X114865322Y-69045124D01*
X114934605Y-69003823D01*
X115003359Y-68986123D01*
X115068115Y-69006619D01*
X115105846Y-69031310D01*
X115112450Y-69033766D01*
X115112452Y-69033767D01*
X115148844Y-69047301D01*
X115265341Y-69090626D01*
X115434015Y-69113132D01*
X115441026Y-69112494D01*
X115441030Y-69112494D01*
X115596462Y-69098348D01*
X115603483Y-69097709D01*
X115610185Y-69095531D01*
X115610187Y-69095531D01*
X115758623Y-69047301D01*
X115758626Y-69047300D01*
X115765322Y-69045124D01*
X115911490Y-68957990D01*
X115916584Y-68953139D01*
X115916588Y-68953136D01*
X115983833Y-68889099D01*
X116034721Y-68840639D01*
X116128891Y-68698902D01*
X116189319Y-68539825D01*
X116213001Y-68371313D01*
X116213299Y-68350000D01*
X116194331Y-68180892D01*
X116138368Y-68020189D01*
X116132383Y-68010610D01*
X116102934Y-67963484D01*
X116048192Y-67875879D01*
X115928286Y-67755132D01*
X115912039Y-67744821D01*
X115863647Y-67714111D01*
X115784608Y-67663951D01*
X115624300Y-67606868D01*
X115455329Y-67586720D01*
X115448326Y-67587456D01*
X115448325Y-67587456D01*
X115293101Y-67603770D01*
X115293097Y-67603771D01*
X115286093Y-67604507D01*
X115279422Y-67606778D01*
X115131673Y-67657075D01*
X115131670Y-67657076D01*
X115125003Y-67659346D01*
X115070130Y-67693104D01*
X115066314Y-67695452D01*
X114997813Y-67714111D01*
X114932777Y-67694520D01*
X114921770Y-67687535D01*
X114884608Y-67663951D01*
X114724300Y-67606868D01*
X114555329Y-67586720D01*
X114548326Y-67587456D01*
X114548325Y-67587456D01*
X114393101Y-67603770D01*
X114393097Y-67603771D01*
X114386093Y-67604507D01*
X114379422Y-67606778D01*
X114231673Y-67657075D01*
X114231670Y-67657076D01*
X114225003Y-67659346D01*
X114219005Y-67663036D01*
X114219003Y-67663037D01*
X114086065Y-67744821D01*
X114086063Y-67744823D01*
X114080066Y-67748512D01*
X113958486Y-67867573D01*
X113866304Y-68010610D01*
X113808103Y-68170516D01*
X113786775Y-68339343D01*
X100508500Y-68339343D01*
X100508500Y-60369343D01*
X105856775Y-60369343D01*
X105873381Y-60538699D01*
X105927094Y-60700167D01*
X105930741Y-60706189D01*
X105930742Y-60706191D01*
X105967917Y-60767573D01*
X106015246Y-60845723D01*
X106133455Y-60968132D01*
X106275846Y-61061310D01*
X106282450Y-61063766D01*
X106282452Y-61063767D01*
X106318844Y-61077301D01*
X106435341Y-61120626D01*
X106604015Y-61143132D01*
X106611026Y-61142494D01*
X106611030Y-61142494D01*
X106766462Y-61128348D01*
X106773483Y-61127709D01*
X106780185Y-61125531D01*
X106780187Y-61125531D01*
X106928623Y-61077301D01*
X106928626Y-61077300D01*
X106935322Y-61075124D01*
X107081490Y-60987990D01*
X107086584Y-60983139D01*
X107086588Y-60983136D01*
X107162747Y-60910610D01*
X107204721Y-60870639D01*
X107220159Y-60847404D01*
X107251806Y-60799771D01*
X107298891Y-60728902D01*
X107359319Y-60569825D01*
X107367059Y-60514747D01*
X107396346Y-60450073D01*
X107455950Y-60411500D01*
X107526946Y-60411273D01*
X107560822Y-60426847D01*
X107605846Y-60456310D01*
X107612450Y-60458766D01*
X107612452Y-60458767D01*
X107648844Y-60472301D01*
X107765341Y-60515626D01*
X107934015Y-60538132D01*
X107941026Y-60537494D01*
X107941030Y-60537494D01*
X108096462Y-60523348D01*
X108103483Y-60522709D01*
X108110185Y-60520531D01*
X108110187Y-60520531D01*
X108258623Y-60472301D01*
X108258626Y-60472300D01*
X108265322Y-60470124D01*
X108411490Y-60382990D01*
X108416584Y-60378139D01*
X108416588Y-60378136D01*
X108511101Y-60288132D01*
X108534721Y-60265639D01*
X108628891Y-60123902D01*
X108689319Y-59964825D01*
X108713001Y-59796313D01*
X108713299Y-59775000D01*
X108694331Y-59605892D01*
X108638368Y-59445189D01*
X108632383Y-59435610D01*
X108591502Y-59370189D01*
X108548192Y-59300879D01*
X108428286Y-59180132D01*
X108412039Y-59169821D01*
X108373406Y-59145304D01*
X108284608Y-59088951D01*
X108124300Y-59031868D01*
X107955329Y-59011720D01*
X107948326Y-59012456D01*
X107948325Y-59012456D01*
X107793101Y-59028770D01*
X107793097Y-59028771D01*
X107786093Y-59029507D01*
X107779422Y-59031778D01*
X107631673Y-59082075D01*
X107631670Y-59082076D01*
X107625003Y-59084346D01*
X107619005Y-59088036D01*
X107619003Y-59088037D01*
X107486065Y-59169821D01*
X107486063Y-59169823D01*
X107480066Y-59173512D01*
X107358486Y-59292573D01*
X107266304Y-59435610D01*
X107208103Y-59595516D01*
X107207220Y-59602504D01*
X107207220Y-59602505D01*
X107202660Y-59638601D01*
X107174278Y-59703677D01*
X107115218Y-59743078D01*
X107044232Y-59744294D01*
X107010144Y-59729195D01*
X106954608Y-59693951D01*
X106794300Y-59636868D01*
X106625329Y-59616720D01*
X106618326Y-59617456D01*
X106618325Y-59617456D01*
X106463101Y-59633770D01*
X106463097Y-59633771D01*
X106456093Y-59634507D01*
X106449422Y-59636778D01*
X106301673Y-59687075D01*
X106301670Y-59687076D01*
X106295003Y-59689346D01*
X106289005Y-59693036D01*
X106289003Y-59693037D01*
X106156065Y-59774821D01*
X106156063Y-59774823D01*
X106150066Y-59778512D01*
X106028486Y-59897573D01*
X106024675Y-59903487D01*
X106024673Y-59903489D01*
X105980898Y-59971414D01*
X105936304Y-60040610D01*
X105878103Y-60200516D01*
X105856775Y-60369343D01*
X100508500Y-60369343D01*
X100508500Y-58290000D01*
X101831358Y-58290000D01*
X101832048Y-58296565D01*
X101835877Y-58332990D01*
X101851870Y-58485155D01*
X101912508Y-58671780D01*
X102010623Y-58841720D01*
X102015041Y-58846627D01*
X102015042Y-58846628D01*
X102137504Y-58982636D01*
X102141926Y-58987547D01*
X102147268Y-58991428D01*
X102147270Y-58991430D01*
X102289157Y-59094517D01*
X102300679Y-59102888D01*
X102306707Y-59105572D01*
X102306709Y-59105573D01*
X102473913Y-59180017D01*
X102479944Y-59182702D01*
X102575915Y-59203101D01*
X102665428Y-59222128D01*
X102665432Y-59222128D01*
X102671885Y-59223500D01*
X102868115Y-59223500D01*
X102874568Y-59222128D01*
X102874572Y-59222128D01*
X102964085Y-59203101D01*
X103060056Y-59182702D01*
X103069627Y-59178441D01*
X103116086Y-59157756D01*
X103218752Y-59112046D01*
X103289118Y-59102612D01*
X103321247Y-59112045D01*
X103423914Y-59157756D01*
X103470374Y-59178441D01*
X103479944Y-59182702D01*
X103575915Y-59203101D01*
X103665428Y-59222128D01*
X103665432Y-59222128D01*
X103671885Y-59223500D01*
X103868115Y-59223500D01*
X103874568Y-59222128D01*
X103874572Y-59222128D01*
X103964085Y-59203101D01*
X104060056Y-59182702D01*
X104069627Y-59178441D01*
X104116086Y-59157756D01*
X104218752Y-59112046D01*
X104289118Y-59102612D01*
X104321247Y-59112045D01*
X104423914Y-59157756D01*
X104470374Y-59178441D01*
X104479944Y-59182702D01*
X104575915Y-59203101D01*
X104665428Y-59222128D01*
X104665432Y-59222128D01*
X104671885Y-59223500D01*
X104868115Y-59223500D01*
X104874568Y-59222128D01*
X104874572Y-59222128D01*
X104964085Y-59203101D01*
X105060056Y-59182702D01*
X105069627Y-59178441D01*
X105116086Y-59157756D01*
X105218752Y-59112046D01*
X105289118Y-59102612D01*
X105321247Y-59112045D01*
X105423914Y-59157756D01*
X105470374Y-59178441D01*
X105479944Y-59182702D01*
X105575915Y-59203101D01*
X105665428Y-59222128D01*
X105665432Y-59222128D01*
X105671885Y-59223500D01*
X105868115Y-59223500D01*
X105874568Y-59222128D01*
X105874572Y-59222128D01*
X105964085Y-59203101D01*
X106060056Y-59182702D01*
X106066087Y-59180017D01*
X106233291Y-59105573D01*
X106233293Y-59105572D01*
X106239321Y-59102888D01*
X106250843Y-59094517D01*
X106392730Y-58991430D01*
X106392732Y-58991428D01*
X106398074Y-58987547D01*
X106402496Y-58982636D01*
X106524958Y-58846628D01*
X106524959Y-58846627D01*
X106529377Y-58841720D01*
X106627492Y-58671780D01*
X106688130Y-58485155D01*
X106704124Y-58332990D01*
X106707952Y-58296565D01*
X106708642Y-58290000D01*
X106688130Y-58094845D01*
X106627492Y-57908220D01*
X106529377Y-57738280D01*
X106473477Y-57676196D01*
X106402496Y-57597364D01*
X106402495Y-57597363D01*
X106398074Y-57592453D01*
X106347753Y-57555892D01*
X106244663Y-57480993D01*
X106244662Y-57480992D01*
X106239321Y-57477112D01*
X106233293Y-57474428D01*
X106233291Y-57474427D01*
X106066087Y-57399983D01*
X106066086Y-57399983D01*
X106060056Y-57397298D01*
X105964086Y-57376899D01*
X105874572Y-57357872D01*
X105874568Y-57357872D01*
X105868115Y-57356500D01*
X105671885Y-57356500D01*
X105665432Y-57357872D01*
X105665428Y-57357872D01*
X105575914Y-57376899D01*
X105479944Y-57397298D01*
X105321248Y-57467954D01*
X105250882Y-57477388D01*
X105218753Y-57467955D01*
X105060056Y-57397298D01*
X104964086Y-57376899D01*
X104874572Y-57357872D01*
X104874568Y-57357872D01*
X104868115Y-57356500D01*
X104671885Y-57356500D01*
X104665432Y-57357872D01*
X104665428Y-57357872D01*
X104575914Y-57376899D01*
X104479944Y-57397298D01*
X104321248Y-57467954D01*
X104250882Y-57477388D01*
X104218753Y-57467955D01*
X104060056Y-57397298D01*
X103964086Y-57376899D01*
X103874572Y-57357872D01*
X103874568Y-57357872D01*
X103868115Y-57356500D01*
X103671885Y-57356500D01*
X103665432Y-57357872D01*
X103665428Y-57357872D01*
X103575914Y-57376899D01*
X103479944Y-57397298D01*
X103321248Y-57467954D01*
X103250882Y-57477388D01*
X103218753Y-57467955D01*
X103060056Y-57397298D01*
X102964086Y-57376899D01*
X102874572Y-57357872D01*
X102874568Y-57357872D01*
X102868115Y-57356500D01*
X102671885Y-57356500D01*
X102665432Y-57357872D01*
X102665428Y-57357872D01*
X102575914Y-57376899D01*
X102479944Y-57397298D01*
X102473914Y-57399983D01*
X102473913Y-57399983D01*
X102306709Y-57474427D01*
X102306707Y-57474428D01*
X102300679Y-57477112D01*
X102295338Y-57480992D01*
X102295337Y-57480993D01*
X102192248Y-57555892D01*
X102141926Y-57592453D01*
X102137505Y-57597363D01*
X102137504Y-57597364D01*
X102066524Y-57676196D01*
X102010623Y-57738280D01*
X101912508Y-57908220D01*
X101851870Y-58094845D01*
X101831358Y-58290000D01*
X100508500Y-58290000D01*
X100508500Y-53082655D01*
X101164858Y-53082655D01*
X101200104Y-53341638D01*
X101201412Y-53346124D01*
X101201412Y-53346126D01*
X101219839Y-53409346D01*
X101273243Y-53592567D01*
X101382668Y-53829928D01*
X101406197Y-53865816D01*
X101523410Y-54044596D01*
X101523414Y-54044601D01*
X101525976Y-54048509D01*
X101700018Y-54243506D01*
X101900970Y-54410637D01*
X101904973Y-54413066D01*
X102120422Y-54543804D01*
X102120426Y-54543806D01*
X102124419Y-54546229D01*
X102365455Y-54647303D01*
X102618783Y-54711641D01*
X102623434Y-54712109D01*
X102623438Y-54712110D01*
X102816308Y-54731531D01*
X102835867Y-54733500D01*
X102991354Y-54733500D01*
X102993679Y-54733327D01*
X102993685Y-54733327D01*
X103181000Y-54719407D01*
X103181004Y-54719406D01*
X103185652Y-54719061D01*
X103190200Y-54718032D01*
X103190206Y-54718031D01*
X103401634Y-54670189D01*
X103440577Y-54661377D01*
X103480428Y-54645880D01*
X103679824Y-54568340D01*
X103679827Y-54568339D01*
X103684177Y-54566647D01*
X103911098Y-54436951D01*
X104116357Y-54275138D01*
X104295443Y-54084763D01*
X104409386Y-53920516D01*
X104441759Y-53873851D01*
X104441761Y-53873848D01*
X104444424Y-53870009D01*
X104451761Y-53855132D01*
X104538126Y-53680000D01*
X110251358Y-53680000D01*
X110252048Y-53686565D01*
X110261960Y-53780865D01*
X110271870Y-53875155D01*
X110332508Y-54061780D01*
X110335811Y-54067502D01*
X110335812Y-54067503D01*
X110354574Y-54100000D01*
X110430623Y-54231720D01*
X110435041Y-54236627D01*
X110435042Y-54236628D01*
X110482941Y-54289825D01*
X110561926Y-54377547D01*
X110567268Y-54381428D01*
X110567270Y-54381430D01*
X110707588Y-54483377D01*
X110720679Y-54492888D01*
X110726707Y-54495572D01*
X110726709Y-54495573D01*
X110893913Y-54570017D01*
X110899944Y-54572702D01*
X110995915Y-54593101D01*
X111085428Y-54612128D01*
X111085432Y-54612128D01*
X111091885Y-54613500D01*
X111288115Y-54613500D01*
X111294568Y-54612128D01*
X111294572Y-54612128D01*
X111384086Y-54593101D01*
X111480056Y-54572702D01*
X111489854Y-54568340D01*
X111564446Y-54535129D01*
X111638752Y-54502046D01*
X111709118Y-54492612D01*
X111741247Y-54502045D01*
X111815554Y-54535129D01*
X111890147Y-54568340D01*
X111899944Y-54572702D01*
X111995915Y-54593101D01*
X112085428Y-54612128D01*
X112085432Y-54612128D01*
X112091885Y-54613500D01*
X112288115Y-54613500D01*
X112294568Y-54612128D01*
X112294572Y-54612128D01*
X112384086Y-54593101D01*
X112480056Y-54572702D01*
X112489854Y-54568340D01*
X112564446Y-54535129D01*
X112638752Y-54502046D01*
X112709118Y-54492612D01*
X112741247Y-54502045D01*
X112815554Y-54535129D01*
X112890147Y-54568340D01*
X112899944Y-54572702D01*
X112995915Y-54593101D01*
X113085428Y-54612128D01*
X113085432Y-54612128D01*
X113091885Y-54613500D01*
X113288115Y-54613500D01*
X113294568Y-54612128D01*
X113294572Y-54612128D01*
X113384086Y-54593101D01*
X113480056Y-54572702D01*
X113489854Y-54568340D01*
X113564446Y-54535129D01*
X113638752Y-54502046D01*
X113709118Y-54492612D01*
X113741247Y-54502045D01*
X113815554Y-54535129D01*
X113890147Y-54568340D01*
X113899944Y-54572702D01*
X113995915Y-54593101D01*
X114085428Y-54612128D01*
X114085432Y-54612128D01*
X114091885Y-54613500D01*
X114288115Y-54613500D01*
X114294568Y-54612128D01*
X114294572Y-54612128D01*
X114384086Y-54593101D01*
X114480056Y-54572702D01*
X114486087Y-54570017D01*
X114653291Y-54495573D01*
X114653293Y-54495572D01*
X114659321Y-54492888D01*
X114672412Y-54483377D01*
X114812730Y-54381430D01*
X114812732Y-54381428D01*
X114818074Y-54377547D01*
X114897059Y-54289825D01*
X114944958Y-54236628D01*
X114944959Y-54236627D01*
X114949377Y-54231720D01*
X115025426Y-54100000D01*
X115044188Y-54067503D01*
X115044189Y-54067502D01*
X115047492Y-54061780D01*
X115108130Y-53875155D01*
X115118041Y-53780865D01*
X115127952Y-53686565D01*
X115128642Y-53680000D01*
X115110262Y-53505132D01*
X115108820Y-53491409D01*
X115108820Y-53491408D01*
X115108130Y-53484845D01*
X115047492Y-53298220D01*
X114949377Y-53128280D01*
X114818074Y-52982453D01*
X114801195Y-52970189D01*
X114664663Y-52870993D01*
X114664662Y-52870992D01*
X114659321Y-52867112D01*
X114653293Y-52864428D01*
X114653291Y-52864427D01*
X114486087Y-52789983D01*
X114486086Y-52789983D01*
X114480056Y-52787298D01*
X114384085Y-52766899D01*
X114294572Y-52747872D01*
X114294568Y-52747872D01*
X114288115Y-52746500D01*
X114091885Y-52746500D01*
X114085432Y-52747872D01*
X114085428Y-52747872D01*
X113995915Y-52766899D01*
X113899944Y-52787298D01*
X113741248Y-52857954D01*
X113670882Y-52867388D01*
X113638753Y-52857955D01*
X113480056Y-52787298D01*
X113384085Y-52766899D01*
X113294572Y-52747872D01*
X113294568Y-52747872D01*
X113288115Y-52746500D01*
X113091885Y-52746500D01*
X113085432Y-52747872D01*
X113085428Y-52747872D01*
X112995915Y-52766899D01*
X112899944Y-52787298D01*
X112741248Y-52857954D01*
X112670882Y-52867388D01*
X112638753Y-52857955D01*
X112480056Y-52787298D01*
X112384085Y-52766899D01*
X112294572Y-52747872D01*
X112294568Y-52747872D01*
X112288115Y-52746500D01*
X112091885Y-52746500D01*
X112085432Y-52747872D01*
X112085428Y-52747872D01*
X111995915Y-52766899D01*
X111899944Y-52787298D01*
X111741248Y-52857954D01*
X111670882Y-52867388D01*
X111638753Y-52857955D01*
X111480056Y-52787298D01*
X111384085Y-52766899D01*
X111294572Y-52747872D01*
X111294568Y-52747872D01*
X111288115Y-52746500D01*
X111091885Y-52746500D01*
X111085432Y-52747872D01*
X111085428Y-52747872D01*
X110995915Y-52766899D01*
X110899944Y-52787298D01*
X110893914Y-52789983D01*
X110893913Y-52789983D01*
X110726709Y-52864427D01*
X110726707Y-52864428D01*
X110720679Y-52867112D01*
X110715338Y-52870992D01*
X110715337Y-52870993D01*
X110578806Y-52970189D01*
X110561926Y-52982453D01*
X110430623Y-53128280D01*
X110332508Y-53298220D01*
X110271870Y-53484845D01*
X110271180Y-53491408D01*
X110271180Y-53491409D01*
X110269738Y-53505132D01*
X110251358Y-53680000D01*
X104538126Y-53680000D01*
X104557960Y-53639781D01*
X104557961Y-53639778D01*
X104560025Y-53635593D01*
X104639707Y-53386665D01*
X104681721Y-53128693D01*
X104685142Y-52867345D01*
X104649896Y-52608362D01*
X104635473Y-52558877D01*
X104578068Y-52361932D01*
X104576757Y-52357433D01*
X104467332Y-52120072D01*
X104434519Y-52070024D01*
X104326590Y-51905404D01*
X104326586Y-51905399D01*
X104324024Y-51901491D01*
X104149982Y-51706494D01*
X103949030Y-51539363D01*
X103901844Y-51510730D01*
X103729578Y-51406196D01*
X103729574Y-51406194D01*
X103725581Y-51403771D01*
X103484545Y-51302697D01*
X103231217Y-51238359D01*
X103226566Y-51237891D01*
X103226562Y-51237890D01*
X103017271Y-51216816D01*
X103014133Y-51216500D01*
X102858646Y-51216500D01*
X102856321Y-51216673D01*
X102856315Y-51216673D01*
X102669000Y-51230593D01*
X102668996Y-51230594D01*
X102664348Y-51230939D01*
X102659800Y-51231968D01*
X102659794Y-51231969D01*
X102473399Y-51274147D01*
X102409423Y-51288623D01*
X102405071Y-51290315D01*
X102405069Y-51290316D01*
X102170176Y-51381660D01*
X102170173Y-51381661D01*
X102165823Y-51383353D01*
X101938902Y-51513049D01*
X101733643Y-51674862D01*
X101554557Y-51865237D01*
X101405576Y-52079991D01*
X101403510Y-52084181D01*
X101403508Y-52084184D01*
X101297814Y-52298512D01*
X101289975Y-52314407D01*
X101288553Y-52318850D01*
X101288552Y-52318852D01*
X101254293Y-52425879D01*
X101210293Y-52563335D01*
X101168279Y-52821307D01*
X101167676Y-52867345D01*
X101165172Y-53058699D01*
X101164858Y-53082655D01*
X100508500Y-53082655D01*
X100508500Y-50634500D01*
X100528502Y-50566379D01*
X100582158Y-50519886D01*
X100634500Y-50508500D01*
X117874000Y-50508500D01*
X117942121Y-50528502D01*
G37*
%TD.AperFunction*%
%TD*%
%TA.AperFunction,Conductor*%
%TO.N,+3V3*%
G36*
X127432410Y-50528502D02*
G01*
X127478903Y-50582158D01*
X127489007Y-50652432D01*
X127459513Y-50717012D01*
X127452449Y-50724521D01*
X127408486Y-50767573D01*
X127316304Y-50910610D01*
X127258103Y-51070516D01*
X127236775Y-51239343D01*
X127253381Y-51408699D01*
X127307094Y-51570167D01*
X127377064Y-51685700D01*
X127395242Y-51754328D01*
X127375198Y-51819225D01*
X127316304Y-51910610D01*
X127313894Y-51917232D01*
X127264129Y-52053961D01*
X127258103Y-52070516D01*
X127236775Y-52239343D01*
X127253381Y-52408699D01*
X127255605Y-52415384D01*
X127255605Y-52415385D01*
X127268374Y-52453770D01*
X127307094Y-52570167D01*
X127377064Y-52685700D01*
X127395242Y-52754328D01*
X127375198Y-52819225D01*
X127316304Y-52910610D01*
X127258103Y-53070516D01*
X127236775Y-53239343D01*
X127253381Y-53408699D01*
X127307094Y-53570167D01*
X127310741Y-53576189D01*
X127310742Y-53576191D01*
X127381176Y-53692490D01*
X127395246Y-53715723D01*
X127400136Y-53720787D01*
X127400137Y-53720788D01*
X127464579Y-53787520D01*
X127497511Y-53850417D01*
X127491211Y-53921134D01*
X127462100Y-53965070D01*
X127414600Y-54011586D01*
X127408486Y-54017573D01*
X127404675Y-54023487D01*
X127404673Y-54023489D01*
X127323339Y-54149694D01*
X127316304Y-54160610D01*
X127258103Y-54320516D01*
X127236775Y-54489343D01*
X127253381Y-54658699D01*
X127307094Y-54820167D01*
X127310741Y-54826189D01*
X127310742Y-54826191D01*
X127358551Y-54905132D01*
X127395246Y-54965723D01*
X127513455Y-55088132D01*
X127576958Y-55129687D01*
X127632027Y-55165723D01*
X127655846Y-55181310D01*
X127662450Y-55183766D01*
X127662452Y-55183767D01*
X127698844Y-55197301D01*
X127815341Y-55240626D01*
X127984015Y-55263132D01*
X127991026Y-55262494D01*
X127991030Y-55262494D01*
X128146462Y-55248348D01*
X128153483Y-55247709D01*
X128160185Y-55245531D01*
X128160187Y-55245531D01*
X128308623Y-55197301D01*
X128308626Y-55197300D01*
X128315322Y-55195124D01*
X128461490Y-55107990D01*
X128466584Y-55103139D01*
X128466588Y-55103136D01*
X128541441Y-55031854D01*
X128584721Y-54990639D01*
X128602489Y-54963897D01*
X128654822Y-54885129D01*
X128678891Y-54848902D01*
X128739319Y-54689825D01*
X128763001Y-54521313D01*
X128763299Y-54500000D01*
X128744331Y-54330892D01*
X128732325Y-54296414D01*
X128706929Y-54223489D01*
X128688368Y-54170189D01*
X128682383Y-54160610D01*
X128660270Y-54125223D01*
X128598192Y-54025879D01*
X128585440Y-54013037D01*
X128553933Y-53981310D01*
X128536725Y-53963981D01*
X128502918Y-53901550D01*
X128508230Y-53830752D01*
X128539239Y-53783951D01*
X128550035Y-53773670D01*
X128584721Y-53740639D01*
X128619940Y-53687631D01*
X128636494Y-53662715D01*
X128678891Y-53598902D01*
X128739319Y-53439825D01*
X128763001Y-53271313D01*
X128763118Y-53262964D01*
X128763244Y-53253961D01*
X128763244Y-53253955D01*
X128763299Y-53250000D01*
X128744331Y-53080892D01*
X128688368Y-52920189D01*
X128682383Y-52910610D01*
X128623346Y-52816133D01*
X128604210Y-52747764D01*
X128625252Y-52679636D01*
X128674990Y-52604773D01*
X128678891Y-52598902D01*
X128739319Y-52439825D01*
X128741573Y-52423790D01*
X128749108Y-52370167D01*
X128763001Y-52271313D01*
X128763299Y-52250000D01*
X128744331Y-52080892D01*
X128727427Y-52032349D01*
X128690686Y-51926846D01*
X128688368Y-51920189D01*
X128682383Y-51910610D01*
X128623346Y-51816133D01*
X128604210Y-51747764D01*
X128625252Y-51679636D01*
X128674990Y-51604773D01*
X128678891Y-51598902D01*
X128739319Y-51439825D01*
X128763001Y-51271313D01*
X128763299Y-51250000D01*
X128744331Y-51080892D01*
X128688368Y-50920189D01*
X128682383Y-50910610D01*
X128660420Y-50875464D01*
X128598192Y-50775879D01*
X128545963Y-50723283D01*
X128512156Y-50660853D01*
X128517468Y-50590056D01*
X128560213Y-50533369D01*
X128626819Y-50508790D01*
X128635369Y-50508500D01*
X129864289Y-50508500D01*
X129932410Y-50528502D01*
X129978903Y-50582158D01*
X129989007Y-50652432D01*
X129959513Y-50717012D01*
X129952449Y-50724521D01*
X129908486Y-50767573D01*
X129816304Y-50910610D01*
X129758103Y-51070516D01*
X129736775Y-51239343D01*
X129753381Y-51408699D01*
X129807094Y-51570167D01*
X129877064Y-51685700D01*
X129895242Y-51754328D01*
X129875198Y-51819225D01*
X129816304Y-51910610D01*
X129813894Y-51917232D01*
X129764129Y-52053961D01*
X129758103Y-52070516D01*
X129736775Y-52239343D01*
X129753381Y-52408699D01*
X129755605Y-52415384D01*
X129755605Y-52415385D01*
X129768374Y-52453770D01*
X129807094Y-52570167D01*
X129877064Y-52685700D01*
X129895242Y-52754328D01*
X129875198Y-52819225D01*
X129816304Y-52910610D01*
X129758103Y-53070516D01*
X129736775Y-53239343D01*
X129753381Y-53408699D01*
X129807094Y-53570167D01*
X129810741Y-53576189D01*
X129810742Y-53576191D01*
X129881176Y-53692490D01*
X129895246Y-53715723D01*
X129900136Y-53720787D01*
X129900137Y-53720788D01*
X129964579Y-53787520D01*
X129997511Y-53850417D01*
X129991211Y-53921134D01*
X129962100Y-53965070D01*
X129914600Y-54011586D01*
X129908486Y-54017573D01*
X129904675Y-54023487D01*
X129904673Y-54023489D01*
X129823339Y-54149694D01*
X129816304Y-54160610D01*
X129758103Y-54320516D01*
X129736775Y-54489343D01*
X129753381Y-54658699D01*
X129807094Y-54820167D01*
X129810741Y-54826189D01*
X129810742Y-54826191D01*
X129858551Y-54905132D01*
X129895246Y-54965723D01*
X130013455Y-55088132D01*
X130076958Y-55129687D01*
X130132027Y-55165723D01*
X130155846Y-55181310D01*
X130162450Y-55183766D01*
X130162452Y-55183767D01*
X130198844Y-55197301D01*
X130315341Y-55240626D01*
X130484015Y-55263132D01*
X130491026Y-55262494D01*
X130491030Y-55262494D01*
X130646462Y-55248348D01*
X130653483Y-55247709D01*
X130660185Y-55245531D01*
X130660187Y-55245531D01*
X130808623Y-55197301D01*
X130808626Y-55197300D01*
X130815322Y-55195124D01*
X130961490Y-55107990D01*
X130966584Y-55103139D01*
X130966588Y-55103136D01*
X131041441Y-55031854D01*
X131084721Y-54990639D01*
X131102489Y-54963897D01*
X131154822Y-54885129D01*
X131178891Y-54848902D01*
X131239319Y-54689825D01*
X131239387Y-54689343D01*
X144386775Y-54689343D01*
X144403381Y-54858699D01*
X144405605Y-54865384D01*
X144405605Y-54865385D01*
X144409255Y-54876357D01*
X144457094Y-55020167D01*
X144460741Y-55026189D01*
X144460742Y-55026191D01*
X144538123Y-55153961D01*
X144545246Y-55165723D01*
X144663455Y-55288132D01*
X144805846Y-55381310D01*
X144812450Y-55383766D01*
X144812452Y-55383767D01*
X144864789Y-55403231D01*
X144965341Y-55440626D01*
X144972326Y-55441558D01*
X145134015Y-55463132D01*
X145133679Y-55465650D01*
X145190161Y-55483518D01*
X145235529Y-55538129D01*
X145245250Y-55575780D01*
X145253381Y-55658699D01*
X145307094Y-55820167D01*
X145310741Y-55826189D01*
X145310742Y-55826191D01*
X145376458Y-55934700D01*
X145395246Y-55965723D01*
X145513455Y-56088132D01*
X145519351Y-56091990D01*
X145642079Y-56172301D01*
X145655846Y-56181310D01*
X145662450Y-56183766D01*
X145662452Y-56183767D01*
X145698844Y-56197301D01*
X145815341Y-56240626D01*
X145984015Y-56263132D01*
X145991026Y-56262494D01*
X145991030Y-56262494D01*
X146146462Y-56248348D01*
X146153483Y-56247709D01*
X146160185Y-56245531D01*
X146160187Y-56245531D01*
X146308623Y-56197301D01*
X146308626Y-56197300D01*
X146315322Y-56195124D01*
X146461490Y-56107990D01*
X146466584Y-56103139D01*
X146466588Y-56103136D01*
X146565195Y-56009233D01*
X146584721Y-55990639D01*
X146597504Y-55971400D01*
X146636217Y-55913132D01*
X146678891Y-55848902D01*
X146739319Y-55689825D01*
X146763001Y-55521313D01*
X146763181Y-55508420D01*
X146763244Y-55503961D01*
X146763244Y-55503955D01*
X146763299Y-55500000D01*
X146744331Y-55330892D01*
X146738063Y-55312891D01*
X146696319Y-55193021D01*
X146688368Y-55170189D01*
X146678228Y-55153961D01*
X146669093Y-55139343D01*
X147311775Y-55139343D01*
X147328381Y-55308699D01*
X147330605Y-55315384D01*
X147330605Y-55315385D01*
X147336413Y-55332845D01*
X147382094Y-55470167D01*
X147385741Y-55476189D01*
X147385742Y-55476191D01*
X147464932Y-55606948D01*
X147470246Y-55615723D01*
X147588455Y-55738132D01*
X147594351Y-55741990D01*
X147713818Y-55820167D01*
X147730846Y-55831310D01*
X147737450Y-55833766D01*
X147737452Y-55833767D01*
X147773844Y-55847301D01*
X147890341Y-55890626D01*
X148059015Y-55913132D01*
X148066026Y-55912494D01*
X148066030Y-55912494D01*
X148221462Y-55898348D01*
X148228483Y-55897709D01*
X148235185Y-55895531D01*
X148235187Y-55895531D01*
X148383623Y-55847301D01*
X148383626Y-55847300D01*
X148390322Y-55845124D01*
X148536490Y-55757990D01*
X148541584Y-55753139D01*
X148541588Y-55753136D01*
X148640756Y-55658699D01*
X148659721Y-55640639D01*
X148682571Y-55606248D01*
X148721158Y-55548169D01*
X148753891Y-55498902D01*
X148814319Y-55339825D01*
X148838001Y-55171313D01*
X148838131Y-55161998D01*
X148838244Y-55153961D01*
X148838244Y-55153955D01*
X148838299Y-55150000D01*
X148819331Y-54980892D01*
X148789559Y-54895400D01*
X153621500Y-54895400D01*
X153621837Y-54898646D01*
X153621837Y-54898650D01*
X153631382Y-54990639D01*
X153632474Y-55001166D01*
X153634655Y-55007702D01*
X153634655Y-55007704D01*
X153638813Y-55020167D01*
X153688450Y-55168946D01*
X153781522Y-55319348D01*
X153906697Y-55444305D01*
X153912927Y-55448145D01*
X153912928Y-55448146D01*
X154050090Y-55532694D01*
X154057262Y-55537115D01*
X154099815Y-55551229D01*
X154218611Y-55590632D01*
X154218613Y-55590632D01*
X154225139Y-55592797D01*
X154231975Y-55593497D01*
X154231978Y-55593498D01*
X154275031Y-55597909D01*
X154329600Y-55603500D01*
X155670400Y-55603500D01*
X155673646Y-55603163D01*
X155673650Y-55603163D01*
X155769308Y-55593238D01*
X155769312Y-55593237D01*
X155776166Y-55592526D01*
X155782702Y-55590345D01*
X155782704Y-55590345D01*
X155914806Y-55546272D01*
X155943946Y-55536550D01*
X156094348Y-55443478D01*
X156219305Y-55318303D01*
X156229043Y-55302506D01*
X156312115Y-55167738D01*
X156314262Y-55169062D01*
X156353312Y-55124710D01*
X156421589Y-55105248D01*
X156489549Y-55125788D01*
X156511761Y-55144272D01*
X156619590Y-55257306D01*
X156619602Y-55257316D01*
X156623276Y-55261168D01*
X156810965Y-55400813D01*
X156815716Y-55403229D01*
X156815720Y-55403231D01*
X156991036Y-55492366D01*
X157019500Y-55506838D01*
X157242917Y-55576210D01*
X157248204Y-55576911D01*
X157248205Y-55576911D01*
X157469545Y-55606248D01*
X157469549Y-55606248D01*
X157474829Y-55606948D01*
X157480158Y-55606748D01*
X157480160Y-55606748D01*
X157591717Y-55602560D01*
X157708604Y-55598172D01*
X157820813Y-55574628D01*
X157932332Y-55551229D01*
X157932335Y-55551228D01*
X157937559Y-55550132D01*
X158155146Y-55464203D01*
X158349256Y-55346414D01*
X158350583Y-55345609D01*
X158350586Y-55345607D01*
X158355144Y-55342841D01*
X158531834Y-55189517D01*
X158680165Y-55008614D01*
X158774829Y-54842314D01*
X158793255Y-54809945D01*
X158793256Y-54809943D01*
X158795896Y-54805305D01*
X158875716Y-54585404D01*
X158880287Y-54560129D01*
X158898511Y-54459346D01*
X158917344Y-54355197D01*
X158918044Y-54340365D01*
X158918430Y-54332172D01*
X158918430Y-54332165D01*
X158918500Y-54330684D01*
X158918500Y-53716262D01*
X158907983Y-53592314D01*
X158904156Y-53547209D01*
X158904155Y-53547205D01*
X158903705Y-53541898D01*
X158895840Y-53511594D01*
X158846275Y-53320629D01*
X158846274Y-53320625D01*
X158844933Y-53315460D01*
X158841888Y-53308699D01*
X158751045Y-53107036D01*
X158748850Y-53102163D01*
X158618202Y-52908104D01*
X158606715Y-52896062D01*
X158519547Y-52804687D01*
X158456724Y-52738832D01*
X158449917Y-52733767D01*
X158273317Y-52602373D01*
X158273318Y-52602373D01*
X158269035Y-52599187D01*
X158264284Y-52596771D01*
X158264280Y-52596769D01*
X158065256Y-52495580D01*
X158065255Y-52495580D01*
X158060500Y-52493162D01*
X157837083Y-52423790D01*
X157831796Y-52423089D01*
X157831795Y-52423089D01*
X157610455Y-52393752D01*
X157610451Y-52393752D01*
X157605171Y-52393052D01*
X157599842Y-52393252D01*
X157599840Y-52393252D01*
X157504346Y-52396837D01*
X157371396Y-52401828D01*
X157287411Y-52419450D01*
X157147668Y-52448771D01*
X157147665Y-52448772D01*
X157142441Y-52449868D01*
X156924854Y-52535797D01*
X156890130Y-52556868D01*
X156729417Y-52654391D01*
X156729414Y-52654393D01*
X156724856Y-52657159D01*
X156548166Y-52810483D01*
X156530309Y-52832262D01*
X156517593Y-52847770D01*
X156458933Y-52887764D01*
X156387962Y-52889695D01*
X156327214Y-52852950D01*
X156312267Y-52830610D01*
X156311550Y-52831054D01*
X156222332Y-52686880D01*
X156218478Y-52680652D01*
X156093303Y-52555695D01*
X156087072Y-52551854D01*
X155948968Y-52466725D01*
X155948966Y-52466724D01*
X155942738Y-52462885D01*
X155822756Y-52423089D01*
X155781389Y-52409368D01*
X155781387Y-52409368D01*
X155774861Y-52407203D01*
X155768025Y-52406503D01*
X155768022Y-52406502D01*
X155720449Y-52401628D01*
X155670400Y-52396500D01*
X154329600Y-52396500D01*
X154326354Y-52396837D01*
X154326350Y-52396837D01*
X154230692Y-52406762D01*
X154230688Y-52406763D01*
X154223834Y-52407474D01*
X154217298Y-52409655D01*
X154217296Y-52409655D01*
X154107117Y-52446414D01*
X154056054Y-52463450D01*
X153905652Y-52556522D01*
X153780695Y-52681697D01*
X153776855Y-52687927D01*
X153776854Y-52687928D01*
X153691820Y-52825879D01*
X153687885Y-52832262D01*
X153632203Y-53000139D01*
X153631503Y-53006975D01*
X153631502Y-53006978D01*
X153630423Y-53017508D01*
X153621500Y-53104600D01*
X153621500Y-54895400D01*
X148789559Y-54895400D01*
X148763368Y-54820189D01*
X148757383Y-54810610D01*
X148704627Y-54726185D01*
X148673192Y-54675879D01*
X148649172Y-54651690D01*
X148583347Y-54585404D01*
X148553286Y-54555132D01*
X148537039Y-54544821D01*
X148493776Y-54517366D01*
X148409608Y-54463951D01*
X148249300Y-54406868D01*
X148080329Y-54386720D01*
X148073326Y-54387456D01*
X148073325Y-54387456D01*
X147918101Y-54403770D01*
X147918097Y-54403771D01*
X147911093Y-54404507D01*
X147904422Y-54406778D01*
X147756673Y-54457075D01*
X147756670Y-54457076D01*
X147750003Y-54459346D01*
X147744005Y-54463036D01*
X147744003Y-54463037D01*
X147611065Y-54544821D01*
X147611063Y-54544823D01*
X147605066Y-54548512D01*
X147483486Y-54667573D01*
X147479675Y-54673487D01*
X147479673Y-54673489D01*
X147406257Y-54787407D01*
X147391304Y-54810610D01*
X147333103Y-54970516D01*
X147311775Y-55139343D01*
X146669093Y-55139343D01*
X146639503Y-55091990D01*
X146598192Y-55025879D01*
X146563198Y-54990639D01*
X146483248Y-54910129D01*
X146478286Y-54905132D01*
X146457805Y-54892134D01*
X146384370Y-54845531D01*
X146334608Y-54813951D01*
X146174300Y-54756868D01*
X146015390Y-54737920D01*
X145950117Y-54709993D01*
X145910304Y-54651210D01*
X145905094Y-54626850D01*
X145901578Y-54595498D01*
X145894331Y-54530892D01*
X145877427Y-54482349D01*
X145853445Y-54413484D01*
X145838368Y-54370189D01*
X145832383Y-54360610D01*
X145784676Y-54284265D01*
X145748192Y-54225879D01*
X145742426Y-54220072D01*
X145689953Y-54167232D01*
X145628286Y-54105132D01*
X145620200Y-54100000D01*
X145534370Y-54045531D01*
X145484608Y-54013951D01*
X145324300Y-53956868D01*
X145155329Y-53936720D01*
X145148326Y-53937456D01*
X145148325Y-53937456D01*
X144993101Y-53953770D01*
X144993097Y-53953771D01*
X144986093Y-53954507D01*
X144979422Y-53956778D01*
X144831673Y-54007075D01*
X144831670Y-54007076D01*
X144825003Y-54009346D01*
X144819005Y-54013036D01*
X144819003Y-54013037D01*
X144686065Y-54094821D01*
X144686063Y-54094823D01*
X144680066Y-54098512D01*
X144558486Y-54217573D01*
X144554675Y-54223487D01*
X144554673Y-54223489D01*
X144479351Y-54340365D01*
X144466304Y-54360610D01*
X144434168Y-54448902D01*
X144414129Y-54503961D01*
X144408103Y-54520516D01*
X144386775Y-54689343D01*
X131239387Y-54689343D01*
X131263001Y-54521313D01*
X131263299Y-54500000D01*
X131244331Y-54330892D01*
X131232325Y-54296414D01*
X131206929Y-54223489D01*
X131188368Y-54170189D01*
X131182383Y-54160610D01*
X131160270Y-54125223D01*
X131098192Y-54025879D01*
X131085440Y-54013037D01*
X131053933Y-53981310D01*
X131036725Y-53963981D01*
X131002918Y-53901550D01*
X131008230Y-53830752D01*
X131039239Y-53783951D01*
X131050035Y-53773670D01*
X131084721Y-53740639D01*
X131119940Y-53687631D01*
X131136494Y-53662715D01*
X131178891Y-53598902D01*
X131239319Y-53439825D01*
X131263001Y-53271313D01*
X131263118Y-53262964D01*
X131263244Y-53253961D01*
X131263244Y-53253955D01*
X131263299Y-53250000D01*
X131250887Y-53139343D01*
X133486775Y-53139343D01*
X133503381Y-53308699D01*
X133505605Y-53315384D01*
X133505605Y-53315385D01*
X133517295Y-53350527D01*
X133557094Y-53470167D01*
X133560741Y-53476189D01*
X133560742Y-53476191D01*
X133635059Y-53598902D01*
X133645246Y-53615723D01*
X133763455Y-53738132D01*
X133827522Y-53780056D01*
X133865613Y-53804982D01*
X133905846Y-53831310D01*
X133912450Y-53833766D01*
X133912452Y-53833767D01*
X133948844Y-53847301D01*
X134065341Y-53890626D01*
X134234015Y-53913132D01*
X134241026Y-53912494D01*
X134241030Y-53912494D01*
X134396462Y-53898348D01*
X134403483Y-53897709D01*
X134410185Y-53895531D01*
X134410187Y-53895531D01*
X134558623Y-53847301D01*
X134558626Y-53847300D01*
X134565322Y-53845124D01*
X134711490Y-53757990D01*
X134716584Y-53753139D01*
X134716588Y-53753136D01*
X134785374Y-53687631D01*
X134834721Y-53640639D01*
X134846116Y-53623489D01*
X134896796Y-53547209D01*
X134928891Y-53498902D01*
X134989319Y-53339825D01*
X135010890Y-53186335D01*
X137241193Y-53186335D01*
X137257799Y-53355691D01*
X137260023Y-53362376D01*
X137260023Y-53362377D01*
X137268153Y-53386817D01*
X137311512Y-53517159D01*
X137315159Y-53523181D01*
X137315160Y-53523183D01*
X137391299Y-53648902D01*
X137399664Y-53662715D01*
X137517873Y-53785124D01*
X137575051Y-53822540D01*
X137652975Y-53873532D01*
X137660264Y-53878302D01*
X137666868Y-53880758D01*
X137666870Y-53880759D01*
X137727040Y-53903136D01*
X137819759Y-53937618D01*
X137988433Y-53960124D01*
X137995444Y-53959486D01*
X137995448Y-53959486D01*
X138150880Y-53945340D01*
X138157901Y-53944701D01*
X138164603Y-53942523D01*
X138164605Y-53942523D01*
X138313041Y-53894293D01*
X138313044Y-53894292D01*
X138319740Y-53892116D01*
X138465908Y-53804982D01*
X138471002Y-53800131D01*
X138471006Y-53800128D01*
X138539640Y-53734768D01*
X138589139Y-53687631D01*
X138606036Y-53662200D01*
X138644190Y-53604773D01*
X138683309Y-53545894D01*
X138743737Y-53386817D01*
X138767419Y-53218305D01*
X138767717Y-53196992D01*
X138748749Y-53027884D01*
X138692786Y-52867181D01*
X138686801Y-52857602D01*
X138659935Y-52814609D01*
X138602610Y-52722871D01*
X138482704Y-52602124D01*
X138466457Y-52591813D01*
X138417692Y-52560866D01*
X138339026Y-52510943D01*
X138178718Y-52453860D01*
X138009747Y-52433712D01*
X138002744Y-52434448D01*
X138002743Y-52434448D01*
X137847519Y-52450762D01*
X137847515Y-52450763D01*
X137840511Y-52451499D01*
X137833840Y-52453770D01*
X137686091Y-52504067D01*
X137686088Y-52504068D01*
X137679421Y-52506338D01*
X137673423Y-52510028D01*
X137673421Y-52510029D01*
X137540483Y-52591813D01*
X137540481Y-52591815D01*
X137534484Y-52595504D01*
X137475633Y-52653136D01*
X137422537Y-52705132D01*
X137412904Y-52714565D01*
X137409093Y-52720479D01*
X137409091Y-52720481D01*
X137327058Y-52847770D01*
X137320722Y-52857602D01*
X137298970Y-52917366D01*
X137266354Y-53006978D01*
X137262521Y-53017508D01*
X137241193Y-53186335D01*
X135010890Y-53186335D01*
X135013001Y-53171313D01*
X135013299Y-53150000D01*
X134994331Y-52980892D01*
X134985206Y-52954687D01*
X134951397Y-52857602D01*
X134938368Y-52820189D01*
X134933959Y-52813132D01*
X134892822Y-52747301D01*
X134848192Y-52675879D01*
X134834007Y-52661594D01*
X134765209Y-52592314D01*
X134728286Y-52555132D01*
X134713106Y-52545498D01*
X134651399Y-52506338D01*
X134584608Y-52463951D01*
X134424300Y-52406868D01*
X134255329Y-52386720D01*
X134248326Y-52387456D01*
X134248325Y-52387456D01*
X134093101Y-52403770D01*
X134093097Y-52403771D01*
X134086093Y-52404507D01*
X134077377Y-52407474D01*
X133931673Y-52457075D01*
X133931670Y-52457076D01*
X133925003Y-52459346D01*
X133919005Y-52463036D01*
X133919003Y-52463037D01*
X133786065Y-52544821D01*
X133786063Y-52544823D01*
X133780066Y-52548512D01*
X133658486Y-52667573D01*
X133654675Y-52673487D01*
X133654673Y-52673489D01*
X133594040Y-52767573D01*
X133566304Y-52810610D01*
X133508103Y-52970516D01*
X133486775Y-53139343D01*
X131250887Y-53139343D01*
X131244331Y-53080892D01*
X131188368Y-52920189D01*
X131182383Y-52910610D01*
X131123346Y-52816133D01*
X131104210Y-52747764D01*
X131125252Y-52679636D01*
X131174990Y-52604773D01*
X131178891Y-52598902D01*
X131239319Y-52439825D01*
X131241573Y-52423790D01*
X131249108Y-52370167D01*
X131263001Y-52271313D01*
X131263299Y-52250000D01*
X131244331Y-52080892D01*
X131229863Y-52039343D01*
X144236775Y-52039343D01*
X144253381Y-52208699D01*
X144307094Y-52370167D01*
X144310741Y-52376189D01*
X144310742Y-52376191D01*
X144390919Y-52508578D01*
X144395246Y-52515723D01*
X144513455Y-52638132D01*
X144576880Y-52679636D01*
X144639298Y-52720481D01*
X144655846Y-52731310D01*
X144662450Y-52733766D01*
X144662452Y-52733767D01*
X144709258Y-52751174D01*
X144815341Y-52790626D01*
X144984015Y-52813132D01*
X144991026Y-52812494D01*
X144991030Y-52812494D01*
X145146462Y-52798348D01*
X145153483Y-52797709D01*
X145160185Y-52795531D01*
X145160187Y-52795531D01*
X145308623Y-52747301D01*
X145308626Y-52747300D01*
X145315322Y-52745124D01*
X145461490Y-52657990D01*
X145466584Y-52653139D01*
X145466588Y-52653136D01*
X145553713Y-52570167D01*
X145584721Y-52540639D01*
X145609020Y-52504067D01*
X145643725Y-52451831D01*
X145678891Y-52398902D01*
X145739319Y-52239825D01*
X145763001Y-52071313D01*
X145763299Y-52050000D01*
X145744331Y-51880892D01*
X145688368Y-51720189D01*
X145682383Y-51710610D01*
X145616247Y-51604773D01*
X145598192Y-51575879D01*
X145478286Y-51455132D01*
X145462039Y-51444821D01*
X145394075Y-51401690D01*
X145334608Y-51363951D01*
X145174300Y-51306868D01*
X145005329Y-51286720D01*
X144998326Y-51287456D01*
X144998325Y-51287456D01*
X144843101Y-51303770D01*
X144843097Y-51303771D01*
X144836093Y-51304507D01*
X144829422Y-51306778D01*
X144681673Y-51357075D01*
X144681670Y-51357076D01*
X144675003Y-51359346D01*
X144669005Y-51363036D01*
X144669003Y-51363037D01*
X144536065Y-51444821D01*
X144536063Y-51444823D01*
X144530066Y-51448512D01*
X144408486Y-51567573D01*
X144404675Y-51573487D01*
X144404673Y-51573489D01*
X144332359Y-51685698D01*
X144316304Y-51710610D01*
X144258103Y-51870516D01*
X144236775Y-52039343D01*
X131229863Y-52039343D01*
X131227427Y-52032349D01*
X131190686Y-51926846D01*
X131188368Y-51920189D01*
X131182383Y-51910610D01*
X131123346Y-51816133D01*
X131104210Y-51747764D01*
X131125252Y-51679636D01*
X131174990Y-51604773D01*
X131178891Y-51598902D01*
X131239319Y-51439825D01*
X131263001Y-51271313D01*
X131263299Y-51250000D01*
X131244331Y-51080892D01*
X131188368Y-50920189D01*
X131182383Y-50910610D01*
X131160420Y-50875464D01*
X131098192Y-50775879D01*
X131045963Y-50723283D01*
X131012156Y-50660853D01*
X131017468Y-50590056D01*
X131060213Y-50533369D01*
X131126819Y-50508790D01*
X131135369Y-50508500D01*
X159365500Y-50508500D01*
X159433621Y-50528502D01*
X159480114Y-50582158D01*
X159491500Y-50634500D01*
X159491500Y-74365500D01*
X159471498Y-74433621D01*
X159417842Y-74480114D01*
X159365500Y-74491500D01*
X147639500Y-74491500D01*
X147571379Y-74471498D01*
X147524886Y-74417842D01*
X147513500Y-74365500D01*
X147513500Y-73752299D01*
X147533502Y-73684178D01*
X147587158Y-73637685D01*
X147657432Y-73627581D01*
X147708493Y-73646867D01*
X147745846Y-73671310D01*
X147752450Y-73673766D01*
X147752452Y-73673767D01*
X147788844Y-73687301D01*
X147905341Y-73730626D01*
X148074015Y-73753132D01*
X148081026Y-73752494D01*
X148081030Y-73752494D01*
X148236462Y-73738348D01*
X148243483Y-73737709D01*
X148250185Y-73735531D01*
X148250187Y-73735531D01*
X148398623Y-73687301D01*
X148398626Y-73687300D01*
X148405322Y-73685124D01*
X148551490Y-73597990D01*
X148556584Y-73593139D01*
X148556588Y-73593136D01*
X148623833Y-73529099D01*
X148674721Y-73480639D01*
X148686397Y-73463066D01*
X148764990Y-73344773D01*
X148768891Y-73338902D01*
X148829319Y-73179825D01*
X148853001Y-73011313D01*
X148853299Y-72990000D01*
X148834331Y-72820892D01*
X148778368Y-72660189D01*
X148767357Y-72642567D01*
X148750420Y-72615464D01*
X148688192Y-72515879D01*
X148568286Y-72395132D01*
X148424608Y-72303951D01*
X148264300Y-72246868D01*
X148095329Y-72226720D01*
X148088326Y-72227456D01*
X148088325Y-72227456D01*
X147933101Y-72243770D01*
X147933097Y-72243771D01*
X147926093Y-72244507D01*
X147919422Y-72246778D01*
X147771673Y-72297075D01*
X147771670Y-72297076D01*
X147765003Y-72299346D01*
X147759005Y-72303036D01*
X147759003Y-72303037D01*
X147705522Y-72335939D01*
X147637021Y-72354597D01*
X147569307Y-72333258D01*
X147523879Y-72278698D01*
X147513500Y-72228621D01*
X147513500Y-72132655D01*
X155239858Y-72132655D01*
X155275104Y-72391638D01*
X155276412Y-72396124D01*
X155276412Y-72396126D01*
X155296098Y-72463664D01*
X155348243Y-72642567D01*
X155457668Y-72879928D01*
X155460231Y-72883837D01*
X155598410Y-73094596D01*
X155598414Y-73094601D01*
X155600976Y-73098509D01*
X155775018Y-73293506D01*
X155975970Y-73460637D01*
X155979973Y-73463066D01*
X156195422Y-73593804D01*
X156195426Y-73593806D01*
X156199419Y-73596229D01*
X156440455Y-73697303D01*
X156693783Y-73761641D01*
X156698434Y-73762109D01*
X156698438Y-73762110D01*
X156891308Y-73781531D01*
X156910867Y-73783500D01*
X157066354Y-73783500D01*
X157068679Y-73783327D01*
X157068685Y-73783327D01*
X157256000Y-73769407D01*
X157256004Y-73769406D01*
X157260652Y-73769061D01*
X157265200Y-73768032D01*
X157265206Y-73768031D01*
X157451601Y-73725853D01*
X157515577Y-73711377D01*
X157551769Y-73697303D01*
X157754824Y-73618340D01*
X157754827Y-73618339D01*
X157759177Y-73616647D01*
X157785515Y-73601594D01*
X157843196Y-73568626D01*
X157986098Y-73486951D01*
X158191357Y-73325138D01*
X158370443Y-73134763D01*
X158519424Y-72920009D01*
X158568303Y-72820892D01*
X158632960Y-72689781D01*
X158632961Y-72689778D01*
X158635025Y-72685593D01*
X158714707Y-72436665D01*
X158756721Y-72178693D01*
X158760142Y-71917345D01*
X158724896Y-71658362D01*
X158710473Y-71608877D01*
X158653068Y-71411932D01*
X158651757Y-71407433D01*
X158542332Y-71170072D01*
X158509519Y-71120024D01*
X158401590Y-70955404D01*
X158401586Y-70955399D01*
X158399024Y-70951491D01*
X158224982Y-70756494D01*
X158024030Y-70589363D01*
X157976844Y-70560730D01*
X157804578Y-70456196D01*
X157804574Y-70456194D01*
X157800581Y-70453771D01*
X157559545Y-70352697D01*
X157306217Y-70288359D01*
X157301566Y-70287891D01*
X157301562Y-70287890D01*
X157092271Y-70266816D01*
X157089133Y-70266500D01*
X156933646Y-70266500D01*
X156931321Y-70266673D01*
X156931315Y-70266673D01*
X156744000Y-70280593D01*
X156743996Y-70280594D01*
X156739348Y-70280939D01*
X156734800Y-70281968D01*
X156734794Y-70281969D01*
X156548399Y-70324147D01*
X156484423Y-70338623D01*
X156480071Y-70340315D01*
X156480069Y-70340316D01*
X156245176Y-70431660D01*
X156245173Y-70431661D01*
X156240823Y-70433353D01*
X156013902Y-70563049D01*
X155808643Y-70724862D01*
X155629557Y-70915237D01*
X155480576Y-71129991D01*
X155364975Y-71364407D01*
X155285293Y-71613335D01*
X155243279Y-71871307D01*
X155239858Y-72132655D01*
X147513500Y-72132655D01*
X147513500Y-67959343D01*
X151066775Y-67959343D01*
X151083381Y-68128699D01*
X151137094Y-68290167D01*
X151140741Y-68296189D01*
X151140742Y-68296191D01*
X151212243Y-68414252D01*
X151225246Y-68435723D01*
X151343455Y-68558132D01*
X151485846Y-68651310D01*
X151492450Y-68653766D01*
X151492452Y-68653767D01*
X151528844Y-68667301D01*
X151645341Y-68710626D01*
X151814015Y-68733132D01*
X151821026Y-68732494D01*
X151821030Y-68732494D01*
X151976462Y-68718348D01*
X151983483Y-68717709D01*
X151990185Y-68715531D01*
X151990187Y-68715531D01*
X152138623Y-68667301D01*
X152138626Y-68667300D01*
X152145322Y-68665124D01*
X152291490Y-68577990D01*
X152296584Y-68573139D01*
X152296588Y-68573136D01*
X152363833Y-68509099D01*
X152414721Y-68460639D01*
X152419637Y-68453241D01*
X152497314Y-68336327D01*
X152508891Y-68318902D01*
X152569319Y-68159825D01*
X152593001Y-67991313D01*
X152593299Y-67970000D01*
X152574331Y-67800892D01*
X152518368Y-67640189D01*
X152512383Y-67630610D01*
X152490420Y-67595464D01*
X152428192Y-67495879D01*
X152413310Y-67480892D01*
X152320270Y-67387200D01*
X152308286Y-67375132D01*
X152292039Y-67364821D01*
X152239561Y-67331518D01*
X152164608Y-67283951D01*
X152004300Y-67226868D01*
X151835329Y-67206720D01*
X151828326Y-67207456D01*
X151828325Y-67207456D01*
X151673101Y-67223770D01*
X151673097Y-67223771D01*
X151666093Y-67224507D01*
X151659422Y-67226778D01*
X151511673Y-67277075D01*
X151511670Y-67277076D01*
X151505003Y-67279346D01*
X151499005Y-67283036D01*
X151499003Y-67283037D01*
X151366065Y-67364821D01*
X151366063Y-67364823D01*
X151360066Y-67368512D01*
X151238486Y-67487573D01*
X151146304Y-67630610D01*
X151088103Y-67790516D01*
X151066775Y-67959343D01*
X147513500Y-67959343D01*
X147513500Y-66164343D01*
X154636775Y-66164343D01*
X154653381Y-66333699D01*
X154707094Y-66495167D01*
X154710741Y-66501189D01*
X154710742Y-66501191D01*
X154785724Y-66625000D01*
X154795246Y-66640723D01*
X154913455Y-66763132D01*
X155055846Y-66856310D01*
X155062450Y-66858766D01*
X155062452Y-66858767D01*
X155098844Y-66872301D01*
X155215341Y-66915626D01*
X155384015Y-66938132D01*
X155391026Y-66937494D01*
X155391030Y-66937494D01*
X155546462Y-66923348D01*
X155553483Y-66922709D01*
X155560185Y-66920531D01*
X155560187Y-66920531D01*
X155708623Y-66872301D01*
X155708626Y-66872300D01*
X155715322Y-66870124D01*
X155861490Y-66782990D01*
X155866584Y-66778139D01*
X155866588Y-66778136D01*
X155933833Y-66714099D01*
X155984721Y-66665639D01*
X156078891Y-66523902D01*
X156139319Y-66364825D01*
X156163001Y-66196313D01*
X156163299Y-66175000D01*
X156144331Y-66005892D01*
X156124640Y-65949346D01*
X156103510Y-65888671D01*
X156088368Y-65845189D01*
X156082383Y-65835610D01*
X156048211Y-65780925D01*
X155998192Y-65700879D01*
X155878286Y-65580132D01*
X155865947Y-65572301D01*
X155778571Y-65516851D01*
X155734608Y-65488951D01*
X155574300Y-65431868D01*
X155405329Y-65411720D01*
X155398326Y-65412456D01*
X155398325Y-65412456D01*
X155243101Y-65428770D01*
X155243097Y-65428771D01*
X155236093Y-65429507D01*
X155229422Y-65431778D01*
X155081673Y-65482075D01*
X155081670Y-65482076D01*
X155075003Y-65484346D01*
X155069005Y-65488036D01*
X155069003Y-65488037D01*
X154936065Y-65569821D01*
X154936063Y-65569823D01*
X154930066Y-65573512D01*
X154874689Y-65627742D01*
X154814407Y-65686775D01*
X154808486Y-65692573D01*
X154804675Y-65698487D01*
X154804673Y-65698489D01*
X154763013Y-65763132D01*
X154716304Y-65835610D01*
X154658103Y-65995516D01*
X154636775Y-66164343D01*
X147513500Y-66164343D01*
X147513500Y-62376000D01*
X147512205Y-62363951D01*
X147502128Y-62270215D01*
X147502127Y-62270208D01*
X147501766Y-62266851D01*
X147499081Y-62254507D01*
X147491094Y-62217790D01*
X147491093Y-62217785D01*
X147490380Y-62214509D01*
X147455710Y-62110343D01*
X147376692Y-61987388D01*
X147372946Y-61983064D01*
X147333139Y-61937125D01*
X147330199Y-61933732D01*
X147320933Y-61925703D01*
X147250120Y-61864343D01*
X151136775Y-61864343D01*
X151153381Y-62033699D01*
X151207094Y-62195167D01*
X151210741Y-62201189D01*
X151210742Y-62201191D01*
X151281724Y-62318395D01*
X151295246Y-62340723D01*
X151413455Y-62463132D01*
X151419351Y-62466990D01*
X151509343Y-62525879D01*
X151555846Y-62556310D01*
X151562450Y-62558766D01*
X151562452Y-62558767D01*
X151608465Y-62575879D01*
X151715341Y-62615626D01*
X151884015Y-62638132D01*
X151891026Y-62637494D01*
X151891030Y-62637494D01*
X152046462Y-62623348D01*
X152053483Y-62622709D01*
X152060185Y-62620531D01*
X152060187Y-62620531D01*
X152208623Y-62572301D01*
X152208626Y-62572300D01*
X152215322Y-62570124D01*
X152361490Y-62482990D01*
X152366584Y-62478139D01*
X152366588Y-62478136D01*
X152454077Y-62394821D01*
X152484721Y-62365639D01*
X152519063Y-62313951D01*
X152557048Y-62256778D01*
X152578891Y-62223902D01*
X152639319Y-62064825D01*
X152663001Y-61896313D01*
X152663118Y-61887964D01*
X152663244Y-61878961D01*
X152663244Y-61878955D01*
X152663299Y-61875000D01*
X152644331Y-61705892D01*
X152588368Y-61545189D01*
X152582383Y-61535610D01*
X152557296Y-61495464D01*
X152498192Y-61400879D01*
X152490012Y-61392641D01*
X152395335Y-61297301D01*
X152378286Y-61280132D01*
X152362039Y-61269821D01*
X152284346Y-61220516D01*
X152234608Y-61188951D01*
X152074300Y-61131868D01*
X151905329Y-61111720D01*
X151898326Y-61112456D01*
X151898325Y-61112456D01*
X151743101Y-61128770D01*
X151743097Y-61128771D01*
X151736093Y-61129507D01*
X151725010Y-61133280D01*
X151581673Y-61182075D01*
X151581670Y-61182076D01*
X151575003Y-61184346D01*
X151569005Y-61188036D01*
X151569003Y-61188037D01*
X151436065Y-61269821D01*
X151436063Y-61269823D01*
X151430066Y-61273512D01*
X151308486Y-61392573D01*
X151304675Y-61398487D01*
X151304673Y-61398489D01*
X151220121Y-61529687D01*
X151216304Y-61535610D01*
X151158103Y-61695516D01*
X151136775Y-61864343D01*
X147250120Y-61864343D01*
X147226550Y-61843919D01*
X147226547Y-61843917D01*
X147219739Y-61838018D01*
X147086790Y-61777302D01*
X147063036Y-61770327D01*
X147022992Y-61758569D01*
X147022988Y-61758568D01*
X147018669Y-61757300D01*
X147014220Y-61756660D01*
X147014214Y-61756659D01*
X146878447Y-61737139D01*
X146878442Y-61737139D01*
X146874000Y-61736500D01*
X143876000Y-61736500D01*
X143872654Y-61736860D01*
X143872649Y-61736860D01*
X143770215Y-61747872D01*
X143770208Y-61747873D01*
X143766851Y-61748234D01*
X143763551Y-61748952D01*
X143763550Y-61748952D01*
X143717790Y-61758906D01*
X143717785Y-61758907D01*
X143714509Y-61759620D01*
X143610343Y-61794290D01*
X143487388Y-61873308D01*
X143483993Y-61876250D01*
X143483990Y-61876252D01*
X143474578Y-61884408D01*
X143433732Y-61919801D01*
X143430792Y-61923194D01*
X143343919Y-62023450D01*
X143343917Y-62023453D01*
X143338018Y-62030261D01*
X143334274Y-62038459D01*
X143325421Y-62057845D01*
X143277302Y-62163210D01*
X143276034Y-62167529D01*
X143261416Y-62217314D01*
X143257300Y-62231331D01*
X143256660Y-62235780D01*
X143256659Y-62235786D01*
X143237860Y-62366539D01*
X143236500Y-62376000D01*
X143236500Y-69860500D01*
X143216498Y-69928621D01*
X143162842Y-69975114D01*
X143110500Y-69986500D01*
X135084228Y-69986500D01*
X135083645Y-69986512D01*
X135083617Y-69986512D01*
X135064132Y-69986904D01*
X135064103Y-69986905D01*
X135063551Y-69986916D01*
X135060902Y-69987023D01*
X135053989Y-69987301D01*
X135053956Y-69987303D01*
X135053402Y-69987325D01*
X135052823Y-69987360D01*
X135052785Y-69987362D01*
X135037849Y-69988267D01*
X135037847Y-69988267D01*
X135032717Y-69988578D01*
X134890193Y-70020963D01*
X134823905Y-70046387D01*
X134819971Y-70048583D01*
X134819970Y-70048583D01*
X134749310Y-70088018D01*
X134696279Y-70117614D01*
X134689965Y-70124046D01*
X134682802Y-70129512D01*
X134680839Y-70126939D01*
X134632754Y-70153781D01*
X134561894Y-70149376D01*
X134557088Y-70147340D01*
X134554411Y-70145641D01*
X134394103Y-70088558D01*
X134225132Y-70068410D01*
X134218129Y-70069146D01*
X134218128Y-70069146D01*
X134062904Y-70085460D01*
X134062900Y-70085461D01*
X134055896Y-70086197D01*
X134049225Y-70088468D01*
X133901476Y-70138765D01*
X133901473Y-70138766D01*
X133894806Y-70141036D01*
X133888807Y-70144727D01*
X133888802Y-70144729D01*
X133878632Y-70150986D01*
X133810132Y-70169646D01*
X133742417Y-70148309D01*
X133726940Y-70136065D01*
X133714716Y-70124731D01*
X133716428Y-70122884D01*
X133680198Y-70078127D01*
X133671726Y-70012118D01*
X133688001Y-69896313D01*
X133688299Y-69875000D01*
X133669331Y-69705892D01*
X133613368Y-69545189D01*
X133607383Y-69535610D01*
X133585420Y-69500464D01*
X133523192Y-69400879D01*
X133403286Y-69280132D01*
X133387039Y-69269821D01*
X133348406Y-69245304D01*
X133259608Y-69188951D01*
X133099300Y-69131868D01*
X132930329Y-69111720D01*
X132923326Y-69112456D01*
X132923325Y-69112456D01*
X132768101Y-69128770D01*
X132768097Y-69128771D01*
X132761093Y-69129507D01*
X132754422Y-69131778D01*
X132606673Y-69182075D01*
X132606670Y-69182076D01*
X132600003Y-69184346D01*
X132594005Y-69188036D01*
X132594003Y-69188037D01*
X132461065Y-69269821D01*
X132461063Y-69269823D01*
X132455066Y-69273512D01*
X132333486Y-69392573D01*
X132241304Y-69535610D01*
X132183103Y-69695516D01*
X132161775Y-69864343D01*
X132161816Y-69864766D01*
X132141638Y-69930095D01*
X132087337Y-69975834D01*
X132036602Y-69986500D01*
X130398602Y-69986500D01*
X130397201Y-69986563D01*
X130397199Y-69986563D01*
X130353974Y-69988505D01*
X130353969Y-69988505D01*
X130352552Y-69988569D01*
X130351141Y-69988696D01*
X130351127Y-69988697D01*
X130331481Y-69990466D01*
X130331470Y-69990467D01*
X130330040Y-69990596D01*
X130284339Y-69996790D01*
X130278720Y-69998667D01*
X130278717Y-69998668D01*
X130214968Y-70019967D01*
X130145714Y-70043105D01*
X130082263Y-70074957D01*
X130055019Y-70093919D01*
X129969701Y-70153300D01*
X129969698Y-70153303D01*
X129962304Y-70158449D01*
X129956656Y-70165474D01*
X129947638Y-70176691D01*
X129889366Y-70217249D01*
X129818418Y-70219864D01*
X129760420Y-70186880D01*
X129757692Y-70183732D01*
X129708418Y-70141036D01*
X129654043Y-70093919D01*
X129654040Y-70093917D01*
X129647232Y-70088018D01*
X129514283Y-70027302D01*
X129489302Y-70019967D01*
X129450485Y-70008569D01*
X129450481Y-70008568D01*
X129446162Y-70007300D01*
X129441713Y-70006660D01*
X129441707Y-70006659D01*
X129305940Y-69987139D01*
X129305935Y-69987139D01*
X129301493Y-69986500D01*
X127139500Y-69986500D01*
X127071379Y-69966498D01*
X127024886Y-69912842D01*
X127013500Y-69860500D01*
X127013500Y-68528905D01*
X127007895Y-68453241D01*
X127002424Y-68416517D01*
X126985734Y-68342516D01*
X126982834Y-68336333D01*
X126982832Y-68336327D01*
X126981663Y-68333835D01*
X126981406Y-68332166D01*
X126980617Y-68329865D01*
X126981029Y-68329724D01*
X126970846Y-68263667D01*
X126999682Y-68198790D01*
X127008847Y-68189087D01*
X127054614Y-68145503D01*
X127054617Y-68145500D01*
X127059721Y-68140639D01*
X127153891Y-67998902D01*
X127214319Y-67839825D01*
X127238001Y-67671313D01*
X127238299Y-67650000D01*
X127219331Y-67480892D01*
X127163368Y-67320189D01*
X127154696Y-67306310D01*
X127118571Y-67248500D01*
X127073192Y-67175879D01*
X127063875Y-67166496D01*
X127004614Y-67106820D01*
X126970807Y-67044389D01*
X126973124Y-66982541D01*
X126992700Y-66915870D01*
X126998965Y-66872301D01*
X127012861Y-66775648D01*
X127012861Y-66775643D01*
X127013500Y-66771201D01*
X127013500Y-65626000D01*
X127012121Y-65613169D01*
X127002128Y-65520215D01*
X127002127Y-65520208D01*
X127001766Y-65516851D01*
X126995184Y-65486594D01*
X126991094Y-65467790D01*
X126991093Y-65467785D01*
X126990380Y-65464509D01*
X126955710Y-65360343D01*
X126876692Y-65237388D01*
X126865007Y-65223902D01*
X126833139Y-65187125D01*
X126830199Y-65183732D01*
X126820933Y-65175703D01*
X126726550Y-65093919D01*
X126726547Y-65093917D01*
X126719739Y-65088018D01*
X126586790Y-65027302D01*
X126552951Y-65017366D01*
X126522992Y-65008569D01*
X126522988Y-65008568D01*
X126518669Y-65007300D01*
X126514220Y-65006660D01*
X126514214Y-65006659D01*
X126378447Y-64987139D01*
X126378442Y-64987139D01*
X126374000Y-64986500D01*
X126058017Y-64986500D01*
X125989896Y-64966498D01*
X125943403Y-64912842D01*
X125933299Y-64842568D01*
X125945692Y-64803717D01*
X125948891Y-64798902D01*
X125959807Y-64770167D01*
X126006816Y-64646414D01*
X126009319Y-64639825D01*
X126033001Y-64471313D01*
X126033299Y-64450000D01*
X126014331Y-64280892D01*
X126006789Y-64259233D01*
X125971141Y-64156868D01*
X125958368Y-64120189D01*
X125952383Y-64110610D01*
X125930420Y-64075464D01*
X125868192Y-63975879D01*
X125748286Y-63855132D01*
X125732039Y-63844821D01*
X125654370Y-63795531D01*
X125604608Y-63763951D01*
X125444300Y-63706868D01*
X125275329Y-63686720D01*
X125268326Y-63687456D01*
X125268325Y-63687456D01*
X125113101Y-63703770D01*
X125113097Y-63703771D01*
X125106093Y-63704507D01*
X125099422Y-63706778D01*
X124951673Y-63757075D01*
X124951670Y-63757076D01*
X124945003Y-63759346D01*
X124939005Y-63763036D01*
X124939003Y-63763037D01*
X124806065Y-63844821D01*
X124806063Y-63844823D01*
X124800066Y-63848512D01*
X124782491Y-63865723D01*
X124705636Y-63940986D01*
X124678486Y-63967573D01*
X124674675Y-63973487D01*
X124674673Y-63973489D01*
X124627497Y-64046691D01*
X124586304Y-64110610D01*
X124528103Y-64270516D01*
X124506775Y-64439343D01*
X124523381Y-64608699D01*
X124577094Y-64770167D01*
X124580741Y-64776189D01*
X124580742Y-64776191D01*
X124592272Y-64795229D01*
X124610451Y-64863859D01*
X124588641Y-64931422D01*
X124533765Y-64976468D01*
X124484496Y-64986500D01*
X118639500Y-64986500D01*
X118571379Y-64966498D01*
X118524886Y-64912842D01*
X118513500Y-64860500D01*
X118513500Y-63039343D01*
X129211775Y-63039343D01*
X129228381Y-63208699D01*
X129230605Y-63215384D01*
X129230605Y-63215385D01*
X129237702Y-63236720D01*
X129282094Y-63370167D01*
X129285741Y-63376189D01*
X129285742Y-63376191D01*
X129355055Y-63490639D01*
X129370246Y-63515723D01*
X129488455Y-63638132D01*
X129494351Y-63641990D01*
X129613818Y-63720167D01*
X129630846Y-63731310D01*
X129637450Y-63733766D01*
X129637452Y-63733767D01*
X129678149Y-63748902D01*
X129790341Y-63790626D01*
X129959015Y-63813132D01*
X129966026Y-63812494D01*
X129966030Y-63812494D01*
X130033453Y-63806358D01*
X130106460Y-63799713D01*
X130176111Y-63813458D01*
X130227276Y-63862679D01*
X130243707Y-63931748D01*
X130242884Y-63940985D01*
X130236775Y-63989343D01*
X130237245Y-63994135D01*
X130216550Y-64061127D01*
X130162248Y-64106863D01*
X130096599Y-64116641D01*
X130055329Y-64111720D01*
X130048326Y-64112456D01*
X130048325Y-64112456D01*
X129893101Y-64128770D01*
X129893097Y-64128771D01*
X129886093Y-64129507D01*
X129879422Y-64131778D01*
X129731673Y-64182075D01*
X129731670Y-64182076D01*
X129725003Y-64184346D01*
X129719005Y-64188036D01*
X129719003Y-64188037D01*
X129586065Y-64269821D01*
X129586063Y-64269823D01*
X129580066Y-64273512D01*
X129458486Y-64392573D01*
X129454675Y-64398487D01*
X129454673Y-64398489D01*
X129372575Y-64525879D01*
X129366304Y-64535610D01*
X129363894Y-64542232D01*
X129318398Y-64667232D01*
X129308103Y-64695516D01*
X129286775Y-64864343D01*
X129303381Y-65033699D01*
X129357094Y-65195167D01*
X129360741Y-65201189D01*
X129360742Y-65201191D01*
X129432797Y-65320167D01*
X129445246Y-65340723D01*
X129563455Y-65463132D01*
X129705846Y-65556310D01*
X129712450Y-65558766D01*
X129712452Y-65558767D01*
X129785593Y-65585968D01*
X129865341Y-65615626D01*
X129902103Y-65620531D01*
X129911336Y-65621763D01*
X129976213Y-65650599D01*
X130015201Y-65709932D01*
X130015922Y-65780925D01*
X129978147Y-65841038D01*
X129907842Y-65871966D01*
X129843101Y-65878770D01*
X129843097Y-65878771D01*
X129836093Y-65879507D01*
X129829422Y-65881778D01*
X129681673Y-65932075D01*
X129681670Y-65932076D01*
X129675003Y-65934346D01*
X129669005Y-65938036D01*
X129669003Y-65938037D01*
X129536065Y-66019821D01*
X129536063Y-66019823D01*
X129530066Y-66023512D01*
X129408486Y-66142573D01*
X129404675Y-66148487D01*
X129404673Y-66148489D01*
X129346139Y-66239315D01*
X129316304Y-66285610D01*
X129258103Y-66445516D01*
X129236775Y-66614343D01*
X129253381Y-66783699D01*
X129307094Y-66945167D01*
X129310741Y-66951189D01*
X129310742Y-66951191D01*
X129369795Y-67048698D01*
X129395246Y-67090723D01*
X129513455Y-67213132D01*
X129567503Y-67248500D01*
X129614641Y-67279346D01*
X129655846Y-67306310D01*
X129662450Y-67308766D01*
X129662452Y-67308767D01*
X129698844Y-67322301D01*
X129815341Y-67365626D01*
X129984015Y-67388132D01*
X129991026Y-67387494D01*
X129991030Y-67387494D01*
X130146462Y-67373348D01*
X130153483Y-67372709D01*
X130160185Y-67370531D01*
X130160187Y-67370531D01*
X130308623Y-67322301D01*
X130308626Y-67322300D01*
X130315322Y-67320124D01*
X130461490Y-67232990D01*
X130466584Y-67228139D01*
X130466588Y-67228136D01*
X130533833Y-67164099D01*
X130584721Y-67115639D01*
X130590581Y-67106820D01*
X130674990Y-66979773D01*
X130678891Y-66973902D01*
X130681392Y-66967317D01*
X130681395Y-66967312D01*
X130683179Y-66962615D01*
X130726068Y-66906038D01*
X130792737Y-66881630D01*
X130862019Y-66897141D01*
X130911917Y-66947645D01*
X130914945Y-66953708D01*
X130917094Y-66960167D01*
X130966699Y-67042074D01*
X131000858Y-67098477D01*
X131005246Y-67105723D01*
X131123455Y-67228132D01*
X131166433Y-67256256D01*
X131255001Y-67314213D01*
X131265846Y-67321310D01*
X131272450Y-67323766D01*
X131272452Y-67323767D01*
X131308844Y-67337301D01*
X131425341Y-67380626D01*
X131594015Y-67403132D01*
X131601026Y-67402494D01*
X131601030Y-67402494D01*
X131756462Y-67388348D01*
X131763483Y-67387709D01*
X131770185Y-67385531D01*
X131770187Y-67385531D01*
X131918623Y-67337301D01*
X131918626Y-67337300D01*
X131925322Y-67335124D01*
X132033825Y-67270443D01*
X132085330Y-67256256D01*
X132085000Y-67253750D01*
X132124874Y-67248501D01*
X132124884Y-67248500D01*
X132124885Y-67248500D01*
X132224457Y-67235391D01*
X132235664Y-67233916D01*
X132235666Y-67233915D01*
X132243851Y-67232838D01*
X132391876Y-67171524D01*
X132487072Y-67098477D01*
X132487075Y-67098474D01*
X132518987Y-67073987D01*
X132524017Y-67067432D01*
X132538452Y-67048621D01*
X132549319Y-67036230D01*
X133346234Y-66239315D01*
X133358625Y-66228448D01*
X133377437Y-66214013D01*
X133383987Y-66208987D01*
X133408474Y-66177075D01*
X133408478Y-66177071D01*
X133481524Y-66081876D01*
X133542838Y-65933851D01*
X133547707Y-65896868D01*
X133558500Y-65814885D01*
X133558500Y-65814880D01*
X133563750Y-65775000D01*
X133559578Y-65743307D01*
X133558500Y-65726862D01*
X133558500Y-64989343D01*
X136336775Y-64989343D01*
X136353381Y-65158699D01*
X136355605Y-65165384D01*
X136355605Y-65165385D01*
X136373829Y-65220167D01*
X136407094Y-65320167D01*
X136410741Y-65326189D01*
X136410742Y-65326191D01*
X136490608Y-65458064D01*
X136495246Y-65465723D01*
X136613455Y-65588132D01*
X136675868Y-65628974D01*
X136695099Y-65641558D01*
X136755846Y-65681310D01*
X136762450Y-65683766D01*
X136762452Y-65683767D01*
X136808465Y-65700879D01*
X136915341Y-65740626D01*
X137084015Y-65763132D01*
X137091026Y-65762494D01*
X137091030Y-65762494D01*
X137246462Y-65748348D01*
X137253483Y-65747709D01*
X137260185Y-65745531D01*
X137260187Y-65745531D01*
X137408623Y-65697301D01*
X137408626Y-65697300D01*
X137415322Y-65695124D01*
X137561490Y-65607990D01*
X137566584Y-65603139D01*
X137566588Y-65603136D01*
X137653663Y-65520215D01*
X137684721Y-65490639D01*
X137700434Y-65466990D01*
X137737155Y-65411720D01*
X137778891Y-65348902D01*
X137839319Y-65189825D01*
X137840589Y-65180792D01*
X137852797Y-65093919D01*
X137863001Y-65021313D01*
X137863299Y-65000000D01*
X137844331Y-64830892D01*
X137788368Y-64670189D01*
X137782383Y-64660610D01*
X137749944Y-64608699D01*
X137698192Y-64525879D01*
X137578286Y-64405132D01*
X137567819Y-64398489D01*
X137523406Y-64370304D01*
X137434608Y-64313951D01*
X137274300Y-64256868D01*
X137105329Y-64236720D01*
X137098326Y-64237456D01*
X137098325Y-64237456D01*
X136943101Y-64253770D01*
X136943097Y-64253771D01*
X136936093Y-64254507D01*
X136929422Y-64256778D01*
X136781673Y-64307075D01*
X136781670Y-64307076D01*
X136775003Y-64309346D01*
X136769005Y-64313036D01*
X136769003Y-64313037D01*
X136636065Y-64394821D01*
X136636063Y-64394823D01*
X136630066Y-64398512D01*
X136508486Y-64517573D01*
X136504675Y-64523487D01*
X136504673Y-64523489D01*
X136429699Y-64639825D01*
X136416304Y-64660610D01*
X136358103Y-64820516D01*
X136336775Y-64989343D01*
X133558500Y-64989343D01*
X133558500Y-63389343D01*
X139336775Y-63389343D01*
X139353381Y-63558699D01*
X139407094Y-63720167D01*
X139410741Y-63726189D01*
X139410742Y-63726191D01*
X139487808Y-63853441D01*
X139495246Y-63865723D01*
X139613455Y-63988132D01*
X139636384Y-64003136D01*
X139702943Y-64046691D01*
X139755846Y-64081310D01*
X139762450Y-64083766D01*
X139762452Y-64083767D01*
X139834631Y-64110610D01*
X139915341Y-64140626D01*
X140084015Y-64163132D01*
X140091026Y-64162494D01*
X140091030Y-64162494D01*
X140246462Y-64148348D01*
X140253483Y-64147709D01*
X140260185Y-64145531D01*
X140260187Y-64145531D01*
X140408623Y-64097301D01*
X140408626Y-64097300D01*
X140415322Y-64095124D01*
X140561490Y-64007990D01*
X140566584Y-64003139D01*
X140566588Y-64003136D01*
X140641552Y-63931748D01*
X140684721Y-63890639D01*
X140691195Y-63880896D01*
X140736217Y-63813132D01*
X140778891Y-63748902D01*
X140839319Y-63589825D01*
X140863001Y-63421313D01*
X140863299Y-63400000D01*
X140844331Y-63230892D01*
X140832325Y-63196414D01*
X140790686Y-63076846D01*
X140788368Y-63070189D01*
X140782383Y-63060610D01*
X140760270Y-63025223D01*
X140737849Y-62989343D01*
X141261775Y-62989343D01*
X141278381Y-63158699D01*
X141332094Y-63320167D01*
X141335741Y-63326189D01*
X141335742Y-63326191D01*
X141382842Y-63403961D01*
X141420246Y-63465723D01*
X141538455Y-63588132D01*
X141680846Y-63681310D01*
X141687450Y-63683766D01*
X141687452Y-63683767D01*
X141723844Y-63697301D01*
X141840341Y-63740626D01*
X142009015Y-63763132D01*
X142016026Y-63762494D01*
X142016030Y-63762494D01*
X142171462Y-63748348D01*
X142178483Y-63747709D01*
X142185185Y-63745531D01*
X142185187Y-63745531D01*
X142333623Y-63697301D01*
X142333626Y-63697300D01*
X142340322Y-63695124D01*
X142486490Y-63607990D01*
X142491584Y-63603139D01*
X142491588Y-63603136D01*
X142589705Y-63509700D01*
X142609721Y-63490639D01*
X142703891Y-63348902D01*
X142764319Y-63189825D01*
X142788001Y-63021313D01*
X142788299Y-63000000D01*
X142769331Y-62830892D01*
X142713368Y-62670189D01*
X142707383Y-62660610D01*
X142679273Y-62615626D01*
X142623192Y-62525879D01*
X142503286Y-62405132D01*
X142487039Y-62394821D01*
X142436955Y-62363037D01*
X142359608Y-62313951D01*
X142199300Y-62256868D01*
X142030329Y-62236720D01*
X142023326Y-62237456D01*
X142023325Y-62237456D01*
X141868101Y-62253770D01*
X141868097Y-62253771D01*
X141861093Y-62254507D01*
X141854422Y-62256778D01*
X141706673Y-62307075D01*
X141706670Y-62307076D01*
X141700003Y-62309346D01*
X141694005Y-62313036D01*
X141694003Y-62313037D01*
X141561065Y-62394821D01*
X141561063Y-62394823D01*
X141555066Y-62398512D01*
X141433486Y-62517573D01*
X141429675Y-62523487D01*
X141429673Y-62523489D01*
X141369694Y-62616558D01*
X141341304Y-62660610D01*
X141321794Y-62714213D01*
X141286884Y-62810129D01*
X141283103Y-62820516D01*
X141261775Y-62989343D01*
X140737849Y-62989343D01*
X140698192Y-62925879D01*
X140578286Y-62805132D01*
X140562039Y-62794821D01*
X140444437Y-62720189D01*
X140434608Y-62713951D01*
X140274300Y-62656868D01*
X140105329Y-62636720D01*
X140098326Y-62637456D01*
X140098325Y-62637456D01*
X139943101Y-62653770D01*
X139943097Y-62653771D01*
X139936093Y-62654507D01*
X139929422Y-62656778D01*
X139781673Y-62707075D01*
X139781670Y-62707076D01*
X139775003Y-62709346D01*
X139769005Y-62713036D01*
X139769003Y-62713037D01*
X139636065Y-62794821D01*
X139636063Y-62794823D01*
X139630066Y-62798512D01*
X139508486Y-62917573D01*
X139504675Y-62923487D01*
X139504673Y-62923489D01*
X139423142Y-63050000D01*
X139416304Y-63060610D01*
X139358103Y-63220516D01*
X139336775Y-63389343D01*
X133558500Y-63389343D01*
X133558500Y-62366539D01*
X133559578Y-62350093D01*
X133562673Y-62326583D01*
X133563751Y-62318395D01*
X133542838Y-62159544D01*
X133481524Y-62011519D01*
X133408478Y-61916324D01*
X133408474Y-61916320D01*
X133408471Y-61916316D01*
X133389016Y-61890961D01*
X133389013Y-61890958D01*
X133383987Y-61884408D01*
X133377432Y-61879378D01*
X133358621Y-61864943D01*
X133346230Y-61854076D01*
X132881497Y-61389343D01*
X136486775Y-61389343D01*
X136503381Y-61558699D01*
X136557094Y-61720167D01*
X136560741Y-61726189D01*
X136560742Y-61726191D01*
X136640563Y-61857990D01*
X136645246Y-61865723D01*
X136763455Y-61988132D01*
X136905846Y-62081310D01*
X136912450Y-62083766D01*
X136912452Y-62083767D01*
X136983913Y-62110343D01*
X137065341Y-62140626D01*
X137234015Y-62163132D01*
X137241026Y-62162494D01*
X137241030Y-62162494D01*
X137396462Y-62148348D01*
X137403483Y-62147709D01*
X137410185Y-62145531D01*
X137410187Y-62145531D01*
X137558623Y-62097301D01*
X137558626Y-62097300D01*
X137565322Y-62095124D01*
X137711490Y-62007990D01*
X137716584Y-62003139D01*
X137716588Y-62003136D01*
X137807757Y-61916316D01*
X137834721Y-61890639D01*
X137847534Y-61871355D01*
X137881806Y-61819771D01*
X137928891Y-61748902D01*
X137989319Y-61589825D01*
X138013001Y-61421313D01*
X138013118Y-61412964D01*
X138013244Y-61403961D01*
X138013244Y-61403955D01*
X138013299Y-61400000D01*
X137994331Y-61230892D01*
X137977676Y-61183064D01*
X137947461Y-61096300D01*
X137938368Y-61070189D01*
X137934634Y-61064213D01*
X137869362Y-60959757D01*
X137850226Y-60891388D01*
X137871268Y-60823260D01*
X137949990Y-60704773D01*
X137953891Y-60698902D01*
X138014319Y-60539825D01*
X138038001Y-60371313D01*
X138038118Y-60362964D01*
X138038244Y-60353961D01*
X138038244Y-60353955D01*
X138038299Y-60350000D01*
X138020279Y-60189343D01*
X145536775Y-60189343D01*
X145553381Y-60358699D01*
X145555605Y-60365384D01*
X145555605Y-60365385D01*
X145574887Y-60423348D01*
X145607094Y-60520167D01*
X145610741Y-60526189D01*
X145610742Y-60526191D01*
X145687808Y-60653441D01*
X145695246Y-60665723D01*
X145813455Y-60788132D01*
X145955846Y-60881310D01*
X145962450Y-60883766D01*
X145962452Y-60883767D01*
X145995964Y-60896230D01*
X146115341Y-60940626D01*
X146284015Y-60963132D01*
X146291026Y-60962494D01*
X146291030Y-60962494D01*
X146446462Y-60948348D01*
X146453483Y-60947709D01*
X146460185Y-60945531D01*
X146460187Y-60945531D01*
X146608623Y-60897301D01*
X146608626Y-60897300D01*
X146615322Y-60895124D01*
X146761490Y-60807990D01*
X146766584Y-60803139D01*
X146766588Y-60803136D01*
X146833833Y-60739099D01*
X146884721Y-60690639D01*
X146894321Y-60676191D01*
X146942310Y-60603961D01*
X146952022Y-60589343D01*
X153186775Y-60589343D01*
X153203381Y-60758699D01*
X153257094Y-60920167D01*
X153260741Y-60926189D01*
X153260742Y-60926191D01*
X153283115Y-60963132D01*
X153345246Y-61065723D01*
X153463455Y-61188132D01*
X153486384Y-61203136D01*
X153561432Y-61252246D01*
X153605846Y-61281310D01*
X153612450Y-61283766D01*
X153612452Y-61283767D01*
X153648844Y-61297301D01*
X153765341Y-61340626D01*
X153934015Y-61363132D01*
X153941026Y-61362494D01*
X153941030Y-61362494D01*
X154096462Y-61348348D01*
X154103483Y-61347709D01*
X154110185Y-61345531D01*
X154110187Y-61345531D01*
X154258623Y-61297301D01*
X154258626Y-61297300D01*
X154265322Y-61295124D01*
X154411490Y-61207990D01*
X154416584Y-61203139D01*
X154416588Y-61203136D01*
X154511811Y-61112456D01*
X154534721Y-61090639D01*
X154552279Y-61064213D01*
X154600897Y-60991036D01*
X154628891Y-60948902D01*
X154689319Y-60789825D01*
X154713001Y-60621313D01*
X154713299Y-60600000D01*
X154694331Y-60430892D01*
X154691656Y-60423209D01*
X154662450Y-60339343D01*
X154638368Y-60270189D01*
X154633959Y-60263132D01*
X154610270Y-60225223D01*
X154548192Y-60125879D01*
X154428286Y-60005132D01*
X154412039Y-59994821D01*
X154334370Y-59945531D01*
X154284608Y-59913951D01*
X154124300Y-59856868D01*
X153955329Y-59836720D01*
X153948326Y-59837456D01*
X153948325Y-59837456D01*
X153793101Y-59853770D01*
X153793097Y-59853771D01*
X153786093Y-59854507D01*
X153779422Y-59856778D01*
X153631673Y-59907075D01*
X153631670Y-59907076D01*
X153625003Y-59909346D01*
X153619005Y-59913036D01*
X153619003Y-59913037D01*
X153486065Y-59994821D01*
X153486063Y-59994823D01*
X153480066Y-59998512D01*
X153358486Y-60117573D01*
X153354675Y-60123487D01*
X153354673Y-60123489D01*
X153270121Y-60254687D01*
X153266304Y-60260610D01*
X153208103Y-60420516D01*
X153186775Y-60589343D01*
X146952022Y-60589343D01*
X146978891Y-60548902D01*
X147039319Y-60389825D01*
X147041712Y-60372801D01*
X147043693Y-60358699D01*
X147063001Y-60221313D01*
X147063299Y-60200000D01*
X147044331Y-60030892D01*
X147039950Y-60018310D01*
X147004924Y-59917730D01*
X146988368Y-59870189D01*
X146982383Y-59860610D01*
X146937092Y-59788132D01*
X146898192Y-59725879D01*
X146877309Y-59704849D01*
X146783248Y-59610129D01*
X146778286Y-59605132D01*
X146768470Y-59598902D01*
X146723190Y-59570167D01*
X146634608Y-59513951D01*
X146474300Y-59456868D01*
X146305329Y-59436720D01*
X146298326Y-59437456D01*
X146298325Y-59437456D01*
X146143101Y-59453770D01*
X146143097Y-59453771D01*
X146136093Y-59454507D01*
X146129422Y-59456778D01*
X145981673Y-59507075D01*
X145981670Y-59507076D01*
X145975003Y-59509346D01*
X145969005Y-59513036D01*
X145969003Y-59513037D01*
X145836065Y-59594821D01*
X145836063Y-59594823D01*
X145830066Y-59598512D01*
X145708486Y-59717573D01*
X145704675Y-59723487D01*
X145704673Y-59723489D01*
X145647893Y-59811594D01*
X145616304Y-59860610D01*
X145595514Y-59917730D01*
X145561884Y-60010129D01*
X145558103Y-60020516D01*
X145536775Y-60189343D01*
X138020279Y-60189343D01*
X138019331Y-60180892D01*
X138015712Y-60170498D01*
X137970898Y-60041812D01*
X137963368Y-60020189D01*
X137959437Y-60013897D01*
X137913651Y-59940626D01*
X137873192Y-59875879D01*
X137854314Y-59856868D01*
X137758248Y-59760129D01*
X137753286Y-59755132D01*
X137737039Y-59744821D01*
X137656023Y-59693407D01*
X137609608Y-59663951D01*
X137449300Y-59606868D01*
X137280329Y-59586720D01*
X137273326Y-59587456D01*
X137273325Y-59587456D01*
X137118101Y-59603770D01*
X137118097Y-59603771D01*
X137111093Y-59604507D01*
X137104422Y-59606778D01*
X136956673Y-59657075D01*
X136956670Y-59657076D01*
X136950003Y-59659346D01*
X136944005Y-59663036D01*
X136944003Y-59663037D01*
X136811065Y-59744821D01*
X136811063Y-59744823D01*
X136805066Y-59748512D01*
X136754581Y-59797951D01*
X136696645Y-59854687D01*
X136683486Y-59867573D01*
X136679675Y-59873487D01*
X136679673Y-59873489D01*
X136622502Y-59962200D01*
X136591304Y-60010610D01*
X136576967Y-60050000D01*
X136549350Y-60125879D01*
X136533103Y-60170516D01*
X136511775Y-60339343D01*
X136528381Y-60508699D01*
X136582094Y-60670167D01*
X136585741Y-60676189D01*
X136585742Y-60676191D01*
X136655562Y-60791477D01*
X136673741Y-60860106D01*
X136653697Y-60925004D01*
X136566304Y-61060610D01*
X136547434Y-61112456D01*
X136520453Y-61186586D01*
X136508103Y-61220516D01*
X136486775Y-61389343D01*
X132881497Y-61389343D01*
X132672248Y-61180094D01*
X132638222Y-61117782D01*
X132643287Y-61046967D01*
X132684637Y-60991039D01*
X132727072Y-60958477D01*
X132727075Y-60958474D01*
X132758987Y-60933987D01*
X132769592Y-60920167D01*
X132778452Y-60908621D01*
X132789319Y-60896230D01*
X133223466Y-60462083D01*
X133285778Y-60428057D01*
X133301123Y-60425699D01*
X133328483Y-60423209D01*
X133359383Y-60413169D01*
X133483623Y-60372801D01*
X133483626Y-60372800D01*
X133490322Y-60370624D01*
X133636490Y-60283490D01*
X133641584Y-60278639D01*
X133641588Y-60278636D01*
X133727991Y-60196355D01*
X133759721Y-60166139D01*
X133776608Y-60140723D01*
X133831443Y-60058189D01*
X133853891Y-60024402D01*
X133914319Y-59865325D01*
X133938001Y-59696813D01*
X133938118Y-59688464D01*
X133938244Y-59679461D01*
X133938244Y-59679455D01*
X133938299Y-59675500D01*
X133919331Y-59506392D01*
X133902054Y-59456778D01*
X133887639Y-59415385D01*
X133863368Y-59345689D01*
X133859322Y-59339213D01*
X133801113Y-59246062D01*
X133773192Y-59201379D01*
X133764448Y-59192573D01*
X133761240Y-59189343D01*
X151086775Y-59189343D01*
X151103381Y-59358699D01*
X151157094Y-59520167D01*
X151160741Y-59526189D01*
X151160742Y-59526191D01*
X151240175Y-59657349D01*
X151245246Y-59665723D01*
X151363455Y-59788132D01*
X151369351Y-59791990D01*
X151497547Y-59875879D01*
X151505846Y-59881310D01*
X151512450Y-59883766D01*
X151512452Y-59883767D01*
X151548844Y-59897301D01*
X151665341Y-59940626D01*
X151834015Y-59963132D01*
X151841026Y-59962494D01*
X151841030Y-59962494D01*
X151996462Y-59948348D01*
X152003483Y-59947709D01*
X152010185Y-59945531D01*
X152010187Y-59945531D01*
X152158623Y-59897301D01*
X152158626Y-59897300D01*
X152165322Y-59895124D01*
X152311490Y-59807990D01*
X152316584Y-59803139D01*
X152316588Y-59803136D01*
X152419799Y-59704849D01*
X152434721Y-59690639D01*
X152444780Y-59675500D01*
X152490438Y-59606778D01*
X152528891Y-59548902D01*
X152589319Y-59389825D01*
X152613001Y-59221313D01*
X152613118Y-59212964D01*
X152613244Y-59203961D01*
X152613244Y-59203955D01*
X152613299Y-59200000D01*
X152594331Y-59030892D01*
X152538368Y-58870189D01*
X152532383Y-58860610D01*
X152476094Y-58770531D01*
X152448192Y-58725879D01*
X152328286Y-58605132D01*
X152312039Y-58594821D01*
X152260636Y-58562200D01*
X152184608Y-58513951D01*
X152024300Y-58456868D01*
X151855329Y-58436720D01*
X151848326Y-58437456D01*
X151848325Y-58437456D01*
X151693101Y-58453770D01*
X151693097Y-58453771D01*
X151686093Y-58454507D01*
X151679422Y-58456778D01*
X151531673Y-58507075D01*
X151531670Y-58507076D01*
X151525003Y-58509346D01*
X151519005Y-58513036D01*
X151519003Y-58513037D01*
X151386065Y-58594821D01*
X151386063Y-58594823D01*
X151380066Y-58598512D01*
X151258486Y-58717573D01*
X151254675Y-58723487D01*
X151254673Y-58723489D01*
X151222953Y-58772709D01*
X151166304Y-58860610D01*
X151129721Y-58961122D01*
X151120271Y-58987086D01*
X151108103Y-59020516D01*
X151086775Y-59189343D01*
X133761240Y-59189343D01*
X133658248Y-59085629D01*
X133653286Y-59080632D01*
X133637039Y-59070321D01*
X133598406Y-59045804D01*
X133509608Y-58989451D01*
X133349300Y-58932368D01*
X133180329Y-58912220D01*
X133173326Y-58912956D01*
X133173325Y-58912956D01*
X133018101Y-58929270D01*
X133018097Y-58929271D01*
X133011093Y-58930007D01*
X133004422Y-58932278D01*
X132856673Y-58982575D01*
X132856670Y-58982576D01*
X132850003Y-58984846D01*
X132844005Y-58988536D01*
X132844003Y-58988537D01*
X132711065Y-59070321D01*
X132711063Y-59070323D01*
X132705066Y-59074012D01*
X132583486Y-59193073D01*
X132579675Y-59198987D01*
X132579673Y-59198989D01*
X132544246Y-59253961D01*
X132491304Y-59336110D01*
X132433103Y-59496016D01*
X132432220Y-59503007D01*
X132431221Y-59507135D01*
X132397849Y-59566602D01*
X132109856Y-59854595D01*
X132047544Y-59888621D01*
X132020761Y-59891500D01*
X131773143Y-59891500D01*
X131756697Y-59890422D01*
X131733188Y-59887327D01*
X131725000Y-59886249D01*
X131716812Y-59887327D01*
X131693303Y-59890422D01*
X131676857Y-59891500D01*
X131454239Y-59891500D01*
X131386118Y-59871498D01*
X131365144Y-59854595D01*
X131345405Y-59834856D01*
X131311379Y-59772544D01*
X131308500Y-59745761D01*
X131308500Y-59742890D01*
X131329552Y-59673163D01*
X131335412Y-59664343D01*
X131378891Y-59598902D01*
X131439319Y-59439825D01*
X131463001Y-59271313D01*
X131463299Y-59250000D01*
X131444331Y-59080892D01*
X131388368Y-58920189D01*
X131383849Y-58912956D01*
X131313513Y-58800398D01*
X131298192Y-58775879D01*
X131178286Y-58655132D01*
X131162039Y-58644821D01*
X131083251Y-58594821D01*
X131034608Y-58563951D01*
X130874300Y-58506868D01*
X130705329Y-58486720D01*
X130698326Y-58487456D01*
X130698325Y-58487456D01*
X130543101Y-58503770D01*
X130543097Y-58503771D01*
X130536093Y-58504507D01*
X130522210Y-58509233D01*
X130381673Y-58557075D01*
X130381670Y-58557076D01*
X130375003Y-58559346D01*
X130369005Y-58563036D01*
X130369003Y-58563037D01*
X130236065Y-58644821D01*
X130236063Y-58644823D01*
X130230066Y-58648512D01*
X130108486Y-58767573D01*
X130104675Y-58773487D01*
X130104673Y-58773489D01*
X130020121Y-58904687D01*
X130016304Y-58910610D01*
X130008385Y-58932368D01*
X129969978Y-59037891D01*
X129958103Y-59070516D01*
X129936775Y-59239343D01*
X129953381Y-59408699D01*
X130007094Y-59570167D01*
X130010741Y-59576189D01*
X130010742Y-59576191D01*
X130073276Y-59679447D01*
X130091500Y-59744718D01*
X130091500Y-60001864D01*
X130090422Y-60018307D01*
X130086250Y-60050000D01*
X130091500Y-60089880D01*
X130091500Y-60089885D01*
X130100321Y-60156889D01*
X130107162Y-60208851D01*
X130168476Y-60356876D01*
X130173503Y-60363427D01*
X130173504Y-60363429D01*
X130241520Y-60452069D01*
X130241526Y-60452075D01*
X130266013Y-60483987D01*
X130272568Y-60489017D01*
X130291379Y-60503452D01*
X130303770Y-60514319D01*
X130685685Y-60896234D01*
X130696552Y-60908625D01*
X130716013Y-60933987D01*
X130747925Y-60958474D01*
X130747928Y-60958477D01*
X130843124Y-61031524D01*
X130991149Y-61092838D01*
X130999336Y-61093916D01*
X130999337Y-61093916D01*
X131010542Y-61095391D01*
X131010550Y-61095392D01*
X131017444Y-61096300D01*
X131082370Y-61125026D01*
X131121458Y-61184293D01*
X131125912Y-61204773D01*
X131126336Y-61207990D01*
X131132162Y-61252246D01*
X131193476Y-61400271D01*
X131198503Y-61406822D01*
X131198504Y-61406824D01*
X131266520Y-61495464D01*
X131266526Y-61495470D01*
X131291013Y-61527382D01*
X131297568Y-61532412D01*
X131316379Y-61546847D01*
X131328770Y-61557714D01*
X131858862Y-62087806D01*
X131892888Y-62150118D01*
X131887823Y-62220933D01*
X131845276Y-62277769D01*
X131782938Y-62302211D01*
X131761093Y-62304507D01*
X131747210Y-62309233D01*
X131606673Y-62357075D01*
X131606670Y-62357076D01*
X131600003Y-62359346D01*
X131594005Y-62363036D01*
X131594003Y-62363037D01*
X131461065Y-62444821D01*
X131461063Y-62444823D01*
X131455066Y-62448512D01*
X131333486Y-62567573D01*
X131329675Y-62573487D01*
X131329673Y-62573489D01*
X131245121Y-62704687D01*
X131241304Y-62710610D01*
X131238894Y-62717232D01*
X131194978Y-62837891D01*
X131183103Y-62870516D01*
X131161775Y-63039343D01*
X131163280Y-63054687D01*
X131167915Y-63101966D01*
X131154655Y-63171713D01*
X131105793Y-63223220D01*
X131036840Y-63240133D01*
X131027599Y-63239375D01*
X131012324Y-63237554D01*
X131012323Y-63237554D01*
X131005329Y-63236720D01*
X130870786Y-63250861D01*
X130800949Y-63238089D01*
X130749103Y-63189587D01*
X130731708Y-63120754D01*
X130732843Y-63108016D01*
X130737451Y-63075224D01*
X130738001Y-63071313D01*
X130738151Y-63060610D01*
X130738244Y-63053961D01*
X130738244Y-63053955D01*
X130738299Y-63050000D01*
X130719331Y-62880892D01*
X130663368Y-62720189D01*
X130657383Y-62710610D01*
X130598029Y-62615626D01*
X130573192Y-62575879D01*
X130453286Y-62455132D01*
X130437039Y-62444821D01*
X130358251Y-62394821D01*
X130309608Y-62363951D01*
X130149300Y-62306868D01*
X129980329Y-62286720D01*
X129973326Y-62287456D01*
X129973325Y-62287456D01*
X129818101Y-62303770D01*
X129818097Y-62303771D01*
X129811093Y-62304507D01*
X129797210Y-62309233D01*
X129656673Y-62357075D01*
X129656670Y-62357076D01*
X129650003Y-62359346D01*
X129644005Y-62363036D01*
X129644003Y-62363037D01*
X129511065Y-62444821D01*
X129511063Y-62444823D01*
X129505066Y-62448512D01*
X129383486Y-62567573D01*
X129379675Y-62573487D01*
X129379673Y-62573489D01*
X129295121Y-62704687D01*
X129291304Y-62710610D01*
X129288894Y-62717232D01*
X129244978Y-62837891D01*
X129233103Y-62870516D01*
X129211775Y-63039343D01*
X118513500Y-63039343D01*
X118513500Y-61239343D01*
X123986775Y-61239343D01*
X124003381Y-61408699D01*
X124057094Y-61570167D01*
X124060741Y-61576189D01*
X124060742Y-61576191D01*
X124129000Y-61688897D01*
X124145246Y-61715723D01*
X124263455Y-61838132D01*
X124313357Y-61870787D01*
X124383766Y-61916861D01*
X124405846Y-61931310D01*
X124412450Y-61933766D01*
X124412452Y-61933767D01*
X124448844Y-61947301D01*
X124565341Y-61990626D01*
X124734015Y-62013132D01*
X124741026Y-62012494D01*
X124741030Y-62012494D01*
X124896462Y-61998348D01*
X124903483Y-61997709D01*
X124910185Y-61995531D01*
X124910187Y-61995531D01*
X125058623Y-61947301D01*
X125058626Y-61947300D01*
X125065322Y-61945124D01*
X125211490Y-61857990D01*
X125216584Y-61853139D01*
X125216588Y-61853136D01*
X125297552Y-61776034D01*
X125334721Y-61740639D01*
X125344321Y-61726191D01*
X125424990Y-61604773D01*
X125428891Y-61598902D01*
X125489319Y-61439825D01*
X125513001Y-61271313D01*
X125513299Y-61250000D01*
X125494331Y-61080892D01*
X125485206Y-61054687D01*
X125448174Y-60948348D01*
X125438368Y-60920189D01*
X125432383Y-60910610D01*
X125402101Y-60862151D01*
X125348192Y-60775879D01*
X125324172Y-60751690D01*
X125263546Y-60690639D01*
X125228286Y-60655132D01*
X125212039Y-60644821D01*
X125168776Y-60617366D01*
X125084608Y-60563951D01*
X124924300Y-60506868D01*
X124755329Y-60486720D01*
X124748326Y-60487456D01*
X124748325Y-60487456D01*
X124593101Y-60503770D01*
X124593097Y-60503771D01*
X124586093Y-60504507D01*
X124579422Y-60506778D01*
X124431673Y-60557075D01*
X124431670Y-60557076D01*
X124425003Y-60559346D01*
X124419005Y-60563036D01*
X124419003Y-60563037D01*
X124286065Y-60644821D01*
X124286063Y-60644823D01*
X124280066Y-60648512D01*
X124158486Y-60767573D01*
X124154675Y-60773487D01*
X124154673Y-60773489D01*
X124078692Y-60891388D01*
X124066304Y-60910610D01*
X124008103Y-61070516D01*
X123986775Y-61239343D01*
X118513500Y-61239343D01*
X118513500Y-59907241D01*
X118509540Y-59853770D01*
X118508070Y-59833923D01*
X118508069Y-59833917D01*
X118507897Y-59831590D01*
X118502427Y-59794866D01*
X118485735Y-59720852D01*
X118478230Y-59704849D01*
X118472863Y-59693407D01*
X118468383Y-59664343D01*
X119661775Y-59664343D01*
X119678381Y-59833699D01*
X119680605Y-59840384D01*
X119680605Y-59840385D01*
X119690749Y-59870880D01*
X119732094Y-59995167D01*
X119735741Y-60001189D01*
X119735742Y-60001191D01*
X119814875Y-60131854D01*
X119820246Y-60140723D01*
X119938455Y-60263132D01*
X119974309Y-60286594D01*
X120054918Y-60339343D01*
X120080846Y-60356310D01*
X120087450Y-60358766D01*
X120087452Y-60358767D01*
X120131701Y-60375223D01*
X120240341Y-60415626D01*
X120409015Y-60438132D01*
X120416026Y-60437494D01*
X120416030Y-60437494D01*
X120571462Y-60423348D01*
X120578483Y-60422709D01*
X120585185Y-60420531D01*
X120585187Y-60420531D01*
X120733623Y-60372301D01*
X120733626Y-60372300D01*
X120740322Y-60370124D01*
X120886490Y-60282990D01*
X120891584Y-60278139D01*
X120891588Y-60278136D01*
X120977466Y-60196355D01*
X121009721Y-60165639D01*
X121015535Y-60156889D01*
X121081111Y-60058189D01*
X121103891Y-60023902D01*
X121164319Y-59864825D01*
X121165555Y-59856034D01*
X121172306Y-59807990D01*
X121188001Y-59696313D01*
X121188118Y-59687964D01*
X121188244Y-59678961D01*
X121188244Y-59678955D01*
X121188299Y-59675000D01*
X121169331Y-59505892D01*
X121163587Y-59489396D01*
X121133044Y-59401690D01*
X121113368Y-59345189D01*
X121107383Y-59335610D01*
X121069648Y-59275223D01*
X121023192Y-59200879D01*
X121015441Y-59193073D01*
X120908248Y-59085129D01*
X120903286Y-59080132D01*
X120893643Y-59074012D01*
X120825696Y-59030892D01*
X120759608Y-58988951D01*
X120599300Y-58931868D01*
X120430329Y-58911720D01*
X120423326Y-58912456D01*
X120423325Y-58912456D01*
X120268101Y-58928770D01*
X120268097Y-58928771D01*
X120261093Y-58929507D01*
X120254422Y-58931778D01*
X120106673Y-58982075D01*
X120106670Y-58982076D01*
X120100003Y-58984346D01*
X120094005Y-58988036D01*
X120094003Y-58988037D01*
X119961065Y-59069821D01*
X119961063Y-59069823D01*
X119955066Y-59073512D01*
X119833486Y-59192573D01*
X119829675Y-59198487D01*
X119829673Y-59198489D01*
X119782741Y-59271313D01*
X119741304Y-59335610D01*
X119683103Y-59495516D01*
X119661775Y-59664343D01*
X118468383Y-59664343D01*
X118462046Y-59623239D01*
X118490882Y-59558362D01*
X118500048Y-59548658D01*
X118529615Y-59520503D01*
X118529622Y-59520495D01*
X118534721Y-59515639D01*
X118552489Y-59488897D01*
X118605772Y-59408699D01*
X118628891Y-59373902D01*
X118689319Y-59214825D01*
X118713001Y-59046313D01*
X118713299Y-59025000D01*
X118701803Y-58922508D01*
X118714087Y-58852582D01*
X118762226Y-58800398D01*
X118815597Y-58782983D01*
X118928483Y-58772709D01*
X118935185Y-58770531D01*
X118935187Y-58770531D01*
X119083623Y-58722301D01*
X119083626Y-58722300D01*
X119090322Y-58720124D01*
X119236490Y-58632990D01*
X119241584Y-58628139D01*
X119241588Y-58628136D01*
X119336062Y-58538169D01*
X119359721Y-58515639D01*
X119365549Y-58506868D01*
X119441873Y-58391990D01*
X119453891Y-58373902D01*
X119514319Y-58214825D01*
X119538001Y-58046313D01*
X119538118Y-58037964D01*
X119538244Y-58028961D01*
X119538244Y-58028955D01*
X119538299Y-58025000D01*
X119519331Y-57855892D01*
X119517014Y-57849238D01*
X119465687Y-57701847D01*
X119465685Y-57701844D01*
X119463368Y-57695189D01*
X119409392Y-57608811D01*
X119390256Y-57540442D01*
X119391472Y-57524506D01*
X119399945Y-57464213D01*
X119413001Y-57371313D01*
X119413056Y-57367348D01*
X119413135Y-57366328D01*
X119418703Y-57351643D01*
X119415472Y-57344436D01*
X119659094Y-57344436D01*
X119662027Y-57349877D01*
X119664163Y-57363699D01*
X119670031Y-57423547D01*
X119678381Y-57508699D01*
X119680605Y-57515384D01*
X119680605Y-57515385D01*
X119682906Y-57522301D01*
X119732094Y-57670167D01*
X119735741Y-57676189D01*
X119735742Y-57676191D01*
X119813123Y-57803961D01*
X119820246Y-57815723D01*
X119938455Y-57938132D01*
X120080846Y-58031310D01*
X120087450Y-58033766D01*
X120087452Y-58033767D01*
X120123844Y-58047301D01*
X120240341Y-58090626D01*
X120409015Y-58113132D01*
X120416026Y-58112494D01*
X120416030Y-58112494D01*
X120571462Y-58098348D01*
X120578483Y-58097709D01*
X120585185Y-58095531D01*
X120585187Y-58095531D01*
X120733623Y-58047301D01*
X120733626Y-58047300D01*
X120740322Y-58045124D01*
X120886490Y-57957990D01*
X120891584Y-57953139D01*
X120891588Y-57953136D01*
X120986354Y-57862891D01*
X121009721Y-57840639D01*
X121016941Y-57829773D01*
X121073979Y-57743923D01*
X121103891Y-57698902D01*
X121133678Y-57620489D01*
X121176566Y-57563912D01*
X121212529Y-57545401D01*
X121283623Y-57522301D01*
X121283626Y-57522300D01*
X121290322Y-57520124D01*
X121436490Y-57432990D01*
X121441584Y-57428139D01*
X121441588Y-57428136D01*
X121529481Y-57344436D01*
X121559721Y-57315639D01*
X121653891Y-57173902D01*
X121714319Y-57014825D01*
X121717900Y-56989343D01*
X127236775Y-56989343D01*
X127253381Y-57158699D01*
X127255605Y-57165384D01*
X127255605Y-57165385D01*
X127260833Y-57181101D01*
X127307094Y-57320167D01*
X127310741Y-57326189D01*
X127310742Y-57326191D01*
X127382771Y-57445124D01*
X127395246Y-57465723D01*
X127513455Y-57588132D01*
X127519351Y-57591990D01*
X127638818Y-57670167D01*
X127655846Y-57681310D01*
X127787699Y-57730346D01*
X127844571Y-57772836D01*
X127856077Y-57792111D01*
X127857094Y-57795167D01*
X127860743Y-57801192D01*
X127940608Y-57933064D01*
X127945246Y-57940723D01*
X128063455Y-58063132D01*
X128205846Y-58156310D01*
X128212450Y-58158766D01*
X128212452Y-58158767D01*
X128248844Y-58172301D01*
X128365341Y-58215626D01*
X128534015Y-58238132D01*
X128541026Y-58237494D01*
X128541030Y-58237494D01*
X128696462Y-58223348D01*
X128703483Y-58222709D01*
X128710185Y-58220531D01*
X128710187Y-58220531D01*
X128858623Y-58172301D01*
X128858626Y-58172300D01*
X128865322Y-58170124D01*
X129011490Y-58082990D01*
X129016584Y-58078139D01*
X129016588Y-58078136D01*
X129109323Y-57989825D01*
X129134721Y-57965639D01*
X129150434Y-57941990D01*
X129212058Y-57849238D01*
X129228891Y-57823902D01*
X129242019Y-57789343D01*
X147311775Y-57789343D01*
X147328381Y-57958699D01*
X147330605Y-57965384D01*
X147330605Y-57965385D01*
X147332306Y-57970498D01*
X147382094Y-58120167D01*
X147385741Y-58126189D01*
X147385742Y-58126191D01*
X147444583Y-58223348D01*
X147470246Y-58265723D01*
X147588455Y-58388132D01*
X147730846Y-58481310D01*
X147737450Y-58483766D01*
X147737452Y-58483767D01*
X147773844Y-58497301D01*
X147890341Y-58540626D01*
X148059015Y-58563132D01*
X148066026Y-58562494D01*
X148066030Y-58562494D01*
X148221462Y-58548348D01*
X148228483Y-58547709D01*
X148235185Y-58545531D01*
X148235187Y-58545531D01*
X148383623Y-58497301D01*
X148383626Y-58497300D01*
X148390322Y-58495124D01*
X148536490Y-58407990D01*
X148541584Y-58403139D01*
X148541588Y-58403136D01*
X148608833Y-58339099D01*
X148659721Y-58290639D01*
X148753891Y-58148902D01*
X148814319Y-57989825D01*
X148838001Y-57821313D01*
X148838118Y-57812964D01*
X148838244Y-57803961D01*
X148838244Y-57803955D01*
X148838299Y-57800000D01*
X148819331Y-57630892D01*
X148802676Y-57583064D01*
X148773174Y-57498348D01*
X148763368Y-57470189D01*
X148757383Y-57460610D01*
X148704035Y-57375238D01*
X148673192Y-57325879D01*
X148667849Y-57320498D01*
X148588546Y-57240639D01*
X148553286Y-57205132D01*
X148537039Y-57194821D01*
X148449414Y-57139213D01*
X148409608Y-57113951D01*
X148249300Y-57056868D01*
X148080329Y-57036720D01*
X148073326Y-57037456D01*
X148073325Y-57037456D01*
X147918101Y-57053770D01*
X147918097Y-57053771D01*
X147911093Y-57054507D01*
X147904422Y-57056778D01*
X147756673Y-57107075D01*
X147756670Y-57107076D01*
X147750003Y-57109346D01*
X147744005Y-57113036D01*
X147744003Y-57113037D01*
X147611065Y-57194821D01*
X147611063Y-57194823D01*
X147605066Y-57198512D01*
X147483486Y-57317573D01*
X147479675Y-57323487D01*
X147479673Y-57323489D01*
X147446323Y-57375238D01*
X147391304Y-57460610D01*
X147333103Y-57620516D01*
X147311775Y-57789343D01*
X129242019Y-57789343D01*
X129289319Y-57664825D01*
X129313001Y-57496313D01*
X129313299Y-57475000D01*
X129294331Y-57305892D01*
X129287044Y-57284965D01*
X129244883Y-57163897D01*
X129238368Y-57145189D01*
X129148192Y-57000879D01*
X129136737Y-56989343D01*
X129033248Y-56885129D01*
X129028286Y-56880132D01*
X129021585Y-56875879D01*
X128968776Y-56842366D01*
X128884608Y-56788951D01*
X128789633Y-56755132D01*
X128764482Y-56746176D01*
X128755065Y-56739343D01*
X132486775Y-56739343D01*
X132503381Y-56908699D01*
X132557094Y-57070167D01*
X132560741Y-57076189D01*
X132560742Y-57076191D01*
X132637808Y-57203441D01*
X132645246Y-57215723D01*
X132763455Y-57338132D01*
X132905846Y-57431310D01*
X132912450Y-57433766D01*
X132912452Y-57433767D01*
X132948844Y-57447301D01*
X133065341Y-57490626D01*
X133234015Y-57513132D01*
X133241026Y-57512494D01*
X133241030Y-57512494D01*
X133396462Y-57498348D01*
X133403483Y-57497709D01*
X133410185Y-57495531D01*
X133410187Y-57495531D01*
X133558623Y-57447301D01*
X133558626Y-57447300D01*
X133565322Y-57445124D01*
X133711490Y-57357990D01*
X133716584Y-57353139D01*
X133716588Y-57353136D01*
X133788174Y-57284965D01*
X133851299Y-57252473D01*
X133921970Y-57259266D01*
X133965702Y-57288683D01*
X133991734Y-57315639D01*
X134013455Y-57338132D01*
X134155846Y-57431310D01*
X134162450Y-57433766D01*
X134162452Y-57433767D01*
X134198844Y-57447301D01*
X134315341Y-57490626D01*
X134484015Y-57513132D01*
X134491026Y-57512494D01*
X134491030Y-57512494D01*
X134646462Y-57498348D01*
X134653483Y-57497709D01*
X134660185Y-57495531D01*
X134660187Y-57495531D01*
X134808623Y-57447301D01*
X134808626Y-57447300D01*
X134815322Y-57445124D01*
X134961490Y-57357990D01*
X134966584Y-57353139D01*
X134966588Y-57353136D01*
X135038174Y-57284965D01*
X135084721Y-57240639D01*
X135115163Y-57194821D01*
X135152108Y-57139213D01*
X135178891Y-57098902D01*
X135239319Y-56939825D01*
X135263001Y-56771313D01*
X135263118Y-56762964D01*
X135263244Y-56753961D01*
X135263244Y-56753955D01*
X135263299Y-56750000D01*
X135244331Y-56580892D01*
X135188368Y-56420189D01*
X135182383Y-56410610D01*
X135141934Y-56345880D01*
X135098192Y-56275879D01*
X135079314Y-56256868D01*
X135015261Y-56192366D01*
X134978286Y-56155132D01*
X134962039Y-56144821D01*
X134904002Y-56107990D01*
X134834608Y-56063951D01*
X134674300Y-56006868D01*
X134505329Y-55986720D01*
X134498326Y-55987456D01*
X134498325Y-55987456D01*
X134343101Y-56003770D01*
X134343097Y-56003771D01*
X134336093Y-56004507D01*
X134329422Y-56006778D01*
X134181673Y-56057075D01*
X134181670Y-56057076D01*
X134175003Y-56059346D01*
X134169005Y-56063036D01*
X134169003Y-56063037D01*
X134036065Y-56144821D01*
X134036063Y-56144823D01*
X134030066Y-56148512D01*
X134025033Y-56153441D01*
X133963134Y-56214057D01*
X133900469Y-56247428D01*
X133829710Y-56241622D01*
X133785570Y-56212817D01*
X133733253Y-56160133D01*
X133733248Y-56160129D01*
X133728286Y-56155132D01*
X133712039Y-56144821D01*
X133654002Y-56107990D01*
X133584608Y-56063951D01*
X133424300Y-56006868D01*
X133255329Y-55986720D01*
X133248326Y-55987456D01*
X133248325Y-55987456D01*
X133093101Y-56003770D01*
X133093097Y-56003771D01*
X133086093Y-56004507D01*
X133079422Y-56006778D01*
X132931673Y-56057075D01*
X132931670Y-56057076D01*
X132925003Y-56059346D01*
X132919005Y-56063036D01*
X132919003Y-56063037D01*
X132786065Y-56144821D01*
X132786063Y-56144823D01*
X132780066Y-56148512D01*
X132714041Y-56213169D01*
X132663973Y-56262200D01*
X132658486Y-56267573D01*
X132654675Y-56273487D01*
X132654673Y-56273489D01*
X132604798Y-56350879D01*
X132566304Y-56410610D01*
X132563894Y-56417232D01*
X132524350Y-56525879D01*
X132508103Y-56570516D01*
X132486775Y-56739343D01*
X128755065Y-56739343D01*
X128707018Y-56704482D01*
X128693119Y-56681921D01*
X128690683Y-56676837D01*
X128688368Y-56670189D01*
X128681593Y-56659346D01*
X128662654Y-56629038D01*
X128598192Y-56525879D01*
X128574327Y-56501846D01*
X128483248Y-56410129D01*
X128478286Y-56405132D01*
X128462039Y-56394821D01*
X128371948Y-56337648D01*
X128334608Y-56313951D01*
X128174300Y-56256868D01*
X128005329Y-56236720D01*
X127998326Y-56237456D01*
X127998325Y-56237456D01*
X127843101Y-56253770D01*
X127843097Y-56253771D01*
X127836093Y-56254507D01*
X127829422Y-56256778D01*
X127681673Y-56307075D01*
X127681670Y-56307076D01*
X127675003Y-56309346D01*
X127669005Y-56313036D01*
X127669003Y-56313037D01*
X127536065Y-56394821D01*
X127536063Y-56394823D01*
X127530066Y-56398512D01*
X127501133Y-56426846D01*
X127431344Y-56495189D01*
X127408486Y-56517573D01*
X127404675Y-56523487D01*
X127404673Y-56523489D01*
X127349189Y-56609583D01*
X127316304Y-56660610D01*
X127300336Y-56704482D01*
X127270453Y-56786586D01*
X127258103Y-56820516D01*
X127236775Y-56989343D01*
X121717900Y-56989343D01*
X121738001Y-56846313D01*
X121738299Y-56825000D01*
X121719331Y-56655892D01*
X121709980Y-56629038D01*
X121673223Y-56523489D01*
X121663368Y-56495189D01*
X121657383Y-56485610D01*
X121612768Y-56414213D01*
X121573192Y-56350879D01*
X121453286Y-56230132D01*
X121442597Y-56223348D01*
X121392440Y-56191518D01*
X121309608Y-56138951D01*
X121149300Y-56081868D01*
X120980329Y-56061720D01*
X120973326Y-56062456D01*
X120973325Y-56062456D01*
X120818101Y-56078770D01*
X120818097Y-56078771D01*
X120811093Y-56079507D01*
X120804422Y-56081778D01*
X120656673Y-56132075D01*
X120656670Y-56132076D01*
X120650003Y-56134346D01*
X120644005Y-56138036D01*
X120644003Y-56138037D01*
X120511065Y-56219821D01*
X120511063Y-56219823D01*
X120505066Y-56223512D01*
X120465259Y-56262494D01*
X120408855Y-56317730D01*
X120383486Y-56342573D01*
X120379675Y-56348487D01*
X120379673Y-56348489D01*
X120335371Y-56417232D01*
X120291304Y-56485610D01*
X120288895Y-56492230D01*
X120288892Y-56492235D01*
X120266829Y-56552854D01*
X120224735Y-56610026D01*
X120189034Y-56629037D01*
X120164040Y-56637546D01*
X120106673Y-56657075D01*
X120106670Y-56657076D01*
X120100003Y-56659346D01*
X120094005Y-56663036D01*
X120094003Y-56663037D01*
X119961065Y-56744821D01*
X119961063Y-56744823D01*
X119955066Y-56748512D01*
X119833486Y-56867573D01*
X119829675Y-56873487D01*
X119829673Y-56873489D01*
X119786922Y-56939825D01*
X119741304Y-57010610D01*
X119683103Y-57170516D01*
X119682220Y-57177506D01*
X119661962Y-57337860D01*
X119659094Y-57344436D01*
X119415472Y-57344436D01*
X119411741Y-57336112D01*
X119411264Y-57331854D01*
X119394331Y-57180892D01*
X119338368Y-57020189D01*
X119332383Y-57010610D01*
X119288150Y-56939825D01*
X119248192Y-56875879D01*
X119214913Y-56842366D01*
X119168927Y-56796058D01*
X119135120Y-56733627D01*
X119140432Y-56662829D01*
X119153382Y-56637552D01*
X119228891Y-56523902D01*
X119289319Y-56364825D01*
X119313001Y-56196313D01*
X119313118Y-56187964D01*
X119313244Y-56178961D01*
X119313244Y-56178955D01*
X119313299Y-56175000D01*
X119294331Y-56005892D01*
X119282319Y-55971398D01*
X119278805Y-55900490D01*
X119296362Y-55860234D01*
X119299992Y-55854770D01*
X119303891Y-55848902D01*
X119311158Y-55829773D01*
X119361816Y-55696414D01*
X119364319Y-55689825D01*
X119388001Y-55521313D01*
X119388181Y-55508420D01*
X119388244Y-55503961D01*
X119388244Y-55503955D01*
X119388299Y-55500000D01*
X119384300Y-55464343D01*
X136936775Y-55464343D01*
X136953381Y-55633699D01*
X136955605Y-55640384D01*
X136955605Y-55640385D01*
X136957306Y-55645498D01*
X137007094Y-55795167D01*
X137010741Y-55801189D01*
X137010742Y-55801191D01*
X137078051Y-55912330D01*
X137095246Y-55940723D01*
X137213455Y-56063132D01*
X137245701Y-56084233D01*
X137335094Y-56142730D01*
X137355846Y-56156310D01*
X137362450Y-56158766D01*
X137362452Y-56158767D01*
X137429675Y-56183767D01*
X137515341Y-56215626D01*
X137684015Y-56238132D01*
X137691026Y-56237494D01*
X137691030Y-56237494D01*
X137846462Y-56223348D01*
X137853483Y-56222709D01*
X137860185Y-56220531D01*
X137860187Y-56220531D01*
X138008623Y-56172301D01*
X138008626Y-56172300D01*
X138015322Y-56170124D01*
X138161490Y-56082990D01*
X138166584Y-56078139D01*
X138166588Y-56078136D01*
X138261811Y-55987456D01*
X138284721Y-55965639D01*
X138320140Y-55912330D01*
X138362281Y-55848902D01*
X138378891Y-55823902D01*
X138439319Y-55664825D01*
X138463001Y-55496313D01*
X138463299Y-55475000D01*
X138444331Y-55305892D01*
X138436382Y-55283064D01*
X138405025Y-55193021D01*
X138388368Y-55145189D01*
X138382383Y-55135610D01*
X138352714Y-55088132D01*
X138298192Y-55000879D01*
X138292849Y-54995498D01*
X138196675Y-54898650D01*
X138178286Y-54880132D01*
X138162039Y-54869821D01*
X138094321Y-54826846D01*
X138034608Y-54788951D01*
X137874300Y-54731868D01*
X137705329Y-54711720D01*
X137698326Y-54712456D01*
X137698325Y-54712456D01*
X137543101Y-54728770D01*
X137543097Y-54728771D01*
X137536093Y-54729507D01*
X137529422Y-54731778D01*
X137381673Y-54782075D01*
X137381670Y-54782076D01*
X137375003Y-54784346D01*
X137369005Y-54788036D01*
X137369003Y-54788037D01*
X137236065Y-54869821D01*
X137236063Y-54869823D01*
X137230066Y-54873512D01*
X137225033Y-54878441D01*
X137142055Y-54959700D01*
X137108486Y-54992573D01*
X137104675Y-54998487D01*
X137104673Y-54998489D01*
X137022634Y-55125788D01*
X137016304Y-55135610D01*
X136995955Y-55191518D01*
X136960791Y-55288132D01*
X136958103Y-55295516D01*
X136936775Y-55464343D01*
X119384300Y-55464343D01*
X119369331Y-55330892D01*
X119363063Y-55312891D01*
X119321319Y-55193021D01*
X119313368Y-55170189D01*
X119303228Y-55153961D01*
X119264503Y-55091990D01*
X119223192Y-55025879D01*
X119188198Y-54990639D01*
X119108248Y-54910129D01*
X119103286Y-54905132D01*
X119082805Y-54892134D01*
X119009370Y-54845531D01*
X118959608Y-54813951D01*
X118799300Y-54756868D01*
X118630329Y-54736720D01*
X118623326Y-54737456D01*
X118623325Y-54737456D01*
X118468101Y-54753770D01*
X118468097Y-54753771D01*
X118461093Y-54754507D01*
X118359914Y-54788951D01*
X118313974Y-54804590D01*
X118243042Y-54807608D01*
X118181738Y-54771798D01*
X118154183Y-54726185D01*
X118153132Y-54723120D01*
X118151982Y-54718779D01*
X118094828Y-54584250D01*
X118083481Y-54565513D01*
X118071700Y-54540018D01*
X118063270Y-54514675D01*
X118057430Y-54487201D01*
X118054824Y-54460619D01*
X118055216Y-54432537D01*
X118058564Y-54406034D01*
X118065167Y-54378741D01*
X118074303Y-54353642D01*
X118086790Y-54328488D01*
X118101259Y-54306036D01*
X118119015Y-54284265D01*
X118138096Y-54265580D01*
X118160228Y-54248288D01*
X118186940Y-54231854D01*
X118209093Y-54218225D01*
X118211868Y-54216055D01*
X118211873Y-54216052D01*
X118296750Y-54149694D01*
X118299532Y-54147519D01*
X118339507Y-54108323D01*
X118342105Y-54105132D01*
X118354957Y-54089343D01*
X121636775Y-54089343D01*
X121653381Y-54258699D01*
X121707094Y-54420167D01*
X121710741Y-54426189D01*
X121710742Y-54426191D01*
X121787808Y-54553441D01*
X121795246Y-54565723D01*
X121913455Y-54688132D01*
X122055846Y-54781310D01*
X122062450Y-54783766D01*
X122062452Y-54783767D01*
X122098844Y-54797301D01*
X122215341Y-54840626D01*
X122384015Y-54863132D01*
X122391026Y-54862494D01*
X122391030Y-54862494D01*
X122546462Y-54848348D01*
X122553483Y-54847709D01*
X122560185Y-54845531D01*
X122560187Y-54845531D01*
X122708623Y-54797301D01*
X122708626Y-54797300D01*
X122715322Y-54795124D01*
X122861490Y-54707990D01*
X122866584Y-54703139D01*
X122866588Y-54703136D01*
X122933833Y-54639099D01*
X122984721Y-54590639D01*
X122991519Y-54580408D01*
X123044100Y-54501266D01*
X123078891Y-54448902D01*
X123139319Y-54289825D01*
X123163001Y-54121313D01*
X123163061Y-54117026D01*
X123163089Y-54116934D01*
X123163361Y-54113406D01*
X123164160Y-54113468D01*
X123184015Y-54049193D01*
X123238317Y-54003456D01*
X123308725Y-53994337D01*
X123332962Y-54000692D01*
X123440341Y-54040626D01*
X123609015Y-54063132D01*
X123616026Y-54062494D01*
X123616030Y-54062494D01*
X123771462Y-54048348D01*
X123778483Y-54047709D01*
X123785185Y-54045531D01*
X123785187Y-54045531D01*
X123933623Y-53997301D01*
X123933626Y-53997300D01*
X123940322Y-53995124D01*
X124086490Y-53907990D01*
X124091584Y-53903139D01*
X124091588Y-53903136D01*
X124171063Y-53827452D01*
X124209721Y-53790639D01*
X124216753Y-53780056D01*
X124291349Y-53667779D01*
X124303891Y-53648902D01*
X124364319Y-53489825D01*
X124388001Y-53321313D01*
X124388151Y-53310591D01*
X124388244Y-53303961D01*
X124388244Y-53303955D01*
X124388299Y-53300000D01*
X124369331Y-53130892D01*
X124361296Y-53107817D01*
X124321524Y-52993611D01*
X124313368Y-52970189D01*
X124309437Y-52963897D01*
X124285270Y-52925223D01*
X124223192Y-52825879D01*
X124216586Y-52819226D01*
X124140581Y-52742689D01*
X124103286Y-52705132D01*
X124087039Y-52694821D01*
X124023331Y-52654391D01*
X123959608Y-52613951D01*
X123799300Y-52556868D01*
X123630329Y-52536720D01*
X123623326Y-52537456D01*
X123623325Y-52537456D01*
X123468101Y-52553770D01*
X123468097Y-52553771D01*
X123461093Y-52554507D01*
X123454422Y-52556778D01*
X123306673Y-52607075D01*
X123306670Y-52607076D01*
X123300003Y-52609346D01*
X123294005Y-52613036D01*
X123294003Y-52613037D01*
X123161065Y-52694821D01*
X123161063Y-52694823D01*
X123155066Y-52698512D01*
X123132632Y-52720481D01*
X123038973Y-52812200D01*
X123033486Y-52817573D01*
X123029675Y-52823487D01*
X123029673Y-52823489D01*
X122945121Y-52954687D01*
X122941304Y-52960610D01*
X122923004Y-53010889D01*
X122894978Y-53087891D01*
X122883103Y-53120516D01*
X122861775Y-53289343D01*
X122860644Y-53289200D01*
X122841703Y-53350527D01*
X122787404Y-53396267D01*
X122716996Y-53405389D01*
X122694399Y-53399633D01*
X122589771Y-53362377D01*
X122574300Y-53356868D01*
X122405329Y-53336720D01*
X122398326Y-53337456D01*
X122398325Y-53337456D01*
X122243101Y-53353770D01*
X122243097Y-53353771D01*
X122236093Y-53354507D01*
X122229422Y-53356778D01*
X122081673Y-53407075D01*
X122081670Y-53407076D01*
X122075003Y-53409346D01*
X122069005Y-53413036D01*
X122069003Y-53413037D01*
X121936065Y-53494821D01*
X121936063Y-53494823D01*
X121930066Y-53498512D01*
X121904873Y-53523183D01*
X121816526Y-53609700D01*
X121808486Y-53617573D01*
X121804675Y-53623487D01*
X121804673Y-53623489D01*
X121721121Y-53753136D01*
X121716304Y-53760610D01*
X121705374Y-53790639D01*
X121660791Y-53913132D01*
X121658103Y-53920516D01*
X121636775Y-54089343D01*
X118354957Y-54089343D01*
X118396611Y-54038170D01*
X118411982Y-54019287D01*
X118472698Y-53886338D01*
X118484160Y-53847301D01*
X118491431Y-53822540D01*
X118491432Y-53822536D01*
X118492700Y-53818217D01*
X118495967Y-53795498D01*
X118500841Y-53761594D01*
X118502782Y-53748097D01*
X118532274Y-53683517D01*
X118592000Y-53645133D01*
X118644163Y-53641136D01*
X118809015Y-53663132D01*
X118816026Y-53662494D01*
X118816030Y-53662494D01*
X118971462Y-53648348D01*
X118978483Y-53647709D01*
X118985185Y-53645531D01*
X118985187Y-53645531D01*
X119133623Y-53597301D01*
X119133626Y-53597300D01*
X119140322Y-53595124D01*
X119286490Y-53507990D01*
X119291584Y-53503139D01*
X119291588Y-53503136D01*
X119385241Y-53413951D01*
X119409721Y-53390639D01*
X119432159Y-53356868D01*
X119468819Y-53301690D01*
X119503891Y-53248902D01*
X119564319Y-53089825D01*
X119588001Y-52921313D01*
X119588186Y-52908104D01*
X119588244Y-52903961D01*
X119588244Y-52903955D01*
X119588299Y-52900000D01*
X119569331Y-52730892D01*
X119565706Y-52720481D01*
X119537028Y-52638132D01*
X119513368Y-52570189D01*
X119507543Y-52560866D01*
X119478708Y-52514722D01*
X119423192Y-52425879D01*
X119404314Y-52406868D01*
X119308248Y-52310129D01*
X119303286Y-52305132D01*
X119159608Y-52213951D01*
X118999300Y-52156868D01*
X118830329Y-52136720D01*
X118823326Y-52137456D01*
X118823325Y-52137456D01*
X118668095Y-52153771D01*
X118668094Y-52153771D01*
X118661093Y-52154507D01*
X118661011Y-52153725D01*
X118595731Y-52149203D01*
X118538800Y-52106783D01*
X118513841Y-52040318D01*
X118513500Y-52031049D01*
X118513500Y-50634500D01*
X118533502Y-50566379D01*
X118587158Y-50519886D01*
X118639500Y-50508500D01*
X127364289Y-50508500D01*
X127432410Y-50528502D01*
G37*
%TD.AperFunction*%
%TD*%
M02*
