%TF.GenerationSoftware,KiCad,Pcbnew,(6.0.6)*%
%TF.CreationDate,2022-07-04T15:46:39+03:00*%
%TF.ProjectId,gimble,67696d62-6c65-42e6-9b69-6361645f7063,0.2*%
%TF.SameCoordinates,Original*%
%TF.FileFunction,Soldermask,Top*%
%TF.FilePolarity,Negative*%
%FSLAX46Y46*%
G04 Gerber Fmt 4.6, Leading zero omitted, Abs format (unit mm)*
G04 Created by KiCad (PCBNEW (6.0.6)) date 2022-07-04 15:46:39*
%MOMM*%
%LPD*%
G01*
G04 APERTURE LIST*
G04 Aperture macros list*
%AMRoundRect*
0 Rectangle with rounded corners*
0 $1 Rounding radius*
0 $2 $3 $4 $5 $6 $7 $8 $9 X,Y pos of 4 corners*
0 Add a 4 corners polygon primitive as box body*
4,1,4,$2,$3,$4,$5,$6,$7,$8,$9,$2,$3,0*
0 Add four circle primitives for the rounded corners*
1,1,$1+$1,$2,$3*
1,1,$1+$1,$4,$5*
1,1,$1+$1,$6,$7*
1,1,$1+$1,$8,$9*
0 Add four rect primitives between the rounded corners*
20,1,$1+$1,$2,$3,$4,$5,0*
20,1,$1+$1,$4,$5,$6,$7,0*
20,1,$1+$1,$6,$7,$8,$9,0*
20,1,$1+$1,$8,$9,$2,$3,0*%
G04 Aperture macros list end*
%ADD10RoundRect,0.140000X0.170000X-0.140000X0.170000X0.140000X-0.170000X0.140000X-0.170000X-0.140000X0*%
%ADD11C,2.500000*%
%ADD12RoundRect,0.147500X0.172500X-0.147500X0.172500X0.147500X-0.172500X0.147500X-0.172500X-0.147500X0*%
%ADD13R,0.850000X0.850000*%
%ADD14O,0.850000X0.850000*%
%ADD15RoundRect,0.218750X-0.218750X-0.256250X0.218750X-0.256250X0.218750X0.256250X-0.218750X0.256250X0*%
%ADD16RoundRect,0.125000X-0.250000X-0.125000X0.250000X-0.125000X0.250000X0.125000X-0.250000X0.125000X0*%
%ADD17R,3.400000X4.300000*%
%ADD18RoundRect,0.250000X-0.287500X-0.275000X0.287500X-0.275000X0.287500X0.275000X-0.287500X0.275000X0*%
%ADD19R,0.900000X1.700000*%
%ADD20RoundRect,0.087500X0.187500X0.087500X-0.187500X0.087500X-0.187500X-0.087500X0.187500X-0.087500X0*%
%ADD21RoundRect,0.087500X0.087500X0.187500X-0.087500X0.187500X-0.087500X-0.187500X0.087500X-0.187500X0*%
%ADD22RoundRect,0.135000X-0.135000X-0.185000X0.135000X-0.185000X0.135000X0.185000X-0.135000X0.185000X0*%
%ADD23RoundRect,0.150000X-0.150000X0.825000X-0.150000X-0.825000X0.150000X-0.825000X0.150000X0.825000X0*%
%ADD24R,1.700000X0.900000*%
%ADD25R,1.700000X1.700000*%
%ADD26O,1.700000X1.700000*%
%ADD27RoundRect,0.150000X0.150000X-0.825000X0.150000X0.825000X-0.150000X0.825000X-0.150000X-0.825000X0*%
%ADD28RoundRect,0.225000X-0.250000X0.225000X-0.250000X-0.225000X0.250000X-0.225000X0.250000X0.225000X0*%
%ADD29RoundRect,0.140000X0.140000X0.170000X-0.140000X0.170000X-0.140000X-0.170000X0.140000X-0.170000X0*%
%ADD30RoundRect,0.135000X0.135000X0.185000X-0.135000X0.185000X-0.135000X-0.185000X0.135000X-0.185000X0*%
%ADD31R,1.400000X1.200000*%
%ADD32RoundRect,0.147500X0.147500X0.172500X-0.147500X0.172500X-0.147500X-0.172500X0.147500X-0.172500X0*%
%ADD33RoundRect,0.250000X-0.620000X-0.845000X0.620000X-0.845000X0.620000X0.845000X-0.620000X0.845000X0*%
%ADD34O,1.740000X2.190000*%
%ADD35RoundRect,0.250000X-0.275000X0.287500X-0.275000X-0.287500X0.275000X-0.287500X0.275000X0.287500X0*%
%ADD36RoundRect,0.150000X0.825000X0.150000X-0.825000X0.150000X-0.825000X-0.150000X0.825000X-0.150000X0*%
%ADD37RoundRect,0.140000X-0.170000X0.140000X-0.170000X-0.140000X0.170000X-0.140000X0.170000X0.140000X0*%
%ADD38RoundRect,0.050000X-0.387500X-0.050000X0.387500X-0.050000X0.387500X0.050000X-0.387500X0.050000X0*%
%ADD39RoundRect,0.050000X-0.050000X-0.387500X0.050000X-0.387500X0.050000X0.387500X-0.050000X0.387500X0*%
%ADD40R,3.200000X3.200000*%
%ADD41RoundRect,0.150000X0.150000X-0.587500X0.150000X0.587500X-0.150000X0.587500X-0.150000X-0.587500X0*%
%ADD42RoundRect,0.135000X0.185000X-0.135000X0.185000X0.135000X-0.185000X0.135000X-0.185000X-0.135000X0*%
%ADD43R,0.450000X1.380000*%
%ADD44R,1.650000X1.300000*%
%ADD45R,1.425000X1.550000*%
%ADD46R,1.800000X1.900000*%
%ADD47R,1.000000X1.900000*%
%ADD48RoundRect,0.135000X-0.185000X0.135000X-0.185000X-0.135000X0.185000X-0.135000X0.185000X0.135000X0*%
%ADD49RoundRect,0.225000X-0.225000X-0.250000X0.225000X-0.250000X0.225000X0.250000X-0.225000X0.250000X0*%
G04 APERTURE END LIST*
D10*
%TO.C,C402*%
X118850000Y-54430000D03*
X118850000Y-53470000D03*
%TD*%
D11*
%TO.C,REF\u002A\u002A*%
X157000000Y-72025000D03*
%TD*%
D12*
%TO.C,D202*%
X145000000Y-51485000D03*
X145000000Y-50515000D03*
%TD*%
D13*
%TO.C,M500*%
X115190000Y-53680000D03*
D14*
X114190000Y-53680000D03*
X113190000Y-53680000D03*
X112190000Y-53680000D03*
X111190000Y-53680000D03*
%TD*%
D15*
%TO.C,D200*%
X154212500Y-59000000D03*
X155787500Y-59000000D03*
%TD*%
D16*
%TO.C,U301*%
X126610000Y-50970000D03*
X126610000Y-52240000D03*
X126610000Y-53510000D03*
X126610000Y-54780000D03*
X132010000Y-54780000D03*
X132010000Y-53510000D03*
X132010000Y-52240000D03*
X132010000Y-50970000D03*
D17*
X129310000Y-52875000D03*
%TD*%
D18*
%TO.C,C200*%
X149287500Y-68000000D03*
X150712500Y-68000000D03*
%TD*%
D19*
%TO.C,SW300*%
X147300000Y-73000000D03*
X150700000Y-73000000D03*
%TD*%
D20*
%TO.C,U400*%
X121700000Y-57675000D03*
X121700000Y-57175000D03*
X121700000Y-56675000D03*
X121700000Y-56175000D03*
X121700000Y-55675000D03*
D21*
X120975000Y-55450000D03*
X120475000Y-55450000D03*
X119975000Y-55450000D03*
D20*
X119250000Y-55675000D03*
X119250000Y-56175000D03*
X119250000Y-56675000D03*
X119250000Y-57175000D03*
X119250000Y-57675000D03*
D21*
X119975000Y-57900000D03*
X120475000Y-57900000D03*
X120975000Y-57900000D03*
%TD*%
D10*
%TO.C,C311*%
X128325000Y-74280000D03*
X128325000Y-73320000D03*
%TD*%
D22*
%TO.C,R303*%
X136415000Y-63400000D03*
X137435000Y-63400000D03*
%TD*%
D23*
%TO.C,U200*%
X151905000Y-60525000D03*
X150635000Y-60525000D03*
X149365000Y-60525000D03*
X148095000Y-60525000D03*
X148095000Y-65475000D03*
X149365000Y-65475000D03*
X150635000Y-65475000D03*
X151905000Y-65475000D03*
%TD*%
D13*
%TO.C,M501*%
X106770000Y-58290000D03*
D14*
X105770000Y-58290000D03*
X104770000Y-58290000D03*
X103770000Y-58290000D03*
X102770000Y-58290000D03*
%TD*%
D24*
%TO.C,SW301*%
X155400000Y-65425000D03*
X155400000Y-62025000D03*
%TD*%
D22*
%TO.C,R302*%
X131615000Y-70725000D03*
X132635000Y-70725000D03*
%TD*%
D25*
%TO.C,J300*%
X139475000Y-73000000D03*
D26*
X142015000Y-73000000D03*
X144555000Y-73000000D03*
%TD*%
D22*
%TO.C,R401*%
X122340000Y-59000000D03*
X123360000Y-59000000D03*
%TD*%
D27*
%TO.C,U201*%
X148095000Y-56475000D03*
X149365000Y-56475000D03*
X150635000Y-56475000D03*
X151905000Y-56475000D03*
X151905000Y-51525000D03*
X150635000Y-51525000D03*
X149365000Y-51525000D03*
X148095000Y-51525000D03*
%TD*%
D23*
%TO.C,U502*%
X125065000Y-68435000D03*
X123795000Y-68435000D03*
X122525000Y-68435000D03*
X121255000Y-68435000D03*
X119985000Y-68435000D03*
X118715000Y-68435000D03*
X117445000Y-68435000D03*
X116175000Y-68435000D03*
X116175000Y-73385000D03*
X117445000Y-73385000D03*
X118715000Y-73385000D03*
X119985000Y-73385000D03*
X121255000Y-73385000D03*
X122525000Y-73385000D03*
X123795000Y-73385000D03*
X125065000Y-73385000D03*
%TD*%
D28*
%TO.C,C313*%
X133460000Y-50825000D03*
X133460000Y-52375000D03*
%TD*%
D29*
%TO.C,C403*%
X119455000Y-59000000D03*
X118495000Y-59000000D03*
%TD*%
D30*
%TO.C,R301*%
X136600000Y-58075000D03*
X135580000Y-58075000D03*
%TD*%
D31*
%TO.C,Y300*%
X129900000Y-73850000D03*
X132100000Y-73850000D03*
X132100000Y-72150000D03*
X129900000Y-72150000D03*
%TD*%
D12*
%TO.C,D201*%
X146300000Y-59535000D03*
X146300000Y-58565000D03*
%TD*%
D29*
%TO.C,C400*%
X121380000Y-59000000D03*
X120420000Y-59000000D03*
%TD*%
D32*
%TO.C,D300*%
X139460000Y-63400000D03*
X138490000Y-63400000D03*
%TD*%
D33*
%TO.C,J201*%
X155000000Y-54000000D03*
D34*
X157540000Y-54000000D03*
%TD*%
D35*
%TO.C,C201*%
X146000000Y-53287500D03*
X146000000Y-54712500D03*
%TD*%
D36*
%TO.C,U501*%
X107955000Y-69255000D03*
X107955000Y-67985000D03*
X107955000Y-66715000D03*
X107955000Y-65445000D03*
X107955000Y-64175000D03*
X107955000Y-62905000D03*
X107955000Y-61635000D03*
X107955000Y-60365000D03*
X103005000Y-60365000D03*
X103005000Y-61635000D03*
X103005000Y-62905000D03*
X103005000Y-64175000D03*
X103005000Y-65445000D03*
X103005000Y-66715000D03*
X103005000Y-67985000D03*
X103005000Y-69255000D03*
%TD*%
D30*
%TO.C,R304*%
X155520000Y-60595000D03*
X154500000Y-60595000D03*
%TD*%
D15*
%TO.C,FB200*%
X143212500Y-57000000D03*
X144787500Y-57000000D03*
%TD*%
D37*
%TO.C,C312*%
X133700000Y-71770000D03*
X133700000Y-72730000D03*
%TD*%
D38*
%TO.C,U300*%
X127562500Y-61400000D03*
X127562500Y-61800000D03*
X127562500Y-62200000D03*
X127562500Y-62600000D03*
X127562500Y-63000000D03*
X127562500Y-63400000D03*
X127562500Y-63800000D03*
X127562500Y-64200000D03*
X127562500Y-64600000D03*
X127562500Y-65000000D03*
X127562500Y-65400000D03*
X127562500Y-65800000D03*
X127562500Y-66200000D03*
X127562500Y-66600000D03*
D39*
X128400000Y-67437500D03*
X128800000Y-67437500D03*
X129200000Y-67437500D03*
X129600000Y-67437500D03*
X130000000Y-67437500D03*
X130400000Y-67437500D03*
X130800000Y-67437500D03*
X131200000Y-67437500D03*
X131600000Y-67437500D03*
X132000000Y-67437500D03*
X132400000Y-67437500D03*
X132800000Y-67437500D03*
X133200000Y-67437500D03*
X133600000Y-67437500D03*
D38*
X134437500Y-66600000D03*
X134437500Y-66200000D03*
X134437500Y-65800000D03*
X134437500Y-65400000D03*
X134437500Y-65000000D03*
X134437500Y-64600000D03*
X134437500Y-64200000D03*
X134437500Y-63800000D03*
X134437500Y-63400000D03*
X134437500Y-63000000D03*
X134437500Y-62600000D03*
X134437500Y-62200000D03*
X134437500Y-61800000D03*
X134437500Y-61400000D03*
D39*
X133600000Y-60562500D03*
X133200000Y-60562500D03*
X132800000Y-60562500D03*
X132400000Y-60562500D03*
X132000000Y-60562500D03*
X131600000Y-60562500D03*
X131200000Y-60562500D03*
X130800000Y-60562500D03*
X130400000Y-60562500D03*
X130000000Y-60562500D03*
X129600000Y-60562500D03*
X129200000Y-60562500D03*
X128800000Y-60562500D03*
X128400000Y-60562500D03*
D40*
X131000000Y-64000000D03*
%TD*%
D22*
%TO.C,R203*%
X144490000Y-63000000D03*
X145510000Y-63000000D03*
%TD*%
D41*
%TO.C,Q200*%
X143050000Y-60937500D03*
X144950000Y-60937500D03*
X144000000Y-59062500D03*
%TD*%
D13*
%TO.C,M502*%
X114170000Y-69640000D03*
D14*
X114170000Y-70640000D03*
X114170000Y-71640000D03*
X114170000Y-72640000D03*
X114170000Y-73640000D03*
%TD*%
D42*
%TO.C,R202*%
X146000000Y-51510000D03*
X146000000Y-50490000D03*
%TD*%
D36*
%TO.C,U500*%
X116375000Y-64670000D03*
X116375000Y-63400000D03*
X116375000Y-62130000D03*
X116375000Y-60860000D03*
X116375000Y-59590000D03*
X116375000Y-58320000D03*
X116375000Y-57050000D03*
X116375000Y-55780000D03*
X111425000Y-55780000D03*
X111425000Y-57050000D03*
X111425000Y-58320000D03*
X111425000Y-59590000D03*
X111425000Y-60860000D03*
X111425000Y-62130000D03*
X111425000Y-63400000D03*
X111425000Y-64670000D03*
%TD*%
D43*
%TO.C,J200*%
X140300000Y-54460000D03*
X139650000Y-54460000D03*
X139000000Y-54460000D03*
X138350000Y-54460000D03*
X137700000Y-54460000D03*
D44*
X142375000Y-51800000D03*
D45*
X141487500Y-54375000D03*
D46*
X140150000Y-51800000D03*
D47*
X137450000Y-51800000D03*
D44*
X135625000Y-51800000D03*
D45*
X136512500Y-54375000D03*
%TD*%
D48*
%TO.C,R400*%
X122800000Y-55565000D03*
X122800000Y-56585000D03*
%TD*%
%TO.C,R201*%
X146300000Y-56540000D03*
X146300000Y-57560000D03*
%TD*%
D30*
%TO.C,R300*%
X136600000Y-57059000D03*
X135580000Y-57059000D03*
%TD*%
D49*
%TO.C,C401*%
X120100000Y-54075000D03*
X121650000Y-54075000D03*
%TD*%
D30*
%TO.C,R200*%
X143510000Y-63000000D03*
X142490000Y-63000000D03*
%TD*%
D11*
%TO.C,REF\u002A\u002A*%
X102925000Y-52975000D03*
%TD*%
M02*
