%TF.GenerationSoftware,KiCad,Pcbnew,(6.0.5)*%
%TF.CreationDate,2022-06-09T17:00:52+03:00*%
%TF.ProjectId,MOTION,4d4f5449-4f4e-42e6-9b69-6361645f7063,0.1*%
%TF.SameCoordinates,Original*%
%TF.FileFunction,Copper,L1,Top*%
%TF.FilePolarity,Positive*%
%FSLAX46Y46*%
G04 Gerber Fmt 4.6, Leading zero omitted, Abs format (unit mm)*
G04 Created by KiCad (PCBNEW (6.0.5)) date 2022-06-09 17:00:52*
%MOMM*%
%LPD*%
G01*
G04 APERTURE LIST*
G04 Aperture macros list*
%AMRoundRect*
0 Rectangle with rounded corners*
0 $1 Rounding radius*
0 $2 $3 $4 $5 $6 $7 $8 $9 X,Y pos of 4 corners*
0 Add a 4 corners polygon primitive as box body*
4,1,4,$2,$3,$4,$5,$6,$7,$8,$9,$2,$3,0*
0 Add four circle primitives for the rounded corners*
1,1,$1+$1,$2,$3*
1,1,$1+$1,$4,$5*
1,1,$1+$1,$6,$7*
1,1,$1+$1,$8,$9*
0 Add four rect primitives between the rounded corners*
20,1,$1+$1,$2,$3,$4,$5,0*
20,1,$1+$1,$4,$5,$6,$7,0*
20,1,$1+$1,$6,$7,$8,$9,0*
20,1,$1+$1,$8,$9,$2,$3,0*%
G04 Aperture macros list end*
%TA.AperFunction,SMDPad,CuDef*%
%ADD10RoundRect,0.250000X-0.275000X0.287500X-0.275000X-0.287500X0.275000X-0.287500X0.275000X0.287500X0*%
%TD*%
%TA.AperFunction,SMDPad,CuDef*%
%ADD11RoundRect,0.062500X-0.337500X-0.062500X0.337500X-0.062500X0.337500X0.062500X-0.337500X0.062500X0*%
%TD*%
%TA.AperFunction,SMDPad,CuDef*%
%ADD12RoundRect,0.062500X-0.062500X-0.337500X0.062500X-0.337500X0.062500X0.337500X-0.062500X0.337500X0*%
%TD*%
%TA.AperFunction,SMDPad,CuDef*%
%ADD13R,2.700000X2.700000*%
%TD*%
%TA.AperFunction,SMDPad,CuDef*%
%ADD14RoundRect,0.050000X0.112500X0.050000X-0.112500X0.050000X-0.112500X-0.050000X0.112500X-0.050000X0*%
%TD*%
%TA.AperFunction,SMDPad,CuDef*%
%ADD15RoundRect,0.050000X0.050000X0.112500X-0.050000X0.112500X-0.050000X-0.112500X0.050000X-0.112500X0*%
%TD*%
%TA.AperFunction,SMDPad,CuDef*%
%ADD16RoundRect,0.150000X-0.512500X-0.150000X0.512500X-0.150000X0.512500X0.150000X-0.512500X0.150000X0*%
%TD*%
%TA.AperFunction,SMDPad,CuDef*%
%ADD17RoundRect,0.135000X-0.135000X-0.185000X0.135000X-0.185000X0.135000X0.185000X-0.135000X0.185000X0*%
%TD*%
%TA.AperFunction,SMDPad,CuDef*%
%ADD18RoundRect,0.135000X0.135000X0.185000X-0.135000X0.185000X-0.135000X-0.185000X0.135000X-0.185000X0*%
%TD*%
%TA.AperFunction,SMDPad,CuDef*%
%ADD19RoundRect,0.135000X0.185000X-0.135000X0.185000X0.135000X-0.185000X0.135000X-0.185000X-0.135000X0*%
%TD*%
%TA.AperFunction,SMDPad,CuDef*%
%ADD20RoundRect,0.135000X-0.185000X0.135000X-0.185000X-0.135000X0.185000X-0.135000X0.185000X0.135000X0*%
%TD*%
%TA.AperFunction,SMDPad,CuDef*%
%ADD21RoundRect,0.150000X0.587500X0.150000X-0.587500X0.150000X-0.587500X-0.150000X0.587500X-0.150000X0*%
%TD*%
%TA.AperFunction,SMDPad,CuDef*%
%ADD22RoundRect,0.150000X0.150000X-0.587500X0.150000X0.587500X-0.150000X0.587500X-0.150000X-0.587500X0*%
%TD*%
%TA.AperFunction,ComponentPad*%
%ADD23R,1.700000X1.700000*%
%TD*%
%TA.AperFunction,ComponentPad*%
%ADD24O,1.700000X1.700000*%
%TD*%
%TA.AperFunction,SMDPad,CuDef*%
%ADD25R,1.380000X0.450000*%
%TD*%
%TA.AperFunction,SMDPad,CuDef*%
%ADD26R,1.900000X1.800000*%
%TD*%
%TA.AperFunction,SMDPad,CuDef*%
%ADD27R,1.300000X1.650000*%
%TD*%
%TA.AperFunction,SMDPad,CuDef*%
%ADD28R,1.550000X1.425000*%
%TD*%
%TA.AperFunction,SMDPad,CuDef*%
%ADD29R,1.900000X1.000000*%
%TD*%
%TA.AperFunction,SMDPad,CuDef*%
%ADD30R,1.000000X1.500000*%
%TD*%
%TA.AperFunction,SMDPad,CuDef*%
%ADD31RoundRect,0.150000X-0.587500X-0.150000X0.587500X-0.150000X0.587500X0.150000X-0.587500X0.150000X0*%
%TD*%
%TA.AperFunction,SMDPad,CuDef*%
%ADD32RoundRect,0.140000X0.170000X-0.140000X0.170000X0.140000X-0.170000X0.140000X-0.170000X-0.140000X0*%
%TD*%
%TA.AperFunction,SMDPad,CuDef*%
%ADD33RoundRect,0.140000X-0.140000X-0.170000X0.140000X-0.170000X0.140000X0.170000X-0.140000X0.170000X0*%
%TD*%
%TA.AperFunction,SMDPad,CuDef*%
%ADD34RoundRect,0.250000X0.275000X-0.287500X0.275000X0.287500X-0.275000X0.287500X-0.275000X-0.287500X0*%
%TD*%
%TA.AperFunction,SMDPad,CuDef*%
%ADD35RoundRect,0.250000X-0.287500X-0.275000X0.287500X-0.275000X0.287500X0.275000X-0.287500X0.275000X0*%
%TD*%
%TA.AperFunction,ViaPad*%
%ADD36C,0.610000*%
%TD*%
%TA.AperFunction,Conductor*%
%ADD37C,0.200000*%
%TD*%
%TA.AperFunction,Conductor*%
%ADD38C,0.500000*%
%TD*%
%TA.AperFunction,Conductor*%
%ADD39C,0.330000*%
%TD*%
G04 APERTURE END LIST*
D10*
%TO.P,C7,1*%
%TO.N,+3V3*%
X50700000Y-22887500D03*
%TO.P,C7,2*%
%TO.N,GND*%
X50700000Y-24312500D03*
%TD*%
D11*
%TO.P,U2,1,RA3/T1G/~{SS}/CLC1IN0/~{MCLR}/Vpp*%
%TO.N,MCLR*%
X40850000Y-22500000D03*
%TO.P,U2,2,PWM1/CLC1/CWG1A/RC5*%
%TO.N,RED*%
X40850000Y-23000000D03*
%TO.P,U2,3,CLC4/CLC2IN1/CWG1B/C2OUT/RC4*%
%TO.N,unconnected-(U2-Pad3)*%
X40850000Y-23500000D03*
%TO.P,U2,4,PWM2/CLC2IN0/C1IN3-/AN7/RC3*%
%TO.N,GREEN*%
X40850000Y-24000000D03*
%TO.P,U2,5,CLC3IN1/NCO1/~{SS}/AN8/RC6*%
%TO.N,unconnected-(U2-Pad5)*%
X40850000Y-24500000D03*
D12*
%TO.P,U2,6,CLC1IN1/SDO/AN9/RC7*%
%TO.N,unconnected-(U2-Pad6)*%
X41800000Y-25450000D03*
%TO.P,U2,7,RB7/TX/CK/CLC3*%
%TO.N,unconnected-(U2-Pad7)*%
X42300000Y-25450000D03*
%TO.P,U2,8,RB6/SCL/SCK*%
%TO.N,SCL{slash}SPC*%
X42800000Y-25450000D03*
%TO.P,U2,9,RB5/AN11/RX/DT/CLC4IN0*%
%TO.N,unconnected-(U2-Pad9)*%
X43300000Y-25450000D03*
%TO.P,U2,10,RB4/AN10/SDA/SDI/CLC3IN0*%
%TO.N,SDA{slash}SDI*%
X43800000Y-25450000D03*
D11*
%TO.P,U2,11,C1IN2-/C2IN2-/AN6/RC2*%
%TO.N,unconnected-(U2-Pad11)*%
X44750000Y-24500000D03*
%TO.P,U2,12,PWM4/NCO1/C1IN1-/C2IN1-/AN5/RC1*%
%TO.N,BLUE*%
X44750000Y-24000000D03*
%TO.P,U2,13,CLC2/C2IN+/AN4/RC0*%
%TO.N,unconnected-(U2-Pad13)*%
X44750000Y-23500000D03*
%TO.P,U2,14,RA2/AN2/DACOUT2/C1OUT/T0CLKI/~{CWG1FLT}/CLC1/PWM3*%
%TO.N,INT*%
X44750000Y-23000000D03*
%TO.P,U2,15,RA1/AN1/Vref+/C1IN0-/C2IN0-/CLC4IN1/ICSPCLK/ICDCLK*%
%TO.N,ICPCLK*%
X44750000Y-22500000D03*
D12*
%TO.P,U2,16,RA0/AN0/DACOUT1/C1IN+/ICSPDAT/ICDDAT*%
%TO.N,ICPDDAT*%
X43800000Y-21550000D03*
%TO.P,U2,17,VSS*%
%TO.N,GND*%
X43300000Y-21550000D03*
%TO.P,U2,18,VDD*%
%TO.N,+3V3*%
X42800000Y-21550000D03*
%TO.P,U2,19,RA5/SOSCI/T1CKI/NCO1CLK/CLKIN/OSC1*%
%TO.N,unconnected-(U2-Pad19)*%
X42300000Y-21550000D03*
%TO.P,U2,20,RA4/AN3/SOSCO/T1G/CLKOUT/OSC2*%
%TO.N,unconnected-(U2-Pad20)*%
X41800000Y-21550000D03*
D13*
%TO.P,U2,21*%
%TO.N,N/C*%
X42800000Y-23500000D03*
%TD*%
D14*
%TO.P,U3,1,SCL/SPC*%
%TO.N,SCL{slash}SPC*%
X48462500Y-24325000D03*
%TO.P,U3,2,SDA/SDI*%
%TO.N,SDA{slash}SDI*%
X48462500Y-23975000D03*
%TO.P,U3,3,SDO*%
%TO.N,GND*%
X48462500Y-23625000D03*
%TO.P,U3,4,~{CS}*%
%TO.N,+3V3*%
X48462500Y-23275000D03*
D15*
%TO.P,U3,5,INT2*%
%TO.N,GND*%
X48050000Y-23037500D03*
%TO.P,U3,6,INT1*%
%TO.N,INT*%
X47700000Y-23037500D03*
%TO.P,U3,7,VDD_IO*%
%TO.N,+3V3*%
X47350000Y-23037500D03*
D14*
%TO.P,U3,8,VDD*%
X46937500Y-23275000D03*
%TO.P,U3,9,GND*%
%TO.N,GND*%
X46937500Y-23625000D03*
%TO.P,U3,10,GND*%
X46937500Y-23975000D03*
%TO.P,U3,11,GND*%
X46937500Y-24325000D03*
D15*
%TO.P,U3,12,GND*%
X47350000Y-24562500D03*
%TO.P,U3,13,GND*%
X47700000Y-24562500D03*
%TO.P,U3,14,GND*%
X48050000Y-24562500D03*
%TD*%
D16*
%TO.P,U1,1,VIN*%
%TO.N,VCC*%
X36562500Y-18650000D03*
%TO.P,U1,2,GND*%
%TO.N,GND*%
X36562500Y-19600000D03*
%TO.P,U1,3,EN*%
%TO.N,VCC*%
X36562500Y-20550000D03*
%TO.P,U1,4,NC*%
%TO.N,unconnected-(U1-Pad4)*%
X38837500Y-20550000D03*
%TO.P,U1,5,VOUT*%
%TO.N,+3V3*%
X38837500Y-18650000D03*
%TD*%
D17*
%TO.P,R9,1*%
%TO.N,+3V3*%
X41790000Y-26800000D03*
%TO.P,R9,2*%
%TO.N,SCL{slash}SPC*%
X42810000Y-26800000D03*
%TD*%
D18*
%TO.P,R8,1*%
%TO.N,+3V3*%
X44810000Y-26800000D03*
%TO.P,R8,2*%
%TO.N,SDA{slash}SDI*%
X43790000Y-26800000D03*
%TD*%
D19*
%TO.P,R7,1*%
%TO.N,Net-(D2-Pad4)*%
X52300000Y-21110000D03*
%TO.P,R7,2*%
%TO.N,Net-(Q3-Pad3)*%
X52300000Y-20090000D03*
%TD*%
%TO.P,R6,1*%
%TO.N,Net-(D2-Pad3)*%
X56800000Y-19210000D03*
%TO.P,R6,2*%
%TO.N,Net-(Q2-Pad3)*%
X56800000Y-18190000D03*
%TD*%
%TO.P,R5,1*%
%TO.N,Net-(D2-Pad2)*%
X55900000Y-23610000D03*
%TO.P,R5,2*%
%TO.N,Net-(Q1-Pad3)*%
X55900000Y-22590000D03*
%TD*%
D20*
%TO.P,R4,1*%
%TO.N,D-*%
X27700000Y-23080000D03*
%TO.P,R4,2*%
%TO.N,GND*%
X27700000Y-24100000D03*
%TD*%
%TO.P,R3,1*%
%TO.N,+5V*%
X28800000Y-21990000D03*
%TO.P,R3,2*%
%TO.N,D-*%
X28800000Y-23010000D03*
%TD*%
%TO.P,R2,1*%
%TO.N,D+*%
X25500000Y-23090000D03*
%TO.P,R2,2*%
%TO.N,GND*%
X25500000Y-24110000D03*
%TD*%
%TO.P,R1,1*%
%TO.N,+5V*%
X26600000Y-21990000D03*
%TO.P,R1,2*%
%TO.N,D+*%
X26600000Y-23010000D03*
%TD*%
D21*
%TO.P,Q3,1,G*%
%TO.N,BLUE*%
X50837500Y-20460000D03*
%TO.P,Q3,2,S*%
%TO.N,GND*%
X50837500Y-18560000D03*
%TO.P,Q3,3,D*%
%TO.N,Net-(Q3-Pad3)*%
X48962500Y-19510000D03*
%TD*%
D22*
%TO.P,Q2,1,G*%
%TO.N,GREEN*%
X53550000Y-20637500D03*
%TO.P,Q2,2,S*%
%TO.N,GND*%
X55450000Y-20637500D03*
%TO.P,Q2,3,D*%
%TO.N,Net-(Q2-Pad3)*%
X54500000Y-18762500D03*
%TD*%
%TO.P,Q1,1,G*%
%TO.N,RED*%
X52650000Y-24937500D03*
%TO.P,Q1,2,S*%
%TO.N,GND*%
X54550000Y-24937500D03*
%TO.P,Q1,3,D*%
%TO.N,Net-(Q1-Pad3)*%
X53600000Y-23062500D03*
%TD*%
D23*
%TO.P,J2,1,Pin_1*%
%TO.N,+3V3*%
X26725000Y-26125000D03*
D24*
%TO.P,J2,2,Pin_2*%
%TO.N,MCLR*%
X29265000Y-26125000D03*
%TO.P,J2,3,Pin_3*%
%TO.N,GND*%
X31805000Y-26125000D03*
%TO.P,J2,4,Pin_4*%
%TO.N,ICPDDAT*%
X34345000Y-26125000D03*
%TO.P,J2,5,Pin_5*%
%TO.N,ICPCLK*%
X36885000Y-26125000D03*
%TD*%
D25*
%TO.P,J1,1,VBUS*%
%TO.N,+5V*%
X23660000Y-21300000D03*
%TO.P,J1,2,D-*%
%TO.N,D-*%
X23660000Y-21950000D03*
%TO.P,J1,3,D+*%
%TO.N,D+*%
X23660000Y-22600000D03*
%TO.P,J1,4,ID*%
%TO.N,unconnected-(J1-Pad4)*%
X23660000Y-23250000D03*
%TO.P,J1,5,GND*%
%TO.N,GND*%
X23660000Y-23900000D03*
D26*
%TO.P,J1,6,Shield*%
%TO.N,unconnected-(J1-Pad6)*%
X21000000Y-21450000D03*
D27*
X21000000Y-25975000D03*
X21000000Y-19225000D03*
D28*
X23575000Y-20112500D03*
D29*
X21000000Y-24150000D03*
D28*
X23575000Y-25087500D03*
%TD*%
D30*
%TO.P,D2,1,A*%
%TO.N,VCC*%
X58800000Y-23750000D03*
%TO.P,D2,2,RK*%
%TO.N,Net-(D2-Pad2)*%
X60200000Y-23750000D03*
%TO.P,D2,3,GK*%
%TO.N,Net-(D2-Pad3)*%
X60200000Y-20250000D03*
%TO.P,D2,4,BK*%
%TO.N,Net-(D2-Pad4)*%
X58800000Y-20250000D03*
%TD*%
D31*
%TO.P,D1,1*%
%TO.N,VDD*%
X32462500Y-18550000D03*
%TO.P,D1,2*%
%TO.N,+5V*%
X32462500Y-20450000D03*
%TO.P,D1,3*%
%TO.N,VCC*%
X34337500Y-19500000D03*
%TD*%
D32*
%TO.P,C6,1*%
%TO.N,+3V3*%
X43200000Y-19280000D03*
%TO.P,C6,2*%
%TO.N,GND*%
X43200000Y-18320000D03*
%TD*%
%TO.P,C5,1*%
%TO.N,+3V3*%
X42100000Y-20280000D03*
%TO.P,C5,2*%
%TO.N,GND*%
X42100000Y-19320000D03*
%TD*%
D33*
%TO.P,C4,1*%
%TO.N,+3V3*%
X47220000Y-22000000D03*
%TO.P,C4,2*%
%TO.N,GND*%
X48180000Y-22000000D03*
%TD*%
D34*
%TO.P,C3,1*%
%TO.N,+3V3*%
X44600000Y-20012500D03*
%TO.P,C3,2*%
%TO.N,GND*%
X44600000Y-18587500D03*
%TD*%
%TO.P,C2,1*%
%TO.N,+3V3*%
X40700000Y-20012500D03*
%TO.P,C2,2*%
%TO.N,GND*%
X40700000Y-18587500D03*
%TD*%
D35*
%TO.P,C1,1*%
%TO.N,VCC*%
X36587500Y-22300000D03*
%TO.P,C1,2*%
%TO.N,GND*%
X38012500Y-22300000D03*
%TD*%
D23*
%TO.P,BT1,1,+*%
%TO.N,VDD*%
X29500000Y-19600000D03*
D24*
%TO.P,BT1,2,-*%
%TO.N,GND*%
X26960000Y-19600000D03*
%TD*%
D36*
%TO.N,GND*%
X26600000Y-24100000D03*
X50300000Y-25200000D03*
X51000000Y-25200000D03*
X49328362Y-23624708D03*
X39100000Y-21700000D03*
X37700000Y-19600000D03*
%TO.N,+3V3*%
X45700000Y-26667500D03*
%TO.N,GND*%
X47400000Y-25039980D03*
%TO.N,+3V3*%
X49400000Y-22800000D03*
%TO.N,GND*%
X48900000Y-21000000D03*
%TO.N,SDA{slash}SDI*%
X48779442Y-25832403D03*
X43800000Y-26200000D03*
%TO.N,VCC*%
X35400000Y-22600000D03*
X58900000Y-25500000D03*
%TO.N,RED*%
X46617399Y-26782601D03*
X40100000Y-26300000D03*
%TO.N,GREEN*%
X53400000Y-19500000D03*
X39400000Y-24400000D03*
%TO.N,BLUE*%
X50800000Y-21610000D03*
X45700000Y-24300000D03*
%TO.N,ICPCLK*%
X45400000Y-22200000D03*
%TO.N,ICPDDAT*%
X44300000Y-21200000D03*
%TO.N,GND*%
X43200000Y-20500000D03*
X45400000Y-18600000D03*
X42100000Y-18600000D03*
%TO.N,INT*%
X47578299Y-23598349D03*
X45662497Y-23200000D03*
%TO.N,SCL{slash}SPC*%
X48400000Y-25200000D03*
X42800000Y-26200000D03*
%TO.N,GND*%
X48900000Y-22100000D03*
%TO.N,+3V3*%
X46209127Y-22302608D03*
%TO.N,GND*%
X54800000Y-20700000D03*
X52000000Y-18600000D03*
X55400000Y-24600000D03*
%TO.N,+3V3*%
X40900000Y-27000000D03*
%TD*%
D37*
%TO.N,RED*%
X52650000Y-24937500D02*
X52650000Y-26150000D01*
X52650000Y-26150000D02*
X52000000Y-26800000D01*
X46634798Y-26800000D02*
X46617399Y-26782601D01*
X52000000Y-26800000D02*
X46634798Y-26800000D01*
%TO.N,ICPCLK*%
X45400000Y-22200000D02*
X45100000Y-22500000D01*
X45100000Y-22500000D02*
X44750000Y-22500000D01*
%TO.N,+3V3*%
X46937500Y-23275000D02*
X46300000Y-23275000D01*
X46300000Y-23300000D02*
X46300000Y-26067500D01*
X46300000Y-26067500D02*
X45700000Y-26667500D01*
X46209127Y-22302608D02*
X46300000Y-22393481D01*
X46300000Y-22393481D02*
X46300000Y-23300000D01*
X47350000Y-22750000D02*
X47200000Y-22600000D01*
X47200000Y-22600000D02*
X47200000Y-22020000D01*
X47200000Y-22020000D02*
X47220000Y-22000000D01*
X47350000Y-23037500D02*
X47350000Y-22750000D01*
X46209127Y-22302608D02*
X46511735Y-22000000D01*
X46511735Y-22000000D02*
X47220000Y-22000000D01*
%TO.N,GND*%
X47400000Y-25039980D02*
X47062500Y-24702480D01*
X47062500Y-24702480D02*
X47062500Y-24562500D01*
%TO.N,MCLR*%
X40850000Y-22500000D02*
X39700000Y-22500000D01*
X39700000Y-22500000D02*
X38000000Y-24200000D01*
X38000000Y-24200000D02*
X30100000Y-24200000D01*
X30100000Y-24200000D02*
X29265000Y-25035000D01*
X29265000Y-25035000D02*
X29265000Y-26125000D01*
%TO.N,RED*%
X40100000Y-26300000D02*
X39800000Y-26300000D01*
X39800000Y-26300000D02*
X38800000Y-25300000D01*
X38800000Y-25300000D02*
X38800000Y-24100000D01*
X38800000Y-24100000D02*
X39900000Y-23000000D01*
X39900000Y-23000000D02*
X40850000Y-23000000D01*
%TO.N,GND*%
X39100000Y-21700000D02*
X38500000Y-22300000D01*
X38500000Y-22300000D02*
X38012500Y-22300000D01*
X37700000Y-19600000D02*
X36562500Y-19600000D01*
D38*
%TO.N,VCC*%
X34337500Y-19500000D02*
X34337500Y-19162500D01*
X34337500Y-19162500D02*
X34850000Y-18650000D01*
X34850000Y-18650000D02*
X36562500Y-18650000D01*
D37*
%TO.N,+3V3*%
X38837500Y-18650000D02*
X38837500Y-19137500D01*
X38837500Y-19137500D02*
X39712500Y-20012500D01*
X39712500Y-20012500D02*
X40700000Y-20012500D01*
X40700000Y-20012500D02*
X40987500Y-20300000D01*
X40987500Y-20300000D02*
X42080000Y-20300000D01*
X42080000Y-20300000D02*
X42100000Y-20280000D01*
%TO.N,Net-(Q3-Pad3)*%
X48962500Y-19510000D02*
X48972500Y-19500000D01*
X48972500Y-19500000D02*
X51634978Y-19500000D01*
X51634978Y-19500000D02*
X52224978Y-20090000D01*
X52224978Y-20090000D02*
X52300000Y-20090000D01*
%TO.N,GND*%
X52000000Y-18600000D02*
X50877500Y-18600000D01*
X50877500Y-18600000D02*
X50837500Y-18560000D01*
%TO.N,Net-(Q1-Pad3)*%
X53600000Y-23062500D02*
X54437500Y-23062500D01*
X54437500Y-23062500D02*
X54900000Y-22600000D01*
X54900000Y-22600000D02*
X55890000Y-22600000D01*
X55890000Y-22600000D02*
X55900000Y-22590000D01*
%TO.N,Net-(D2-Pad4)*%
X52300000Y-21110000D02*
X52990000Y-21800000D01*
X52990000Y-21800000D02*
X58300000Y-21800000D01*
X58300000Y-21800000D02*
X58800000Y-21300000D01*
X58800000Y-21300000D02*
X58800000Y-20250000D01*
%TO.N,Net-(D2-Pad2)*%
X55900000Y-23610000D02*
X56890000Y-23610000D01*
X56890000Y-23610000D02*
X58000000Y-22500000D01*
X59255022Y-22500000D02*
X60200000Y-23444978D01*
X58000000Y-22500000D02*
X59255022Y-22500000D01*
X60200000Y-23444978D02*
X60200000Y-23750000D01*
%TO.N,D-*%
X23660000Y-21950000D02*
X24850000Y-21950000D01*
X24850000Y-21950000D02*
X25400000Y-22500000D01*
X25400000Y-22500000D02*
X27120000Y-22500000D01*
X27120000Y-22500000D02*
X27700000Y-23080000D01*
%TO.N,GND*%
X26600000Y-24100000D02*
X26590000Y-24110000D01*
X26590000Y-24110000D02*
X25500000Y-24110000D01*
X27700000Y-24100000D02*
X26600000Y-24100000D01*
X23660000Y-23900000D02*
X25290000Y-23900000D01*
X25290000Y-23900000D02*
X25500000Y-24110000D01*
%TO.N,D+*%
X25500000Y-23090000D02*
X25510000Y-23100000D01*
X25510000Y-23100000D02*
X26510000Y-23100000D01*
X26510000Y-23100000D02*
X26600000Y-23010000D01*
X23660000Y-22600000D02*
X24600000Y-22600000D01*
X24600000Y-22600000D02*
X25090000Y-23090000D01*
X25090000Y-23090000D02*
X25500000Y-23090000D01*
%TO.N,D-*%
X27700000Y-23080000D02*
X27720000Y-23100000D01*
X27720000Y-23100000D02*
X28710000Y-23100000D01*
X28710000Y-23100000D02*
X28800000Y-23010000D01*
D39*
%TO.N,+5V*%
X32462500Y-20450000D02*
X31612500Y-21300000D01*
X25600000Y-21300000D02*
X23660000Y-21300000D01*
X31612500Y-21300000D02*
X31600000Y-21300000D01*
X26290000Y-21990000D02*
X25600000Y-21300000D01*
X31600000Y-21300000D02*
X30910000Y-21990000D01*
X30910000Y-21990000D02*
X26290000Y-21990000D01*
D37*
%TO.N,+3V3*%
X44554989Y-19967489D02*
X43132511Y-19967489D01*
X43132511Y-19967489D02*
X42412511Y-19967489D01*
X43200000Y-19900000D02*
X43132511Y-19967489D01*
X43200000Y-19280000D02*
X43200000Y-19900000D01*
%TO.N,GND*%
X43200000Y-18320000D02*
X42920000Y-18600000D01*
X42920000Y-18600000D02*
X42100000Y-18600000D01*
X48180000Y-22000000D02*
X48180000Y-21620000D01*
X48800000Y-21000000D02*
X48900000Y-21000000D01*
X48180000Y-21620000D02*
X48800000Y-21000000D01*
%TO.N,Net-(D2-Pad3)*%
X56800000Y-19210000D02*
X59410000Y-19210000D01*
X59410000Y-19210000D02*
X60200000Y-20000000D01*
X60200000Y-20000000D02*
X60200000Y-20250000D01*
D38*
%TO.N,VCC*%
X58900000Y-25500000D02*
X58900000Y-23850000D01*
X58900000Y-23850000D02*
X58800000Y-23750000D01*
D37*
%TO.N,GND*%
X50300000Y-25200000D02*
X50300000Y-24712500D01*
X50300000Y-24712500D02*
X50700000Y-24312500D01*
X51000000Y-25200000D02*
X51000000Y-24612500D01*
X51000000Y-24612500D02*
X50700000Y-24312500D01*
%TO.N,+3V3*%
X49400000Y-22800000D02*
X50612500Y-22800000D01*
X50612500Y-22800000D02*
X50700000Y-22887500D01*
X44810000Y-26800000D02*
X45567500Y-26800000D01*
X45567500Y-26800000D02*
X45700000Y-26667500D01*
%TO.N,GND*%
X45400000Y-18600000D02*
X44612500Y-18600000D01*
X44612500Y-18600000D02*
X44600000Y-18587500D01*
%TO.N,unconnected-(J1-Pad6)*%
X21000000Y-25975000D02*
X22687500Y-25975000D01*
X22687500Y-25975000D02*
X23575000Y-25087500D01*
X21000000Y-24150000D02*
X21000000Y-25975000D01*
X21000000Y-21450000D02*
X21000000Y-24150000D01*
X21000000Y-19225000D02*
X21000000Y-21450000D01*
X23575000Y-20112500D02*
X21887500Y-20112500D01*
X21887500Y-20112500D02*
X21000000Y-19225000D01*
D38*
%TO.N,VDD*%
X30850000Y-18550000D02*
X32462500Y-18550000D01*
D37*
%TO.N,GND*%
X55400000Y-24600000D02*
X55062500Y-24937500D01*
X55062500Y-24937500D02*
X54550000Y-24937500D01*
X49328070Y-23625000D02*
X49328362Y-23624708D01*
X49300000Y-23625000D02*
X49328070Y-23625000D01*
X48462500Y-23625000D02*
X49300000Y-23625000D01*
%TO.N,+3V3*%
X49400000Y-22800000D02*
X48925000Y-23275000D01*
X48925000Y-23275000D02*
X48462500Y-23275000D01*
X44600000Y-20012500D02*
X44554989Y-19967489D01*
X42412511Y-19967489D02*
X42100000Y-20280000D01*
%TO.N,INT*%
X47578299Y-23598349D02*
X47700000Y-23476648D01*
X47700000Y-23476648D02*
X47700000Y-23037500D01*
%TO.N,GND*%
X46937500Y-24325000D02*
X46937500Y-24437500D01*
X46937500Y-24437500D02*
X47062500Y-24562500D01*
X47062500Y-24562500D02*
X47350000Y-24562500D01*
X47350000Y-24562500D02*
X48050000Y-24562500D01*
X46937500Y-23625000D02*
X46937500Y-24325000D01*
X48050000Y-23037500D02*
X48050000Y-22130000D01*
X48050000Y-22130000D02*
X48180000Y-22000000D01*
%TO.N,+3V3*%
X44600000Y-20012500D02*
X45287500Y-20012500D01*
X47220000Y-20920000D02*
X46312500Y-20012500D01*
X47220000Y-21000000D02*
X47220000Y-20920000D01*
X46312500Y-20012500D02*
X45287500Y-20012500D01*
X47220000Y-22000000D02*
X47220000Y-21000000D01*
%TO.N,SDA{slash}SDI*%
X43800000Y-26200000D02*
X43800000Y-26300000D01*
X48747039Y-25800000D02*
X48779442Y-25832403D01*
X48700000Y-25800000D02*
X48747039Y-25800000D01*
X48462500Y-23975000D02*
X48875000Y-23975000D01*
X48875000Y-23975000D02*
X49000000Y-24100000D01*
X49000000Y-24100000D02*
X49000000Y-25500000D01*
X49000000Y-25500000D02*
X48700000Y-25800000D01*
D38*
%TO.N,VCC*%
X35400000Y-22600000D02*
X35700000Y-22300000D01*
X35700000Y-22300000D02*
X36587500Y-22300000D01*
D37*
%TO.N,GREEN*%
X39400000Y-24400000D02*
X39800000Y-24000000D01*
X39800000Y-24000000D02*
X40850000Y-24000000D01*
X53550000Y-20637500D02*
X53550000Y-19650000D01*
X53550000Y-19650000D02*
X53400000Y-19500000D01*
%TO.N,BLUE*%
X45400000Y-24000000D02*
X45700000Y-24300000D01*
X50800000Y-21610000D02*
X50800000Y-20497500D01*
X44750000Y-24000000D02*
X45400000Y-24000000D01*
X50800000Y-20497500D02*
X50837500Y-20460000D01*
%TO.N,ICPDDAT*%
X43950000Y-21550000D02*
X44300000Y-21200000D01*
X43800000Y-21550000D02*
X43950000Y-21550000D01*
%TO.N,GND*%
X43300000Y-20600000D02*
X43200000Y-20500000D01*
X43300000Y-21550000D02*
X43300000Y-20600000D01*
X40700000Y-18587500D02*
X42087500Y-18587500D01*
X42087500Y-18587500D02*
X42100000Y-18600000D01*
X42100000Y-19320000D02*
X42100000Y-18600000D01*
%TO.N,INT*%
X45600000Y-23200000D02*
X45400000Y-23000000D01*
X45662497Y-23200000D02*
X45600000Y-23200000D01*
X45400000Y-23000000D02*
X44750000Y-23000000D01*
%TO.N,SCL{slash}SPC*%
X48462500Y-25137500D02*
X48400000Y-25200000D01*
X48462500Y-24325000D02*
X48462500Y-25137500D01*
X42800000Y-25450000D02*
X42800000Y-26200000D01*
X42800000Y-26200000D02*
X42800000Y-26790000D01*
%TO.N,SDA{slash}SDI*%
X43800000Y-26300000D02*
X43800000Y-26790000D01*
X43800000Y-25450000D02*
X43800000Y-26300000D01*
%TO.N,GND*%
X48180000Y-22000000D02*
X48800000Y-22000000D01*
X48800000Y-22000000D02*
X48900000Y-22100000D01*
%TO.N,+3V3*%
X41790000Y-26800000D02*
X41100000Y-26800000D01*
X41100000Y-26800000D02*
X40900000Y-27000000D01*
%TO.N,SCL{slash}SPC*%
X42800000Y-26790000D02*
X42810000Y-26800000D01*
%TO.N,SDA{slash}SDI*%
X43800000Y-26790000D02*
X43790000Y-26800000D01*
%TO.N,Net-(Q2-Pad3)*%
X54500000Y-18762500D02*
X54500000Y-18600000D01*
X54910000Y-18190000D02*
X56800000Y-18190000D01*
X54500000Y-18600000D02*
X54910000Y-18190000D01*
%TO.N,GND*%
X54862500Y-20637500D02*
X54800000Y-20700000D01*
X55450000Y-20637500D02*
X54862500Y-20637500D01*
%TO.N,+3V3*%
X42800000Y-21550000D02*
X42800000Y-20980000D01*
X42800000Y-20980000D02*
X42100000Y-20280000D01*
D38*
%TO.N,VCC*%
X36587500Y-22300000D02*
X36587500Y-20575000D01*
X36587500Y-20575000D02*
X36562500Y-20550000D01*
X34337500Y-19500000D02*
X34337500Y-19937500D01*
X34337500Y-19937500D02*
X34950000Y-20550000D01*
X34950000Y-20550000D02*
X36562500Y-20550000D01*
%TO.N,VDD*%
X30850000Y-18550000D02*
X29800000Y-19600000D01*
X29800000Y-19600000D02*
X29500000Y-19600000D01*
%TD*%
%TA.AperFunction,Conductor*%
%TO.N,GND*%
G36*
X55004565Y-23487216D02*
G01*
X55055361Y-23536817D01*
X55071500Y-23598513D01*
X55071501Y-23707705D01*
X55071501Y-23809988D01*
X55074371Y-23846466D01*
X55119731Y-24002596D01*
X55202494Y-24142541D01*
X55317459Y-24257506D01*
X55324280Y-24261540D01*
X55440519Y-24330283D01*
X55457404Y-24340269D01*
X55465015Y-24342480D01*
X55465017Y-24342481D01*
X55547275Y-24366379D01*
X55613534Y-24385629D01*
X55619941Y-24386133D01*
X55619945Y-24386134D01*
X55647556Y-24388307D01*
X55647562Y-24388307D01*
X55650011Y-24388500D01*
X55899848Y-24388500D01*
X56149988Y-24388499D01*
X56186466Y-24385629D01*
X56283270Y-24357505D01*
X56334983Y-24342481D01*
X56334985Y-24342480D01*
X56342596Y-24340269D01*
X56359482Y-24330283D01*
X56475720Y-24261540D01*
X56482541Y-24257506D01*
X56488147Y-24251900D01*
X56494407Y-24247044D01*
X56496057Y-24249172D01*
X56546954Y-24221379D01*
X56573737Y-24218500D01*
X56841864Y-24218500D01*
X56858307Y-24219578D01*
X56890000Y-24223750D01*
X56898189Y-24222672D01*
X56929874Y-24218501D01*
X56929884Y-24218500D01*
X56929885Y-24218500D01*
X57029457Y-24205391D01*
X57040664Y-24203916D01*
X57040666Y-24203915D01*
X57048851Y-24202838D01*
X57196876Y-24141524D01*
X57209682Y-24131698D01*
X57292072Y-24068477D01*
X57292075Y-24068474D01*
X57299970Y-24062416D01*
X57323987Y-24043987D01*
X57343223Y-24018919D01*
X57343452Y-24018621D01*
X57354319Y-24006230D01*
X57576405Y-23784144D01*
X57638717Y-23750118D01*
X57709532Y-23755183D01*
X57766368Y-23797730D01*
X57791179Y-23864250D01*
X57791500Y-23873239D01*
X57791500Y-24548134D01*
X57798255Y-24610316D01*
X57849385Y-24746705D01*
X57936739Y-24863261D01*
X58053295Y-24950615D01*
X58061704Y-24953767D01*
X58069575Y-24958077D01*
X58068664Y-24959741D01*
X58116490Y-24995663D01*
X58141193Y-25062224D01*
X58141500Y-25071009D01*
X58141500Y-25183098D01*
X58133901Y-25226192D01*
X58106717Y-25300880D01*
X58104307Y-25307502D01*
X58081433Y-25488570D01*
X58099242Y-25670206D01*
X58156851Y-25843383D01*
X58160498Y-25849405D01*
X58160499Y-25849407D01*
X58247744Y-25993468D01*
X58247747Y-25993471D01*
X58251394Y-25999494D01*
X58378175Y-26130778D01*
X58416842Y-26156081D01*
X58524992Y-26226854D01*
X58524996Y-26226856D01*
X58530890Y-26230713D01*
X58701951Y-26294330D01*
X58708929Y-26295261D01*
X58708933Y-26295262D01*
X58792403Y-26306398D01*
X58882856Y-26318467D01*
X58889867Y-26317829D01*
X58889871Y-26317829D01*
X59057591Y-26302565D01*
X59064612Y-26301926D01*
X59071314Y-26299748D01*
X59071316Y-26299748D01*
X59231488Y-26247705D01*
X59231491Y-26247704D01*
X59238187Y-26245528D01*
X59244238Y-26241921D01*
X59388901Y-26155685D01*
X59388903Y-26155684D01*
X59394953Y-26152077D01*
X59527120Y-26026216D01*
X59531727Y-26019283D01*
X59581619Y-25944189D01*
X59628118Y-25874202D01*
X59672079Y-25758475D01*
X59690428Y-25710172D01*
X59690429Y-25710167D01*
X59692928Y-25703589D01*
X59693908Y-25696617D01*
X59717777Y-25526780D01*
X59717777Y-25526777D01*
X59718328Y-25522858D01*
X59718533Y-25508189D01*
X59718592Y-25503962D01*
X59718592Y-25503957D01*
X59718647Y-25500000D01*
X59698303Y-25318630D01*
X59690986Y-25297617D01*
X59665509Y-25224459D01*
X59658500Y-25183022D01*
X59658500Y-25134500D01*
X59678502Y-25066379D01*
X59732158Y-25019886D01*
X59784500Y-25008500D01*
X60665500Y-25008500D01*
X60733621Y-25028502D01*
X60780114Y-25082158D01*
X60791500Y-25134500D01*
X60791500Y-26965500D01*
X60771498Y-27033621D01*
X60717842Y-27080114D01*
X60665500Y-27091500D01*
X52873239Y-27091500D01*
X52805118Y-27071498D01*
X52758625Y-27017842D01*
X52748521Y-26947568D01*
X52778015Y-26882988D01*
X52784144Y-26876405D01*
X53046234Y-26614315D01*
X53058625Y-26603448D01*
X53077437Y-26589013D01*
X53083987Y-26583987D01*
X53108474Y-26552075D01*
X53108478Y-26552071D01*
X53181524Y-26456876D01*
X53242838Y-26308851D01*
X53248428Y-26266391D01*
X53258500Y-26189885D01*
X53258500Y-26189880D01*
X53263750Y-26150000D01*
X53259578Y-26118307D01*
X53258500Y-26101864D01*
X53258500Y-26049950D01*
X53278502Y-25981829D01*
X53295405Y-25960855D01*
X53324453Y-25931807D01*
X53328489Y-25924983D01*
X53328491Y-25924980D01*
X53405108Y-25795427D01*
X53405110Y-25795423D01*
X53409145Y-25788601D01*
X53414959Y-25768591D01*
X53435033Y-25699494D01*
X53455562Y-25628831D01*
X53458500Y-25591502D01*
X53458500Y-24434500D01*
X53478502Y-24366379D01*
X53532158Y-24319886D01*
X53584500Y-24308500D01*
X53816502Y-24308500D01*
X53818950Y-24308307D01*
X53818958Y-24308307D01*
X53847421Y-24306067D01*
X53847426Y-24306066D01*
X53853831Y-24305562D01*
X53967495Y-24272540D01*
X54005988Y-24261357D01*
X54005990Y-24261356D01*
X54013601Y-24259145D01*
X54073451Y-24223750D01*
X54149980Y-24178491D01*
X54149983Y-24178489D01*
X54156807Y-24174453D01*
X54274453Y-24056807D01*
X54278489Y-24049983D01*
X54278491Y-24049980D01*
X54355108Y-23920427D01*
X54359145Y-23913601D01*
X54372305Y-23868305D01*
X54404768Y-23756565D01*
X54442981Y-23696730D01*
X54509318Y-23666796D01*
X54549240Y-23661540D01*
X54576957Y-23657891D01*
X54576958Y-23657891D01*
X54588163Y-23656416D01*
X54588164Y-23656416D01*
X54596351Y-23655338D01*
X54744376Y-23594024D01*
X54750929Y-23588996D01*
X54839560Y-23520987D01*
X54839565Y-23520983D01*
X54839572Y-23520977D01*
X54839575Y-23520974D01*
X54868798Y-23498550D01*
X54935017Y-23472951D01*
X55004565Y-23487216D01*
G37*
%TD.AperFunction*%
%TA.AperFunction,Conductor*%
G36*
X33922580Y-20595261D02*
G01*
X34366230Y-21038911D01*
X34378616Y-21053323D01*
X34387149Y-21064918D01*
X34387154Y-21064923D01*
X34391492Y-21070818D01*
X34397070Y-21075557D01*
X34397073Y-21075560D01*
X34431768Y-21105035D01*
X34439284Y-21111965D01*
X34444980Y-21117661D01*
X34447841Y-21119924D01*
X34447846Y-21119929D01*
X34467266Y-21135293D01*
X34470667Y-21138082D01*
X34526285Y-21185333D01*
X34532798Y-21188659D01*
X34537837Y-21192020D01*
X34542979Y-21195196D01*
X34548716Y-21199734D01*
X34614875Y-21230655D01*
X34618769Y-21232558D01*
X34683808Y-21265769D01*
X34690917Y-21267508D01*
X34696551Y-21269604D01*
X34702321Y-21271523D01*
X34708950Y-21274622D01*
X34716113Y-21276112D01*
X34716116Y-21276113D01*
X34766830Y-21286661D01*
X34780435Y-21289491D01*
X34784701Y-21290457D01*
X34855610Y-21307808D01*
X34861212Y-21308156D01*
X34861215Y-21308156D01*
X34866764Y-21308500D01*
X34866762Y-21308535D01*
X34870734Y-21308775D01*
X34874955Y-21309152D01*
X34882115Y-21310641D01*
X34959542Y-21308546D01*
X34962950Y-21308500D01*
X35497737Y-21308500D01*
X35565858Y-21328502D01*
X35612351Y-21382158D01*
X35622455Y-21452432D01*
X35592961Y-21517012D01*
X35527915Y-21556399D01*
X35524319Y-21556818D01*
X35455673Y-21581735D01*
X35451545Y-21583152D01*
X35389064Y-21603393D01*
X35389062Y-21603394D01*
X35382101Y-21605649D01*
X35375846Y-21609445D01*
X35370372Y-21611951D01*
X35364942Y-21614670D01*
X35358063Y-21617167D01*
X35351943Y-21621180D01*
X35351942Y-21621180D01*
X35297024Y-21657186D01*
X35293320Y-21659523D01*
X35230893Y-21697405D01*
X35226685Y-21701121D01*
X35226684Y-21701122D01*
X35225605Y-21702075D01*
X35222516Y-21704803D01*
X35222492Y-21704776D01*
X35219500Y-21707429D01*
X35216267Y-21710132D01*
X35210148Y-21714144D01*
X35164709Y-21762110D01*
X35156872Y-21770383D01*
X35154494Y-21772825D01*
X35096733Y-21830586D01*
X35061285Y-21855500D01*
X35058107Y-21856995D01*
X35051437Y-21859266D01*
X35045439Y-21862956D01*
X35045437Y-21862957D01*
X34922148Y-21938805D01*
X34895991Y-21954897D01*
X34882125Y-21968476D01*
X34775810Y-22072587D01*
X34765594Y-22082591D01*
X34666728Y-22236001D01*
X34664317Y-22242624D01*
X34664316Y-22242627D01*
X34606717Y-22400879D01*
X34606716Y-22400884D01*
X34604307Y-22407502D01*
X34581433Y-22588570D01*
X34599242Y-22770206D01*
X34656851Y-22943383D01*
X34660498Y-22949405D01*
X34660499Y-22949407D01*
X34747744Y-23093468D01*
X34747747Y-23093471D01*
X34751394Y-23099494D01*
X34878175Y-23230778D01*
X34915058Y-23254914D01*
X35024992Y-23326854D01*
X35024996Y-23326856D01*
X35030890Y-23330713D01*
X35037494Y-23333169D01*
X35037502Y-23333173D01*
X35075765Y-23347403D01*
X35132641Y-23389895D01*
X35157515Y-23456392D01*
X35142490Y-23525780D01*
X35092335Y-23576030D01*
X35031845Y-23591500D01*
X30148136Y-23591500D01*
X30131690Y-23590422D01*
X30108188Y-23587328D01*
X30100000Y-23586250D01*
X30091812Y-23587328D01*
X30060129Y-23591499D01*
X30060120Y-23591500D01*
X30060115Y-23591500D01*
X29941150Y-23607162D01*
X29933521Y-23610322D01*
X29800753Y-23665316D01*
X29800751Y-23665317D01*
X29793125Y-23668476D01*
X29782994Y-23676250D01*
X29697928Y-23741523D01*
X29697925Y-23741526D01*
X29666013Y-23766013D01*
X29660983Y-23772568D01*
X29646548Y-23791379D01*
X29635681Y-23803770D01*
X28868766Y-24570685D01*
X28856375Y-24581552D01*
X28831013Y-24601013D01*
X28806526Y-24632925D01*
X28806523Y-24632928D01*
X28733476Y-24728124D01*
X28706671Y-24792838D01*
X28676069Y-24866716D01*
X28631520Y-24921997D01*
X28617843Y-24930259D01*
X28538607Y-24971507D01*
X28534474Y-24974610D01*
X28534471Y-24974612D01*
X28366651Y-25100615D01*
X28359965Y-25105635D01*
X28280711Y-25188570D01*
X28279283Y-25190064D01*
X28217759Y-25225494D01*
X28146846Y-25222037D01*
X28089060Y-25180791D01*
X28070207Y-25147243D01*
X28028767Y-25036703D01*
X28025615Y-25028295D01*
X27938261Y-24911739D01*
X27821705Y-24824385D01*
X27685316Y-24773255D01*
X27623134Y-24766500D01*
X25826866Y-24766500D01*
X25764684Y-24773255D01*
X25628295Y-24824385D01*
X25511739Y-24911739D01*
X25424385Y-25028295D01*
X25373255Y-25164684D01*
X25366500Y-25226866D01*
X25366500Y-26965500D01*
X25346498Y-27033621D01*
X25292842Y-27080114D01*
X25240500Y-27091500D01*
X22265621Y-27091500D01*
X22197500Y-27071498D01*
X22151007Y-27017842D01*
X22140903Y-26947568D01*
X22147637Y-26921275D01*
X22148971Y-26917716D01*
X22148971Y-26917715D01*
X22151745Y-26910316D01*
X22158500Y-26848134D01*
X22158500Y-26709500D01*
X22178502Y-26641379D01*
X22232158Y-26594886D01*
X22284500Y-26583500D01*
X22639364Y-26583500D01*
X22655807Y-26584578D01*
X22687500Y-26588750D01*
X22695689Y-26587672D01*
X22727374Y-26583501D01*
X22727384Y-26583500D01*
X22727385Y-26583500D01*
X22826957Y-26570391D01*
X22838164Y-26568916D01*
X22838166Y-26568915D01*
X22846351Y-26567838D01*
X22994376Y-26506524D01*
X23089572Y-26433477D01*
X23089575Y-26433474D01*
X23121487Y-26408987D01*
X23126517Y-26402432D01*
X23140952Y-26383621D01*
X23151819Y-26371230D01*
X23177644Y-26345405D01*
X23239956Y-26311379D01*
X23266739Y-26308500D01*
X24398134Y-26308500D01*
X24460316Y-26301745D01*
X24596705Y-26250615D01*
X24713261Y-26163261D01*
X24800615Y-26046705D01*
X24851745Y-25910316D01*
X24858500Y-25848134D01*
X24858500Y-24326866D01*
X24851745Y-24264684D01*
X24800615Y-24128295D01*
X24713261Y-24011739D01*
X24712026Y-24010813D01*
X24679792Y-23951783D01*
X24684857Y-23880968D01*
X24711414Y-23839645D01*
X24713261Y-23838261D01*
X24725088Y-23822481D01*
X24760552Y-23775161D01*
X24817411Y-23732646D01*
X24888230Y-23727620D01*
X24925517Y-23742272D01*
X25040495Y-23810269D01*
X25057404Y-23820269D01*
X25065015Y-23822480D01*
X25065017Y-23822481D01*
X25094877Y-23831156D01*
X25213534Y-23865629D01*
X25219941Y-23866133D01*
X25219945Y-23866134D01*
X25247556Y-23868307D01*
X25247562Y-23868307D01*
X25250011Y-23868500D01*
X25499848Y-23868500D01*
X25749988Y-23868499D01*
X25786466Y-23865629D01*
X25905123Y-23831156D01*
X25934983Y-23822481D01*
X25934985Y-23822480D01*
X25942596Y-23820269D01*
X25949421Y-23816233D01*
X25949425Y-23816231D01*
X26057273Y-23752450D01*
X26126089Y-23734990D01*
X26156910Y-23741971D01*
X26157404Y-23740269D01*
X26313534Y-23785629D01*
X26319941Y-23786133D01*
X26319945Y-23786134D01*
X26347556Y-23788307D01*
X26347562Y-23788307D01*
X26350011Y-23788500D01*
X26599848Y-23788500D01*
X26849988Y-23788499D01*
X26886466Y-23785629D01*
X26991262Y-23755183D01*
X27034987Y-23742480D01*
X27034990Y-23742479D01*
X27041142Y-23740691D01*
X27041145Y-23740691D01*
X27042596Y-23740269D01*
X27042664Y-23740503D01*
X27108777Y-23732344D01*
X27152491Y-23748224D01*
X27236533Y-23797926D01*
X27257404Y-23810269D01*
X27265015Y-23812480D01*
X27265017Y-23812481D01*
X27309991Y-23825547D01*
X27413534Y-23855629D01*
X27419941Y-23856133D01*
X27419945Y-23856134D01*
X27447556Y-23858307D01*
X27447562Y-23858307D01*
X27450011Y-23858500D01*
X27699848Y-23858500D01*
X27949988Y-23858499D01*
X27986466Y-23855629D01*
X28108176Y-23820269D01*
X28134983Y-23812481D01*
X28134985Y-23812480D01*
X28142596Y-23810269D01*
X28163467Y-23797926D01*
X28247509Y-23748224D01*
X28316325Y-23730765D01*
X28356859Y-23739947D01*
X28357404Y-23740269D01*
X28365010Y-23742479D01*
X28365013Y-23742480D01*
X28446015Y-23766013D01*
X28513534Y-23785629D01*
X28519941Y-23786133D01*
X28519945Y-23786134D01*
X28547556Y-23788307D01*
X28547562Y-23788307D01*
X28550011Y-23788500D01*
X28799848Y-23788500D01*
X29049988Y-23788499D01*
X29086466Y-23785629D01*
X29191262Y-23755183D01*
X29234983Y-23742481D01*
X29234985Y-23742480D01*
X29242596Y-23740269D01*
X29255997Y-23732344D01*
X29375720Y-23661540D01*
X29382541Y-23657506D01*
X29497506Y-23542541D01*
X29538661Y-23472951D01*
X29576234Y-23409419D01*
X29576234Y-23409418D01*
X29580269Y-23402596D01*
X29582671Y-23394330D01*
X29618032Y-23272614D01*
X29625629Y-23246466D01*
X29627036Y-23228598D01*
X29628307Y-23212444D01*
X29628307Y-23212438D01*
X29628500Y-23209989D01*
X29628499Y-22810012D01*
X29627663Y-22799380D01*
X29642262Y-22729900D01*
X29692107Y-22679343D01*
X29753275Y-22663500D01*
X30882295Y-22663500D01*
X30890865Y-22663792D01*
X30937931Y-22667001D01*
X30937935Y-22667001D01*
X30945507Y-22667517D01*
X30952984Y-22666212D01*
X30952987Y-22666212D01*
X31005186Y-22657102D01*
X31011710Y-22656139D01*
X31064288Y-22649776D01*
X31071832Y-22648863D01*
X31078936Y-22646179D01*
X31084750Y-22644751D01*
X31092904Y-22642520D01*
X31098612Y-22640797D01*
X31106093Y-22639491D01*
X31113041Y-22636441D01*
X31113044Y-22636440D01*
X31138192Y-22625400D01*
X31161585Y-22615131D01*
X31167641Y-22612659D01*
X31224322Y-22591242D01*
X31230584Y-22586939D01*
X31235893Y-22584163D01*
X31243247Y-22580070D01*
X31248402Y-22577021D01*
X31255357Y-22573968D01*
X31303430Y-22537080D01*
X31308720Y-22533237D01*
X31358665Y-22498911D01*
X31375413Y-22480114D01*
X31397961Y-22454806D01*
X31402943Y-22449530D01*
X31996687Y-21855786D01*
X32014415Y-21841041D01*
X32054906Y-21813213D01*
X32054908Y-21813211D01*
X32061165Y-21808911D01*
X32080920Y-21786739D01*
X32100461Y-21764806D01*
X32105443Y-21759530D01*
X32569568Y-21295405D01*
X32631880Y-21261379D01*
X32658663Y-21258500D01*
X33116502Y-21258500D01*
X33118950Y-21258307D01*
X33118958Y-21258307D01*
X33147421Y-21256067D01*
X33147426Y-21256066D01*
X33153831Y-21255562D01*
X33266400Y-21222858D01*
X33305988Y-21211357D01*
X33305990Y-21211356D01*
X33313601Y-21209145D01*
X33372020Y-21174596D01*
X33449980Y-21128491D01*
X33449983Y-21128489D01*
X33456807Y-21124453D01*
X33574453Y-21006807D01*
X33578489Y-20999983D01*
X33578491Y-20999980D01*
X33655108Y-20870427D01*
X33659145Y-20863601D01*
X33665026Y-20843360D01*
X33685379Y-20773303D01*
X33705562Y-20703831D01*
X33707873Y-20674469D01*
X33733159Y-20608128D01*
X33790298Y-20565989D01*
X33861148Y-20561430D01*
X33922580Y-20595261D01*
G37*
%TD.AperFunction*%
%TA.AperFunction,Conductor*%
G36*
X33526164Y-24828502D02*
G01*
X33572657Y-24882158D01*
X33582761Y-24952432D01*
X33553267Y-25017012D01*
X33533696Y-25035260D01*
X33453781Y-25095262D01*
X33439965Y-25105635D01*
X33427381Y-25118803D01*
X33292336Y-25260120D01*
X33285629Y-25267138D01*
X33282720Y-25271403D01*
X33282714Y-25271411D01*
X33236008Y-25339880D01*
X33159743Y-25451680D01*
X33124883Y-25526780D01*
X33071188Y-25642457D01*
X33065688Y-25654305D01*
X33005989Y-25869570D01*
X32982251Y-26091695D01*
X32982548Y-26096848D01*
X32982548Y-26096851D01*
X32991121Y-26245528D01*
X32995110Y-26314715D01*
X32996247Y-26319761D01*
X32996248Y-26319767D01*
X33018392Y-26418023D01*
X33044222Y-26532639D01*
X33105673Y-26683976D01*
X33123321Y-26727437D01*
X33128266Y-26739616D01*
X33212090Y-26876405D01*
X33226344Y-26899665D01*
X33244882Y-26968199D01*
X33223426Y-27035875D01*
X33168786Y-27081208D01*
X33118911Y-27091500D01*
X30489143Y-27091500D01*
X30421022Y-27071498D01*
X30374529Y-27017842D01*
X30364425Y-26947568D01*
X30386820Y-26891974D01*
X30430435Y-26831277D01*
X30433453Y-26827077D01*
X30443737Y-26806270D01*
X30530136Y-26631453D01*
X30530137Y-26631451D01*
X30532430Y-26626811D01*
X30591170Y-26433477D01*
X30595865Y-26418023D01*
X30595865Y-26418021D01*
X30597370Y-26413069D01*
X30626529Y-26191590D01*
X30626633Y-26187327D01*
X30628074Y-26128365D01*
X30628074Y-26128361D01*
X30628156Y-26125000D01*
X30609852Y-25902361D01*
X30555431Y-25685702D01*
X30466354Y-25480840D01*
X30375163Y-25339880D01*
X30347822Y-25297617D01*
X30347820Y-25297614D01*
X30345014Y-25293277D01*
X30341532Y-25289450D01*
X30198303Y-25132043D01*
X30167251Y-25068197D01*
X30175646Y-24997698D01*
X30202401Y-24958148D01*
X30315144Y-24845405D01*
X30377456Y-24811379D01*
X30404239Y-24808500D01*
X33458043Y-24808500D01*
X33526164Y-24828502D01*
G37*
%TD.AperFunction*%
%TA.AperFunction,Conductor*%
G36*
X51761960Y-21783824D02*
G01*
X51812290Y-21813589D01*
X51857404Y-21840269D01*
X51865015Y-21842480D01*
X51865017Y-21842481D01*
X51947692Y-21866500D01*
X52013534Y-21885629D01*
X52019941Y-21886133D01*
X52019945Y-21886134D01*
X52047556Y-21888307D01*
X52047562Y-21888307D01*
X52050011Y-21888500D01*
X52165761Y-21888500D01*
X52233882Y-21908502D01*
X52254856Y-21925405D01*
X52525685Y-22196234D01*
X52536552Y-22208625D01*
X52556013Y-22233987D01*
X52562563Y-22239013D01*
X52587921Y-22258471D01*
X52587928Y-22258477D01*
X52635190Y-22294742D01*
X52683125Y-22331524D01*
X52713292Y-22344020D01*
X52713718Y-22344196D01*
X52768999Y-22388744D01*
X52791500Y-22460605D01*
X52791500Y-23565500D01*
X52771498Y-23633621D01*
X52717842Y-23680114D01*
X52665500Y-23691500D01*
X52433498Y-23691500D01*
X52431050Y-23691693D01*
X52431042Y-23691693D01*
X52402579Y-23693933D01*
X52402574Y-23693934D01*
X52396169Y-23694438D01*
X52296231Y-23723472D01*
X52244012Y-23738643D01*
X52244010Y-23738644D01*
X52236399Y-23740855D01*
X52229572Y-23744892D01*
X52229573Y-23744892D01*
X52100020Y-23821509D01*
X52100017Y-23821511D01*
X52093193Y-23825547D01*
X51975547Y-23943193D01*
X51971511Y-23950017D01*
X51971509Y-23950020D01*
X51919814Y-24037432D01*
X51890855Y-24086399D01*
X51888644Y-24094010D01*
X51888643Y-24094012D01*
X51876526Y-24135720D01*
X51844438Y-24246169D01*
X51843934Y-24252574D01*
X51843933Y-24252579D01*
X51842362Y-24272540D01*
X51841500Y-24283498D01*
X51841500Y-25591502D01*
X51844438Y-25628831D01*
X51864967Y-25699494D01*
X51885042Y-25768591D01*
X51890855Y-25788601D01*
X51937725Y-25867853D01*
X51955184Y-25936666D01*
X51932668Y-26003998D01*
X51918368Y-26021084D01*
X51847756Y-26091695D01*
X51784855Y-26154596D01*
X51722543Y-26188621D01*
X51695760Y-26191500D01*
X49694070Y-26191500D01*
X49625949Y-26171498D01*
X49579456Y-26117842D01*
X49569352Y-26047568D01*
X49570881Y-26039911D01*
X49572370Y-26035992D01*
X49576787Y-26004563D01*
X49597219Y-25859183D01*
X49597219Y-25859180D01*
X49597770Y-25855261D01*
X49598089Y-25832403D01*
X49585141Y-25716972D01*
X49588650Y-25670315D01*
X49589677Y-25666481D01*
X49592838Y-25658851D01*
X49594055Y-25649610D01*
X49598153Y-25618477D01*
X49598153Y-25618476D01*
X49608500Y-25539885D01*
X49608500Y-25539880D01*
X49612672Y-25508189D01*
X49613750Y-25500000D01*
X49609578Y-25468307D01*
X49608500Y-25451864D01*
X49608500Y-24148144D01*
X49609578Y-24131698D01*
X49612673Y-24108188D01*
X49613751Y-24100000D01*
X49592838Y-23941149D01*
X49531524Y-23793124D01*
X49526495Y-23786570D01*
X49522368Y-23779422D01*
X49524589Y-23778140D01*
X49503626Y-23723895D01*
X49517899Y-23654348D01*
X49567507Y-23603558D01*
X49590246Y-23593597D01*
X49664200Y-23569568D01*
X49735167Y-23567542D01*
X49795964Y-23604205D01*
X49810278Y-23623099D01*
X49822019Y-23642072D01*
X49826522Y-23649348D01*
X49951697Y-23774305D01*
X49957927Y-23778145D01*
X49957928Y-23778146D01*
X50095090Y-23862694D01*
X50102262Y-23867115D01*
X50144028Y-23880968D01*
X50263611Y-23920632D01*
X50263613Y-23920632D01*
X50270139Y-23922797D01*
X50276975Y-23923497D01*
X50276978Y-23923498D01*
X50320031Y-23927909D01*
X50374600Y-23933500D01*
X51025400Y-23933500D01*
X51028646Y-23933163D01*
X51028650Y-23933163D01*
X51124308Y-23923238D01*
X51124312Y-23923237D01*
X51131166Y-23922526D01*
X51137702Y-23920345D01*
X51137704Y-23920345D01*
X51278897Y-23873239D01*
X51298946Y-23866550D01*
X51449348Y-23773478D01*
X51574305Y-23648303D01*
X51601488Y-23604205D01*
X51663275Y-23503968D01*
X51663276Y-23503966D01*
X51667115Y-23497738D01*
X51705176Y-23382988D01*
X51720632Y-23336389D01*
X51720632Y-23336387D01*
X51722797Y-23329861D01*
X51733500Y-23225400D01*
X51733500Y-22549600D01*
X51732203Y-22537102D01*
X51723238Y-22450692D01*
X51723237Y-22450688D01*
X51722526Y-22443834D01*
X51717936Y-22430074D01*
X51668868Y-22283002D01*
X51666550Y-22276054D01*
X51573478Y-22125652D01*
X51568295Y-22120478D01*
X51559373Y-22111571D01*
X51525295Y-22049288D01*
X51530605Y-21977657D01*
X51580033Y-21847535D01*
X51622921Y-21790957D01*
X51689590Y-21766547D01*
X51761960Y-21783824D01*
G37*
%TD.AperFunction*%
%TA.AperFunction,Conductor*%
G36*
X47103493Y-24259896D02*
G01*
X47139561Y-24283498D01*
X47209189Y-24329062D01*
X47380250Y-24392679D01*
X47387228Y-24393610D01*
X47387232Y-24393611D01*
X47470703Y-24404748D01*
X47561155Y-24416816D01*
X47568166Y-24416178D01*
X47568170Y-24416178D01*
X47645343Y-24409154D01*
X47668036Y-24407089D01*
X47737689Y-24420834D01*
X47788854Y-24470055D01*
X47801557Y-24501500D01*
X47802522Y-24509473D01*
X47805500Y-24516996D01*
X47805501Y-24516998D01*
X47810780Y-24530331D01*
X47817258Y-24601031D01*
X47781786Y-24666734D01*
X47770627Y-24677662D01*
X47765594Y-24682591D01*
X47666728Y-24836001D01*
X47664317Y-24842624D01*
X47664316Y-24842627D01*
X47606717Y-25000879D01*
X47606716Y-25000884D01*
X47604307Y-25007502D01*
X47581433Y-25188570D01*
X47599242Y-25370206D01*
X47656851Y-25543383D01*
X47660498Y-25549405D01*
X47660499Y-25549407D01*
X47747744Y-25693468D01*
X47747747Y-25693471D01*
X47751394Y-25699494D01*
X47878175Y-25830778D01*
X47884068Y-25834634D01*
X47884076Y-25834641D01*
X47917058Y-25856224D01*
X47963106Y-25910262D01*
X47973463Y-25949360D01*
X47978684Y-26002609D01*
X47986375Y-26025729D01*
X47988899Y-26096678D01*
X47952662Y-26157731D01*
X47889171Y-26189501D01*
X47866817Y-26191500D01*
X47229391Y-26191500D01*
X47161270Y-26171498D01*
X47139987Y-26154286D01*
X47135330Y-26149596D01*
X47135326Y-26149593D01*
X47130366Y-26144598D01*
X47114669Y-26134636D01*
X46982225Y-26050585D01*
X46982224Y-26050585D01*
X46976270Y-26046806D01*
X46976429Y-26046555D01*
X46926808Y-26001302D01*
X46908500Y-25935893D01*
X46908500Y-24365328D01*
X46928502Y-24297207D01*
X46982158Y-24250714D01*
X47052432Y-24240610D01*
X47103493Y-24259896D01*
G37*
%TD.AperFunction*%
%TA.AperFunction,Conductor*%
G36*
X40089257Y-20985477D02*
G01*
X40089395Y-20985180D01*
X40092151Y-20986465D01*
X40094270Y-20987189D01*
X40102262Y-20992115D01*
X40156124Y-21009980D01*
X40263611Y-21045632D01*
X40263613Y-21045632D01*
X40270139Y-21047797D01*
X40276975Y-21048497D01*
X40276978Y-21048498D01*
X40320031Y-21052909D01*
X40374600Y-21058500D01*
X41025400Y-21058500D01*
X41028650Y-21058163D01*
X41031892Y-21057995D01*
X41031949Y-21059096D01*
X41097343Y-21071161D01*
X41149114Y-21119743D01*
X41166500Y-21183610D01*
X41166501Y-21436192D01*
X41166501Y-21663934D01*
X41146499Y-21732055D01*
X41116067Y-21764759D01*
X41086739Y-21786739D01*
X41064759Y-21816067D01*
X41007900Y-21858580D01*
X40963934Y-21866500D01*
X40508962Y-21866501D01*
X40475076Y-21866501D01*
X40470992Y-21867039D01*
X40470986Y-21867039D01*
X40371626Y-21880119D01*
X40371624Y-21880120D01*
X40363439Y-21881197D01*
X40355810Y-21884357D01*
X40347832Y-21886495D01*
X40347368Y-21884762D01*
X40313504Y-21891500D01*
X39748136Y-21891500D01*
X39731693Y-21890422D01*
X39700000Y-21886250D01*
X39691811Y-21887328D01*
X39660126Y-21891499D01*
X39660117Y-21891500D01*
X39660115Y-21891500D01*
X39660109Y-21891501D01*
X39660107Y-21891501D01*
X39570523Y-21903295D01*
X39549337Y-21906084D01*
X39549336Y-21906084D01*
X39541149Y-21907162D01*
X39393124Y-21968476D01*
X39386573Y-21973503D01*
X39386571Y-21973504D01*
X39297928Y-22041523D01*
X39297925Y-22041526D01*
X39266013Y-22066013D01*
X39260983Y-22072568D01*
X39246548Y-22091379D01*
X39235681Y-22103770D01*
X37784856Y-23554595D01*
X37722544Y-23588621D01*
X37695761Y-23591500D01*
X35776695Y-23591500D01*
X35708574Y-23571498D01*
X35662081Y-23517842D01*
X35651977Y-23447568D01*
X35681471Y-23382988D01*
X35726281Y-23353281D01*
X35725072Y-23350615D01*
X35731487Y-23347705D01*
X35738187Y-23345528D01*
X35860503Y-23272613D01*
X35929255Y-23254914D01*
X35975386Y-23265958D01*
X35977262Y-23267115D01*
X35984213Y-23269421D01*
X35984214Y-23269421D01*
X36138611Y-23320632D01*
X36138613Y-23320632D01*
X36145139Y-23322797D01*
X36151975Y-23323497D01*
X36151978Y-23323498D01*
X36184735Y-23326854D01*
X36249600Y-23333500D01*
X36925400Y-23333500D01*
X36928646Y-23333163D01*
X36928650Y-23333163D01*
X37024308Y-23323238D01*
X37024312Y-23323237D01*
X37031166Y-23322526D01*
X37037702Y-23320345D01*
X37037704Y-23320345D01*
X37186612Y-23270665D01*
X37198946Y-23266550D01*
X37349348Y-23173478D01*
X37474305Y-23048303D01*
X37520435Y-22973467D01*
X37563275Y-22903968D01*
X37563276Y-22903966D01*
X37567115Y-22897738D01*
X37607198Y-22776890D01*
X37620632Y-22736389D01*
X37620632Y-22736387D01*
X37622797Y-22729861D01*
X37633500Y-22625400D01*
X37633500Y-21974600D01*
X37624766Y-21890422D01*
X37623238Y-21875692D01*
X37623237Y-21875688D01*
X37622526Y-21868834D01*
X37618078Y-21855500D01*
X37568868Y-21708002D01*
X37566550Y-21701054D01*
X37473478Y-21550652D01*
X37456666Y-21533869D01*
X37386441Y-21463766D01*
X37352362Y-21401483D01*
X37357365Y-21330663D01*
X37399862Y-21273790D01*
X37411320Y-21266140D01*
X37474981Y-21228491D01*
X37474987Y-21228486D01*
X37481807Y-21224453D01*
X37599453Y-21106807D01*
X37601706Y-21102998D01*
X37657996Y-21062345D01*
X37728888Y-21058494D01*
X37790609Y-21093582D01*
X37797276Y-21101276D01*
X37800547Y-21106807D01*
X37918193Y-21224453D01*
X37925017Y-21228489D01*
X37925020Y-21228491D01*
X37990885Y-21267443D01*
X38061399Y-21309145D01*
X38069010Y-21311356D01*
X38069012Y-21311357D01*
X38086715Y-21316500D01*
X38221169Y-21355562D01*
X38227574Y-21356066D01*
X38227579Y-21356067D01*
X38256042Y-21358307D01*
X38256050Y-21358307D01*
X38258498Y-21358500D01*
X39416502Y-21358500D01*
X39418950Y-21358307D01*
X39418958Y-21358307D01*
X39447421Y-21356067D01*
X39447426Y-21356066D01*
X39453831Y-21355562D01*
X39588285Y-21316500D01*
X39605988Y-21311357D01*
X39605990Y-21311356D01*
X39613601Y-21309145D01*
X39684115Y-21267443D01*
X39749980Y-21228491D01*
X39749983Y-21228489D01*
X39756807Y-21224453D01*
X39874453Y-21106807D01*
X39919697Y-21030304D01*
X39971589Y-20981853D01*
X40041439Y-20969148D01*
X40089257Y-20985477D01*
G37*
%TD.AperFunction*%
%TA.AperFunction,Conductor*%
G36*
X53633621Y-18128502D02*
G01*
X53680114Y-18182158D01*
X53691500Y-18234500D01*
X53691500Y-18573534D01*
X53671498Y-18641655D01*
X53617842Y-18688148D01*
X53550582Y-18698648D01*
X53405715Y-18681373D01*
X53398712Y-18682109D01*
X53398711Y-18682109D01*
X53231216Y-18699713D01*
X53231212Y-18699714D01*
X53224208Y-18700450D01*
X53217537Y-18702721D01*
X53058107Y-18756995D01*
X53058104Y-18756996D01*
X53051437Y-18759266D01*
X53045439Y-18762956D01*
X53045437Y-18762957D01*
X52901992Y-18851205D01*
X52895991Y-18854897D01*
X52842620Y-18907162D01*
X52774843Y-18973534D01*
X52765594Y-18982591D01*
X52666728Y-19136001D01*
X52664317Y-19142624D01*
X52664316Y-19142627D01*
X52633027Y-19228594D01*
X52590933Y-19285766D01*
X52524612Y-19311104D01*
X52514626Y-19311500D01*
X52359217Y-19311500D01*
X52291096Y-19291498D01*
X52270122Y-19274595D01*
X52099293Y-19103766D01*
X52088426Y-19091375D01*
X52073991Y-19072563D01*
X52068965Y-19066013D01*
X52037053Y-19041526D01*
X52037050Y-19041523D01*
X51999201Y-19012480D01*
X51948407Y-18973504D01*
X51948405Y-18973503D01*
X51941854Y-18968476D01*
X51793829Y-18907162D01*
X51785644Y-18906084D01*
X51785642Y-18906084D01*
X51768526Y-18903831D01*
X51674871Y-18891501D01*
X51674869Y-18891501D01*
X51674863Y-18891500D01*
X51674861Y-18891500D01*
X51674852Y-18891499D01*
X51643167Y-18887328D01*
X51634978Y-18886250D01*
X51603285Y-18890422D01*
X51586842Y-18891500D01*
X50064950Y-18891500D01*
X49996829Y-18871498D01*
X49975855Y-18854595D01*
X49956807Y-18835547D01*
X49949983Y-18831511D01*
X49949980Y-18831509D01*
X49820427Y-18754892D01*
X49820428Y-18754892D01*
X49813601Y-18750855D01*
X49805990Y-18748644D01*
X49805988Y-18748643D01*
X49753769Y-18733472D01*
X49653831Y-18704438D01*
X49647426Y-18703934D01*
X49647421Y-18703933D01*
X49618958Y-18701693D01*
X49618950Y-18701693D01*
X49616502Y-18701500D01*
X48308498Y-18701500D01*
X48306050Y-18701693D01*
X48306042Y-18701693D01*
X48277579Y-18703933D01*
X48277574Y-18703934D01*
X48271169Y-18704438D01*
X48171231Y-18733472D01*
X48119012Y-18748643D01*
X48119010Y-18748644D01*
X48111399Y-18750855D01*
X48104572Y-18754892D01*
X48104573Y-18754892D01*
X47975020Y-18831509D01*
X47975017Y-18831511D01*
X47968193Y-18835547D01*
X47850547Y-18953193D01*
X47846511Y-18960017D01*
X47846509Y-18960020D01*
X47805476Y-19029404D01*
X47765855Y-19096399D01*
X47763644Y-19104010D01*
X47763643Y-19104012D01*
X47754350Y-19136001D01*
X47719438Y-19256169D01*
X47718934Y-19262574D01*
X47718933Y-19262579D01*
X47716800Y-19289684D01*
X47716500Y-19293498D01*
X47716500Y-19726502D01*
X47716693Y-19728950D01*
X47716693Y-19728958D01*
X47718651Y-19753831D01*
X47719438Y-19763831D01*
X47765855Y-19923601D01*
X47777021Y-19942481D01*
X47846509Y-20059980D01*
X47846511Y-20059983D01*
X47850547Y-20066807D01*
X47968193Y-20184453D01*
X47975017Y-20188489D01*
X47975020Y-20188491D01*
X48051123Y-20233498D01*
X48111399Y-20269145D01*
X48119010Y-20271356D01*
X48119012Y-20271357D01*
X48171231Y-20286528D01*
X48271169Y-20315562D01*
X48277574Y-20316066D01*
X48277579Y-20316067D01*
X48306042Y-20318307D01*
X48306050Y-20318307D01*
X48308498Y-20318500D01*
X49465500Y-20318500D01*
X49533621Y-20338502D01*
X49580114Y-20392158D01*
X49591500Y-20444500D01*
X49591500Y-20676502D01*
X49591693Y-20678950D01*
X49591693Y-20678958D01*
X49593656Y-20703891D01*
X49594438Y-20713831D01*
X49640855Y-20873601D01*
X49644892Y-20880427D01*
X49721509Y-21009980D01*
X49721511Y-21009983D01*
X49725547Y-21016807D01*
X49843193Y-21134453D01*
X49969490Y-21209145D01*
X49970505Y-21209745D01*
X50018957Y-21261638D01*
X50031662Y-21331488D01*
X50024767Y-21361288D01*
X50004307Y-21417502D01*
X49981433Y-21598570D01*
X49999242Y-21780206D01*
X50003803Y-21793917D01*
X50020563Y-21844299D01*
X50023086Y-21915251D01*
X49986849Y-21976303D01*
X49967316Y-21991210D01*
X49950652Y-22001522D01*
X49945479Y-22006704D01*
X49908736Y-22043511D01*
X49846453Y-22077590D01*
X49775633Y-22072587D01*
X49764681Y-22067892D01*
X49758871Y-22064205D01*
X49716979Y-22049288D01*
X49593574Y-22005345D01*
X49593569Y-22005344D01*
X49586939Y-22002983D01*
X49579951Y-22002150D01*
X49579948Y-22002149D01*
X49429439Y-21984202D01*
X49405715Y-21981373D01*
X49398712Y-21982109D01*
X49398711Y-21982109D01*
X49231216Y-21999713D01*
X49231212Y-21999714D01*
X49224208Y-22000450D01*
X49217537Y-22002721D01*
X49058107Y-22056995D01*
X49058104Y-22056996D01*
X49051437Y-22059266D01*
X49045439Y-22062956D01*
X49045437Y-22062957D01*
X48901992Y-22151205D01*
X48895991Y-22154897D01*
X48890958Y-22159826D01*
X48773346Y-22275000D01*
X48765594Y-22282591D01*
X48666728Y-22436001D01*
X48664317Y-22442624D01*
X48664316Y-22442627D01*
X48657878Y-22460316D01*
X48614292Y-22580070D01*
X48613009Y-22583594D01*
X48570915Y-22640766D01*
X48504594Y-22666104D01*
X48494608Y-22666500D01*
X48317546Y-22666500D01*
X48249425Y-22646498D01*
X48217183Y-22616680D01*
X48153820Y-22533203D01*
X48148632Y-22526368D01*
X48141797Y-22521180D01*
X48141794Y-22521177D01*
X48039938Y-22443864D01*
X47997771Y-22386746D01*
X47993178Y-22315898D01*
X47995119Y-22308350D01*
X48005606Y-22272254D01*
X48006111Y-22265841D01*
X48008307Y-22237940D01*
X48008307Y-22237932D01*
X48008500Y-22235484D01*
X48008500Y-21764516D01*
X48008108Y-21759530D01*
X48006111Y-21734156D01*
X48006110Y-21734151D01*
X48005606Y-21727746D01*
X47970115Y-21605583D01*
X47962106Y-21578016D01*
X47962105Y-21578014D01*
X47959894Y-21570403D01*
X47953336Y-21559313D01*
X47880522Y-21436192D01*
X47876488Y-21429371D01*
X47865405Y-21418288D01*
X47831379Y-21355976D01*
X47828500Y-21329193D01*
X47828500Y-20968136D01*
X47829578Y-20951690D01*
X47832672Y-20928188D01*
X47833750Y-20920000D01*
X47828500Y-20880120D01*
X47828500Y-20880115D01*
X47814438Y-20773303D01*
X47812838Y-20761149D01*
X47751524Y-20613124D01*
X47678478Y-20517929D01*
X47678474Y-20517925D01*
X47678471Y-20517921D01*
X47659016Y-20492566D01*
X47659013Y-20492563D01*
X47653987Y-20486013D01*
X47647432Y-20480983D01*
X47628621Y-20466548D01*
X47616230Y-20455681D01*
X46776815Y-19616266D01*
X46765948Y-19603875D01*
X46751513Y-19585063D01*
X46746487Y-19578513D01*
X46714575Y-19554026D01*
X46714572Y-19554023D01*
X46664368Y-19515500D01*
X46625929Y-19486004D01*
X46625927Y-19486003D01*
X46619376Y-19480976D01*
X46471351Y-19419662D01*
X46463166Y-19418584D01*
X46463164Y-19418584D01*
X46447347Y-19416502D01*
X46352385Y-19404000D01*
X46352376Y-19403999D01*
X46320690Y-19399828D01*
X46320689Y-19399828D01*
X46312500Y-19398750D01*
X46280807Y-19402922D01*
X46264364Y-19404000D01*
X45638575Y-19404000D01*
X45570454Y-19383998D01*
X45531431Y-19344303D01*
X45519148Y-19324453D01*
X45473478Y-19250652D01*
X45348303Y-19125695D01*
X45303252Y-19097925D01*
X45203968Y-19036725D01*
X45203966Y-19036724D01*
X45197738Y-19032885D01*
X45087169Y-18996211D01*
X45036389Y-18979368D01*
X45036387Y-18979368D01*
X45029861Y-18977203D01*
X45023025Y-18976503D01*
X45023022Y-18976502D01*
X44974180Y-18971498D01*
X44925400Y-18966500D01*
X44274600Y-18966500D01*
X44271354Y-18966837D01*
X44271350Y-18966837D01*
X44175693Y-18976762D01*
X44175690Y-18976763D01*
X44168834Y-18977474D01*
X44137494Y-18987930D01*
X44066545Y-18990515D01*
X44005461Y-18954332D01*
X43976622Y-18903562D01*
X43969894Y-18880403D01*
X43895667Y-18754892D01*
X43890522Y-18746192D01*
X43886488Y-18739371D01*
X43770629Y-18623512D01*
X43755575Y-18614609D01*
X43636420Y-18544141D01*
X43636419Y-18544141D01*
X43629597Y-18540106D01*
X43621986Y-18537895D01*
X43621984Y-18537894D01*
X43531832Y-18511703D01*
X43472254Y-18494394D01*
X43465849Y-18493890D01*
X43465844Y-18493889D01*
X43437940Y-18491693D01*
X43437932Y-18491693D01*
X43435484Y-18491500D01*
X42964516Y-18491500D01*
X42962068Y-18491693D01*
X42962060Y-18491693D01*
X42934156Y-18493889D01*
X42934151Y-18493890D01*
X42927746Y-18494394D01*
X42868168Y-18511703D01*
X42778016Y-18537894D01*
X42778014Y-18537895D01*
X42770403Y-18540106D01*
X42763581Y-18544141D01*
X42763580Y-18544141D01*
X42644425Y-18614609D01*
X42629371Y-18623512D01*
X42513512Y-18739371D01*
X42509478Y-18746192D01*
X42438920Y-18865500D01*
X42430106Y-18880403D01*
X42427895Y-18888014D01*
X42427894Y-18888016D01*
X42422645Y-18906084D01*
X42384394Y-19037746D01*
X42383890Y-19044151D01*
X42383889Y-19044156D01*
X42382359Y-19063601D01*
X42381500Y-19074516D01*
X42381500Y-19247322D01*
X42361498Y-19315443D01*
X42307842Y-19361936D01*
X42271946Y-19372244D01*
X42253661Y-19374651D01*
X42246032Y-19377811D01*
X42119143Y-19430370D01*
X42105636Y-19435965D01*
X42105634Y-19435966D01*
X42105635Y-19435966D01*
X42083892Y-19452650D01*
X42067193Y-19465463D01*
X42000972Y-19491063D01*
X41990490Y-19491500D01*
X41864516Y-19491500D01*
X41862068Y-19491693D01*
X41862060Y-19491693D01*
X41834156Y-19493889D01*
X41834151Y-19493890D01*
X41827746Y-19494394D01*
X41821571Y-19496188D01*
X41815232Y-19497346D01*
X41814805Y-19495010D01*
X41754522Y-19494838D01*
X41694906Y-19456284D01*
X41670841Y-19413917D01*
X41669531Y-19409988D01*
X41666550Y-19401054D01*
X41573478Y-19250652D01*
X41448303Y-19125695D01*
X41403252Y-19097925D01*
X41303968Y-19036725D01*
X41303966Y-19036724D01*
X41297738Y-19032885D01*
X41187169Y-18996211D01*
X41136389Y-18979368D01*
X41136387Y-18979368D01*
X41129861Y-18977203D01*
X41123025Y-18976503D01*
X41123022Y-18976502D01*
X41074180Y-18971498D01*
X41025400Y-18966500D01*
X40374600Y-18966500D01*
X40371354Y-18966837D01*
X40371350Y-18966837D01*
X40275692Y-18976762D01*
X40275688Y-18976763D01*
X40268834Y-18977474D01*
X40262298Y-18979655D01*
X40262296Y-18979655D01*
X40172921Y-19009473D01*
X40101972Y-19012057D01*
X40040888Y-18975873D01*
X40009063Y-18912409D01*
X40007433Y-18880066D01*
X40008306Y-18868966D01*
X40008500Y-18866502D01*
X40008500Y-18433498D01*
X40007947Y-18426466D01*
X40006067Y-18402579D01*
X40006066Y-18402574D01*
X40005562Y-18396169D01*
X40003050Y-18387520D01*
X39968806Y-18269653D01*
X39969009Y-18198656D01*
X40007563Y-18139040D01*
X40072228Y-18109732D01*
X40089803Y-18108500D01*
X53565500Y-18108500D01*
X53633621Y-18128502D01*
G37*
%TD.AperFunction*%
%TA.AperFunction,Conductor*%
G36*
X28347895Y-18128502D02*
G01*
X28394388Y-18182158D01*
X28404492Y-18252432D01*
X28374998Y-18317012D01*
X28355339Y-18335326D01*
X28328711Y-18355283D01*
X28286739Y-18386739D01*
X28199385Y-18503295D01*
X28148255Y-18639684D01*
X28141500Y-18701866D01*
X28141500Y-20498134D01*
X28148255Y-20560316D01*
X28199385Y-20696705D01*
X28286739Y-20813261D01*
X28403295Y-20900615D01*
X28539684Y-20951745D01*
X28601866Y-20958500D01*
X30398134Y-20958500D01*
X30460316Y-20951745D01*
X30596705Y-20900615D01*
X30713261Y-20813261D01*
X30800615Y-20696705D01*
X30851745Y-20560316D01*
X30858500Y-20498134D01*
X30858500Y-19666371D01*
X30878502Y-19598250D01*
X30895405Y-19577276D01*
X31127276Y-19345405D01*
X31189588Y-19311379D01*
X31216371Y-19308500D01*
X31591246Y-19308500D01*
X31626398Y-19313503D01*
X31764989Y-19353767D01*
X31764993Y-19353768D01*
X31771169Y-19355562D01*
X31777574Y-19356066D01*
X31777579Y-19356067D01*
X31806042Y-19358307D01*
X31806050Y-19358307D01*
X31808498Y-19358500D01*
X32965500Y-19358500D01*
X33033621Y-19378502D01*
X33080114Y-19432158D01*
X33091500Y-19484500D01*
X33091500Y-19515500D01*
X33071498Y-19583621D01*
X33017842Y-19630114D01*
X32965500Y-19641500D01*
X31808498Y-19641500D01*
X31806050Y-19641693D01*
X31806042Y-19641693D01*
X31777579Y-19643933D01*
X31777574Y-19643934D01*
X31771169Y-19644438D01*
X31671231Y-19673472D01*
X31619012Y-19688643D01*
X31619010Y-19688644D01*
X31611399Y-19690855D01*
X31604572Y-19694892D01*
X31604573Y-19694892D01*
X31475020Y-19771509D01*
X31475017Y-19771511D01*
X31468193Y-19775547D01*
X31350547Y-19893193D01*
X31346511Y-19900017D01*
X31346509Y-19900020D01*
X31322706Y-19940269D01*
X31265855Y-20036399D01*
X31219438Y-20196169D01*
X31216500Y-20233498D01*
X31216500Y-20666502D01*
X31216694Y-20668965D01*
X31216694Y-20668969D01*
X31216749Y-20669670D01*
X31216726Y-20669781D01*
X31216791Y-20671447D01*
X31216373Y-20671463D01*
X31202163Y-20739152D01*
X31162504Y-20783413D01*
X31151335Y-20791089D01*
X31146285Y-20796757D01*
X31146284Y-20796758D01*
X31112039Y-20835194D01*
X31107057Y-20840470D01*
X30667932Y-21279595D01*
X30605620Y-21313621D01*
X30578837Y-21316500D01*
X29373056Y-21316500D01*
X29308920Y-21298955D01*
X29242596Y-21259731D01*
X29234985Y-21257520D01*
X29234983Y-21257519D01*
X29102898Y-21219145D01*
X29086466Y-21214371D01*
X29080059Y-21213867D01*
X29080055Y-21213866D01*
X29052444Y-21211693D01*
X29052438Y-21211693D01*
X29049989Y-21211500D01*
X28800152Y-21211500D01*
X28550012Y-21211501D01*
X28513534Y-21214371D01*
X28464933Y-21228491D01*
X28365017Y-21257519D01*
X28365015Y-21257520D01*
X28357404Y-21259731D01*
X28291080Y-21298955D01*
X28226944Y-21316500D01*
X27173056Y-21316500D01*
X27108920Y-21298955D01*
X27042596Y-21259731D01*
X27034985Y-21257520D01*
X27034983Y-21257519D01*
X26902898Y-21219145D01*
X26886466Y-21214371D01*
X26880059Y-21213867D01*
X26880055Y-21213866D01*
X26852444Y-21211693D01*
X26852438Y-21211693D01*
X26849989Y-21211500D01*
X26832552Y-21211500D01*
X26516164Y-21211501D01*
X26448044Y-21191499D01*
X26427069Y-21174596D01*
X26095833Y-20843360D01*
X26089979Y-20837094D01*
X26058966Y-20801543D01*
X26053970Y-20795816D01*
X26004395Y-20760974D01*
X25999153Y-20757081D01*
X25951454Y-20719681D01*
X25944528Y-20716554D01*
X25939382Y-20713437D01*
X25932094Y-20709280D01*
X25926817Y-20706451D01*
X25920601Y-20702082D01*
X25864162Y-20680077D01*
X25858084Y-20677522D01*
X25809807Y-20655724D01*
X25809805Y-20655723D01*
X25802883Y-20652598D01*
X25795416Y-20651214D01*
X25789719Y-20649429D01*
X25781631Y-20647125D01*
X25775803Y-20645629D01*
X25768723Y-20642868D01*
X25761189Y-20641876D01*
X25708661Y-20634960D01*
X25702156Y-20633929D01*
X25642600Y-20622892D01*
X25635020Y-20623329D01*
X25635019Y-20623329D01*
X25583653Y-20626291D01*
X25576400Y-20626500D01*
X24984500Y-20626500D01*
X24916379Y-20606498D01*
X24869886Y-20552842D01*
X24858500Y-20500500D01*
X24858500Y-19351866D01*
X24851745Y-19289684D01*
X24800615Y-19153295D01*
X24713261Y-19036739D01*
X24596705Y-18949385D01*
X24460316Y-18898255D01*
X24398134Y-18891500D01*
X22751866Y-18891500D01*
X22689684Y-18898255D01*
X22553295Y-18949385D01*
X22436739Y-19036739D01*
X22431358Y-19043919D01*
X22431357Y-19043920D01*
X22385326Y-19105339D01*
X22328467Y-19147854D01*
X22257648Y-19152880D01*
X22195355Y-19118820D01*
X22161365Y-19056489D01*
X22158500Y-19029774D01*
X22158500Y-18351866D01*
X22151745Y-18289684D01*
X22147637Y-18278725D01*
X22147420Y-18275762D01*
X22147144Y-18274600D01*
X22147332Y-18274555D01*
X22142457Y-18207918D01*
X22176380Y-18145550D01*
X22238637Y-18111423D01*
X22265621Y-18108500D01*
X28279774Y-18108500D01*
X28347895Y-18128502D01*
G37*
%TD.AperFunction*%
%TA.AperFunction,Conductor*%
G36*
X55925528Y-18818502D02*
G01*
X55972021Y-18872158D01*
X55982125Y-18942432D01*
X55978405Y-18959648D01*
X55974371Y-18973534D01*
X55971500Y-19010011D01*
X55971501Y-19409988D01*
X55974371Y-19446466D01*
X56019731Y-19602596D01*
X56023766Y-19609418D01*
X56023766Y-19609419D01*
X56087095Y-19716502D01*
X56102494Y-19742541D01*
X56217459Y-19857506D01*
X56224280Y-19861540D01*
X56277803Y-19893193D01*
X56357404Y-19940269D01*
X56365015Y-19942480D01*
X56365017Y-19942481D01*
X56429989Y-19961357D01*
X56513534Y-19985629D01*
X56519941Y-19986133D01*
X56519945Y-19986134D01*
X56547556Y-19988307D01*
X56547562Y-19988307D01*
X56550011Y-19988500D01*
X56799848Y-19988500D01*
X57049988Y-19988499D01*
X57086466Y-19985629D01*
X57228033Y-19944500D01*
X57234983Y-19942481D01*
X57234985Y-19942480D01*
X57242596Y-19940269D01*
X57322198Y-19893193D01*
X57375720Y-19861540D01*
X57382541Y-19857506D01*
X57388147Y-19851900D01*
X57394407Y-19847044D01*
X57396057Y-19849172D01*
X57446954Y-19821379D01*
X57473737Y-19818500D01*
X57665500Y-19818500D01*
X57733621Y-19838502D01*
X57780114Y-19892158D01*
X57791500Y-19944500D01*
X57791500Y-21048134D01*
X57791869Y-21051529D01*
X57791869Y-21051533D01*
X57791909Y-21051900D01*
X57791894Y-21051986D01*
X57792053Y-21054928D01*
X57791359Y-21054966D01*
X57779376Y-21121782D01*
X57731052Y-21173795D01*
X57666645Y-21191500D01*
X54484500Y-21191500D01*
X54416379Y-21171498D01*
X54369886Y-21117842D01*
X54358500Y-21065500D01*
X54358500Y-20134500D01*
X54378502Y-20066379D01*
X54432158Y-20019886D01*
X54484500Y-20008500D01*
X54716502Y-20008500D01*
X54718950Y-20008307D01*
X54718958Y-20008307D01*
X54747421Y-20006067D01*
X54747426Y-20006066D01*
X54753831Y-20005562D01*
X54853769Y-19976528D01*
X54905988Y-19961357D01*
X54905990Y-19961356D01*
X54913601Y-19959145D01*
X54942411Y-19942107D01*
X55049980Y-19878491D01*
X55049983Y-19878489D01*
X55056807Y-19874453D01*
X55174453Y-19756807D01*
X55178489Y-19749983D01*
X55178491Y-19749980D01*
X55255108Y-19620427D01*
X55259145Y-19613601D01*
X55305562Y-19453831D01*
X55306550Y-19441290D01*
X55308307Y-19418958D01*
X55308307Y-19418950D01*
X55308500Y-19416502D01*
X55308500Y-18924500D01*
X55328502Y-18856379D01*
X55382158Y-18809886D01*
X55434500Y-18798500D01*
X55857407Y-18798500D01*
X55925528Y-18818502D01*
G37*
%TD.AperFunction*%
%TA.AperFunction,Conductor*%
G36*
X37790609Y-19193582D02*
G01*
X37797276Y-19201276D01*
X37800547Y-19206807D01*
X37918193Y-19324453D01*
X37925017Y-19328489D01*
X37925020Y-19328491D01*
X38018878Y-19383998D01*
X38061399Y-19409145D01*
X38069010Y-19411356D01*
X38069012Y-19411357D01*
X38097599Y-19419662D01*
X38221169Y-19455562D01*
X38227574Y-19456066D01*
X38227579Y-19456067D01*
X38255269Y-19458246D01*
X38258498Y-19458500D01*
X38259664Y-19458500D01*
X38326778Y-19481095D01*
X38354517Y-19507635D01*
X38378430Y-19538800D01*
X38404029Y-19605017D01*
X38389764Y-19674565D01*
X38340163Y-19725361D01*
X38278466Y-19741500D01*
X38258498Y-19741500D01*
X38256050Y-19741693D01*
X38256042Y-19741693D01*
X38227579Y-19743933D01*
X38227574Y-19743934D01*
X38221169Y-19744438D01*
X38133156Y-19770008D01*
X38069012Y-19788643D01*
X38069010Y-19788644D01*
X38061399Y-19790855D01*
X38054572Y-19794892D01*
X38054573Y-19794892D01*
X37925020Y-19871509D01*
X37925017Y-19871511D01*
X37918193Y-19875547D01*
X37800547Y-19993193D01*
X37798294Y-19997002D01*
X37742004Y-20037655D01*
X37671112Y-20041506D01*
X37609391Y-20006418D01*
X37602724Y-19998724D01*
X37599453Y-19993193D01*
X37481807Y-19875547D01*
X37474983Y-19871511D01*
X37474980Y-19871509D01*
X37345427Y-19794892D01*
X37345428Y-19794892D01*
X37338601Y-19790855D01*
X37330990Y-19788644D01*
X37330988Y-19788643D01*
X37266844Y-19770008D01*
X37178831Y-19744438D01*
X37172426Y-19743934D01*
X37172421Y-19743933D01*
X37143958Y-19741693D01*
X37143950Y-19741693D01*
X37141502Y-19741500D01*
X35983498Y-19741500D01*
X35981050Y-19741693D01*
X35981042Y-19741693D01*
X35952579Y-19743933D01*
X35952574Y-19743934D01*
X35946169Y-19744438D01*
X35939993Y-19746232D01*
X35939989Y-19746233D01*
X35801398Y-19786497D01*
X35766246Y-19791500D01*
X35709500Y-19791500D01*
X35641379Y-19771498D01*
X35594886Y-19717842D01*
X35583500Y-19665500D01*
X35583500Y-19534500D01*
X35603502Y-19466379D01*
X35657158Y-19419886D01*
X35709500Y-19408500D01*
X35766246Y-19408500D01*
X35801398Y-19413503D01*
X35939989Y-19453767D01*
X35939993Y-19453768D01*
X35946169Y-19455562D01*
X35952574Y-19456066D01*
X35952579Y-19456067D01*
X35981042Y-19458307D01*
X35981050Y-19458307D01*
X35983498Y-19458500D01*
X37141502Y-19458500D01*
X37143950Y-19458307D01*
X37143958Y-19458307D01*
X37172421Y-19456067D01*
X37172426Y-19456066D01*
X37178831Y-19455562D01*
X37302401Y-19419662D01*
X37330988Y-19411357D01*
X37330990Y-19411356D01*
X37338601Y-19409145D01*
X37381122Y-19383998D01*
X37474980Y-19328491D01*
X37474983Y-19328489D01*
X37481807Y-19324453D01*
X37599453Y-19206807D01*
X37601706Y-19202998D01*
X37657996Y-19162345D01*
X37728888Y-19158494D01*
X37790609Y-19193582D01*
G37*
%TD.AperFunction*%
%TD*%
M02*
