%TF.GenerationSoftware,KiCad,Pcbnew,(6.0.5)*%
%TF.CreationDate,2022-06-09T17:00:53+03:00*%
%TF.ProjectId,MOTION,4d4f5449-4f4e-42e6-9b69-6361645f7063,0.1*%
%TF.SameCoordinates,Original*%
%TF.FileFunction,Legend,Bot*%
%TF.FilePolarity,Positive*%
%FSLAX46Y46*%
G04 Gerber Fmt 4.6, Leading zero omitted, Abs format (unit mm)*
G04 Created by KiCad (PCBNEW (6.0.5)) date 2022-06-09 17:00:53*
%MOMM*%
%LPD*%
G01*
G04 APERTURE LIST*
%ADD10C,0.120000*%
G04 APERTURE END LIST*
D10*
%TO.C,J2*%
X34725000Y-27167929D02*
X34725000Y-27565000D01*
X34725000Y-36225000D02*
X34725000Y-30225000D01*
X38215000Y-30225000D02*
X25395000Y-30225000D01*
X25395000Y-30225000D02*
X25395000Y-27565000D01*
X30535000Y-27565000D02*
X30535000Y-30225000D01*
X32185000Y-27167929D02*
X32185000Y-27565000D01*
X35615000Y-27565000D02*
X35615000Y-30225000D01*
X31425000Y-27167929D02*
X31425000Y-27565000D01*
X25455000Y-24855000D02*
X25455000Y-26125000D01*
X29645000Y-36225000D02*
X29645000Y-30225000D01*
X27995000Y-27565000D02*
X27995000Y-30225000D01*
X33075000Y-27565000D02*
X33075000Y-30225000D01*
X27105000Y-27235000D02*
X27105000Y-27565000D01*
X25395000Y-27565000D02*
X38215000Y-27565000D01*
X37265000Y-27167929D02*
X37265000Y-27565000D01*
X31425000Y-36225000D02*
X32185000Y-36225000D01*
X28885000Y-30225000D02*
X28885000Y-36225000D01*
X36505000Y-27167929D02*
X36505000Y-27565000D01*
X31425000Y-30225000D02*
X31425000Y-36225000D01*
X32185000Y-36225000D02*
X32185000Y-30225000D01*
X38215000Y-27565000D02*
X38215000Y-30225000D01*
X26765000Y-30225000D02*
X26765000Y-36225000D01*
X27105000Y-36225000D02*
X27105000Y-30225000D01*
X26405000Y-30225000D02*
X26405000Y-36225000D01*
X28885000Y-27167929D02*
X28885000Y-27565000D01*
X26525000Y-30225000D02*
X26525000Y-36225000D01*
X28885000Y-36225000D02*
X29645000Y-36225000D01*
X26645000Y-30225000D02*
X26645000Y-36225000D01*
X26345000Y-27235000D02*
X26345000Y-27565000D01*
X27005000Y-30225000D02*
X27005000Y-36225000D01*
X29645000Y-27167929D02*
X29645000Y-27565000D01*
X26885000Y-30225000D02*
X26885000Y-36225000D01*
X33965000Y-30225000D02*
X33965000Y-36225000D01*
X33965000Y-36225000D02*
X34725000Y-36225000D01*
X26345000Y-36225000D02*
X27105000Y-36225000D01*
X26345000Y-30225000D02*
X26345000Y-36225000D01*
X36505000Y-30225000D02*
X36505000Y-36225000D01*
X26725000Y-24855000D02*
X25455000Y-24855000D01*
X37265000Y-36225000D02*
X37265000Y-30225000D01*
X33965000Y-27167929D02*
X33965000Y-27565000D01*
X36505000Y-36225000D02*
X37265000Y-36225000D01*
%TD*%
M02*
