%TF.GenerationSoftware,KiCad,Pcbnew,(6.0.5)*%
%TF.CreationDate,2022-06-09T17:00:53+03:00*%
%TF.ProjectId,MOTION,4d4f5449-4f4e-42e6-9b69-6361645f7063,0.1*%
%TF.SameCoordinates,Original*%
%TF.FileFunction,Legend,Top*%
%TF.FilePolarity,Positive*%
%FSLAX46Y46*%
G04 Gerber Fmt 4.6, Leading zero omitted, Abs format (unit mm)*
G04 Created by KiCad (PCBNEW (6.0.5)) date 2022-06-09 17:00:53*
%MOMM*%
%LPD*%
G01*
G04 APERTURE LIST*
%ADD10C,0.120000*%
%ADD11C,0.150000*%
G04 APERTURE END LIST*
D10*
%TO.C,C7*%
X51485000Y-24400000D02*
X51485000Y-22090000D01*
X49915000Y-22090000D02*
X49915000Y-24400000D01*
X51485000Y-22090000D02*
X49915000Y-22090000D01*
%TO.C,U2*%
X41415000Y-21390000D02*
X40690000Y-21390000D01*
X44185000Y-25610000D02*
X44910000Y-25610000D01*
X40690000Y-25610000D02*
X40690000Y-24885000D01*
X44910000Y-25610000D02*
X44910000Y-24885000D01*
X41415000Y-25610000D02*
X40690000Y-25610000D01*
X44185000Y-21390000D02*
X44910000Y-21390000D01*
X44910000Y-21390000D02*
X44910000Y-22115000D01*
%TO.C,U3*%
X46990000Y-22690000D02*
X46590000Y-22690000D01*
X46590000Y-22690000D02*
X46590000Y-22915000D01*
X48810000Y-22690000D02*
X48810000Y-22915000D01*
X46590000Y-24910000D02*
X46590000Y-24685000D01*
X48410000Y-24910000D02*
X48810000Y-24910000D01*
X48410000Y-22690000D02*
X48810000Y-22690000D01*
X46990000Y-24910000D02*
X46590000Y-24910000D01*
%TO.C,U1*%
X37700000Y-21160000D02*
X36900000Y-21160000D01*
X37700000Y-18040000D02*
X35900000Y-18040000D01*
X37700000Y-18040000D02*
X38500000Y-18040000D01*
X37700000Y-21160000D02*
X38500000Y-21160000D01*
%TO.C,R9*%
X42146359Y-26420000D02*
X42453641Y-26420000D01*
X42146359Y-27180000D02*
X42453641Y-27180000D01*
%TO.C,R8*%
X44453641Y-27180000D02*
X44146359Y-27180000D01*
X44453641Y-26420000D02*
X44146359Y-26420000D01*
%TO.C,R7*%
X51920000Y-20753641D02*
X51920000Y-20446359D01*
X52680000Y-20753641D02*
X52680000Y-20446359D01*
%TO.C,R6*%
X56420000Y-18853641D02*
X56420000Y-18546359D01*
X57180000Y-18853641D02*
X57180000Y-18546359D01*
%TO.C,R5*%
X55520000Y-23253641D02*
X55520000Y-22946359D01*
X56280000Y-23253641D02*
X56280000Y-22946359D01*
%TO.C,R4*%
X28080000Y-23436359D02*
X28080000Y-23743641D01*
X27320000Y-23436359D02*
X27320000Y-23743641D01*
%TO.C,R3*%
X29180000Y-22346359D02*
X29180000Y-22653641D01*
X28420000Y-22346359D02*
X28420000Y-22653641D01*
%TO.C,R2*%
X25880000Y-23446359D02*
X25880000Y-23753641D01*
X25120000Y-23446359D02*
X25120000Y-23753641D01*
%TO.C,R1*%
X26980000Y-22346359D02*
X26980000Y-22653641D01*
X26220000Y-22346359D02*
X26220000Y-22653641D01*
%TO.C,Q3*%
X49900000Y-21070000D02*
X49250000Y-21070000D01*
X49900000Y-17950000D02*
X49250000Y-17950000D01*
X49900000Y-21070000D02*
X51575000Y-21070000D01*
X49900000Y-17950000D02*
X50550000Y-17950000D01*
%TO.C,Q2*%
X52940000Y-19700000D02*
X52940000Y-19050000D01*
X56060000Y-19700000D02*
X56060000Y-19050000D01*
X52940000Y-19700000D02*
X52940000Y-21375000D01*
X56060000Y-19700000D02*
X56060000Y-20350000D01*
%TO.C,Q1*%
X52040000Y-24000000D02*
X52040000Y-23350000D01*
X55160000Y-24000000D02*
X55160000Y-23350000D01*
X52040000Y-24000000D02*
X52040000Y-25675000D01*
X55160000Y-24000000D02*
X55160000Y-24650000D01*
%TO.C,J1*%
X23910000Y-26410000D02*
X23910000Y-26030000D01*
X22140000Y-18790000D02*
X23910000Y-18790000D01*
X23910000Y-26410000D02*
X22140000Y-26410000D01*
X23910000Y-18790000D02*
X23910000Y-19170000D01*
X19860000Y-26410000D02*
X19600000Y-26410000D01*
X19600000Y-18790000D02*
X19860000Y-18790000D01*
D11*
%TO.C,D2*%
X61000000Y-19300000D02*
X61000000Y-24700000D01*
X58000000Y-19300000D02*
X58000000Y-24800000D01*
X59000000Y-24800000D02*
X58000000Y-24800000D01*
D10*
%TO.C,D1*%
X33400000Y-17940000D02*
X34050000Y-17940000D01*
X33400000Y-21060000D02*
X34050000Y-21060000D01*
X33400000Y-17940000D02*
X31725000Y-17940000D01*
X33400000Y-21060000D02*
X32750000Y-21060000D01*
%TO.C,C6*%
X43560000Y-18907836D02*
X43560000Y-18692164D01*
X42840000Y-18907836D02*
X42840000Y-18692164D01*
%TO.C,C5*%
X42460000Y-19907836D02*
X42460000Y-19692164D01*
X41740000Y-19907836D02*
X41740000Y-19692164D01*
%TO.C,C4*%
X47592164Y-22360000D02*
X47807836Y-22360000D01*
X47592164Y-21640000D02*
X47807836Y-21640000D01*
%TO.C,C3*%
X43815000Y-18500000D02*
X43815000Y-20810000D01*
X45385000Y-20810000D02*
X45385000Y-18500000D01*
X43815000Y-20810000D02*
X45385000Y-20810000D01*
%TO.C,C2*%
X39915000Y-18500000D02*
X39915000Y-20810000D01*
X41485000Y-20810000D02*
X41485000Y-18500000D01*
X39915000Y-20810000D02*
X41485000Y-20810000D01*
%TO.C,C1*%
X38100000Y-21515000D02*
X35790000Y-21515000D01*
X35790000Y-23085000D02*
X38100000Y-23085000D01*
X35790000Y-21515000D02*
X35790000Y-23085000D01*
%TO.C,BT1*%
X29500000Y-18270000D02*
X30830000Y-18270000D01*
X25630000Y-18270000D02*
X25630000Y-20930000D01*
X28230000Y-18270000D02*
X25630000Y-18270000D01*
X28230000Y-18270000D02*
X28230000Y-20930000D01*
X30830000Y-18270000D02*
X30830000Y-19600000D01*
X28230000Y-20930000D02*
X25630000Y-20930000D01*
%TD*%
M02*
